<?xml version="1.0" encoding="UTF-8" standalone="no"?>
<?xml-stylesheet href="zcash-dag.css" type="text/css"?>
<!DOCTYPE svg PUBLIC "-//W3C//DTD SVG 1.1//EN"
 "http://www.w3.org/Graphics/SVG/1.1/DTD/svg11.dtd">
<!-- Generated by graphviz version 2.43.0 (0)
 -->
<!-- Pages: 1 -->
<svg width="1865pt" height="2404pt"
 viewBox="0.00 0.00 1865.00 2403.50" xmlns="http://www.w3.org/2000/svg" xmlns:xlink="http://www.w3.org/1999/xlink">
<g id="graph0" class="graph" transform="scale(1 1) rotate(0) translate(4 2399.5)">
<polygon fill="white" stroke="transparent" points="-4,4 -4,-2399.5 1861,-2399.5 1861,4 -4,4"/>
<g id="clust1" class="cluster">
<title>cluster_4</title>
<polygon fill="none" stroke="blue" points="8,-1273 8,-1350 335,-1350 335,-1273 8,-1273"/>
<text text-anchor="middle" x="171.5" y="-1334.8" font-family="Times,serif" font-size="14.00">Orchard in Mobile SDKs</text>
</g>
<g id="clust2" class="cluster">
<title>cluster_1</title>
<polygon fill="none" stroke="blue" points="42,-611 42,-718 1849,-718 1849,-611 42,-611"/>
<text text-anchor="middle" x="945.5" y="-702.8" font-family="Times,serif" font-size="14.00">Request ZEC Flow</text>
</g>
<g id="clust3" class="cluster">
<title>cluster_0</title>
<polygon fill="none" stroke="blue" points="54,-439 54,-603 637.5,-603 637.5,-439 54,-439"/>
<text text-anchor="middle" x="345.75" y="-587.8" font-family="Times,serif" font-size="14.00">Secant iOS v1.0.0</text>
</g>
<g id="clust4" class="cluster">
<title>cluster_3</title>
<polygon fill="none" stroke="blue" points="37.5,-913 37.5,-1265 654,-1265 654,-913 37.5,-913"/>
<text text-anchor="middle" x="345.75" y="-1249.8" font-family="Times,serif" font-size="14.00">SDK 2.0 Post&#45;Release Cleanup</text>
</g>
<g id="clust5" class="cluster">
<title>cluster_2</title>
<polygon fill="none" stroke="blue" points="8,-726 8,-905 1603,-905 1603,-726 8,-726"/>
<text text-anchor="middle" x="805.5" y="-889.8" font-family="Times,serif" font-size="14.00">Spend&#45;before&#45;Sync</text>
</g>
<g id="clust6" class="cluster">
<title>cluster_6</title>
<polygon fill="none" stroke="blue" points="359.5,-8 359.5,-431 680.5,-431 680.5,-8 359.5,-8"/>
<text text-anchor="middle" x="520" y="-415.8" font-family="Times,serif" font-size="14.00">Blocking TODOs, Enhancements and Fixes</text>
</g>
<g id="clust7" class="cluster">
<title>cluster_5</title>
<polygon fill="none" stroke="blue" points="8,-1358 8,-1451 335,-1451 335,-1358 8,-1358"/>
<text text-anchor="middle" x="171.5" y="-1435.8" font-family="Times,serif" font-size="14.00">UniFFI</text>
</g>
<g id="clust8" class="cluster">
<title>cluster_7</title>
<polygon fill="none" stroke="blue" points="54,-1459 54,-1807 289,-1807 289,-1459 54,-1459"/>
<text text-anchor="middle" x="171.5" y="-1791.8" font-family="Times,serif" font-size="14.00">Core BTS UI Improvements</text>
</g>
<g id="clust9" class="cluster">
<title>cluster_8</title>
<polygon fill="none" stroke="blue" points="0,0 0,-2395.5 1857,-2395.5 1857,0 0,0"/>
<text text-anchor="middle" x="928.5" y="-2380.3" font-family="Times,serif" font-size="14.00">Add Orchard Support</text>
</g>
<g id="clust10" class="cluster">
<title>cluster_9</title>
<polygon fill="none" stroke="blue" points="37.5,-1815 37.5,-1979 305.5,-1979 305.5,-1815 37.5,-1815"/>
<text text-anchor="middle" x="171.5" y="-1963.8" font-family="Times,serif" font-size="14.00">Pre&#45;DAG sync</text>
</g>
<!-- zcash&#45;hackworks/zcash&#45;light&#45;client&#45;ffi#17 -->
<g id="node1" class="node open">
<title>zcash&#45;hackworks/zcash&#45;light&#45;client&#45;ffi#17</title>
<g id="a_node1"><a xlink:href="https://github.com/zcash-hackworks/zcash-light-client-ffi/issues/17" xlink:title="zcash&#45;hackworks/zcash&#45;light&#45;client&#45;ffi#17&#10;Add Orchard support" target="_blank">
<polygon fill="#c2e0c6" stroke="black" stroke-width="2" points="327,-1319 16,-1319 16,-1281 327,-1281 327,-1319"/>
<text text-anchor="middle" x="171.5" y="-1303.8" font-family="Times,serif" font-size="14.00">zcash&#45;hackworks/zcash&#45;light&#45;client&#45;ffi#17</text>
<text text-anchor="middle" x="171.5" y="-1288.8" font-family="Times,serif" font-size="14.00">Add Orchard support</text>
</a>
</g>
</g>
<!-- zcash/secant&#45;ios&#45;wallet#93 -->
<g id="node2" class="node open">
<title>zcash/secant&#45;ios&#45;wallet#93</title>
<g id="a_node2"><a xlink:href="https://github.com/zcash/secant-ios-wallet/issues/93" xlink:title="zcash/secant&#45;ios&#45;wallet#93&#10;[Functional] Request ZEC&#10;Screen" target="_blank">
<polygon fill="#c2e0c6" stroke="black" points="1256.5,-679.5 1046.5,-679.5 1046.5,-626.5 1256.5,-626.5 1256.5,-679.5"/>
<text text-anchor="middle" x="1151.5" y="-664.3" font-family="Times,serif" font-size="14.00">zcash/secant&#45;ios&#45;wallet#93</text>
<text text-anchor="middle" x="1151.5" y="-649.3" font-family="Times,serif" font-size="14.00">[Functional] Request ZEC</text>
<text text-anchor="middle" x="1151.5" y="-634.3" font-family="Times,serif" font-size="14.00">Screen</text>
</a>
</g>
</g>
<!-- zcash/secant&#45;ios&#45;wallet#94 -->
<g id="node3" class="node open">
<title>zcash/secant&#45;ios&#45;wallet#94</title>
<g id="a_node3"><a xlink:href="https://github.com/zcash/secant-ios-wallet/issues/94" xlink:title="zcash/secant&#45;ios&#45;wallet#94&#10;[Functional] Share ZEC&#10;Request Screen" target="_blank">
<polygon fill="#c2e0c6" stroke="black" points="1574,-679.5 1364,-679.5 1364,-626.5 1574,-626.5 1574,-679.5"/>
<text text-anchor="middle" x="1469" y="-664.3" font-family="Times,serif" font-size="14.00">zcash/secant&#45;ios&#45;wallet#94</text>
<text text-anchor="middle" x="1469" y="-649.3" font-family="Times,serif" font-size="14.00">[Functional] Share ZEC</text>
<text text-anchor="middle" x="1469" y="-634.3" font-family="Times,serif" font-size="14.00">Request Screen</text>
</a>
</g>
</g>
<!-- zcash/secant&#45;ios&#45;wallet#93&#45;&gt;zcash/secant&#45;ios&#45;wallet#94 -->
<g id="edge1" class="edge">
<title>zcash/secant&#45;ios&#45;wallet#93&#45;&gt;zcash/secant&#45;ios&#45;wallet#94</title>
<path fill="none" stroke="black" d="M1256.7,-653C1287.8,-653 1322,-653 1353.7,-653"/>
<polygon fill="black" stroke="black" points="1353.9,-656.5 1363.9,-653 1353.9,-649.5 1353.9,-656.5"/>
</g>
<!-- zcash/secant&#45;ios&#45;wallet#90 -->
<g id="node4" class="node open">
<title>zcash/secant&#45;ios&#45;wallet#90</title>
<g id="a_node4"><a xlink:href="https://github.com/zcash/secant-ios-wallet/issues/90" xlink:title="zcash/secant&#45;ios&#45;wallet#90&#10;Request ZEC Flow" target="_blank">
<polygon fill="#c2e0c6" stroke="black" points="1841,-672 1631,-672 1631,-634 1841,-634 1841,-672"/>
<text text-anchor="middle" x="1736" y="-656.8" font-family="Times,serif" font-size="14.00">zcash/secant&#45;ios&#45;wallet#90</text>
<text text-anchor="middle" x="1736" y="-641.8" font-family="Times,serif" font-size="14.00">Request ZEC Flow</text>
</a>
</g>
</g>
<!-- zcash/secant&#45;ios&#45;wallet#94&#45;&gt;zcash/secant&#45;ios&#45;wallet#90 -->
<g id="edge2" class="edge">
<title>zcash/secant&#45;ios&#45;wallet#94&#45;&gt;zcash/secant&#45;ios&#45;wallet#90</title>
<path fill="none" stroke="black" d="M1574.4,-653C1589.6,-653 1605.3,-653 1620.7,-653"/>
<polygon fill="black" stroke="black" points="1620.7,-656.5 1630.7,-653 1620.7,-649.5 1620.7,-656.5"/>
</g>
<!-- zcash/secant&#45;ios&#45;wallet#109 -->
<g id="node5" class="node open">
<title>zcash/secant&#45;ios&#45;wallet#109</title>
<g id="a_node5"><a xlink:href="https://github.com/zcash/secant-ios-wallet/issues/109" xlink:title="zcash/secant&#45;ios&#45;wallet#109&#10;[Research Spike] ZIP&#45;321&#10;Payment URIs and&#10;deeplinking" target="_blank">
<polygon fill="#c2e0c6" stroke="black" points="629.5,-687 410.5,-687 410.5,-619 629.5,-619 629.5,-687"/>
<text text-anchor="middle" x="520" y="-671.8" font-family="Times,serif" font-size="14.00">zcash/secant&#45;ios&#45;wallet#109</text>
<text text-anchor="middle" x="520" y="-656.8" font-family="Times,serif" font-size="14.00">[Research Spike] ZIP&#45;321</text>
<text text-anchor="middle" x="520" y="-641.8" font-family="Times,serif" font-size="14.00">Payment URIs and</text>
<text text-anchor="middle" x="520" y="-626.8" font-family="Times,serif" font-size="14.00">deeplinking</text>
</a>
</g>
</g>
<!-- zcash/secant&#45;ios&#45;wallet#141 -->
<g id="node6" class="node open">
<title>zcash/secant&#45;ios&#45;wallet#141</title>
<g id="a_node6"><a xlink:href="https://github.com/zcash/secant-ios-wallet/issues/141" xlink:title="zcash/secant&#45;ios&#45;wallet#141&#10;Encode URI in QR Code" target="_blank">
<polygon fill="#c2e0c6" stroke="black" points="943.5,-672 724.5,-672 724.5,-634 943.5,-634 943.5,-672"/>
<text text-anchor="middle" x="834" y="-656.8" font-family="Times,serif" font-size="14.00">zcash/secant&#45;ios&#45;wallet#141</text>
<text text-anchor="middle" x="834" y="-641.8" font-family="Times,serif" font-size="14.00">Encode URI in QR Code</text>
</a>
</g>
</g>
<!-- zcash/secant&#45;ios&#45;wallet#109&#45;&gt;zcash/secant&#45;ios&#45;wallet#141 -->
<g id="edge3" class="edge">
<title>zcash/secant&#45;ios&#45;wallet#109&#45;&gt;zcash/secant&#45;ios&#45;wallet#141</title>
<path fill="none" stroke="black" d="M629.68,-653C657.02,-653 686.49,-653 714.28,-653"/>
<polygon fill="black" stroke="black" points="714.44,-656.5 724.44,-653 714.44,-649.5 714.44,-656.5"/>
</g>
<!-- zcash/secant&#45;ios&#45;wallet#141&#45;&gt;zcash/secant&#45;ios&#45;wallet#93 -->
<g id="edge4" class="edge">
<title>zcash/secant&#45;ios&#45;wallet#141&#45;&gt;zcash/secant&#45;ios&#45;wallet#93</title>
<path fill="none" stroke="black" d="M943.58,-653C973.44,-653 1005.9,-653 1036.1,-653"/>
<polygon fill="black" stroke="black" points="1036.2,-656.5 1046.2,-653 1036.2,-649.5 1036.2,-656.5"/>
</g>
<!-- zcash/ZcashLightClientKit#319 -->
<g id="node7" class="node open">
<title>zcash/ZcashLightClientKit#319</title>
<g id="a_node7"><a xlink:href="https://github.com/zcash/ZcashLightClientKit/issues/319" xlink:title="zcash/ZcashLightClientKit#319&#10;ZIP&#45;321 Request&#10;Generation API" target="_blank">
<polygon fill="#c2e0c6" stroke="black" stroke-width="2" points="293,-679.5 50,-679.5 50,-626.5 293,-626.5 293,-679.5"/>
<text text-anchor="middle" x="171.5" y="-664.3" font-family="Times,serif" font-size="14.00">zcash/ZcashLightClientKit#319</text>
<text text-anchor="middle" x="171.5" y="-649.3" font-family="Times,serif" font-size="14.00">ZIP&#45;321 Request</text>
<text text-anchor="middle" x="171.5" y="-634.3" font-family="Times,serif" font-size="14.00">Generation API</text>
</a>
</g>
</g>
<!-- zcash/ZcashLightClientKit#319&#45;&gt;zcash/secant&#45;ios&#45;wallet#109 -->
<g id="edge5" class="edge">
<title>zcash/ZcashLightClientKit#319&#45;&gt;zcash/secant&#45;ios&#45;wallet#109</title>
<path fill="none" stroke="black" d="M293.2,-653C327.87,-653 365.63,-653 400.18,-653"/>
<polygon fill="black" stroke="black" points="400.31,-656.5 410.31,-653 400.31,-649.5 400.31,-656.5"/>
</g>
<!-- zcash/secant&#45;ios&#45;wallet#372 -->
<g id="node8" class="node open">
<title>zcash/secant&#45;ios&#45;wallet#372</title>
<g id="a_node8"><a xlink:href="https://github.com/zcash/secant-ios-wallet/issues/372" xlink:title="zcash/secant&#45;ios&#45;wallet#372&#10;Blocking TODOs,&#10;Enhancements and Fixes" target="_blank">
<polygon fill="#c2e0c6" stroke="black" stroke-width="2" points="281,-500.5 62,-500.5 62,-447.5 281,-447.5 281,-500.5"/>
<text text-anchor="middle" x="171.5" y="-485.3" font-family="Times,serif" font-size="14.00">zcash/secant&#45;ios&#45;wallet#372</text>
<text text-anchor="middle" x="171.5" y="-470.3" font-family="Times,serif" font-size="14.00">Blocking TODOs,</text>
<text text-anchor="middle" x="171.5" y="-455.3" font-family="Times,serif" font-size="14.00">Enhancements and Fixes</text>
</a>
</g>
</g>
<!-- zcash/secant&#45;ios&#45;wallet#303 -->
<g id="node9" class="node open">
<title>zcash/secant&#45;ios&#45;wallet#303</title>
<g id="a_node9"><a xlink:href="https://github.com/zcash/secant-ios-wallet/issues/303" xlink:title="zcash/secant&#45;ios&#45;wallet#303&#10;Release &#45; v1.0.0" target="_blank">
<polygon fill="#c2e0c6" stroke="black" points="629.5,-528 410.5,-528 410.5,-490 629.5,-490 629.5,-528"/>
<text text-anchor="middle" x="520" y="-512.8" font-family="Times,serif" font-size="14.00">zcash/secant&#45;ios&#45;wallet#303</text>
<text text-anchor="middle" x="520" y="-497.8" font-family="Times,serif" font-size="14.00">Release &#45; v1.0.0</text>
</a>
</g>
</g>
<!-- zcash/secant&#45;ios&#45;wallet#372&#45;&gt;zcash/secant&#45;ios&#45;wallet#303 -->
<g id="edge6" class="edge">
<title>zcash/secant&#45;ios&#45;wallet#372&#45;&gt;zcash/secant&#45;ios&#45;wallet#303</title>
<path fill="none" stroke="black" d="M281.18,-484.98C318.99,-488.8 361.58,-493.1 400.16,-497"/>
<polygon fill="black" stroke="black" points="400.1,-500.51 410.4,-498.03 400.8,-493.55 400.1,-500.51"/>
</g>
<!-- zcash/secant&#45;ios&#45;wallet#322 -->
<g id="node22" class="node open">
<title>zcash/secant&#45;ios&#45;wallet#322</title>
<g id="a_node22"><a xlink:href="https://github.com/zcash/secant-ios-wallet/issues/322" xlink:title="zcash/secant&#45;ios&#45;wallet#322&#10;Handle&#10;WrappedCaptureDeviceError&#10;in the ScanReducer" target="_blank">
<polygon fill="#c2e0c6" stroke="black" points="632.5,-400 407.5,-400 407.5,-332 632.5,-332 632.5,-400"/>
<text text-anchor="middle" x="520" y="-384.8" font-family="Times,serif" font-size="14.00">zcash/secant&#45;ios&#45;wallet#322</text>
<text text-anchor="middle" x="520" y="-369.8" font-family="Times,serif" font-size="14.00">Handle</text>
<text text-anchor="middle" x="520" y="-354.8" font-family="Times,serif" font-size="14.00">WrappedCaptureDeviceError</text>
<text text-anchor="middle" x="520" y="-339.8" font-family="Times,serif" font-size="14.00">in the ScanReducer</text>
</a>
</g>
</g>
<!-- zcash/secant&#45;ios&#45;wallet#372&#45;&gt;zcash/secant&#45;ios&#45;wallet#322 -->
<g id="edge17" class="edge">
<title>zcash/secant&#45;ios&#45;wallet#372&#45;&gt;zcash/secant&#45;ios&#45;wallet#322</title>
<path fill="none" stroke="black" d="M257.71,-447.44C300.64,-434.06 353.39,-417.62 400.23,-403.02"/>
<polygon fill="black" stroke="black" points="401.32,-406.35 409.82,-400.03 399.23,-399.67 401.32,-406.35"/>
</g>
<!-- zcash/secant&#45;ios&#45;wallet#380 -->
<g id="node35" class="node closed">
<title>zcash/secant&#45;ios&#45;wallet#380</title>
<g id="a_node35"><a xlink:href="https://github.com/zcash/secant-ios-wallet/issues/380" xlink:title="zcash/secant&#45;ios&#45;wallet#380&#10;Release v1.1.0" target="_blank">
<polygon fill="#fad8c7" stroke="black" points="943.5,-528 724.5,-528 724.5,-490 943.5,-490 943.5,-528"/>
<text text-anchor="middle" x="834" y="-512.8" font-family="Times,serif" font-size="14.00">zcash/secant&#45;ios&#45;wallet#380</text>
<text text-anchor="middle" x="834" y="-497.8" font-family="Times,serif" font-size="14.00">Release v1.1.0</text>
</a>
</g>
</g>
<!-- zcash/secant&#45;ios&#45;wallet#303&#45;&gt;zcash/secant&#45;ios&#45;wallet#380 -->
<g id="edge18" class="edge">
<title>zcash/secant&#45;ios&#45;wallet#303&#45;&gt;zcash/secant&#45;ios&#45;wallet#380</title>
<path fill="none" stroke="black" d="M629.68,-509C657.02,-509 686.49,-509 714.28,-509"/>
<polygon fill="black" stroke="black" points="714.44,-512.5 724.44,-509 714.44,-505.5 714.44,-512.5"/>
</g>
<!-- zcash/secant&#45;ios&#45;wallet#233 -->
<g id="node10" class="node open">
<title>zcash/secant&#45;ios&#45;wallet#233</title>
<g id="a_node10"><a xlink:href="https://github.com/zcash/secant-ios-wallet/issues/233" xlink:title="zcash/secant&#45;ios&#45;wallet#233&#10;Localization and&#10;Accessibility" target="_blank">
<polygon fill="#c2e0c6" stroke="black" stroke-width="2" points="281,-571.5 62,-571.5 62,-518.5 281,-518.5 281,-571.5"/>
<text text-anchor="middle" x="171.5" y="-556.3" font-family="Times,serif" font-size="14.00">zcash/secant&#45;ios&#45;wallet#233</text>
<text text-anchor="middle" x="171.5" y="-541.3" font-family="Times,serif" font-size="14.00">Localization and</text>
<text text-anchor="middle" x="171.5" y="-526.3" font-family="Times,serif" font-size="14.00">Accessibility</text>
</a>
</g>
</g>
<!-- zcash/secant&#45;ios&#45;wallet#233&#45;&gt;zcash/secant&#45;ios&#45;wallet#303 -->
<g id="edge7" class="edge">
<title>zcash/secant&#45;ios&#45;wallet#233&#45;&gt;zcash/secant&#45;ios&#45;wallet#303</title>
<path fill="none" stroke="black" d="M281.18,-533.71C318.99,-529.78 361.58,-525.36 400.16,-521.35"/>
<polygon fill="black" stroke="black" points="400.82,-524.8 410.4,-520.28 400.09,-517.84 400.82,-524.8"/>
</g>
<!-- zcash/ZcashLightClientKit#1217 -->
<g id="node11" class="node open">
<title>zcash/ZcashLightClientKit#1217</title>
<g id="a_node11"><a xlink:href="https://github.com/zcash/ZcashLightClientKit/issues/1217" xlink:title="zcash/ZcashLightClientKit#1217&#10;Scan historic range in&#10;reverse order" target="_blank">
<polygon fill="#c2e0c6" stroke="black" stroke-width="2" points="297.5,-1233.5 45.5,-1233.5 45.5,-1180.5 297.5,-1180.5 297.5,-1233.5"/>
<text text-anchor="middle" x="171.5" y="-1218.3" font-family="Times,serif" font-size="14.00">zcash/ZcashLightClientKit#1217</text>
<text text-anchor="middle" x="171.5" y="-1203.3" font-family="Times,serif" font-size="14.00">Scan historic range in</text>
<text text-anchor="middle" x="171.5" y="-1188.3" font-family="Times,serif" font-size="14.00">reverse order</text>
</a>
</g>
</g>
<!-- zcash/ZcashLightClientKit#1218 -->
<g id="node12" class="node open">
<title>zcash/ZcashLightClientKit#1218</title>
<g id="a_node12"><a xlink:href="https://github.com/zcash/ZcashLightClientKit/issues/1218" xlink:title="zcash/ZcashLightClientKit#1218&#10;Post&#45;Spend&#45;before&#45;Sync&#10;cleanups" target="_blank">
<polygon fill="#c2e0c6" stroke="black" points="646,-1137.5 394,-1137.5 394,-1084.5 646,-1084.5 646,-1137.5"/>
<text text-anchor="middle" x="520" y="-1122.3" font-family="Times,serif" font-size="14.00">zcash/ZcashLightClientKit#1218</text>
<text text-anchor="middle" x="520" y="-1107.3" font-family="Times,serif" font-size="14.00">Post&#45;Spend&#45;before&#45;Sync</text>
<text text-anchor="middle" x="520" y="-1092.3" font-family="Times,serif" font-size="14.00">cleanups</text>
</a>
</g>
</g>
<!-- zcash/ZcashLightClientKit#1217&#45;&gt;zcash/ZcashLightClientKit#1218 -->
<g id="edge8" class="edge">
<title>zcash/ZcashLightClientKit#1217&#45;&gt;zcash/ZcashLightClientKit#1218</title>
<path fill="none" stroke="black" d="M297.89,-1180.5C310.47,-1177.5 323.01,-1174.3 335,-1171 367.32,-1162.2 402.37,-1151.1 433.13,-1140.9"/>
<polygon fill="black" stroke="black" points="434.59,-1144.1 442.96,-1137.6 432.37,-1137.46 434.59,-1144.1"/>
</g>
<!-- zcash/ZcashLightClientKit#298 -->
<g id="node13" class="node open">
<title>zcash/ZcashLightClientKit#298</title>
<g id="a_node13"><a xlink:href="https://github.com/zcash/ZcashLightClientKit/issues/298" xlink:title="zcash/ZcashLightClientKit#298&#10;Make BalanceTests pass" target="_blank">
<polygon fill="#c2e0c6" stroke="black" stroke-width="2" points="293,-1162 50,-1162 50,-1124 293,-1124 293,-1162"/>
<text text-anchor="middle" x="171.5" y="-1146.8" font-family="Times,serif" font-size="14.00">zcash/ZcashLightClientKit#298</text>
<text text-anchor="middle" x="171.5" y="-1131.8" font-family="Times,serif" font-size="14.00">Make BalanceTests pass</text>
</a>
</g>
</g>
<!-- zcash/ZcashLightClientKit#298&#45;&gt;zcash/ZcashLightClientKit#1218 -->
<g id="edge9" class="edge">
<title>zcash/ZcashLightClientKit#298&#45;&gt;zcash/ZcashLightClientKit#1218</title>
<path fill="none" stroke="black" d="M293.2,-1131.9C322.42,-1129.2 353.84,-1126.3 383.68,-1123.5"/>
<polygon fill="black" stroke="black" points="384.08,-1126.98 393.73,-1122.6 383.46,-1120.01 384.08,-1126.98"/>
</g>
<!-- zcash/ZcashLightClientKit#1225 -->
<g id="node14" class="node open">
<title>zcash/ZcashLightClientKit#1225</title>
<g id="a_node14"><a xlink:href="https://github.com/zcash/ZcashLightClientKit/issues/1225" xlink:title="zcash/ZcashLightClientKit#1225&#10;Add more tests to the&#10;ScanActionTests" target="_blank">
<polygon fill="#c2e0c6" stroke="black" stroke-width="2" points="297.5,-1105.5 45.5,-1105.5 45.5,-1052.5 297.5,-1052.5 297.5,-1105.5"/>
<text text-anchor="middle" x="171.5" y="-1090.3" font-family="Times,serif" font-size="14.00">zcash/ZcashLightClientKit#1225</text>
<text text-anchor="middle" x="171.5" y="-1075.3" font-family="Times,serif" font-size="14.00">Add more tests to the</text>
<text text-anchor="middle" x="171.5" y="-1060.3" font-family="Times,serif" font-size="14.00">ScanActionTests</text>
</a>
</g>
</g>
<!-- zcash/ZcashLightClientKit#1225&#45;&gt;zcash/ZcashLightClientKit#1218 -->
<g id="edge10" class="edge">
<title>zcash/ZcashLightClientKit#1225&#45;&gt;zcash/ZcashLightClientKit#1218</title>
<path fill="none" stroke="black" d="M297.59,-1090.6C325.6,-1093.1 355.43,-1095.9 383.82,-1098.5"/>
<polygon fill="black" stroke="black" points="383.53,-1101.99 393.8,-1099.4 384.15,-1095.02 383.53,-1101.99"/>
</g>
<!-- zcash/ZcashLightClientKit#1226 -->
<g id="node15" class="node open">
<title>zcash/ZcashLightClientKit#1226</title>
<g id="a_node15"><a xlink:href="https://github.com/zcash/ZcashLightClientKit/issues/1226" xlink:title="zcash/ZcashLightClientKit#1226&#10;Remove&#10;TransactionRepository&#10;dependency from Enhance,&#10;Download and&#10;MigrateLegacyCacheDB&#10;actions" target="_blank">
<polygon fill="#c2e0c6" stroke="black" stroke-width="2" points="297.5,-1034.5 45.5,-1034.5 45.5,-921.5 297.5,-921.5 297.5,-1034.5"/>
<text text-anchor="middle" x="171.5" y="-1019.3" font-family="Times,serif" font-size="14.00">zcash/ZcashLightClientKit#1226</text>
<text text-anchor="middle" x="171.5" y="-1004.3" font-family="Times,serif" font-size="14.00">Remove</text>
<text text-anchor="middle" x="171.5" y="-989.3" font-family="Times,serif" font-size="14.00">TransactionRepository</text>
<text text-anchor="middle" x="171.5" y="-974.3" font-family="Times,serif" font-size="14.00">dependency from Enhance,</text>
<text text-anchor="middle" x="171.5" y="-959.3" font-family="Times,serif" font-size="14.00">Download and</text>
<text text-anchor="middle" x="171.5" y="-944.3" font-family="Times,serif" font-size="14.00">MigrateLegacyCacheDB</text>
<text text-anchor="middle" x="171.5" y="-929.3" font-family="Times,serif" font-size="14.00">actions</text>
</a>
</g>
</g>
<!-- zcash/ZcashLightClientKit#1226&#45;&gt;zcash/ZcashLightClientKit#1218 -->
<g id="edge11" class="edge">
<title>zcash/ZcashLightClientKit#1226&#45;&gt;zcash/ZcashLightClientKit#1218</title>
<path fill="none" stroke="black" d="M297.59,-1026C345.17,-1044.3 398.01,-1064.6 440.14,-1080.7"/>
<polygon fill="black" stroke="black" points="438.92,-1083.98 449.51,-1084.3 441.43,-1077.45 438.92,-1083.98"/>
</g>
<!-- zcash/ZcashLightClientKit#1164 -->
<g id="node16" class="node open">
<title>zcash/ZcashLightClientKit#1164</title>
<g id="a_node16"><a xlink:href="https://github.com/zcash/ZcashLightClientKit/issues/1164" xlink:title="zcash/ZcashLightClientKit#1164&#10;ZcashLightClientKit&#10;v2.0.0&#45;rc1" target="_blank">
<polygon fill="#c2e0c6" stroke="black" stroke-width="2" points="960,-794.5 708,-794.5 708,-741.5 960,-741.5 960,-794.5"/>
<text text-anchor="middle" x="834" y="-779.3" font-family="Times,serif" font-size="14.00">zcash/ZcashLightClientKit#1164</text>
<text text-anchor="middle" x="834" y="-764.3" font-family="Times,serif" font-size="14.00">ZcashLightClientKit</text>
<text text-anchor="middle" x="834" y="-749.3" font-family="Times,serif" font-size="14.00">v2.0.0&#45;rc1</text>
</a>
</g>
</g>
<!-- zcash/ZcashLightClientKit#1219 -->
<g id="node17" class="node open">
<title>zcash/ZcashLightClientKit#1219</title>
<g id="a_node17"><a xlink:href="https://github.com/zcash/ZcashLightClientKit/issues/1219" xlink:title="zcash/ZcashLightClientKit#1219&#10;ZcashLightClientKit&#10;v2.0.0 zashi acceptance&#10;testing" target="_blank">
<polygon fill="#c2e0c6" stroke="black" points="1277.5,-802 1025.5,-802 1025.5,-734 1277.5,-734 1277.5,-802"/>
<text text-anchor="middle" x="1151.5" y="-786.8" font-family="Times,serif" font-size="14.00">zcash/ZcashLightClientKit#1219</text>
<text text-anchor="middle" x="1151.5" y="-771.8" font-family="Times,serif" font-size="14.00">ZcashLightClientKit</text>
<text text-anchor="middle" x="1151.5" y="-756.8" font-family="Times,serif" font-size="14.00">v2.0.0 zashi acceptance</text>
<text text-anchor="middle" x="1151.5" y="-741.8" font-family="Times,serif" font-size="14.00">testing</text>
</a>
</g>
</g>
<!-- zcash/ZcashLightClientKit#1164&#45;&gt;zcash/ZcashLightClientKit#1219 -->
<g id="edge12" class="edge">
<title>zcash/ZcashLightClientKit#1164&#45;&gt;zcash/ZcashLightClientKit#1219</title>
<path fill="none" stroke="black" d="M960.15,-768C978.22,-768 996.89,-768 1015.1,-768"/>
<polygon fill="black" stroke="black" points="1015.2,-771.5 1025.2,-768 1015.2,-764.5 1015.2,-771.5"/>
</g>
<!-- zcash/ZcashLightClientKit#1220 -->
<g id="node18" class="node open">
<title>zcash/ZcashLightClientKit#1220</title>
<g id="a_node18"><a xlink:href="https://github.com/zcash/ZcashLightClientKit/issues/1220" xlink:title="zcash/ZcashLightClientKit#1220&#10;ZcashLightClientKit&#10;v2.0.0" target="_blank">
<polygon fill="#c2e0c6" stroke="black" points="1595,-833.5 1343,-833.5 1343,-780.5 1595,-780.5 1595,-833.5"/>
<text text-anchor="middle" x="1469" y="-818.3" font-family="Times,serif" font-size="14.00">zcash/ZcashLightClientKit#1220</text>
<text text-anchor="middle" x="1469" y="-803.3" font-family="Times,serif" font-size="14.00">ZcashLightClientKit</text>
<text text-anchor="middle" x="1469" y="-788.3" font-family="Times,serif" font-size="14.00">v2.0.0</text>
</a>
</g>
</g>
<!-- zcash/ZcashLightClientKit#1219&#45;&gt;zcash/ZcashLightClientKit#1220 -->
<g id="edge13" class="edge">
<title>zcash/ZcashLightClientKit#1219&#45;&gt;zcash/ZcashLightClientKit#1220</title>
<path fill="none" stroke="black" d="M1277.6,-783.47C1295.7,-785.7 1314.4,-788.01 1332.6,-790.27"/>
<polygon fill="black" stroke="black" points="1332.35,-793.77 1342.7,-791.52 1333.21,-786.82 1332.35,-793.77"/>
</g>
<!-- zcash&#45;hackworks/zcash&#45;light&#45;client&#45;ffi#29 -->
<g id="node19" class="node open">
<title>zcash&#45;hackworks/zcash&#45;light&#45;client&#45;ffi#29</title>
<g id="a_node19"><a xlink:href="https://github.com/zcash-hackworks/zcash-light-client-ffi/issues/29" xlink:title="zcash&#45;hackworks/zcash&#45;light&#45;client&#45;ffi#29&#10;zcash&#45;light&#45;client&#45;ffi&#10;v0.4.0" target="_blank">
<polygon fill="#c2e0c6" stroke="black" stroke-width="2" points="1307,-873.5 996,-873.5 996,-820.5 1307,-820.5 1307,-873.5"/>
<text text-anchor="middle" x="1151.5" y="-858.3" font-family="Times,serif" font-size="14.00">zcash&#45;hackworks/zcash&#45;light&#45;client&#45;ffi#29</text>
<text text-anchor="middle" x="1151.5" y="-843.3" font-family="Times,serif" font-size="14.00">zcash&#45;light&#45;client&#45;ffi</text>
<text text-anchor="middle" x="1151.5" y="-828.3" font-family="Times,serif" font-size="14.00">v0.4.0</text>
</a>
</g>
</g>
<!-- zcash&#45;hackworks/zcash&#45;light&#45;client&#45;ffi#29&#45;&gt;zcash/ZcashLightClientKit#1220 -->
<g id="edge14" class="edge">
<title>zcash&#45;hackworks/zcash&#45;light&#45;client&#45;ffi#29&#45;&gt;zcash/ZcashLightClientKit#1220</title>
<path fill="none" stroke="black" d="M1307,-827.41C1315.7,-826.31 1324.3,-825.22 1332.9,-824.13"/>
<polygon fill="black" stroke="black" points="1333.42,-827.59 1342.9,-822.86 1332.54,-820.65 1333.42,-827.59"/>
</g>
<!-- zcash&#45;hackworks/zcash&#45;light&#45;client&#45;ffi#98 -->
<g id="node20" class="node open">
<title>zcash&#45;hackworks/zcash&#45;light&#45;client&#45;ffi#98</title>
<g id="a_node20"><a xlink:href="https://github.com/zcash-hackworks/zcash-light-client-ffi/pull/98" xlink:title="zcash&#45;hackworks/zcash&#45;light&#45;client&#45;ffi#98&#10;Fix checkpoint depth bug" target="_blank">
<polygon fill="#c2e0c6" stroke="black" stroke-width="2" points="327,-787 16,-787 16,-783 12,-783 12,-779 16,-779 16,-757 12,-757 12,-753 16,-753 16,-749 327,-749 327,-787"/>
<polyline fill="none" stroke="black" stroke-width="2" points="16,-783 20,-783 20,-779 16,-779 "/>
<polyline fill="none" stroke="black" stroke-width="2" points="16,-757 20,-757 20,-753 16,-753 "/>
<text text-anchor="middle" x="171.5" y="-771.8" font-family="Times,serif" font-size="14.00">zcash&#45;hackworks/zcash&#45;light&#45;client&#45;ffi#98</text>
<text text-anchor="middle" x="171.5" y="-756.8" font-family="Times,serif" font-size="14.00">Fix checkpoint depth bug</text>
</a>
</g>
</g>
<!-- zcash/ZcashLightClientKit#1246 -->
<g id="node21" class="node closed">
<title>zcash/ZcashLightClientKit#1246</title>
<g id="a_node21"><a xlink:href="https://github.com/zcash/ZcashLightClientKit/pull/1246" xlink:title="zcash/ZcashLightClientKit#1246&#10;Update zcash&#45;light&#45;&#10;client&#45;ffi dependency for&#10;release candidate prep." target="_blank">
<polygon fill="#fad8c7" stroke="black" points="646,-802 394,-802 394,-798 390,-798 390,-794 394,-794 394,-742 390,-742 390,-738 394,-738 394,-734 646,-734 646,-802"/>
<polyline fill="none" stroke="black" points="394,-798 398,-798 398,-794 394,-794 "/>
<polyline fill="none" stroke="black" points="394,-742 398,-742 398,-738 394,-738 "/>
<text text-anchor="middle" x="520" y="-786.8" font-family="Times,serif" font-size="14.00">zcash/ZcashLightClientKit#1246</text>
<text text-anchor="middle" x="520" y="-771.8" font-family="Times,serif" font-size="14.00">Update zcash&#45;light&#45;</text>
<text text-anchor="middle" x="520" y="-756.8" font-family="Times,serif" font-size="14.00">client&#45;ffi dependency for</text>
<text text-anchor="middle" x="520" y="-741.8" font-family="Times,serif" font-size="14.00">release candidate prep.</text>
</a>
</g>
</g>
<!-- zcash&#45;hackworks/zcash&#45;light&#45;client&#45;ffi#98&#45;&gt;zcash/ZcashLightClientKit#1246 -->
<g id="edge15" class="edge">
<title>zcash&#45;hackworks/zcash&#45;light&#45;client&#45;ffi#98&#45;&gt;zcash/ZcashLightClientKit#1246</title>
<path fill="none" stroke="black" d="M327,-768C345.88,-768 365.07,-768 383.64,-768"/>
<polygon fill="black" stroke="black" points="383.89,-771.5 393.89,-768 383.89,-764.5 383.89,-771.5"/>
</g>
<!-- zcash/ZcashLightClientKit#1246&#45;&gt;zcash/ZcashLightClientKit#1164 -->
<g id="edge16" class="edge">
<title>zcash/ZcashLightClientKit#1246&#45;&gt;zcash/ZcashLightClientKit#1164</title>
<path fill="none" stroke="black" d="M646.1,-768C663.11,-768 680.63,-768 697.8,-768"/>
<polygon fill="black" stroke="black" points="697.87,-771.5 707.87,-768 697.87,-764.5 697.87,-771.5"/>
</g>
<!-- zcash/secant&#45;ios&#45;wallet#497 -->
<g id="node23" class="node open">
<title>zcash/secant&#45;ios&#45;wallet#497</title>
<g id="a_node23"><a xlink:href="https://github.com/zcash/secant-ios-wallet/issues/497" xlink:title="zcash/secant&#45;ios&#45;wallet#497&#10;Get rid of stateChanged&#10;subject from&#10;SDKSynchronizerClient" target="_blank">
<polygon fill="#c2e0c6" stroke="black" stroke-width="2" points="629.5,-314 410.5,-314 410.5,-246 629.5,-246 629.5,-314"/>
<text text-anchor="middle" x="520" y="-298.8" font-family="Times,serif" font-size="14.00">zcash/secant&#45;ios&#45;wallet#497</text>
<text text-anchor="middle" x="520" y="-283.8" font-family="Times,serif" font-size="14.00">Get rid of stateChanged</text>
<text text-anchor="middle" x="520" y="-268.8" font-family="Times,serif" font-size="14.00">subject from</text>
<text text-anchor="middle" x="520" y="-253.8" font-family="Times,serif" font-size="14.00">SDKSynchronizerClient</text>
</a>
</g>
</g>
<!-- zcash/secant&#45;ios&#45;wallet#219 -->
<g id="node24" class="node open">
<title>zcash/secant&#45;ios&#45;wallet#219</title>
<g id="a_node24"><a xlink:href="https://github.com/zcash/secant-ios-wallet/issues/219" xlink:title="zcash/secant&#45;ios&#45;wallet#219&#10;Integration of some event&#10;logging tool" target="_blank">
<polygon fill="#c2e0c6" stroke="black" stroke-width="2" points="629.5,-227.5 410.5,-227.5 410.5,-174.5 629.5,-174.5 629.5,-227.5"/>
<text text-anchor="middle" x="520" y="-212.3" font-family="Times,serif" font-size="14.00">zcash/secant&#45;ios&#45;wallet#219</text>
<text text-anchor="middle" x="520" y="-197.3" font-family="Times,serif" font-size="14.00">Integration of some event</text>
<text text-anchor="middle" x="520" y="-182.3" font-family="Times,serif" font-size="14.00">logging tool</text>
</a>
</g>
</g>
<!-- zcash/ZcashLightClientKit#695 -->
<g id="node25" class="node open">
<title>zcash/ZcashLightClientKit#695</title>
<g id="a_node25"><a xlink:href="https://github.com/zcash/ZcashLightClientKit/issues/695" xlink:title="zcash/ZcashLightClientKit#695&#10;Add `#DEBUG` tag to code&#10;that never should be in&#10;release mode" target="_blank">
<polygon fill="#c2e0c6" stroke="black" stroke-width="2" points="641.5,-156 398.5,-156 398.5,-88 641.5,-88 641.5,-156"/>
<text text-anchor="middle" x="520" y="-140.8" font-family="Times,serif" font-size="14.00">zcash/ZcashLightClientKit#695</text>
<text text-anchor="middle" x="520" y="-125.8" font-family="Times,serif" font-size="14.00">Add `#DEBUG` tag to code</text>
<text text-anchor="middle" x="520" y="-110.8" font-family="Times,serif" font-size="14.00">that never should be in</text>
<text text-anchor="middle" x="520" y="-95.8" font-family="Times,serif" font-size="14.00">release mode</text>
</a>
</g>
</g>
<!-- zcash/secant&#45;ios&#45;wallet#311 -->
<g id="node26" class="node open">
<title>zcash/secant&#45;ios&#45;wallet#311</title>
<g id="a_node26"><a xlink:href="https://github.com/zcash/secant-ios-wallet/issues/311" xlink:title="zcash/secant&#45;ios&#45;wallet#311&#10;Integrate ZEC price from&#10;the SDK" target="_blank">
<polygon fill="#c2e0c6" stroke="black" stroke-width="2" points="629.5,-69.5 410.5,-69.5 410.5,-16.5 629.5,-16.5 629.5,-69.5"/>
<text text-anchor="middle" x="520" y="-54.3" font-family="Times,serif" font-size="14.00">zcash/secant&#45;ios&#45;wallet#311</text>
<text text-anchor="middle" x="520" y="-39.3" font-family="Times,serif" font-size="14.00">Integrate ZEC price from</text>
<text text-anchor="middle" x="520" y="-24.3" font-family="Times,serif" font-size="14.00">the SDK</text>
</a>
</g>
</g>
<!-- zcash&#45;hackworks/zcash&#45;light&#45;client&#45;ffi#25 -->
<g id="node27" class="node open">
<title>zcash&#45;hackworks/zcash&#45;light&#45;client&#45;ffi#25</title>
<g id="a_node27"><a xlink:href="https://github.com/zcash-hackworks/zcash-light-client-ffi/issues/25" xlink:title="zcash&#45;hackworks/zcash&#45;light&#45;client&#45;ffi#25&#10;Migrate to FFI library&#10;generated by Uniffi" target="_blank">
<polygon fill="#c2e0c6" stroke="black" stroke-width="2" points="327,-1419.5 16,-1419.5 16,-1366.5 327,-1366.5 327,-1419.5"/>
<text text-anchor="middle" x="171.5" y="-1404.3" font-family="Times,serif" font-size="14.00">zcash&#45;hackworks/zcash&#45;light&#45;client&#45;ffi#25</text>
<text text-anchor="middle" x="171.5" y="-1389.3" font-family="Times,serif" font-size="14.00">Migrate to FFI library</text>
<text text-anchor="middle" x="171.5" y="-1374.3" font-family="Times,serif" font-size="14.00">generated by Uniffi</text>
</a>
</g>
</g>
<!-- zcash/secant&#45;ios&#45;wallet#802 -->
<g id="node28" class="node open">
<title>zcash/secant&#45;ios&#45;wallet#802</title>
<g id="a_node28"><a xlink:href="https://github.com/zcash/secant-ios-wallet/issues/802" xlink:title="zcash/secant&#45;ios&#45;wallet#802&#10;Core BTS UI: Load Screen" target="_blank">
<polygon fill="#c2e0c6" stroke="black" stroke-width="2" points="281,-1776 62,-1776 62,-1738 281,-1738 281,-1776"/>
<text text-anchor="middle" x="171.5" y="-1760.8" font-family="Times,serif" font-size="14.00">zcash/secant&#45;ios&#45;wallet#802</text>
<text text-anchor="middle" x="171.5" y="-1745.8" font-family="Times,serif" font-size="14.00">Core BTS UI: Load Screen</text>
</a>
</g>
</g>
<!-- zcash/secant&#45;ios&#45;wallet#808 -->
<g id="node29" class="node open">
<title>zcash/secant&#45;ios&#45;wallet#808</title>
<g id="a_node29"><a xlink:href="https://github.com/zcash/secant-ios-wallet/issues/808" xlink:title="zcash/secant&#45;ios&#45;wallet#808&#10;Core BTS UI: Settings&#10;Screen" target="_blank">
<polygon fill="#c2e0c6" stroke="black" stroke-width="2" points="281,-1719.5 62,-1719.5 62,-1666.5 281,-1666.5 281,-1719.5"/>
<text text-anchor="middle" x="171.5" y="-1704.3" font-family="Times,serif" font-size="14.00">zcash/secant&#45;ios&#45;wallet#808</text>
<text text-anchor="middle" x="171.5" y="-1689.3" font-family="Times,serif" font-size="14.00">Core BTS UI: Settings</text>
<text text-anchor="middle" x="171.5" y="-1674.3" font-family="Times,serif" font-size="14.00">Screen</text>
</a>
</g>
</g>
<!-- zcash/secant&#45;ios&#45;wallet#807 -->
<g id="node30" class="node open">
<title>zcash/secant&#45;ios&#45;wallet#807</title>
<g id="a_node30"><a xlink:href="https://github.com/zcash/secant-ios-wallet/issues/807" xlink:title="zcash/secant&#45;ios&#45;wallet#807&#10;Core BTS UI: About Screen" target="_blank">
<polygon fill="#c2e0c6" stroke="black" stroke-width="2" points="281,-1648 62,-1648 62,-1610 281,-1610 281,-1648"/>
<text text-anchor="middle" x="171.5" y="-1632.8" font-family="Times,serif" font-size="14.00">zcash/secant&#45;ios&#45;wallet#807</text>
<text text-anchor="middle" x="171.5" y="-1617.8" font-family="Times,serif" font-size="14.00">Core BTS UI: About Screen</text>
</a>
</g>
</g>
<!-- zcash/secant&#45;ios&#45;wallet#803 -->
<g id="node31" class="node open">
<title>zcash/secant&#45;ios&#45;wallet#803</title>
<g id="a_node31"><a xlink:href="https://github.com/zcash/secant-ios-wallet/issues/803" xlink:title="zcash/secant&#45;ios&#45;wallet#803&#10;Core BTS UI: Recovery&#10;Phrase Screen" target="_blank">
<polygon fill="#c2e0c6" stroke="black" stroke-width="2" points="281,-1591.5 62,-1591.5 62,-1538.5 281,-1538.5 281,-1591.5"/>
<text text-anchor="middle" x="171.5" y="-1576.3" font-family="Times,serif" font-size="14.00">zcash/secant&#45;ios&#45;wallet#803</text>
<text text-anchor="middle" x="171.5" y="-1561.3" font-family="Times,serif" font-size="14.00">Core BTS UI: Recovery</text>
<text text-anchor="middle" x="171.5" y="-1546.3" font-family="Times,serif" font-size="14.00">Phrase Screen</text>
</a>
</g>
</g>
<!-- zcash/secant&#45;ios&#45;wallet#806 -->
<g id="node32" class="node open">
<title>zcash/secant&#45;ios&#45;wallet#806</title>
<g id="a_node32"><a xlink:href="https://github.com/zcash/secant-ios-wallet/issues/806" xlink:title="zcash/secant&#45;ios&#45;wallet#806&#10;Core BTS UI: Warning&#10;Screen" target="_blank">
<polygon fill="#c2e0c6" stroke="black" stroke-width="2" points="281,-1520.5 62,-1520.5 62,-1467.5 281,-1467.5 281,-1520.5"/>
<text text-anchor="middle" x="171.5" y="-1505.3" font-family="Times,serif" font-size="14.00">zcash/secant&#45;ios&#45;wallet#806</text>
<text text-anchor="middle" x="171.5" y="-1490.3" font-family="Times,serif" font-size="14.00">Core BTS UI: Warning</text>
<text text-anchor="middle" x="171.5" y="-1475.3" font-family="Times,serif" font-size="14.00">Screen</text>
</a>
</g>
</g>
<!-- zcash/ZcashLightClientKit#1143 -->
<g id="node33" class="node open">
<title>zcash/ZcashLightClientKit#1143</title>
<g id="a_node33"><a xlink:href="https://github.com/zcash/ZcashLightClientKit/issues/1143" xlink:title="zcash/ZcashLightClientKit#1143&#10;Make state machine to&#10;work in a local context" target="_blank">
<polygon fill="#c2e0c6" stroke="black" stroke-width="2" points="297.5,-1947.5 45.5,-1947.5 45.5,-1894.5 297.5,-1894.5 297.5,-1947.5"/>
<text text-anchor="middle" x="171.5" y="-1932.3" font-family="Times,serif" font-size="14.00">zcash/ZcashLightClientKit#1143</text>
<text text-anchor="middle" x="171.5" y="-1917.3" font-family="Times,serif" font-size="14.00">Make state machine to</text>
<text text-anchor="middle" x="171.5" y="-1902.3" font-family="Times,serif" font-size="14.00">work in a local context</text>
</a>
</g>
</g>
<!-- zcash/ZcashLightClientKit#1147 -->
<g id="node34" class="node open">
<title>zcash/ZcashLightClientKit#1147</title>
<g id="a_node34"><a xlink:href="https://github.com/zcash/ZcashLightClientKit/issues/1147" xlink:title="zcash/ZcashLightClientKit#1147&#10;Update&#10;cbp_state_machine.png" target="_blank">
<polygon fill="#c2e0c6" stroke="black" stroke-width="2" points="297.5,-1876.5 45.5,-1876.5 45.5,-1823.5 297.5,-1823.5 297.5,-1876.5"/>
<text text-anchor="middle" x="171.5" y="-1861.3" font-family="Times,serif" font-size="14.00">zcash/ZcashLightClientKit#1147</text>
<text text-anchor="middle" x="171.5" y="-1846.3" font-family="Times,serif" font-size="14.00">Update</text>
<text text-anchor="middle" x="171.5" y="-1831.3" font-family="Times,serif" font-size="14.00">cbp_state_machine.png</text>
</a>
</g>
</g>
<!-- zcash/secant&#45;ios&#45;wallet#214 -->
<g id="node36" class="node open">
<title>zcash/secant&#45;ios&#45;wallet#214</title>
<g id="a_node36"><a xlink:href="https://github.com/zcash/secant-ios-wallet/issues/214" xlink:title="zcash/secant&#45;ios&#45;wallet#214&#10;[Scaffold] Add About&#10;Screen" target="_blank">
<polygon fill="#c2e0c6" stroke="black" stroke-width="2" points="281,-2040.5 62,-2040.5 62,-1987.5 281,-1987.5 281,-2040.5"/>
<text text-anchor="middle" x="171.5" y="-2025.3" font-family="Times,serif" font-size="14.00">zcash/secant&#45;ios&#45;wallet#214</text>
<text text-anchor="middle" x="171.5" y="-2010.3" font-family="Times,serif" font-size="14.00">[Scaffold] Add About</text>
<text text-anchor="middle" x="171.5" y="-1995.3" font-family="Times,serif" font-size="14.00">Screen</text>
</a>
</g>
</g>
<!-- zcash/secant&#45;ios&#45;wallet#89 -->
<g id="node37" class="node closed">
<title>zcash/secant&#45;ios&#45;wallet#89</title>
<g id="a_node37"><a xlink:href="https://github.com/zcash/secant-ios-wallet/issues/89" xlink:title="zcash/secant&#45;ios&#45;wallet#89&#10;[Functional] Sending&#10;Screen &#45; Failure" target="_blank">
<polygon fill="#fad8c7" stroke="black" points="625,-2111.5 415,-2111.5 415,-2058.5 625,-2058.5 625,-2111.5"/>
<text text-anchor="middle" x="520" y="-2096.3" font-family="Times,serif" font-size="14.00">zcash/secant&#45;ios&#45;wallet#89</text>
<text text-anchor="middle" x="520" y="-2081.3" font-family="Times,serif" font-size="14.00">[Functional] Sending</text>
<text text-anchor="middle" x="520" y="-2066.3" font-family="Times,serif" font-size="14.00">Screen &#45; Failure</text>
</a>
</g>
</g>
<!-- zcash/secant&#45;ios&#45;wallet#411 -->
<g id="node38" class="node open">
<title>zcash/secant&#45;ios&#45;wallet#411</title>
<g id="a_node38"><a xlink:href="https://github.com/zcash/secant-ios-wallet/issues/411" xlink:title="zcash/secant&#45;ios&#45;wallet#411&#10;Async SynchronizerClient&#10;methods refactor" target="_blank">
<polygon fill="#c2e0c6" stroke="black" stroke-width="2" points="281,-2182.5 62,-2182.5 62,-2129.5 281,-2129.5 281,-2182.5"/>
<text text-anchor="middle" x="171.5" y="-2167.3" font-family="Times,serif" font-size="14.00">zcash/secant&#45;ios&#45;wallet#411</text>
<text text-anchor="middle" x="171.5" y="-2152.3" font-family="Times,serif" font-size="14.00">Async SynchronizerClient</text>
<text text-anchor="middle" x="171.5" y="-2137.3" font-family="Times,serif" font-size="14.00">methods refactor</text>
</a>
</g>
</g>
<!-- zcash/secant&#45;ios&#45;wallet#232 -->
<g id="node39" class="node open">
<title>zcash/secant&#45;ios&#45;wallet#232</title>
<g id="a_node39"><a xlink:href="https://github.com/zcash/secant-ios-wallet/issues/232" xlink:title="zcash/secant&#45;ios&#45;wallet#232&#10;Add error handling UI for&#10;ZEC send UI" target="_blank">
<polygon fill="#c2e0c6" stroke="black" stroke-width="2" points="281,-2111.5 62,-2111.5 62,-2058.5 281,-2058.5 281,-2111.5"/>
<text text-anchor="middle" x="171.5" y="-2096.3" font-family="Times,serif" font-size="14.00">zcash/secant&#45;ios&#45;wallet#232</text>
<text text-anchor="middle" x="171.5" y="-2081.3" font-family="Times,serif" font-size="14.00">Add error handling UI for</text>
<text text-anchor="middle" x="171.5" y="-2066.3" font-family="Times,serif" font-size="14.00">ZEC send UI</text>
</a>
</g>
</g>
<!-- zcash/secant&#45;ios&#45;wallet#232&#45;&gt;zcash/secant&#45;ios&#45;wallet#89 -->
<g id="edge19" class="edge">
<title>zcash/secant&#45;ios&#45;wallet#232&#45;&gt;zcash/secant&#45;ios&#45;wallet#89</title>
<path fill="none" stroke="black" d="M281.18,-2085C320.52,-2085 365.04,-2085 404.84,-2085"/>
<polygon fill="black" stroke="black" points="404.85,-2088.5 414.85,-2085 404.85,-2081.5 404.85,-2088.5"/>
</g>
<!-- zcash/secant&#45;ios&#45;wallet#694 -->
<g id="node40" class="node open">
<title>zcash/secant&#45;ios&#45;wallet#694</title>
<g id="a_node40"><a xlink:href="https://github.com/zcash/secant-ios-wallet/issues/694" xlink:title="zcash/secant&#45;ios&#45;wallet#694&#10;Instrument a forced&#10;upgrade mechanism" target="_blank">
<polygon fill="#c2e0c6" stroke="black" stroke-width="2" points="281,-2253.5 62,-2253.5 62,-2200.5 281,-2200.5 281,-2253.5"/>
<text text-anchor="middle" x="171.5" y="-2238.3" font-family="Times,serif" font-size="14.00">zcash/secant&#45;ios&#45;wallet#694</text>
<text text-anchor="middle" x="171.5" y="-2223.3" font-family="Times,serif" font-size="14.00">Instrument a forced</text>
<text text-anchor="middle" x="171.5" y="-2208.3" font-family="Times,serif" font-size="14.00">upgrade mechanism</text>
</a>
</g>
</g>
<!-- zcash/secant&#45;ios&#45;wallet#237 -->
<g id="node41" class="node open">
<title>zcash/secant&#45;ios&#45;wallet#237</title>
<g id="a_node41"><a xlink:href="https://github.com/zcash/secant-ios-wallet/issues/237" xlink:title="zcash/secant&#45;ios&#45;wallet#237&#10;Design: Privacy &amp; Opt&#45;&#10;in/out for cloud services" target="_blank">
<polygon fill="#c2e0c6" stroke="black" stroke-width="2" points="281,-2324.5 62,-2324.5 62,-2271.5 281,-2271.5 281,-2324.5"/>
<text text-anchor="middle" x="171.5" y="-2309.3" font-family="Times,serif" font-size="14.00">zcash/secant&#45;ios&#45;wallet#237</text>
<text text-anchor="middle" x="171.5" y="-2294.3" font-family="Times,serif" font-size="14.00">Design: Privacy &amp; Opt&#45;</text>
<text text-anchor="middle" x="171.5" y="-2279.3" font-family="Times,serif" font-size="14.00">in/out for cloud services</text>
</a>
</g>
</g>
<!-- zcash/secant&#45;ios&#45;wallet#695 -->
<g id="node42" class="node open">
<title>zcash/secant&#45;ios&#45;wallet#695</title>
<g id="a_node42"><a xlink:href="https://github.com/zcash/secant-ios-wallet/issues/695" xlink:title="zcash/secant&#45;ios&#45;wallet#695&#10;Support for opt&#45;in cloud&#10;backup of keys" target="_blank">
<polygon fill="#c2e0c6" stroke="black" stroke-width="2" points="281,-2395.5 62,-2395.5 62,-2342.5 281,-2342.5 281,-2395.5"/>
<text text-anchor="middle" x="171.5" y="-2380.3" font-family="Times,serif" font-size="14.00">zcash/secant&#45;ios&#45;wallet#695</text>
<text text-anchor="middle" x="171.5" y="-2365.3" font-family="Times,serif" font-size="14.00">Support for opt&#45;in cloud</text>
<text text-anchor="middle" x="171.5" y="-2350.3" font-family="Times,serif" font-size="14.00">backup of keys</text>
</a>
</g>
</g>
</g>
</svg>
