<?xml version="1.0" encoding="UTF-8" standalone="no"?>
<?xml-stylesheet href="zcash-dag.css" type="text/css"?>
<!DOCTYPE svg PUBLIC "-//W3C//DTD SVG 1.1//EN"
 "http://www.w3.org/Graphics/SVG/1.1/DTD/svg11.dtd">
<!-- Generated by graphviz version 2.43.0 (0)
 -->
<!-- Pages: 1 -->
<svg width="415pt" height="1310pt"
 viewBox="0.00 0.00 415.00 1309.50" xmlns="http://www.w3.org/2000/svg" xmlns:xlink="http://www.w3.org/1999/xlink">
<g id="graph0" class="graph" transform="scale(1 1) rotate(0) translate(4 1305.5)">
<polygon fill="white" stroke="transparent" points="-4,4 -4,-1305.5 411,-1305.5 411,4 -4,4"/>
<!-- zcash/zips#387 -->
<g id="node1" class="node open">
<title>zcash/zips#387</title>
<g id="a_node1"><a xlink:href="https://github.com/zcash/zips/issues/387" xlink:title="zcash/zips#387&#10;[ZIP 311] Sapling and&#10;Orchard Payment&#10;Disclosures" target="_blank">
<polygon fill="#c2e0c6" stroke="black" stroke-width="2" points="195.5,-1301.5 22.5,-1301.5 22.5,-1233.5 195.5,-1233.5 195.5,-1301.5"/>
<text text-anchor="middle" x="109" y="-1286.3" font-family="Times,serif" font-size="14.00">zcash/zips#387</text>
<text text-anchor="middle" x="109" y="-1271.3" font-family="Times,serif" font-size="14.00">[ZIP 311] Sapling and</text>
<text text-anchor="middle" x="109" y="-1256.3" font-family="Times,serif" font-size="14.00">Orchard Payment</text>
<text text-anchor="middle" x="109" y="-1241.3" font-family="Times,serif" font-size="14.00">Disclosures</text>
</a>
</g>
</g>
<!-- zcash/zcash#4203 -->
<g id="node2" class="node open">
<title>zcash/zcash#4203</title>
<g id="a_node2"><a xlink:href="https://github.com/zcash/zcash/issues/4203" xlink:title="zcash/zcash#4203&#10;Retire Transparent&#10;Address Pool" target="_blank">
<polygon fill="#c2e0c6" stroke="black" points="407,-689 404,-693 383,-693 380,-689 254,-689 254,-636 407,-636 407,-689"/>
<text text-anchor="middle" x="330.5" y="-673.8" font-family="Times,serif" font-size="14.00">zcash/zcash#4203</text>
<text text-anchor="middle" x="330.5" y="-658.8" font-family="Times,serif" font-size="14.00">Retire Transparent</text>
<text text-anchor="middle" x="330.5" y="-643.8" font-family="Times,serif" font-size="14.00">Address Pool</text>
</a>
</g>
</g>
<!-- zcash/zips#387&#45;&gt;zcash/zcash#4203 -->
<g id="edge1" class="edge">
<title>zcash/zips#387&#45;&gt;zcash/zcash#4203</title>
<path fill="none" stroke="black" d="M195.5,-1243.4C203.98,-1238.2 211.74,-1232 218,-1224.5 285.48,-1143.4 317.69,-810.73 326.75,-699.17"/>
<polygon fill="black" stroke="black" points="330.25,-699.33 327.55,-689.08 323.27,-698.77 330.25,-699.33"/>
</g>
<!-- zcash/zips#361 -->
<g id="node3" class="node open">
<title>zcash/zips#361</title>
<g id="a_node3"><a xlink:href="https://github.com/zcash/zips/issues/361" xlink:title="zcash/zips#361&#10;ZIP: Selective disclosure" target="_blank">
<polygon fill="#c2e0c6" stroke="black" stroke-width="2" points="205,-1215.5 13,-1215.5 13,-1177.5 205,-1177.5 205,-1215.5"/>
<text text-anchor="middle" x="109" y="-1200.3" font-family="Times,serif" font-size="14.00">zcash/zips#361</text>
<text text-anchor="middle" x="109" y="-1185.3" font-family="Times,serif" font-size="14.00">ZIP: Selective disclosure</text>
</a>
</g>
</g>
<!-- zcash/zips#361&#45;&gt;zcash/zcash#4203 -->
<g id="edge2" class="edge">
<title>zcash/zips#361&#45;&gt;zcash/zcash#4203</title>
<path fill="none" stroke="black" d="M205.45,-1178.7C210,-1175.8 214.24,-1172.4 218,-1168.5 283.48,-1100.6 316.52,-804.15 326.31,-699.36"/>
<polygon fill="black" stroke="black" points="329.81,-699.54 327.24,-689.26 322.84,-698.9 329.81,-699.54"/>
</g>
<!-- zcash/zcash#3828 -->
<g id="node4" class="node open">
<title>zcash/zcash#3828</title>
<g id="a_node4"><a xlink:href="https://github.com/zcash/zcash/issues/3828" xlink:title="zcash/zcash#3828&#10;Payment Source Disclosure" target="_blank">
<polygon fill="#c2e0c6" stroke="black" stroke-width="2" points="215,-1159.5 3,-1159.5 3,-1121.5 215,-1121.5 215,-1159.5"/>
<text text-anchor="middle" x="109" y="-1144.3" font-family="Times,serif" font-size="14.00">zcash/zcash#3828</text>
<text text-anchor="middle" x="109" y="-1129.3" font-family="Times,serif" font-size="14.00">Payment Source Disclosure</text>
</a>
</g>
</g>
<!-- zcash/zcash#3828&#45;&gt;zcash/zcash#4203 -->
<g id="edge3" class="edge">
<title>zcash/zcash#3828&#45;&gt;zcash/zcash#4203</title>
<path fill="none" stroke="black" d="M207.27,-1121.3C211.12,-1118.7 214.73,-1115.8 218,-1112.5 276.58,-1053.3 313.33,-795.63 325.25,-699.15"/>
<polygon fill="black" stroke="black" points="328.75,-699.35 326.48,-689 321.8,-698.51 328.75,-699.35"/>
</g>
<!-- zcash/zcash#2558 -->
<g id="node5" class="node open">
<title>zcash/zcash#2558</title>
<g id="a_node5"><a xlink:href="https://github.com/zcash/zcash/issues/2558" xlink:title="zcash/zcash#2558&#10;Public transactions using&#10;the shielded protocol" target="_blank">
<polygon fill="#c2e0c6" stroke="black" stroke-width="2" points="207.5,-1103 10.5,-1103 10.5,-1050 207.5,-1050 207.5,-1103"/>
<text text-anchor="middle" x="109" y="-1087.8" font-family="Times,serif" font-size="14.00">zcash/zcash#2558</text>
<text text-anchor="middle" x="109" y="-1072.8" font-family="Times,serif" font-size="14.00">Public transactions using</text>
<text text-anchor="middle" x="109" y="-1057.8" font-family="Times,serif" font-size="14.00">the shielded protocol</text>
</a>
</g>
</g>
<!-- zcash/zcash#2558&#45;&gt;zcash/zcash#4203 -->
<g id="edge4" class="edge">
<title>zcash/zcash#2558&#45;&gt;zcash/zcash#4203</title>
<path fill="none" stroke="black" d="M207.68,-1050.4C211.37,-1047.7 214.84,-1044.7 218,-1041.5 311.69,-945.22 327.28,-774.41 329.44,-699.47"/>
<polygon fill="black" stroke="black" points="332.95,-699.21 329.67,-689.13 325.95,-699.05 332.95,-699.21"/>
</g>
<!-- zcash/zcash#2718 -->
<g id="node6" class="node open">
<title>zcash/zcash#2718</title>
<g id="a_node6"><a xlink:href="https://github.com/zcash/zcash/issues/2718" xlink:title="zcash/zcash#2718&#10;Commit to an absolute&#10;minimum time before which&#10;any kind of address&#10;withdrawal" target="_blank">
<polygon fill="#c2e0c6" stroke="black" stroke-width="2" points="218,-1032 0,-1032 0,-949 218,-949 218,-1032"/>
<text text-anchor="middle" x="109" y="-1016.8" font-family="Times,serif" font-size="14.00">zcash/zcash#2718</text>
<text text-anchor="middle" x="109" y="-1001.8" font-family="Times,serif" font-size="14.00">Commit to an absolute</text>
<text text-anchor="middle" x="109" y="-986.8" font-family="Times,serif" font-size="14.00">minimum time before which</text>
<text text-anchor="middle" x="109" y="-971.8" font-family="Times,serif" font-size="14.00">any kind of address</text>
<text text-anchor="middle" x="109" y="-956.8" font-family="Times,serif" font-size="14.00">withdrawal</text>
</a>
</g>
</g>
<!-- zcash/zcash#2718&#45;&gt;zcash/zcash#4203 -->
<g id="edge5" class="edge">
<title>zcash/zcash#2718&#45;&gt;zcash/zcash#4203</title>
<path fill="none" stroke="black" d="M209.35,-948.61C212.4,-946.05 215.3,-943.35 218,-940.5 284.02,-870.94 312.79,-757.32 323.71,-699.23"/>
<polygon fill="black" stroke="black" points="327.15,-699.85 325.49,-689.39 320.27,-698.61 327.15,-699.85"/>
</g>
<!-- zcash/zcash#2631 -->
<g id="node7" class="node open">
<title>zcash/zcash#2631</title>
<g id="a_node7"><a xlink:href="https://github.com/zcash/zcash/issues/2631" xlink:title="zcash/zcash#2631&#10;Per&#45;field selective&#10;disclosure" target="_blank">
<polygon fill="#c2e0c6" stroke="black" stroke-width="2" points="183.5,-931 34.5,-931 34.5,-878 183.5,-878 183.5,-931"/>
<text text-anchor="middle" x="109" y="-915.8" font-family="Times,serif" font-size="14.00">zcash/zcash#2631</text>
<text text-anchor="middle" x="109" y="-900.8" font-family="Times,serif" font-size="14.00">Per&#45;field selective</text>
<text text-anchor="middle" x="109" y="-885.8" font-family="Times,serif" font-size="14.00">disclosure</text>
</a>
</g>
</g>
<!-- zcash/zcash#2631&#45;&gt;zcash/zcash#4203 -->
<g id="edge6" class="edge">
<title>zcash/zcash#2631&#45;&gt;zcash/zcash#4203</title>
<path fill="none" stroke="black" d="M183.65,-888.3C195.99,-883.34 208.01,-876.89 218,-868.5 272.12,-823.08 304.14,-744.42 319.13,-698.56"/>
<polygon fill="black" stroke="black" points="322.47,-699.61 322.15,-689.02 315.8,-697.5 322.47,-699.61"/>
</g>
<!-- zcash/zips#286 -->
<g id="node8" class="node open">
<title>zcash/zips#286</title>
<g id="a_node8"><a xlink:href="https://github.com/zcash/zips/issues/286" xlink:title="zcash/zips#286&#10;Research spike: Check&#10;whether the scripting&#10;system can reason about /&#10;require properties of&#10;transparent outputs&#10;within an input script in&#10;the same transaction." target="_blank">
<polygon fill="#c2e0c6" stroke="black" stroke-width="2" points="210.5,-859.5 7.5,-859.5 7.5,-731.5 210.5,-731.5 210.5,-859.5"/>
<text text-anchor="middle" x="109" y="-844.3" font-family="Times,serif" font-size="14.00">zcash/zips#286</text>
<text text-anchor="middle" x="109" y="-829.3" font-family="Times,serif" font-size="14.00">Research spike: Check</text>
<text text-anchor="middle" x="109" y="-814.3" font-family="Times,serif" font-size="14.00">whether the scripting</text>
<text text-anchor="middle" x="109" y="-799.3" font-family="Times,serif" font-size="14.00">system can reason about /</text>
<text text-anchor="middle" x="109" y="-784.3" font-family="Times,serif" font-size="14.00">require properties of</text>
<text text-anchor="middle" x="109" y="-769.3" font-family="Times,serif" font-size="14.00">transparent outputs</text>
<text text-anchor="middle" x="109" y="-754.3" font-family="Times,serif" font-size="14.00">within an input script in</text>
<text text-anchor="middle" x="109" y="-739.3" font-family="Times,serif" font-size="14.00">the same transaction.</text>
</a>
</g>
</g>
<!-- zcash/zips#286&#45;&gt;zcash/zcash#4203 -->
<g id="edge7" class="edge">
<title>zcash/zips#286&#45;&gt;zcash/zcash#4203</title>
<path fill="none" stroke="black" d="M210.76,-734.45C233.63,-720.59 257.03,-706.41 276.94,-694.35"/>
<polygon fill="black" stroke="black" points="278.8,-697.32 285.54,-689.14 275.17,-691.33 278.8,-697.32"/>
</g>
<!-- zcash/zcash#2036 -->
<g id="node9" class="node open">
<title>zcash/zcash#2036</title>
<g id="a_node9"><a xlink:href="https://github.com/zcash/zcash/issues/2036" xlink:title="zcash/zcash#2036&#10;payment disclosure" target="_blank">
<polygon fill="#c2e0c6" stroke="black" stroke-width="2" points="187,-713.5 31,-713.5 31,-675.5 187,-675.5 187,-713.5"/>
<text text-anchor="middle" x="109" y="-698.3" font-family="Times,serif" font-size="14.00">zcash/zcash#2036</text>
<text text-anchor="middle" x="109" y="-683.3" font-family="Times,serif" font-size="14.00">payment disclosure</text>
</a>
</g>
</g>
<!-- zcash/zcash#2036&#45;&gt;zcash/zcash#4203 -->
<g id="edge8" class="edge">
<title>zcash/zcash#2036&#45;&gt;zcash/zcash#4203</title>
<path fill="none" stroke="black" d="M187.08,-683.26C205.4,-680.59 225.06,-677.73 243.75,-675"/>
<polygon fill="black" stroke="black" points="244.33,-678.45 253.72,-673.55 243.32,-671.53 244.33,-678.45"/>
</g>
<!-- zcash/zcash#2425 -->
<g id="node10" class="node open">
<title>zcash/zcash#2425</title>
<g id="a_node10"><a xlink:href="https://github.com/zcash/zcash/issues/2425" xlink:title="zcash/zcash#2425&#10;Pay&#45;to&#45;verification&#45;key&#10;payments" target="_blank">
<polygon fill="#c2e0c6" stroke="black" stroke-width="2" points="196.5,-657 21.5,-657 21.5,-604 196.5,-604 196.5,-657"/>
<text text-anchor="middle" x="109" y="-641.8" font-family="Times,serif" font-size="14.00">zcash/zcash#2425</text>
<text text-anchor="middle" x="109" y="-626.8" font-family="Times,serif" font-size="14.00">Pay&#45;to&#45;verification&#45;key</text>
<text text-anchor="middle" x="109" y="-611.8" font-family="Times,serif" font-size="14.00">payments</text>
</a>
</g>
</g>
<!-- zcash/zcash#2425&#45;&gt;zcash/zcash#4203 -->
<g id="edge9" class="edge">
<title>zcash/zcash#2425&#45;&gt;zcash/zcash#4203</title>
<path fill="none" stroke="black" d="M196.75,-643.15C212.19,-645.4 228.25,-647.74 243.66,-649.99"/>
<polygon fill="black" stroke="black" points="243.28,-653.47 253.68,-651.45 244.29,-646.54 243.28,-653.47"/>
</g>
<!-- zcash/zcash#3431 -->
<g id="node11" class="node open">
<title>zcash/zcash#3431</title>
<g id="a_node11"><a xlink:href="https://github.com/zcash/zcash/issues/3431" xlink:title="zcash/zcash#3431&#10;Mandatory conversion of&#10;transparent value into&#10;shielded notes" target="_blank">
<polygon fill="#c2e0c6" stroke="black" stroke-width="2" points="206,-585.5 12,-585.5 12,-517.5 206,-517.5 206,-585.5"/>
<text text-anchor="middle" x="109" y="-570.3" font-family="Times,serif" font-size="14.00">zcash/zcash#3431</text>
<text text-anchor="middle" x="109" y="-555.3" font-family="Times,serif" font-size="14.00">Mandatory conversion of</text>
<text text-anchor="middle" x="109" y="-540.3" font-family="Times,serif" font-size="14.00">transparent value into</text>
<text text-anchor="middle" x="109" y="-525.3" font-family="Times,serif" font-size="14.00">shielded notes</text>
</a>
</g>
</g>
<!-- zcash/zcash#3431&#45;&gt;zcash/zcash#4203 -->
<g id="edge10" class="edge">
<title>zcash/zcash#3431&#45;&gt;zcash/zcash#4203</title>
<path fill="none" stroke="black" d="M196.89,-585.52C204.09,-588.76 211.21,-592.1 218,-595.5 238.93,-605.97 261.18,-618.95 280.26,-630.68"/>
<polygon fill="black" stroke="black" points="278.45,-633.67 288.79,-635.97 282.14,-627.73 278.45,-633.67"/>
</g>
<!-- zcash/zcash#1133 -->
<g id="node12" class="node open">
<title>zcash/zcash#1133</title>
<g id="a_node12"><a xlink:href="https://github.com/zcash/zcash/issues/1133" xlink:title="zcash/zcash#1133&#10;Restrict block size for&#10;transparent transactions&#10;/ preserve space for&#10;Sapling/Orchard&#45;only&#10;shielded transactions." target="_blank">
<polygon fill="#c2e0c6" stroke="black" stroke-width="2" points="206,-499.5 12,-499.5 12,-401.5 206,-401.5 206,-499.5"/>
<text text-anchor="middle" x="109" y="-484.3" font-family="Times,serif" font-size="14.00">zcash/zcash#1133</text>
<text text-anchor="middle" x="109" y="-469.3" font-family="Times,serif" font-size="14.00">Restrict block size for</text>
<text text-anchor="middle" x="109" y="-454.3" font-family="Times,serif" font-size="14.00">transparent transactions</text>
<text text-anchor="middle" x="109" y="-439.3" font-family="Times,serif" font-size="14.00">/ preserve space for</text>
<text text-anchor="middle" x="109" y="-424.3" font-family="Times,serif" font-size="14.00">Sapling/Orchard&#45;only</text>
<text text-anchor="middle" x="109" y="-409.3" font-family="Times,serif" font-size="14.00">shielded transactions.</text>
</a>
</g>
</g>
<!-- zcash/zcash#1133&#45;&gt;zcash/zcash#4203 -->
<g id="edge11" class="edge">
<title>zcash/zcash#1133&#45;&gt;zcash/zcash#4203</title>
<path fill="none" stroke="black" d="M206.12,-498.98C210.25,-502.03 214.23,-505.21 218,-508.5 257.18,-542.76 290.4,-593.24 310.13,-626.96"/>
<polygon fill="black" stroke="black" points="307.31,-629.08 315.33,-636 313.38,-625.59 307.31,-629.08"/>
</g>
<!-- zcash/zips#346 -->
<g id="node13" class="node open">
<title>zcash/zips#346</title>
<g id="a_node13"><a xlink:href="https://github.com/zcash/zips/issues/346" xlink:title="zcash/zips#346&#10;[ZIP 305] Best practices&#10;for hardware wallets&#10;supporting Sapling" target="_blank">
<polygon fill="#c2e0c6" stroke="black" stroke-width="2" points="204,-383.5 14,-383.5 14,-315.5 204,-315.5 204,-383.5"/>
<text text-anchor="middle" x="109" y="-368.3" font-family="Times,serif" font-size="14.00">zcash/zips#346</text>
<text text-anchor="middle" x="109" y="-353.3" font-family="Times,serif" font-size="14.00">[ZIP 305] Best practices</text>
<text text-anchor="middle" x="109" y="-338.3" font-family="Times,serif" font-size="14.00">for hardware wallets</text>
<text text-anchor="middle" x="109" y="-323.3" font-family="Times,serif" font-size="14.00">supporting Sapling</text>
</a>
</g>
</g>
<!-- zcash/zips#346&#45;&gt;zcash/zcash#4203 -->
<g id="edge12" class="edge">
<title>zcash/zips#346&#45;&gt;zcash/zcash#4203</title>
<path fill="none" stroke="black" d="M204.08,-381.1C209.07,-384.53 213.76,-388.32 218,-392.5 284.25,-457.91 312.82,-568.35 323.68,-625.6"/>
<polygon fill="black" stroke="black" points="320.28,-626.44 325.51,-635.65 327.16,-625.18 320.28,-626.44"/>
</g>
<!-- zcash/zcash#4099 -->
<g id="node14" class="node committed">
<title>zcash/zcash#4099</title>
<g id="a_node14"><a xlink:href="https://github.com/zcash/zcash/issues/4099" xlink:title="zcash/zcash#4099&#10;Investigate the&#10;distribution of P2SH&#10;scripts" target="_blank">
<polygon fill="#a6cfff" stroke="black" stroke-width="2" points="191,-297.5 27,-297.5 27,-229.5 191,-229.5 191,-297.5"/>
<text text-anchor="middle" x="109" y="-282.3" font-family="Times,serif" font-size="14.00">zcash/zcash#4099</text>
<text text-anchor="middle" x="109" y="-267.3" font-family="Times,serif" font-size="14.00">Investigate the</text>
<text text-anchor="middle" x="109" y="-252.3" font-family="Times,serif" font-size="14.00">distribution of P2SH</text>
<text text-anchor="middle" x="109" y="-237.3" font-family="Times,serif" font-size="14.00">scripts</text>
</a>
</g>
</g>
<!-- zcash/zcash#4099&#45;&gt;zcash/zcash#4203 -->
<g id="edge13" class="edge">
<title>zcash/zcash#4099&#45;&gt;zcash/zcash#4203</title>
<path fill="none" stroke="black" d="M191.23,-286.35C201.16,-291.73 210.45,-298.36 218,-306.5 303.24,-398.42 323.32,-554.86 328.05,-625.7"/>
<polygon fill="black" stroke="black" points="324.57,-626.15 328.66,-635.92 331.56,-625.73 324.57,-626.15"/>
</g>
<!-- zcash/zcash#406 -->
<g id="node15" class="node open">
<title>zcash/zcash#406</title>
<g id="a_node15"><a xlink:href="https://github.com/zcash/zcash/issues/406" xlink:title="zcash/zcash#406&#10;Implement selective&#10;disclosure" target="_blank">
<polygon fill="#c2e0c6" stroke="black" stroke-width="2" points="189.5,-211 28.5,-211 28.5,-158 189.5,-158 189.5,-211"/>
<text text-anchor="middle" x="109" y="-195.8" font-family="Times,serif" font-size="14.00">zcash/zcash#406</text>
<text text-anchor="middle" x="109" y="-180.8" font-family="Times,serif" font-size="14.00">Implement selective</text>
<text text-anchor="middle" x="109" y="-165.8" font-family="Times,serif" font-size="14.00">disclosure</text>
</a>
</g>
</g>
<!-- zcash/zcash#406&#45;&gt;zcash/zcash#4203 -->
<g id="edge14" class="edge">
<title>zcash/zcash#406&#45;&gt;zcash/zcash#4203</title>
<path fill="none" stroke="black" d="M189.62,-200.59C200.23,-205.54 210.14,-212.03 218,-220.5 273.52,-280.33 311.96,-530.69 324.8,-625.71"/>
<polygon fill="black" stroke="black" points="321.34,-626.27 326.13,-635.72 328.28,-625.35 321.34,-626.27"/>
</g>
<!-- zcash/zips#452 -->
<g id="node16" class="node open">
<title>zcash/zips#452</title>
<g id="a_node16"><a xlink:href="https://github.com/zcash/zips/issues/452" xlink:title="zcash/zips#452&#10;Develop one or more Pool&#10;Lifecycle proposals to&#10;become ZIPs." target="_blank">
<polygon fill="#c2e0c6" stroke="black" stroke-width="2" points="209,-139.5 9,-139.5 9,-71.5 209,-71.5 209,-139.5"/>
<text text-anchor="middle" x="109" y="-124.3" font-family="Times,serif" font-size="14.00">zcash/zips#452</text>
<text text-anchor="middle" x="109" y="-109.3" font-family="Times,serif" font-size="14.00">Develop one or more Pool</text>
<text text-anchor="middle" x="109" y="-94.3" font-family="Times,serif" font-size="14.00">Lifecycle proposals to</text>
<text text-anchor="middle" x="109" y="-79.3" font-family="Times,serif" font-size="14.00">become ZIPs.</text>
</a>
</g>
</g>
<!-- zcash/zips#452&#45;&gt;zcash/zcash#4203 -->
<g id="edge15" class="edge">
<title>zcash/zips#452&#45;&gt;zcash/zcash#4203</title>
<path fill="none" stroke="black" d="M208.1,-139.64C211.67,-142.66 215,-145.94 218,-149.5 279.52,-222.69 315.09,-520.45 325.93,-625.55"/>
<polygon fill="black" stroke="black" points="322.47,-626.09 326.96,-635.68 329.43,-625.38 322.47,-626.09"/>
</g>
<!-- zcash/zcash#3800 -->
<g id="node17" class="node open">
<title>zcash/zcash#3800</title>
<g id="a_node17"><a xlink:href="https://github.com/zcash/zcash/issues/3800" xlink:title="zcash/zcash#3800&#10;Warn Upon Use of&#10;Transparent Addresses" target="_blank">
<polygon fill="#c2e0c6" stroke="black" stroke-width="2" points="200,-53 18,-53 18,0 200,0 200,-53"/>
<text text-anchor="middle" x="109" y="-37.8" font-family="Times,serif" font-size="14.00">zcash/zcash#3800</text>
<text text-anchor="middle" x="109" y="-22.8" font-family="Times,serif" font-size="14.00">Warn Upon Use of</text>
<text text-anchor="middle" x="109" y="-7.8" font-family="Times,serif" font-size="14.00">Transparent Addresses</text>
</a>
</g>
</g>
<!-- zcash/zcash#3800&#45;&gt;zcash/zcash#4203 -->
<g id="edge16" class="edge">
<title>zcash/zcash#3800&#45;&gt;zcash/zcash#4203</title>
<path fill="none" stroke="black" d="M200.08,-47.56C206.76,-51.68 212.87,-56.61 218,-62.5 292.3,-147.83 320.23,-508.42 327.45,-625.57"/>
<polygon fill="black" stroke="black" points="323.97,-626.04 328.07,-635.81 330.96,-625.62 323.97,-626.04"/>
</g>
</g>
</svg>
