<?xml version="1.0" encoding="UTF-8" standalone="no"?>
<?xml-stylesheet href="zcash-dag.css" type="text/css"?>
<!DOCTYPE svg PUBLIC "-//W3C//DTD SVG 1.1//EN"
 "http://www.w3.org/Graphics/SVG/1.1/DTD/svg11.dtd">
<!-- Generated by graphviz version 2.40.1 (20161225.0304)
 -->
<!-- Pages: 1 -->
<svg width="1660pt" height="850pt"
 viewBox="0.00 0.00 1660.00 849.50" xmlns="http://www.w3.org/2000/svg" xmlns:xlink="http://www.w3.org/1999/xlink">
<g id="graph0" class="graph" transform="scale(1 1) rotate(0) translate(4 845.5)">
<polygon fill="#ffffff" stroke="transparent" points="-4,4 -4,-845.5 1656,-845.5 1656,4 -4,4"/>
<!-- zcash/pasta_curves#35 -->
<g id="node1" class="node open">
<title>zcash/pasta_curves#35</title>
<g id="a_node1"><a xlink:href="https://github.com/zcash/pasta_curves/issues/35" xlink:title="zcash/pasta_curves#35&#10;Enable `ec&#45;gpu` to&#10;generate MSM and FFT code&#10;for `pasta_curves`" target="_blank">
<polygon fill="#c2e0c6" stroke="#000000" stroke-width="2" points="226,-68 0,-68 0,0 226,0 226,-68"/>
<text text-anchor="middle" x="113" y="-52.8" font-family="Times,serif" font-size="14.00" fill="#000000">zcash/pasta_curves#35</text>
<text text-anchor="middle" x="113" y="-37.8" font-family="Times,serif" font-size="14.00" fill="#000000">Enable `ec&#45;gpu` to</text>
<text text-anchor="middle" x="113" y="-22.8" font-family="Times,serif" font-size="14.00" fill="#000000">generate MSM and FFT code</text>
<text text-anchor="middle" x="113" y="-7.8" font-family="Times,serif" font-size="14.00" fill="#000000">for `pasta_curves`</text>
</a>
</g>
</g>
<!-- zcash/halo2#379 -->
<g id="node2" class="node open">
<title>zcash/halo2#379</title>
<g id="a_node2"><a xlink:href="https://github.com/zcash/halo2/issues/379" xlink:title="zcash/halo2#379&#10;Add `ec&#45;gpu` support" target="_blank">
<polygon fill="#c2e0c6" stroke="#000000" points="445.5,-53 272.5,-53 272.5,-15 445.5,-15 445.5,-53"/>
<text text-anchor="middle" x="359" y="-37.8" font-family="Times,serif" font-size="14.00" fill="#000000">zcash/halo2#379</text>
<text text-anchor="middle" x="359" y="-22.8" font-family="Times,serif" font-size="14.00" fill="#000000">Add `ec&#45;gpu` support</text>
</a>
</g>
</g>
<!-- zcash/pasta_curves#35&#45;&gt;zcash/halo2#379 -->
<g id="edge1" class="edge">
<title>zcash/pasta_curves#35&#45;&gt;zcash/halo2#379</title>
<path fill="none" stroke="#000000" d="M226.28,-34C238.28,-34 250.4,-34 262.18,-34"/>
<polygon fill="#000000" stroke="#000000" points="262.44,-37.5001 272.44,-34 262.44,-30.5001 262.44,-37.5001"/>
</g>
<!-- zcash/halo2#426 -->
<g id="node3" class="node committed">
<title>zcash/halo2#426</title>
<g id="a_node3"><a xlink:href="https://github.com/zcash/halo2/issues/426" xlink:title="zcash/halo2#426&#10;Publish `halo2_proofs&#10;0.1.0`" target="_blank">
<polygon fill="#a6cfff" stroke="#000000" stroke-width="2" points="199.5,-139.5 26.5,-139.5 26.5,-86.5 199.5,-86.5 199.5,-139.5"/>
<text text-anchor="middle" x="113" y="-124.3" font-family="Times,serif" font-size="14.00" fill="#000000">zcash/halo2#426</text>
<text text-anchor="middle" x="113" y="-109.3" font-family="Times,serif" font-size="14.00" fill="#000000">Publish `halo2_proofs</text>
<text text-anchor="middle" x="113" y="-94.3" font-family="Times,serif" font-size="14.00" fill="#000000">0.1.0`</text>
</a>
</g>
</g>
<!-- zcash/halo2#460 -->
<g id="node4" class="node committed">
<title>zcash/halo2#460</title>
<g id="a_node4"><a xlink:href="https://github.com/zcash/halo2/issues/460" xlink:title="zcash/halo2#460&#10;Publish `halo2_gadgets&#10;v0.1.0`" target="_blank">
<polygon fill="#a6cfff" stroke="#000000" points="451.5,-139.5 266.5,-139.5 266.5,-86.5 451.5,-86.5 451.5,-139.5"/>
<text text-anchor="middle" x="359" y="-124.3" font-family="Times,serif" font-size="14.00" fill="#000000">zcash/halo2#460</text>
<text text-anchor="middle" x="359" y="-109.3" font-family="Times,serif" font-size="14.00" fill="#000000">Publish `halo2_gadgets</text>
<text text-anchor="middle" x="359" y="-94.3" font-family="Times,serif" font-size="14.00" fill="#000000">v0.1.0`</text>
</a>
</g>
</g>
<!-- zcash/halo2#426&#45;&gt;zcash/halo2#460 -->
<g id="edge2" class="edge">
<title>zcash/halo2#426&#45;&gt;zcash/halo2#460</title>
<path fill="none" stroke="#000000" d="M199.73,-113C218.02,-113 237.49,-113 256.3,-113"/>
<polygon fill="#000000" stroke="#000000" points="256.38,-116.5001 266.38,-113 256.38,-109.5001 256.38,-116.5001"/>
</g>
<!-- zcash/halo2#75 -->
<g id="node5" class="node open">
<title>zcash/halo2#75</title>
<g id="a_node5"><a xlink:href="https://github.com/zcash/halo2/issues/75" xlink:title="zcash/halo2#75&#10;Implement support for&#10;recursion" target="_blank">
<polygon fill="#c2e0c6" stroke="#000000" points="1409.5,-432.5 1230.5,-432.5 1230.5,-379.5 1409.5,-379.5 1409.5,-432.5"/>
<text text-anchor="middle" x="1320" y="-417.3" font-family="Times,serif" font-size="14.00" fill="#000000">zcash/halo2#75</text>
<text text-anchor="middle" x="1320" y="-402.3" font-family="Times,serif" font-size="14.00" fill="#000000">Implement support for</text>
<text text-anchor="middle" x="1320" y="-387.3" font-family="Times,serif" font-size="14.00" fill="#000000">recursion</text>
</a>
</g>
</g>
<!-- zcash/halo2#494 -->
<g id="node6" class="node open">
<title>zcash/halo2#494</title>
<g id="a_node6"><a xlink:href="https://github.com/zcash/halo2/issues/494" xlink:title="zcash/halo2#494&#10;Consider adding an API&#10;that enables application&#10;circuits to be built&#10;across both fields" target="_blank">
<polygon fill="#c2e0c6" stroke="#000000" points="1652,-447.5 1463,-447.5 1463,-364.5 1652,-364.5 1652,-447.5"/>
<text text-anchor="middle" x="1557.5" y="-432.3" font-family="Times,serif" font-size="14.00" fill="#000000">zcash/halo2#494</text>
<text text-anchor="middle" x="1557.5" y="-417.3" font-family="Times,serif" font-size="14.00" fill="#000000">Consider adding an API</text>
<text text-anchor="middle" x="1557.5" y="-402.3" font-family="Times,serif" font-size="14.00" fill="#000000">that enables application</text>
<text text-anchor="middle" x="1557.5" y="-387.3" font-family="Times,serif" font-size="14.00" fill="#000000">circuits to be built</text>
<text text-anchor="middle" x="1557.5" y="-372.3" font-family="Times,serif" font-size="14.00" fill="#000000">across both fields</text>
</a>
</g>
</g>
<!-- zcash/halo2#75&#45;&gt;zcash/halo2#494 -->
<g id="edge3" class="edge">
<title>zcash/halo2#75&#45;&gt;zcash/halo2#494</title>
<path fill="none" stroke="#000000" d="M1409.8,-406C1423.7,-406 1438.3,-406 1452.5,-406"/>
<polygon fill="#000000" stroke="#000000" points="1452.8,-409.5001 1462.8,-406 1452.8,-402.5001 1452.8,-409.5001"/>
</g>
<!-- zcash/halo2#79 -->
<g id="node7" class="node open">
<title>zcash/halo2#79</title>
<g id="a_node7"><a xlink:href="https://github.com/zcash/halo2/issues/79" xlink:title="zcash/halo2#79&#10;Migrate Rescue and&#10;Poseidon gadgets to&#10;algebraic hash&#10;abstraction" target="_blank">
<polygon fill="#c2e0c6" stroke="#000000" points="1152.5,-361.5 991.5,-361.5 991.5,-278.5 1152.5,-278.5 1152.5,-361.5"/>
<text text-anchor="middle" x="1072" y="-346.3" font-family="Times,serif" font-size="14.00" fill="#000000">zcash/halo2#79</text>
<text text-anchor="middle" x="1072" y="-331.3" font-family="Times,serif" font-size="14.00" fill="#000000">Migrate Rescue and</text>
<text text-anchor="middle" x="1072" y="-316.3" font-family="Times,serif" font-size="14.00" fill="#000000">Poseidon gadgets to</text>
<text text-anchor="middle" x="1072" y="-301.3" font-family="Times,serif" font-size="14.00" fill="#000000">algebraic hash</text>
<text text-anchor="middle" x="1072" y="-286.3" font-family="Times,serif" font-size="14.00" fill="#000000">abstraction</text>
</a>
</g>
</g>
<!-- zcash/halo2#78 -->
<g id="node8" class="node open">
<title>zcash/halo2#78</title>
<g id="a_node8"><a xlink:href="https://github.com/zcash/halo2/issues/78" xlink:title="zcash/halo2#78&#10;Implement algebraic hash&#10;/ random oracle&#10;abstraction gadget" target="_blank">
<polygon fill="#c2e0c6" stroke="#000000" stroke-width="2" points="930,-379 726,-379 726,-311 930,-311 930,-379"/>
<text text-anchor="middle" x="828" y="-363.8" font-family="Times,serif" font-size="14.00" fill="#000000">zcash/halo2#78</text>
<text text-anchor="middle" x="828" y="-348.8" font-family="Times,serif" font-size="14.00" fill="#000000">Implement algebraic hash</text>
<text text-anchor="middle" x="828" y="-333.8" font-family="Times,serif" font-size="14.00" fill="#000000">/ random oracle</text>
<text text-anchor="middle" x="828" y="-318.8" font-family="Times,serif" font-size="14.00" fill="#000000">abstraction gadget</text>
</a>
</g>
</g>
<!-- zcash/halo2#78&#45;&gt;zcash/halo2#79 -->
<g id="edge4" class="edge">
<title>zcash/halo2#78&#45;&gt;zcash/halo2#79</title>
<path fill="none" stroke="#000000" d="M930.06,-334.54C947.04,-332.8 964.55,-331.01 981.23,-329.3"/>
<polygon fill="#000000" stroke="#000000" points="981.8983,-332.75 991.49,-328.25 981.1856,-325.7863 981.8983,-332.75"/>
</g>
<!-- zcash/halo2#250 -->
<g id="node9" class="node open">
<title>zcash/halo2#250</title>
<g id="a_node9"><a xlink:href="https://github.com/zcash/halo2/issues/250" xlink:title="zcash/halo2#250&#10;Implement the logic for&#10;the IVC verifier circuit" target="_blank">
<polygon fill="#c2e0c6" stroke="#000000" points="1165,-503.5 979,-503.5 979,-450.5 1165,-450.5 1165,-503.5"/>
<text text-anchor="middle" x="1072" y="-488.3" font-family="Times,serif" font-size="14.00" fill="#000000">zcash/halo2#250</text>
<text text-anchor="middle" x="1072" y="-473.3" font-family="Times,serif" font-size="14.00" fill="#000000">Implement the logic for</text>
<text text-anchor="middle" x="1072" y="-458.3" font-family="Times,serif" font-size="14.00" fill="#000000">the IVC verifier circuit</text>
</a>
</g>
</g>
<!-- zcash/halo2#78&#45;&gt;zcash/halo2#250 -->
<g id="edge5" class="edge">
<title>zcash/halo2#78&#45;&gt;zcash/halo2#250</title>
<path fill="none" stroke="#000000" d="M918.61,-379C922.95,-381.8 927.11,-384.8 931,-388 953.26,-406.34 944.08,-424.49 967,-442 968.39,-443.06 969.82,-444.09 971.27,-445.09"/>
<polygon fill="#000000" stroke="#000000" points="969.5682,-448.154 979.9,-450.5 973.2862,-442.223 969.5682,-448.154"/>
</g>
<!-- zcash/halo2#250&#45;&gt;zcash/halo2#75 -->
<g id="edge6" class="edge">
<title>zcash/halo2#250&#45;&gt;zcash/halo2#75</title>
<path fill="none" stroke="#000000" d="M1164.7,-450.46C1182.9,-445.25 1202,-439.77 1220.5,-434.5"/>
<polygon fill="#000000" stroke="#000000" points="1221.6578,-437.8089 1230.3,-431.68 1219.7221,-431.0819 1221.6578,-437.8089"/>
</g>
<!-- zcash/halo2#57 -->
<g id="node10" class="node open">
<title>zcash/halo2#57</title>
<g id="a_node10"><a xlink:href="https://github.com/zcash/halo2/issues/57" xlink:title="zcash/halo2#57&#10;Remove unused&#10;fixed_values from&#10;ProvingKey" target="_blank">
<polygon fill="#c2e0c6" stroke="#000000" stroke-width="2" points="184.5,-297 41.5,-297 41.5,-229 184.5,-229 184.5,-297"/>
<text text-anchor="middle" x="113" y="-281.8" font-family="Times,serif" font-size="14.00" fill="#000000">zcash/halo2#57</text>
<text text-anchor="middle" x="113" y="-266.8" font-family="Times,serif" font-size="14.00" fill="#000000">Remove unused</text>
<text text-anchor="middle" x="113" y="-251.8" font-family="Times,serif" font-size="14.00" fill="#000000">fixed_values from</text>
<text text-anchor="middle" x="113" y="-236.8" font-family="Times,serif" font-size="14.00" fill="#000000">ProvingKey</text>
</a>
</g>
</g>
<!-- zcash/halo2#443 -->
<g id="node11" class="node open">
<title>zcash/halo2#443</title>
<g id="a_node11"><a xlink:href="https://github.com/zcash/halo2/issues/443" xlink:title="zcash/halo2#443&#10;implement `read` &amp;&#10;`write` for `halo2::plonk&#10;::ProvingKey`" target="_blank">
<polygon fill="#c2e0c6" stroke="#000000" points="456,-297 262,-297 262,-229 456,-229 456,-297"/>
<text text-anchor="middle" x="359" y="-281.8" font-family="Times,serif" font-size="14.00" fill="#000000">zcash/halo2#443</text>
<text text-anchor="middle" x="359" y="-266.8" font-family="Times,serif" font-size="14.00" fill="#000000">implement `read` &amp;</text>
<text text-anchor="middle" x="359" y="-251.8" font-family="Times,serif" font-size="14.00" fill="#000000">`write` for `halo2::plonk</text>
<text text-anchor="middle" x="359" y="-236.8" font-family="Times,serif" font-size="14.00" fill="#000000">::ProvingKey`</text>
</a>
</g>
</g>
<!-- zcash/halo2#57&#45;&gt;zcash/halo2#443 -->
<g id="edge7" class="edge">
<title>zcash/halo2#57&#45;&gt;zcash/halo2#443</title>
<path fill="none" stroke="#000000" d="M184.81,-263C205.82,-263 229.24,-263 251.93,-263"/>
<polygon fill="#000000" stroke="#000000" points="251.94,-266.5001 261.94,-263 251.94,-259.5001 251.94,-266.5001"/>
</g>
<!-- zcash/halo2#449 -->
<g id="node12" class="node open">
<title>zcash/halo2#449</title>
<g id="a_node12"><a xlink:href="https://github.com/zcash/halo2/issues/449" xlink:title="zcash/halo2#449&#10;Define a stable&#10;serialization format for&#10;`VerifyingKey`" target="_blank">
<polygon fill="#c2e0c6" stroke="#000000" stroke-width="2" points="204,-383 22,-383 22,-315 204,-315 204,-383"/>
<text text-anchor="middle" x="113" y="-367.8" font-family="Times,serif" font-size="14.00" fill="#000000">zcash/halo2#449</text>
<text text-anchor="middle" x="113" y="-352.8" font-family="Times,serif" font-size="14.00" fill="#000000">Define a stable</text>
<text text-anchor="middle" x="113" y="-337.8" font-family="Times,serif" font-size="14.00" fill="#000000">serialization format for</text>
<text text-anchor="middle" x="113" y="-322.8" font-family="Times,serif" font-size="14.00" fill="#000000">`VerifyingKey`</text>
</a>
</g>
</g>
<!-- zcash/halo2#420 -->
<g id="node13" class="node open">
<title>zcash/halo2#420</title>
<g id="a_node13"><a xlink:href="https://github.com/zcash/halo2/issues/420" xlink:title="zcash/halo2#420&#10;CI: Measure memory&#45;usage&#10;benchmarks" target="_blank">
<polygon fill="#c2e0c6" stroke="#000000" stroke-width="2" points="220.5,-454.5 5.5,-454.5 5.5,-401.5 220.5,-401.5 220.5,-454.5"/>
<text text-anchor="middle" x="113" y="-439.3" font-family="Times,serif" font-size="14.00" fill="#000000">zcash/halo2#420</text>
<text text-anchor="middle" x="113" y="-424.3" font-family="Times,serif" font-size="14.00" fill="#000000">CI: Measure memory&#45;usage</text>
<text text-anchor="middle" x="113" y="-409.3" font-family="Times,serif" font-size="14.00" fill="#000000">benchmarks</text>
</a>
</g>
</g>
<!-- zcash/halo2#418 -->
<g id="node14" class="node open">
<title>zcash/halo2#418</title>
<g id="a_node14"><a xlink:href="https://github.com/zcash/halo2/issues/418" xlink:title="zcash/halo2#418&#10;[memory optimization]&#10;lookup prover memory&#10;analysis" target="_blank">
<polygon fill="#c2e0c6" stroke="#000000" points="448.5,-462 269.5,-462 269.5,-394 448.5,-394 448.5,-462"/>
<text text-anchor="middle" x="359" y="-446.8" font-family="Times,serif" font-size="14.00" fill="#000000">zcash/halo2#418</text>
<text text-anchor="middle" x="359" y="-431.8" font-family="Times,serif" font-size="14.00" fill="#000000">[memory optimization]</text>
<text text-anchor="middle" x="359" y="-416.8" font-family="Times,serif" font-size="14.00" fill="#000000">lookup prover memory</text>
<text text-anchor="middle" x="359" y="-401.8" font-family="Times,serif" font-size="14.00" fill="#000000">analysis</text>
</a>
</g>
</g>
<!-- zcash/halo2#420&#45;&gt;zcash/halo2#418 -->
<g id="edge8" class="edge">
<title>zcash/halo2#420&#45;&gt;zcash/halo2#418</title>
<path fill="none" stroke="#000000" d="M220.54,-428C233.4,-428 246.48,-428 259.22,-428"/>
<polygon fill="#000000" stroke="#000000" points="259.35,-431.5001 269.35,-428 259.35,-424.5001 259.35,-431.5001"/>
</g>
<!-- zcash/halo2#427 -->
<g id="node15" class="node open">
<title>zcash/halo2#427</title>
<g id="a_node15"><a xlink:href="https://github.com/zcash/halo2/issues/427" xlink:title="zcash/halo2#427&#10;Use smaller extended&#10;domains where possible&#10;during proving" target="_blank">
<polygon fill="#c2e0c6" stroke="#000000" stroke-width="2" points="207,-541 19,-541 19,-473 207,-473 207,-541"/>
<text text-anchor="middle" x="113" y="-525.8" font-family="Times,serif" font-size="14.00" fill="#000000">zcash/halo2#427</text>
<text text-anchor="middle" x="113" y="-510.8" font-family="Times,serif" font-size="14.00" fill="#000000">Use smaller extended</text>
<text text-anchor="middle" x="113" y="-495.8" font-family="Times,serif" font-size="14.00" fill="#000000">domains where possible</text>
<text text-anchor="middle" x="113" y="-480.8" font-family="Times,serif" font-size="14.00" fill="#000000">during proving</text>
</a>
</g>
</g>
<!-- zcash/halo2#456 -->
<g id="node16" class="node open">
<title>zcash/halo2#456</title>
<g id="a_node16"><a xlink:href="https://github.com/zcash/halo2/issues/456" xlink:title="zcash/halo2#456&#10;Benchmark `sha256`&#10;gadget." target="_blank">
<polygon fill="#c2e0c6" stroke="#000000" stroke-width="2" points="198,-612.5 28,-612.5 28,-559.5 198,-559.5 198,-612.5"/>
<text text-anchor="middle" x="113" y="-597.3" font-family="Times,serif" font-size="14.00" fill="#000000">zcash/halo2#456</text>
<text text-anchor="middle" x="113" y="-582.3" font-family="Times,serif" font-size="14.00" fill="#000000">Benchmark `sha256`</text>
<text text-anchor="middle" x="113" y="-567.3" font-family="Times,serif" font-size="14.00" fill="#000000">gadget.</text>
</a>
</g>
</g>
<!-- zcash/halo2#455 -->
<g id="node17" class="node open">
<title>zcash/halo2#455</title>
<g id="a_node17"><a xlink:href="https://github.com/zcash/halo2/issues/455" xlink:title="zcash/halo2#455&#10;[Book] add description of&#10;Poseidon gadget and chip" target="_blank">
<polygon fill="#c2e0c6" stroke="#000000" stroke-width="2" points="213,-683.5 13,-683.5 13,-630.5 213,-630.5 213,-683.5"/>
<text text-anchor="middle" x="113" y="-668.3" font-family="Times,serif" font-size="14.00" fill="#000000">zcash/halo2#455</text>
<text text-anchor="middle" x="113" y="-653.3" font-family="Times,serif" font-size="14.00" fill="#000000">[Book] add description of</text>
<text text-anchor="middle" x="113" y="-638.3" font-family="Times,serif" font-size="14.00" fill="#000000">Poseidon gadget and chip</text>
</a>
</g>
</g>
<!-- zcash/halo2#251 -->
<g id="node18" class="node open">
<title>zcash/halo2#251</title>
<g id="a_node18"><a xlink:href="https://github.com/zcash/halo2/issues/251" xlink:title="zcash/halo2#251&#10;Implement user&#45;facing API&#10;for recursive proving of&#10;IVC" target="_blank">
<polygon fill="#c2e0c6" stroke="#000000" points="1177,-260 967,-260 967,-192 1177,-192 1177,-260"/>
<text text-anchor="middle" x="1072" y="-244.8" font-family="Times,serif" font-size="14.00" fill="#000000">zcash/halo2#251</text>
<text text-anchor="middle" x="1072" y="-229.8" font-family="Times,serif" font-size="14.00" fill="#000000">Implement user&#45;facing API</text>
<text text-anchor="middle" x="1072" y="-214.8" font-family="Times,serif" font-size="14.00" fill="#000000">for recursive proving of</text>
<text text-anchor="middle" x="1072" y="-199.8" font-family="Times,serif" font-size="14.00" fill="#000000">IVC</text>
</a>
</g>
</g>
<!-- zcash/halo2#251&#45;&gt;zcash/halo2#75 -->
<g id="edge9" class="edge">
<title>zcash/halo2#251&#45;&gt;zcash/halo2#75</title>
<path fill="none" stroke="#000000" d="M1162,-260.13C1167.2,-262.93 1172.2,-265.89 1177,-269 1221.3,-297.81 1264,-341.43 1291,-371.68"/>
<polygon fill="#000000" stroke="#000000" points="1288.6429,-374.2967 1297.9,-379.45 1293.877,-369.6487 1288.6429,-374.2967"/>
</g>
<!-- zcash/halo2#437 -->
<g id="node19" class="node open">
<title>zcash/halo2#437</title>
<g id="a_node19"><a xlink:href="https://github.com/zcash/halo2/issues/437" xlink:title="zcash/halo2#437&#10;Amend user&#45;facing API to&#10;work for both IVC and PCD" target="_blank">
<polygon fill="#c2e0c6" stroke="#000000" points="1427,-166.5 1213,-166.5 1213,-113.5 1427,-113.5 1427,-166.5"/>
<text text-anchor="middle" x="1320" y="-151.3" font-family="Times,serif" font-size="14.00" fill="#000000">zcash/halo2#437</text>
<text text-anchor="middle" x="1320" y="-136.3" font-family="Times,serif" font-size="14.00" fill="#000000">Amend user&#45;facing API to</text>
<text text-anchor="middle" x="1320" y="-121.3" font-family="Times,serif" font-size="14.00" fill="#000000">work for both IVC and PCD</text>
</a>
</g>
</g>
<!-- zcash/halo2#251&#45;&gt;zcash/halo2#437 -->
<g id="edge10" class="edge">
<title>zcash/halo2#251&#45;&gt;zcash/halo2#437</title>
<path fill="none" stroke="#000000" d="M1170.4,-191.89C1191.4,-184.6 1213.4,-176.96 1233.9,-169.84"/>
<polygon fill="#000000" stroke="#000000" points="1235.2783,-173.0674 1243.6,-166.51 1233.0054,-166.4467 1235.2783,-173.0674"/>
</g>
<!-- zcash/halo2#436 -->
<g id="node20" class="node open">
<title>zcash/halo2#436</title>
<g id="a_node20"><a xlink:href="https://github.com/zcash/halo2/issues/436" xlink:title="zcash/halo2#436&#10;Implement mock&#10;verification circuit for&#10;PCD" target="_blank">
<polygon fill="#c2e0c6" stroke="#000000" points="678,-139 503,-139 503,-71 678,-71 678,-139"/>
<text text-anchor="middle" x="590.5" y="-123.8" font-family="Times,serif" font-size="14.00" fill="#000000">zcash/halo2#436</text>
<text text-anchor="middle" x="590.5" y="-108.8" font-family="Times,serif" font-size="14.00" fill="#000000">Implement mock</text>
<text text-anchor="middle" x="590.5" y="-93.8" font-family="Times,serif" font-size="14.00" fill="#000000">verification circuit for</text>
<text text-anchor="middle" x="590.5" y="-78.8" font-family="Times,serif" font-size="14.00" fill="#000000">PCD</text>
</a>
</g>
</g>
<!-- zcash/halo2#436&#45;&gt;zcash/halo2#437 -->
<g id="edge11" class="edge">
<title>zcash/halo2#436&#45;&gt;zcash/halo2#437</title>
<path fill="none" stroke="#000000" d="M678.24,-81.021C693.71,-77.685 709.74,-74.79 725,-73 924.8,-49.559 979.63,-58.084 1177,-97 1194.9,-100.53 1213.8,-105.38 1231.8,-110.55"/>
<polygon fill="#000000" stroke="#000000" points="1231.0184,-113.9684 1241.6,-113.44 1232.9984,-107.2543 1231.0184,-113.9684"/>
</g>
<!-- zcash/halo2#438 -->
<g id="node21" class="node open">
<title>zcash/halo2#438</title>
<g id="a_node21"><a xlink:href="https://github.com/zcash/halo2/issues/438" xlink:title="zcash/halo2#438&#10;Implement the logic for&#10;the PCD verifier circuit" target="_blank">
<polygon fill="#c2e0c6" stroke="#000000" points="921,-135.5 735,-135.5 735,-82.5 921,-82.5 921,-135.5"/>
<text text-anchor="middle" x="828" y="-120.3" font-family="Times,serif" font-size="14.00" fill="#000000">zcash/halo2#438</text>
<text text-anchor="middle" x="828" y="-105.3" font-family="Times,serif" font-size="14.00" fill="#000000">Implement the logic for</text>
<text text-anchor="middle" x="828" y="-90.3" font-family="Times,serif" font-size="14.00" fill="#000000">the PCD verifier circuit</text>
</a>
</g>
</g>
<!-- zcash/halo2#436&#45;&gt;zcash/halo2#438 -->
<g id="edge12" class="edge">
<title>zcash/halo2#436&#45;&gt;zcash/halo2#438</title>
<path fill="none" stroke="#000000" d="M678.26,-106.48C693.33,-106.73 709.11,-107 724.54,-107.26"/>
<polygon fill="#000000" stroke="#000000" points="724.5624,-110.7608 734.62,-107.43 724.6805,-103.7618 724.5624,-110.7608"/>
</g>
<!-- zcash/halo2#435 -->
<g id="node22" class="node open">
<title>zcash/halo2#435</title>
<g id="a_node22"><a xlink:href="https://github.com/zcash/halo2/issues/435" xlink:title="zcash/halo2#435&#10;Implement mock&#10;verification circuit for&#10;IVC" target="_blank">
<polygon fill="#c2e0c6" stroke="#000000" points="678,-297 503,-297 503,-229 678,-229 678,-297"/>
<text text-anchor="middle" x="590.5" y="-281.8" font-family="Times,serif" font-size="14.00" fill="#000000">zcash/halo2#435</text>
<text text-anchor="middle" x="590.5" y="-266.8" font-family="Times,serif" font-size="14.00" fill="#000000">Implement mock</text>
<text text-anchor="middle" x="590.5" y="-251.8" font-family="Times,serif" font-size="14.00" fill="#000000">verification circuit for</text>
<text text-anchor="middle" x="590.5" y="-236.8" font-family="Times,serif" font-size="14.00" fill="#000000">IVC</text>
</a>
</g>
</g>
<!-- zcash/halo2#247 -->
<g id="node23" class="node open">
<title>zcash/halo2#247</title>
<g id="a_node23"><a xlink:href="https://github.com/zcash/halo2/issues/247" xlink:title="zcash/halo2#247&#10;Implement underlying&#10;scaffolding for creating&#10;the IVC proof cycle" target="_blank">
<polygon fill="#c2e0c6" stroke="#000000" points="920.5,-293 735.5,-293 735.5,-225 920.5,-225 920.5,-293"/>
<text text-anchor="middle" x="828" y="-277.8" font-family="Times,serif" font-size="14.00" fill="#000000">zcash/halo2#247</text>
<text text-anchor="middle" x="828" y="-262.8" font-family="Times,serif" font-size="14.00" fill="#000000">Implement underlying</text>
<text text-anchor="middle" x="828" y="-247.8" font-family="Times,serif" font-size="14.00" fill="#000000">scaffolding for creating</text>
<text text-anchor="middle" x="828" y="-232.8" font-family="Times,serif" font-size="14.00" fill="#000000">the IVC proof cycle</text>
</a>
</g>
</g>
<!-- zcash/halo2#435&#45;&gt;zcash/halo2#247 -->
<g id="edge13" class="edge">
<title>zcash/halo2#435&#45;&gt;zcash/halo2#247</title>
<path fill="none" stroke="#000000" d="M678.26,-261.52C693.55,-261.26 709.57,-260.99 725.21,-260.73"/>
<polygon fill="#000000" stroke="#000000" points="725.4797,-264.2261 735.42,-260.56 725.3631,-257.2271 725.4797,-264.2261"/>
</g>
<!-- zcash/halo2#247&#45;&gt;zcash/halo2#250 -->
<g id="edge14" class="edge">
<title>zcash/halo2#247&#45;&gt;zcash/halo2#250</title>
<path fill="none" stroke="#000000" d="M920.5,-291.9C924.3,-294.98 927.83,-298.34 931,-302 973.05,-350.58 923.19,-395.01 967,-442 968.22,-443.3 969.48,-444.56 970.79,-445.77"/>
<polygon fill="#000000" stroke="#000000" points="968.7716,-448.6388 978.75,-452.2 973.1703,-443.1935 968.7716,-448.6388"/>
</g>
<!-- zcash/halo2#247&#45;&gt;zcash/halo2#251 -->
<g id="edge15" class="edge">
<title>zcash/halo2#247&#45;&gt;zcash/halo2#251</title>
<path fill="none" stroke="#000000" d="M920.59,-246.48C932.39,-244.88 944.58,-243.23 956.68,-241.6"/>
<polygon fill="#000000" stroke="#000000" points="957.3693,-245.0387 966.81,-240.23 956.4311,-238.1019 957.3693,-245.0387"/>
</g>
<!-- zcash/halo2#246 -->
<g id="node24" class="node open">
<title>zcash/halo2#246</title>
<g id="a_node24"><a xlink:href="https://github.com/zcash/halo2/issues/246" xlink:title="zcash/halo2#246&#10;Create recursive proof&#10;structures" target="_blank">
<polygon fill="#c2e0c6" stroke="#000000" points="448.5,-210.5 269.5,-210.5 269.5,-157.5 448.5,-157.5 448.5,-210.5"/>
<text text-anchor="middle" x="359" y="-195.3" font-family="Times,serif" font-size="14.00" fill="#000000">zcash/halo2#246</text>
<text text-anchor="middle" x="359" y="-180.3" font-family="Times,serif" font-size="14.00" fill="#000000">Create recursive proof</text>
<text text-anchor="middle" x="359" y="-165.3" font-family="Times,serif" font-size="14.00" fill="#000000">structures</text>
</a>
</g>
</g>
<!-- zcash/halo2#246&#45;&gt;zcash/halo2#436 -->
<g id="edge16" class="edge">
<title>zcash/halo2#246&#45;&gt;zcash/halo2#436</title>
<path fill="none" stroke="#000000" d="M436.73,-157.47C454.82,-151.3 474.31,-144.65 493.13,-138.23"/>
<polygon fill="#000000" stroke="#000000" points="494.2653,-141.5408 502.6,-135 492.0055,-134.9156 494.2653,-141.5408"/>
</g>
<!-- zcash/halo2#246&#45;&gt;zcash/halo2#435 -->
<g id="edge17" class="edge">
<title>zcash/halo2#246&#45;&gt;zcash/halo2#435</title>
<path fill="none" stroke="#000000" d="M436.73,-210.53C454.82,-216.7 474.31,-223.35 493.13,-229.77"/>
<polygon fill="#000000" stroke="#000000" points="492.0055,-233.0844 502.6,-233 494.2653,-226.4592 492.0055,-233.0844"/>
</g>
<!-- zcash/halo2#439 -->
<g id="node25" class="node open">
<title>zcash/halo2#439</title>
<g id="a_node25"><a xlink:href="https://github.com/zcash/halo2/issues/439" xlink:title="zcash/halo2#439&#10;Support split&#10;accumulation in Halo 2" target="_blank">
<polygon fill="#c2e0c6" stroke="#000000" stroke-width="2" points="204.5,-210.5 21.5,-210.5 21.5,-157.5 204.5,-157.5 204.5,-210.5"/>
<text text-anchor="middle" x="113" y="-195.3" font-family="Times,serif" font-size="14.00" fill="#000000">zcash/halo2#439</text>
<text text-anchor="middle" x="113" y="-180.3" font-family="Times,serif" font-size="14.00" fill="#000000">Support split</text>
<text text-anchor="middle" x="113" y="-165.3" font-family="Times,serif" font-size="14.00" fill="#000000">accumulation in Halo 2</text>
</a>
</g>
</g>
<!-- zcash/halo2#439&#45;&gt;zcash/halo2#246 -->
<g id="edge18" class="edge">
<title>zcash/halo2#439&#45;&gt;zcash/halo2#246</title>
<path fill="none" stroke="#000000" d="M204.6,-184C222.38,-184 241.1,-184 259.14,-184"/>
<polygon fill="#000000" stroke="#000000" points="259.37,-187.5001 269.37,-184 259.37,-180.5001 259.37,-187.5001"/>
</g>
<!-- zcash/halo2#359 -->
<g id="node26" class="node open">
<title>zcash/halo2#359</title>
<g id="a_node26"><a xlink:href="https://github.com/zcash/halo2/issues/359" xlink:title="zcash/halo2#359&#10;Set up `BaseTranscript`,&#10;`ScalarTranscript`" target="_blank">
<polygon fill="#c2e0c6" stroke="#000000" stroke-width="2" points="689,-210.5 492,-210.5 492,-157.5 689,-157.5 689,-210.5"/>
<text text-anchor="middle" x="590.5" y="-195.3" font-family="Times,serif" font-size="14.00" fill="#000000">zcash/halo2#359</text>
<text text-anchor="middle" x="590.5" y="-180.3" font-family="Times,serif" font-size="14.00" fill="#000000">Set up `BaseTranscript`,</text>
<text text-anchor="middle" x="590.5" y="-165.3" font-family="Times,serif" font-size="14.00" fill="#000000">`ScalarTranscript`</text>
</a>
</g>
</g>
<!-- zcash/halo2#359&#45;&gt;zcash/halo2#247 -->
<g id="edge19" class="edge">
<title>zcash/halo2#359&#45;&gt;zcash/halo2#247</title>
<path fill="none" stroke="#000000" d="M674.57,-210.55C690.97,-215.73 708.33,-221.21 725.25,-226.55"/>
<polygon fill="#000000" stroke="#000000" points="724.5702,-230.0056 735.16,-229.68 726.6785,-223.3307 724.5702,-230.0056"/>
</g>
<!-- zcash/halo2#249 -->
<g id="node27" class="node open">
<title>zcash/halo2#249</title>
<g id="a_node27"><a xlink:href="https://github.com/zcash/halo2/issues/249" xlink:title="zcash/halo2#249&#10;Implement recursion&#10;circuit logic for&#10;handling public inputs" target="_blank">
<polygon fill="#c2e0c6" stroke="#000000" stroke-width="2" points="916.5,-465 739.5,-465 739.5,-397 916.5,-397 916.5,-465"/>
<text text-anchor="middle" x="828" y="-449.8" font-family="Times,serif" font-size="14.00" fill="#000000">zcash/halo2#249</text>
<text text-anchor="middle" x="828" y="-434.8" font-family="Times,serif" font-size="14.00" fill="#000000">Implement recursion</text>
<text text-anchor="middle" x="828" y="-419.8" font-family="Times,serif" font-size="14.00" fill="#000000">circuit logic for</text>
<text text-anchor="middle" x="828" y="-404.8" font-family="Times,serif" font-size="14.00" fill="#000000">handling public inputs</text>
</a>
</g>
</g>
<!-- zcash/halo2#249&#45;&gt;zcash/halo2#250 -->
<g id="edge20" class="edge">
<title>zcash/halo2#249&#45;&gt;zcash/halo2#250</title>
<path fill="none" stroke="#000000" d="M916.78,-447.74C933.64,-450.92 951.41,-454.27 968.68,-457.52"/>
<polygon fill="#000000" stroke="#000000" points="968.295,-461.0089 978.77,-459.42 969.5904,-454.1298 968.295,-461.0089"/>
</g>
<!-- zcash/halo2#248 -->
<g id="node28" class="node open">
<title>zcash/halo2#248</title>
<g id="a_node28"><a xlink:href="https://github.com/zcash/halo2/issues/248" xlink:title="zcash/halo2#248&#10;Implement endoscaling in&#10;the circuit" target="_blank">
<polygon fill="#c2e0c6" stroke="#000000" stroke-width="2" points="929.5,-622.5 726.5,-622.5 726.5,-569.5 929.5,-569.5 929.5,-622.5"/>
<text text-anchor="middle" x="828" y="-607.3" font-family="Times,serif" font-size="14.00" fill="#000000">zcash/halo2#248</text>
<text text-anchor="middle" x="828" y="-592.3" font-family="Times,serif" font-size="14.00" fill="#000000">Implement endoscaling in</text>
<text text-anchor="middle" x="828" y="-577.3" font-family="Times,serif" font-size="14.00" fill="#000000">the circuit</text>
</a>
</g>
</g>
<!-- zcash/halo2#248&#45;&gt;zcash/halo2#250 -->
<g id="edge21" class="edge">
<title>zcash/halo2#248&#45;&gt;zcash/halo2#250</title>
<path fill="none" stroke="#000000" d="M908.74,-569.5C916.34,-566.49 923.87,-563.31 931,-560 962.72,-545.29 996.53,-525.54 1023.1,-509"/>
<polygon fill="#000000" stroke="#000000" points="1025.204,-511.8112 1031.8,-503.52 1021.4732,-505.8882 1025.204,-511.8112"/>
</g>
<!-- zcash/halo2#245 -->
<g id="node29" class="node open">
<title>zcash/halo2#245</title>
<g id="a_node29"><a xlink:href="https://github.com/zcash/halo2/issues/245" xlink:title="zcash/halo2#245&#10;Remove the need to&#10;multiply by powers of x^n&#10;in verifier" target="_blank">
<polygon fill="#c2e0c6" stroke="#000000" stroke-width="2" points="931,-551 725,-551 725,-483 931,-483 931,-551"/>
<text text-anchor="middle" x="828" y="-535.8" font-family="Times,serif" font-size="14.00" fill="#000000">zcash/halo2#245</text>
<text text-anchor="middle" x="828" y="-520.8" font-family="Times,serif" font-size="14.00" fill="#000000">Remove the need to</text>
<text text-anchor="middle" x="828" y="-505.8" font-family="Times,serif" font-size="14.00" fill="#000000">multiply by powers of x^n</text>
<text text-anchor="middle" x="828" y="-490.8" font-family="Times,serif" font-size="14.00" fill="#000000">in verifier</text>
</a>
</g>
</g>
<!-- zcash/halo2#245&#45;&gt;zcash/halo2#250 -->
<g id="edge22" class="edge">
<title>zcash/halo2#245&#45;&gt;zcash/halo2#250</title>
<path fill="none" stroke="#000000" d="M931.12,-500.09C943.65,-498.04 956.44,-495.94 968.96,-493.89"/>
<polygon fill="#000000" stroke="#000000" points="969.6258,-497.3277 978.93,-492.26 968.4963,-490.4194 969.6258,-497.3277"/>
</g>
<!-- zcash/halo2#548 -->
<g id="node30" class="node open">
<title>zcash/halo2#548</title>
<g id="a_node30"><a xlink:href="https://github.com/zcash/halo2/issues/548" xlink:title="zcash/halo2#548&#10;Implement performance and&#10;memory optimizations for&#10;halo2_proofs" target="_blank">
<polygon fill="#c2e0c6" stroke="#000000" stroke-width="2" points="223.5,-770 2.5,-770 2.5,-702 223.5,-702 223.5,-770"/>
<text text-anchor="middle" x="113" y="-754.8" font-family="Times,serif" font-size="14.00" fill="#000000">zcash/halo2#548</text>
<text text-anchor="middle" x="113" y="-739.8" font-family="Times,serif" font-size="14.00" fill="#000000">Implement performance and</text>
<text text-anchor="middle" x="113" y="-724.8" font-family="Times,serif" font-size="14.00" fill="#000000">memory optimizations for</text>
<text text-anchor="middle" x="113" y="-709.8" font-family="Times,serif" font-size="14.00" fill="#000000">halo2_proofs</text>
</a>
</g>
</g>
<!-- zcash/halo2#569 -->
<g id="node31" class="node open">
<title>zcash/halo2#569</title>
<g id="a_node31"><a xlink:href="https://github.com/zcash/halo2/issues/569" xlink:title="zcash/halo2#569&#10;Implement the recursive&#10;proof verifier" target="_blank">
<polygon fill="#c2e0c6" stroke="#000000" stroke-width="2" points="1169,-432.5 975,-432.5 975,-379.5 1169,-379.5 1169,-432.5"/>
<text text-anchor="middle" x="1072" y="-417.3" font-family="Times,serif" font-size="14.00" fill="#000000">zcash/halo2#569</text>
<text text-anchor="middle" x="1072" y="-402.3" font-family="Times,serif" font-size="14.00" fill="#000000">Implement the recursive</text>
<text text-anchor="middle" x="1072" y="-387.3" font-family="Times,serif" font-size="14.00" fill="#000000">proof verifier</text>
</a>
</g>
</g>
<!-- zcash/halo2#569&#45;&gt;zcash/halo2#75 -->
<g id="edge23" class="edge">
<title>zcash/halo2#569&#45;&gt;zcash/halo2#75</title>
<path fill="none" stroke="#000000" d="M1169.3,-406C1185.9,-406 1203.2,-406 1219.9,-406"/>
<polygon fill="#000000" stroke="#000000" points="1220.3,-409.5001 1230.3,-406 1220.3,-402.5001 1220.3,-409.5001"/>
</g>
<!-- zcash/halo2#578 -->
<g id="node32" class="node open">
<title>zcash/halo2#578</title>
<g id="a_node32"><a xlink:href="https://github.com/zcash/halo2/issues/578" xlink:title="zcash/halo2#578&#10;Extend `EccChip` to&#10;support Vesta" target="_blank">
<polygon fill="#c2e0c6" stroke="#000000" stroke-width="2" points="911.5,-206.5 744.5,-206.5 744.5,-153.5 911.5,-153.5 911.5,-206.5"/>
<text text-anchor="middle" x="828" y="-191.3" font-family="Times,serif" font-size="14.00" fill="#000000">zcash/halo2#578</text>
<text text-anchor="middle" x="828" y="-176.3" font-family="Times,serif" font-size="14.00" fill="#000000">Extend `EccChip` to</text>
<text text-anchor="middle" x="828" y="-161.3" font-family="Times,serif" font-size="14.00" fill="#000000">support Vesta</text>
</a>
</g>
</g>
<!-- zcash/halo2#578&#45;&gt;zcash/halo2#250 -->
<g id="edge24" class="edge">
<title>zcash/halo2#578&#45;&gt;zcash/halo2#250</title>
<path fill="none" stroke="#000000" d="M911.92,-200.02C919.1,-204.35 925.65,-209.61 931,-216 996.23,-294.04 901.2,-364.44 967,-442 968.31,-443.54 969.68,-445.01 971.12,-446.42"/>
<polygon fill="#000000" stroke="#000000" points="968.8935,-449.121 978.78,-452.93 973.4267,-443.7871 968.8935,-449.121"/>
</g>
<!-- zcash/halo2#579 -->
<g id="node33" class="node open">
<title>zcash/halo2#579</title>
<g id="a_node33"><a xlink:href="https://github.com/zcash/halo2/issues/579" xlink:title="zcash/halo2#579&#10;Consider extending&#10;`EccChip` to arbitrary&#10;curves" target="_blank">
<polygon fill="#c2e0c6" stroke="#000000" points="1162,-174 982,-174 982,-106 1162,-106 1162,-174"/>
<text text-anchor="middle" x="1072" y="-158.8" font-family="Times,serif" font-size="14.00" fill="#000000">zcash/halo2#579</text>
<text text-anchor="middle" x="1072" y="-143.8" font-family="Times,serif" font-size="14.00" fill="#000000">Consider extending</text>
<text text-anchor="middle" x="1072" y="-128.8" font-family="Times,serif" font-size="14.00" fill="#000000">`EccChip` to arbitrary</text>
<text text-anchor="middle" x="1072" y="-113.8" font-family="Times,serif" font-size="14.00" fill="#000000">curves</text>
</a>
</g>
</g>
<!-- zcash/halo2#578&#45;&gt;zcash/halo2#579 -->
<g id="edge25" class="edge">
<title>zcash/halo2#578&#45;&gt;zcash/halo2#579</title>
<path fill="none" stroke="#000000" d="M911.63,-166.29C930.98,-163.12 951.77,-159.71 971.76,-156.43"/>
<polygon fill="#000000" stroke="#000000" points="972.5043,-159.8549 981.81,-154.79 971.3768,-152.9463 972.5043,-159.8549"/>
</g>
<!-- zcash/halo2#312 -->
<g id="node34" class="node open">
<title>zcash/halo2#312</title>
<g id="a_node34"><a xlink:href="https://github.com/zcash/halo2/issues/312" xlink:title="zcash/halo2#312&#10;[Book] Document gadget&#10;API" target="_blank">
<polygon fill="#c2e0c6" stroke="#000000" stroke-width="2" points="210.5,-841.5 15.5,-841.5 15.5,-788.5 210.5,-788.5 210.5,-841.5"/>
<text text-anchor="middle" x="113" y="-826.3" font-family="Times,serif" font-size="14.00" fill="#000000">zcash/halo2#312</text>
<text text-anchor="middle" x="113" y="-811.3" font-family="Times,serif" font-size="14.00" fill="#000000">[Book] Document gadget</text>
<text text-anchor="middle" x="113" y="-796.3" font-family="Times,serif" font-size="14.00" fill="#000000">API</text>
</a>
</g>
</g>
</g>
</svg>
