<?xml version="1.0" encoding="UTF-8" standalone="no"?>
<?xml-stylesheet href="zcash-dag.css" type="text/css"?>
<!DOCTYPE svg PUBLIC "-//W3C//DTD SVG 1.1//EN"
 "http://www.w3.org/Graphics/SVG/1.1/DTD/svg11.dtd">
<!-- Generated by graphviz version 2.43.0 (0)
 -->
<!-- Pages: 1 -->
<svg width="683pt" height="365pt"
 viewBox="0.00 0.00 683.00 364.50" xmlns="http://www.w3.org/2000/svg" xmlns:xlink="http://www.w3.org/1999/xlink">
<g id="graph0" class="graph" transform="scale(1 1) rotate(0) translate(4 360.5)">
<polygon fill="white" stroke="transparent" points="-4,4 -4,-360.5 679,-360.5 679,4 -4,4"/>
<!-- zcash/zcash#2718 -->
<g id="node1" class="node open">
<title>zcash/zcash#2718</title>
<g id="a_node1"><a xlink:href="https://github.com/zcash/zcash/issues/2718" xlink:title="zcash/zcash#2718&#10;Commit to an absolute&#10;minimum time before which&#10;any kind of address&#10;withdrawal" target="_blank">
<polygon fill="#c2e0c6" stroke="black" stroke-width="2" points="218,-356.5 0,-356.5 0,-273.5 218,-273.5 218,-356.5"/>
<text text-anchor="middle" x="109" y="-341.3" font-family="Times,serif" font-size="14.00">zcash/zcash#2718</text>
<text text-anchor="middle" x="109" y="-326.3" font-family="Times,serif" font-size="14.00">Commit to an absolute</text>
<text text-anchor="middle" x="109" y="-311.3" font-family="Times,serif" font-size="14.00">minimum time before which</text>
<text text-anchor="middle" x="109" y="-296.3" font-family="Times,serif" font-size="14.00">any kind of address</text>
<text text-anchor="middle" x="109" y="-281.3" font-family="Times,serif" font-size="14.00">withdrawal</text>
</a>
</g>
</g>
<!-- zcash/zcash#3788 -->
<g id="node2" class="node open">
<title>zcash/zcash#3788</title>
<g id="a_node2"><a xlink:href="https://github.com/zcash/zcash/issues/3788" xlink:title="zcash/zcash#3788&#10;Sprout Deprecation&#10;roadmap" target="_blank">
<polygon fill="#c2e0c6" stroke="black" points="432.5,-341.5 275.5,-341.5 275.5,-288.5 432.5,-288.5 432.5,-341.5"/>
<text text-anchor="middle" x="354" y="-326.3" font-family="Times,serif" font-size="14.00">zcash/zcash#3788</text>
<text text-anchor="middle" x="354" y="-311.3" font-family="Times,serif" font-size="14.00">Sprout Deprecation</text>
<text text-anchor="middle" x="354" y="-296.3" font-family="Times,serif" font-size="14.00">roadmap</text>
</a>
</g>
</g>
<!-- zcash/zcash#2718&#45;&gt;zcash/zcash#3788 -->
<g id="edge1" class="edge">
<title>zcash/zcash#2718&#45;&gt;zcash/zcash#3788</title>
<path fill="none" stroke="black" d="M218.35,-315C233.98,-315 249.91,-315 265.07,-315"/>
<polygon fill="black" stroke="black" points="265.44,-318.5 275.44,-315 265.44,-311.5 265.44,-318.5"/>
</g>
<!-- zcash/zcash#4202 -->
<g id="node3" class="node open">
<title>zcash/zcash#4202</title>
<g id="a_node3"><a xlink:href="https://github.com/zcash/zcash/issues/4202" xlink:title="zcash/zcash#4202&#10;Sprout Pool Retirement" target="_blank">
<polygon fill="#c2e0c6" stroke="black" points="675,-197 672,-201 651,-201 648,-197 490,-197 490,-159 675,-159 675,-197"/>
<text text-anchor="middle" x="582.5" y="-181.8" font-family="Times,serif" font-size="14.00">zcash/zcash#4202</text>
<text text-anchor="middle" x="582.5" y="-166.8" font-family="Times,serif" font-size="14.00">Sprout Pool Retirement</text>
</a>
</g>
</g>
<!-- zcash/zcash#3788&#45;&gt;zcash/zcash#4202 -->
<g id="edge2" class="edge">
<title>zcash/zcash#3788&#45;&gt;zcash/zcash#4202</title>
<path fill="none" stroke="black" d="M432.56,-289.56C439.95,-286.31 447.21,-282.79 454,-279 491.6,-258 529.64,-226.18 554.26,-203.88"/>
<polygon fill="black" stroke="black" points="556.76,-206.34 561.77,-197 552.03,-201.17 556.76,-206.34"/>
</g>
<!-- zcash/zips#825 -->
<g id="node4" class="node open">
<title>zcash/zips#825</title>
<g id="a_node4"><a xlink:href="https://github.com/zcash/zips/issues/825" xlink:title="zcash/zips#825&#10;Proposal to disallow v4&#10;transactions and move all&#10;Sprout funds to the ZSF&#10;in NU7" target="_blank">
<polygon fill="#c2e0c6" stroke="black" stroke-width="2" points="454,-270.5 254,-270.5 254,-187.5 454,-187.5 454,-270.5"/>
<text text-anchor="middle" x="354" y="-255.3" font-family="Times,serif" font-size="14.00">zcash/zips#825</text>
<text text-anchor="middle" x="354" y="-240.3" font-family="Times,serif" font-size="14.00">Proposal to disallow v4</text>
<text text-anchor="middle" x="354" y="-225.3" font-family="Times,serif" font-size="14.00">transactions and move all</text>
<text text-anchor="middle" x="354" y="-210.3" font-family="Times,serif" font-size="14.00">Sprout funds to the ZSF</text>
<text text-anchor="middle" x="354" y="-195.3" font-family="Times,serif" font-size="14.00">in NU7</text>
</a>
</g>
</g>
<!-- zcash/zips#825&#45;&gt;zcash/zcash#4202 -->
<g id="edge3" class="edge">
<title>zcash/zips#825&#45;&gt;zcash/zcash#4202</title>
<path fill="none" stroke="black" d="M454.02,-206.7C464.95,-204.24 476.07,-201.74 486.95,-199.29"/>
<polygon fill="black" stroke="black" points="487.87,-202.67 496.86,-197.06 486.34,-195.84 487.87,-202.67"/>
</g>
<!-- zcash/zcash#3787 -->
<g id="node5" class="node open">
<title>zcash/zcash#3787</title>
<g id="a_node5"><a xlink:href="https://github.com/zcash/zcash/issues/3787" xlink:title="zcash/zcash#3787&#10;Deprecate the Sprout&#10;value pool by moving&#10;remaining funds to a&#10;permissioned faucet" target="_blank">
<polygon fill="#c2e0c6" stroke="black" stroke-width="2" points="439.5,-169.5 268.5,-169.5 268.5,-86.5 439.5,-86.5 439.5,-169.5"/>
<text text-anchor="middle" x="354" y="-154.3" font-family="Times,serif" font-size="14.00">zcash/zcash#3787</text>
<text text-anchor="middle" x="354" y="-139.3" font-family="Times,serif" font-size="14.00">Deprecate the Sprout</text>
<text text-anchor="middle" x="354" y="-124.3" font-family="Times,serif" font-size="14.00">value pool by moving</text>
<text text-anchor="middle" x="354" y="-109.3" font-family="Times,serif" font-size="14.00">remaining funds to a</text>
<text text-anchor="middle" x="354" y="-94.3" font-family="Times,serif" font-size="14.00">permissioned faucet</text>
</a>
</g>
</g>
<!-- zcash/zcash#3787&#45;&gt;zcash/zcash#4202 -->
<g id="edge4" class="edge">
<title>zcash/zcash#3787&#45;&gt;zcash/zcash#4202</title>
<path fill="none" stroke="black" d="M439.66,-146.69C454.51,-149.97 470.05,-153.4 485.18,-156.74"/>
<polygon fill="black" stroke="black" points="484.53,-160.18 495.05,-158.92 486.04,-153.35 484.53,-160.18"/>
</g>
<!-- zcash/zips#452 -->
<g id="node6" class="node open">
<title>zcash/zips#452</title>
<g id="a_node6"><a xlink:href="https://github.com/zcash/zips/issues/452" xlink:title="zcash/zips#452&#10;Develop one or more Pool&#10;Lifecycle proposals to&#10;become ZIPs." target="_blank">
<polygon fill="#c2e0c6" stroke="black" stroke-width="2" points="454,-68 254,-68 254,0 454,0 454,-68"/>
<text text-anchor="middle" x="354" y="-52.8" font-family="Times,serif" font-size="14.00">zcash/zips#452</text>
<text text-anchor="middle" x="354" y="-37.8" font-family="Times,serif" font-size="14.00">Develop one or more Pool</text>
<text text-anchor="middle" x="354" y="-22.8" font-family="Times,serif" font-size="14.00">Lifecycle proposals to</text>
<text text-anchor="middle" x="354" y="-7.8" font-family="Times,serif" font-size="14.00">become ZIPs.</text>
</a>
</g>
</g>
<!-- zcash/zips#452&#45;&gt;zcash/zcash#4202 -->
<g id="edge5" class="edge">
<title>zcash/zips#452&#45;&gt;zcash/zcash#4202</title>
<path fill="none" stroke="black" d="M437.93,-68.07C443.45,-70.93 448.86,-73.92 454,-77 490.5,-98.87 528.21,-129.99 553.05,-151.89"/>
<polygon fill="black" stroke="black" points="550.85,-154.62 560.65,-158.66 555.51,-149.39 550.85,-154.62"/>
</g>
</g>
</svg>
