<?xml version="1.0" encoding="UTF-8" standalone="no"?>
<?xml-stylesheet href="zcash-dag.css" type="text/css"?>
<!DOCTYPE svg PUBLIC "-//W3C//DTD SVG 1.1//EN"
 "http://www.w3.org/Graphics/SVG/1.1/DTD/svg11.dtd">
<!-- Generated by graphviz version 2.40.1 (20161225.0304)
 -->
<!-- Pages: 1 -->
<svg width="1669pt" height="1197pt"
 viewBox="0.00 0.00 1669.00 1196.50" xmlns="http://www.w3.org/2000/svg" xmlns:xlink="http://www.w3.org/1999/xlink">
<g id="graph0" class="graph" transform="scale(1 1) rotate(0) translate(4 1192.5)">
<polygon fill="#ffffff" stroke="transparent" points="-4,4 -4,-1192.5 1665,-1192.5 1665,4 -4,4"/>
<!-- zcash/pasta_curves#35 -->
<g id="node1" class="node open">
<title>zcash/pasta_curves#35</title>
<g id="a_node1"><a xlink:href="https://github.com/zcash/pasta_curves/issues/35" xlink:title="zcash/pasta_curves#35&#10;Enable `ec&#45;gpu` to&#10;generate MSM and FFT code&#10;for `pasta_curves`" target="_blank">
<polygon fill="#c2e0c6" stroke="#000000" stroke-width="2" points="226,-68 0,-68 0,0 226,0 226,-68"/>
<text text-anchor="middle" x="113" y="-52.8" font-family="Times,serif" font-size="14.00" fill="#000000">zcash/pasta_curves#35</text>
<text text-anchor="middle" x="113" y="-37.8" font-family="Times,serif" font-size="14.00" fill="#000000">Enable `ec&#45;gpu` to</text>
<text text-anchor="middle" x="113" y="-22.8" font-family="Times,serif" font-size="14.00" fill="#000000">generate MSM and FFT code</text>
<text text-anchor="middle" x="113" y="-7.8" font-family="Times,serif" font-size="14.00" fill="#000000">for `pasta_curves`</text>
</a>
</g>
</g>
<!-- zcash/halo2#379 -->
<g id="node2" class="node open">
<title>zcash/halo2#379</title>
<g id="a_node2"><a xlink:href="https://github.com/zcash/halo2/issues/379" xlink:title="zcash/halo2#379&#10;Add `ec&#45;gpu` support" target="_blank">
<polygon fill="#c2e0c6" stroke="#000000" points="450,-53 277,-53 277,-15 450,-15 450,-53"/>
<text text-anchor="middle" x="363.5" y="-37.8" font-family="Times,serif" font-size="14.00" fill="#000000">zcash/halo2#379</text>
<text text-anchor="middle" x="363.5" y="-22.8" font-family="Times,serif" font-size="14.00" fill="#000000">Add `ec&#45;gpu` support</text>
</a>
</g>
</g>
<!-- zcash/pasta_curves#35&#45;&gt;zcash/halo2#379 -->
<g id="edge1" class="edge">
<title>zcash/pasta_curves#35&#45;&gt;zcash/halo2#379</title>
<path fill="none" stroke="#000000" d="M226.16,-34C239.69,-34 253.42,-34 266.69,-34"/>
<polygon fill="#000000" stroke="#000000" points="266.75,-37.5001 276.75,-34 266.75,-30.5001 266.75,-37.5001"/>
</g>
<!-- zcash/halo2#426 -->
<g id="node3" class="node committed">
<title>zcash/halo2#426</title>
<g id="a_node3"><a xlink:href="https://github.com/zcash/halo2/issues/426" xlink:title="zcash/halo2#426&#10;Publish `halo2_proofs&#10;0.1.0`" target="_blank">
<polygon fill="#a6cfff" stroke="#000000" points="686,-217.5 513,-217.5 513,-164.5 686,-164.5 686,-217.5"/>
<text text-anchor="middle" x="599.5" y="-202.3" font-family="Times,serif" font-size="14.00" fill="#000000">zcash/halo2#426</text>
<text text-anchor="middle" x="599.5" y="-187.3" font-family="Times,serif" font-size="14.00" fill="#000000">Publish `halo2_proofs</text>
<text text-anchor="middle" x="599.5" y="-172.3" font-family="Times,serif" font-size="14.00" fill="#000000">0.1.0`</text>
</a>
</g>
</g>
<!-- zcash/halo2#460 -->
<g id="node4" class="node committed">
<title>zcash/halo2#460</title>
<g id="a_node4"><a xlink:href="https://github.com/zcash/halo2/issues/460" xlink:title="zcash/halo2#460&#10;Publish `halo2_gadgets&#10;v0.1.0`" target="_blank">
<polygon fill="#a6cfff" stroke="#000000" points="929.5,-295.5 744.5,-295.5 744.5,-242.5 929.5,-242.5 929.5,-295.5"/>
<text text-anchor="middle" x="837" y="-280.3" font-family="Times,serif" font-size="14.00" fill="#000000">zcash/halo2#460</text>
<text text-anchor="middle" x="837" y="-265.3" font-family="Times,serif" font-size="14.00" fill="#000000">Publish `halo2_gadgets</text>
<text text-anchor="middle" x="837" y="-250.3" font-family="Times,serif" font-size="14.00" fill="#000000">v0.1.0`</text>
</a>
</g>
</g>
<!-- zcash/halo2#426&#45;&gt;zcash/halo2#460 -->
<g id="edge2" class="edge">
<title>zcash/halo2#426&#45;&gt;zcash/halo2#460</title>
<path fill="none" stroke="#000000" d="M680.24,-217.52C701.56,-224.52 724.7,-232.12 746.5,-239.28"/>
<polygon fill="#000000" stroke="#000000" points="745.4873,-242.6312 756.08,-242.42 747.6676,-235.9794 745.4873,-242.6312"/>
</g>
<!-- zcash/halo2#380 -->
<g id="node5" class="node committed">
<title>zcash/halo2#380</title>
<g id="a_node5"><a xlink:href="https://github.com/zcash/halo2/pull/380" xlink:title="zcash/halo2#380&#10;[book] Fix errors and&#10;typos" target="_blank">
<polygon fill="#a6cfff" stroke="#000000" points="921,-217.5 753,-217.5 753,-213.5 749,-213.5 749,-209.5 753,-209.5 753,-172.5 749,-172.5 749,-168.5 753,-168.5 753,-164.5 921,-164.5 921,-217.5"/>
<polyline fill="none" stroke="#000000" points="753,-213.5 757,-213.5 757,-209.5 753,-209.5 "/>
<polyline fill="none" stroke="#000000" points="753,-172.5 757,-172.5 757,-168.5 753,-168.5 "/>
<text text-anchor="middle" x="837" y="-202.3" font-family="Times,serif" font-size="14.00" fill="#000000">zcash/halo2#380</text>
<text text-anchor="middle" x="837" y="-187.3" font-family="Times,serif" font-size="14.00" fill="#000000">[book] Fix errors and</text>
<text text-anchor="middle" x="837" y="-172.3" font-family="Times,serif" font-size="14.00" fill="#000000">typos</text>
</a>
</g>
</g>
<!-- zcash/halo2#426&#45;&gt;zcash/halo2#380 -->
<g id="edge3" class="edge">
<title>zcash/halo2#426&#45;&gt;zcash/halo2#380</title>
<path fill="none" stroke="#000000" d="M686.25,-191C704.59,-191 724.02,-191 742.63,-191"/>
<polygon fill="#000000" stroke="#000000" points="742.86,-194.5001 752.86,-191 742.86,-187.5001 742.86,-194.5001"/>
</g>
<!-- zcash/halo2#75 -->
<g id="node6" class="node open">
<title>zcash/halo2#75</title>
<g id="a_node6"><a xlink:href="https://github.com/zcash/halo2/issues/75" xlink:title="zcash/halo2#75&#10;Implement support for&#10;recursion" target="_blank">
<polygon fill="#c2e0c6" stroke="#000000" points="1418.5,-561.5 1239.5,-561.5 1239.5,-508.5 1418.5,-508.5 1418.5,-561.5"/>
<text text-anchor="middle" x="1329" y="-546.3" font-family="Times,serif" font-size="14.00" fill="#000000">zcash/halo2#75</text>
<text text-anchor="middle" x="1329" y="-531.3" font-family="Times,serif" font-size="14.00" fill="#000000">Implement support for</text>
<text text-anchor="middle" x="1329" y="-516.3" font-family="Times,serif" font-size="14.00" fill="#000000">recursion</text>
</a>
</g>
</g>
<!-- zcash/halo2#494 -->
<g id="node7" class="node open">
<title>zcash/halo2#494</title>
<g id="a_node7"><a xlink:href="https://github.com/zcash/halo2/issues/494" xlink:title="zcash/halo2#494&#10;Consider adding an API&#10;that enables application&#10;circuits to be built&#10;across both fields" target="_blank">
<polygon fill="#c2e0c6" stroke="#000000" points="1661,-576.5 1472,-576.5 1472,-493.5 1661,-493.5 1661,-576.5"/>
<text text-anchor="middle" x="1566.5" y="-561.3" font-family="Times,serif" font-size="14.00" fill="#000000">zcash/halo2#494</text>
<text text-anchor="middle" x="1566.5" y="-546.3" font-family="Times,serif" font-size="14.00" fill="#000000">Consider adding an API</text>
<text text-anchor="middle" x="1566.5" y="-531.3" font-family="Times,serif" font-size="14.00" fill="#000000">that enables application</text>
<text text-anchor="middle" x="1566.5" y="-516.3" font-family="Times,serif" font-size="14.00" fill="#000000">circuits to be built</text>
<text text-anchor="middle" x="1566.5" y="-501.3" font-family="Times,serif" font-size="14.00" fill="#000000">across both fields</text>
</a>
</g>
</g>
<!-- zcash/halo2#75&#45;&gt;zcash/halo2#494 -->
<g id="edge4" class="edge">
<title>zcash/halo2#75&#45;&gt;zcash/halo2#494</title>
<path fill="none" stroke="#000000" d="M1418.8,-535C1432.7,-535 1447.3,-535 1461.5,-535"/>
<polygon fill="#000000" stroke="#000000" points="1461.8,-538.5001 1471.8,-535 1461.8,-531.5001 1461.8,-538.5001"/>
</g>
<!-- zcash/halo2#79 -->
<g id="node8" class="node open">
<title>zcash/halo2#79</title>
<g id="a_node8"><a xlink:href="https://github.com/zcash/halo2/issues/79" xlink:title="zcash/halo2#79&#10;Migrate Rescue and&#10;Poseidon gadgets to&#10;algebraic hash&#10;abstraction" target="_blank">
<polygon fill="#c2e0c6" stroke="#000000" points="1161.5,-843.5 1000.5,-843.5 1000.5,-760.5 1161.5,-760.5 1161.5,-843.5"/>
<text text-anchor="middle" x="1081" y="-828.3" font-family="Times,serif" font-size="14.00" fill="#000000">zcash/halo2#79</text>
<text text-anchor="middle" x="1081" y="-813.3" font-family="Times,serif" font-size="14.00" fill="#000000">Migrate Rescue and</text>
<text text-anchor="middle" x="1081" y="-798.3" font-family="Times,serif" font-size="14.00" fill="#000000">Poseidon gadgets to</text>
<text text-anchor="middle" x="1081" y="-783.3" font-family="Times,serif" font-size="14.00" fill="#000000">algebraic hash</text>
<text text-anchor="middle" x="1081" y="-768.3" font-family="Times,serif" font-size="14.00" fill="#000000">abstraction</text>
</a>
</g>
</g>
<!-- zcash/halo2#78 -->
<g id="node9" class="node open">
<title>zcash/halo2#78</title>
<g id="a_node9"><a xlink:href="https://github.com/zcash/halo2/issues/78" xlink:title="zcash/halo2#78&#10;Implement algebraic hash&#10;/ random oracle&#10;abstraction gadget" target="_blank">
<polygon fill="#c2e0c6" stroke="#000000" stroke-width="2" points="939,-836 735,-836 735,-768 939,-768 939,-836"/>
<text text-anchor="middle" x="837" y="-820.8" font-family="Times,serif" font-size="14.00" fill="#000000">zcash/halo2#78</text>
<text text-anchor="middle" x="837" y="-805.8" font-family="Times,serif" font-size="14.00" fill="#000000">Implement algebraic hash</text>
<text text-anchor="middle" x="837" y="-790.8" font-family="Times,serif" font-size="14.00" fill="#000000">/ random oracle</text>
<text text-anchor="middle" x="837" y="-775.8" font-family="Times,serif" font-size="14.00" fill="#000000">abstraction gadget</text>
</a>
</g>
</g>
<!-- zcash/halo2#78&#45;&gt;zcash/halo2#79 -->
<g id="edge5" class="edge">
<title>zcash/halo2#78&#45;&gt;zcash/halo2#79</title>
<path fill="none" stroke="#000000" d="M939.06,-802C956.04,-802 973.55,-802 990.23,-802"/>
<polygon fill="#000000" stroke="#000000" points="990.5,-805.5001 1000.5,-802 990.5,-798.5001 990.5,-805.5001"/>
</g>
<!-- zcash/halo2#250 -->
<g id="node10" class="node open">
<title>zcash/halo2#250</title>
<g id="a_node10"><a xlink:href="https://github.com/zcash/halo2/issues/250" xlink:title="zcash/halo2#250&#10;Implement the logic for&#10;the IVC verifier circuit" target="_blank">
<polygon fill="#c2e0c6" stroke="#000000" points="1174,-623.5 988,-623.5 988,-570.5 1174,-570.5 1174,-623.5"/>
<text text-anchor="middle" x="1081" y="-608.3" font-family="Times,serif" font-size="14.00" fill="#000000">zcash/halo2#250</text>
<text text-anchor="middle" x="1081" y="-593.3" font-family="Times,serif" font-size="14.00" fill="#000000">Implement the logic for</text>
<text text-anchor="middle" x="1081" y="-578.3" font-family="Times,serif" font-size="14.00" fill="#000000">the IVC verifier circuit</text>
</a>
</g>
</g>
<!-- zcash/halo2#78&#45;&gt;zcash/halo2#250 -->
<g id="edge6" class="edge">
<title>zcash/halo2#78&#45;&gt;zcash/halo2#250</title>
<path fill="none" stroke="#000000" d="M926.1,-767.99C930.93,-765.17 935.6,-762.17 940,-759 989.13,-723.55 1032.7,-667.85 1058,-631.87"/>
<polygon fill="#000000" stroke="#000000" points="1060.8952,-633.8368 1063.7,-623.62 1055.1361,-629.8578 1060.8952,-633.8368"/>
</g>
<!-- zcash/halo2#250&#45;&gt;zcash/halo2#75 -->
<g id="edge7" class="edge">
<title>zcash/halo2#250&#45;&gt;zcash/halo2#75</title>
<path fill="none" stroke="#000000" d="M1174.1,-573.74C1192.1,-569.22 1211.1,-564.47 1229.4,-559.91"/>
<polygon fill="#000000" stroke="#000000" points="1230.256,-563.3038 1239.1,-557.47 1228.5483,-556.5153 1230.256,-563.3038"/>
</g>
<!-- zcash/halo2#57 -->
<g id="node11" class="node open">
<title>zcash/halo2#57</title>
<g id="a_node11"><a xlink:href="https://github.com/zcash/halo2/issues/57" xlink:title="zcash/halo2#57&#10;Remove unused&#10;fixed_values from&#10;ProvingKey" target="_blank">
<polygon fill="#c2e0c6" stroke="#000000" stroke-width="2" points="184.5,-574 41.5,-574 41.5,-506 184.5,-506 184.5,-574"/>
<text text-anchor="middle" x="113" y="-558.8" font-family="Times,serif" font-size="14.00" fill="#000000">zcash/halo2#57</text>
<text text-anchor="middle" x="113" y="-543.8" font-family="Times,serif" font-size="14.00" fill="#000000">Remove unused</text>
<text text-anchor="middle" x="113" y="-528.8" font-family="Times,serif" font-size="14.00" fill="#000000">fixed_values from</text>
<text text-anchor="middle" x="113" y="-513.8" font-family="Times,serif" font-size="14.00" fill="#000000">ProvingKey</text>
</a>
</g>
</g>
<!-- zcash/halo2#443 -->
<g id="node12" class="node open">
<title>zcash/halo2#443</title>
<g id="a_node12"><a xlink:href="https://github.com/zcash/halo2/issues/443" xlink:title="zcash/halo2#443&#10;implement `read` &amp;&#10;`write` for `halo2::plonk&#10;::ProvingKey`" target="_blank">
<polygon fill="#c2e0c6" stroke="#000000" points="460.5,-574 266.5,-574 266.5,-506 460.5,-506 460.5,-574"/>
<text text-anchor="middle" x="363.5" y="-558.8" font-family="Times,serif" font-size="14.00" fill="#000000">zcash/halo2#443</text>
<text text-anchor="middle" x="363.5" y="-543.8" font-family="Times,serif" font-size="14.00" fill="#000000">implement `read` &amp;</text>
<text text-anchor="middle" x="363.5" y="-528.8" font-family="Times,serif" font-size="14.00" fill="#000000">`write` for `halo2::plonk</text>
<text text-anchor="middle" x="363.5" y="-513.8" font-family="Times,serif" font-size="14.00" fill="#000000">::ProvingKey`</text>
</a>
</g>
</g>
<!-- zcash/halo2#57&#45;&gt;zcash/halo2#443 -->
<g id="edge8" class="edge">
<title>zcash/halo2#57&#45;&gt;zcash/halo2#443</title>
<path fill="none" stroke="#000000" d="M184.78,-540C207.05,-540 232.09,-540 256.22,-540"/>
<polygon fill="#000000" stroke="#000000" points="256.49,-543.5001 266.49,-540 256.49,-536.5001 256.49,-543.5001"/>
</g>
<!-- zcash/halo2#449 -->
<g id="node13" class="node committed">
<title>zcash/halo2#449</title>
<g id="a_node13"><a xlink:href="https://github.com/zcash/halo2/issues/449" xlink:title="zcash/halo2#449&#10;Define a stable&#10;serialization format for&#10;`VerifyingKey`" target="_blank">
<polygon fill="#a6cfff" stroke="#000000" stroke-width="2" points="204,-660 22,-660 22,-592 204,-592 204,-660"/>
<text text-anchor="middle" x="113" y="-644.8" font-family="Times,serif" font-size="14.00" fill="#000000">zcash/halo2#449</text>
<text text-anchor="middle" x="113" y="-629.8" font-family="Times,serif" font-size="14.00" fill="#000000">Define a stable</text>
<text text-anchor="middle" x="113" y="-614.8" font-family="Times,serif" font-size="14.00" fill="#000000">serialization format for</text>
<text text-anchor="middle" x="113" y="-599.8" font-family="Times,serif" font-size="14.00" fill="#000000">`VerifyingKey`</text>
</a>
</g>
</g>
<!-- zcash/halo2#482 -->
<g id="node14" class="node open">
<title>zcash/halo2#482</title>
<g id="a_node14"><a xlink:href="https://github.com/zcash/halo2/issues/482" xlink:title="zcash/halo2#482&#10;Raise MSRV to 1.56.1" target="_blank">
<polygon fill="#c2e0c6" stroke="#000000" stroke-width="2" points="199.5,-716 26.5,-716 26.5,-678 199.5,-678 199.5,-716"/>
<text text-anchor="middle" x="113" y="-700.8" font-family="Times,serif" font-size="14.00" fill="#000000">zcash/halo2#482</text>
<text text-anchor="middle" x="113" y="-685.8" font-family="Times,serif" font-size="14.00" fill="#000000">Raise MSRV to 1.56.1</text>
</a>
</g>
</g>
<!-- zcash/halo2#483 -->
<g id="node15" class="node committed">
<title>zcash/halo2#483</title>
<g id="a_node15"><a xlink:href="https://github.com/zcash/halo2/issues/483" xlink:title="zcash/halo2#483&#10;Refactor variable&#45;base&#10;scalar mul to distinguish&#10;the &quot;base field element&quot;&#10;case" target="_blank">
<polygon fill="#a6cfff" stroke="#000000" stroke-width="2" points="696.5,-318.5 502.5,-318.5 502.5,-235.5 696.5,-235.5 696.5,-318.5"/>
<text text-anchor="middle" x="599.5" y="-303.3" font-family="Times,serif" font-size="14.00" fill="#000000">zcash/halo2#483</text>
<text text-anchor="middle" x="599.5" y="-288.3" font-family="Times,serif" font-size="14.00" fill="#000000">Refactor variable&#45;base</text>
<text text-anchor="middle" x="599.5" y="-273.3" font-family="Times,serif" font-size="14.00" fill="#000000">scalar mul to distinguish</text>
<text text-anchor="middle" x="599.5" y="-258.3" font-family="Times,serif" font-size="14.00" fill="#000000">the &quot;base field element&quot;</text>
<text text-anchor="middle" x="599.5" y="-243.3" font-family="Times,serif" font-size="14.00" fill="#000000">case</text>
</a>
</g>
</g>
<!-- zcash/halo2#483&#45;&gt;zcash/halo2#460 -->
<g id="edge9" class="edge">
<title>zcash/halo2#483&#45;&gt;zcash/halo2#460</title>
<path fill="none" stroke="#000000" d="M696.79,-273.72C709.1,-273.31 721.72,-272.88 734.12,-272.47"/>
<polygon fill="#000000" stroke="#000000" points="734.5842,-275.9564 744.46,-272.12 734.3473,-268.9604 734.5842,-275.9564"/>
</g>
<!-- zcash/halo2#420 -->
<g id="node16" class="node open">
<title>zcash/halo2#420</title>
<g id="a_node16"><a xlink:href="https://github.com/zcash/halo2/issues/420" xlink:title="zcash/halo2#420&#10;CI: Measure memory&#45;usage&#10;benchmarks" target="_blank">
<polygon fill="#c2e0c6" stroke="#000000" stroke-width="2" points="220.5,-787.5 5.5,-787.5 5.5,-734.5 220.5,-734.5 220.5,-787.5"/>
<text text-anchor="middle" x="113" y="-772.3" font-family="Times,serif" font-size="14.00" fill="#000000">zcash/halo2#420</text>
<text text-anchor="middle" x="113" y="-757.3" font-family="Times,serif" font-size="14.00" fill="#000000">CI: Measure memory&#45;usage</text>
<text text-anchor="middle" x="113" y="-742.3" font-family="Times,serif" font-size="14.00" fill="#000000">benchmarks</text>
</a>
</g>
</g>
<!-- zcash/halo2#418 -->
<g id="node17" class="node open">
<title>zcash/halo2#418</title>
<g id="a_node17"><a xlink:href="https://github.com/zcash/halo2/issues/418" xlink:title="zcash/halo2#418&#10;[memory optimization]&#10;lookup prover memory&#10;analysis" target="_blank">
<polygon fill="#c2e0c6" stroke="#000000" points="453,-795 274,-795 274,-727 453,-727 453,-795"/>
<text text-anchor="middle" x="363.5" y="-779.8" font-family="Times,serif" font-size="14.00" fill="#000000">zcash/halo2#418</text>
<text text-anchor="middle" x="363.5" y="-764.8" font-family="Times,serif" font-size="14.00" fill="#000000">[memory optimization]</text>
<text text-anchor="middle" x="363.5" y="-749.8" font-family="Times,serif" font-size="14.00" fill="#000000">lookup prover memory</text>
<text text-anchor="middle" x="363.5" y="-734.8" font-family="Times,serif" font-size="14.00" fill="#000000">analysis</text>
</a>
</g>
</g>
<!-- zcash/halo2#420&#45;&gt;zcash/halo2#418 -->
<g id="edge10" class="edge">
<title>zcash/halo2#420&#45;&gt;zcash/halo2#418</title>
<path fill="none" stroke="#000000" d="M220.69,-761C234.99,-761 249.6,-761 263.75,-761"/>
<polygon fill="#000000" stroke="#000000" points="263.97,-764.5001 273.97,-761 263.97,-757.5001 263.97,-764.5001"/>
</g>
<!-- zcash/halo2#427 -->
<g id="node18" class="node open">
<title>zcash/halo2#427</title>
<g id="a_node18"><a xlink:href="https://github.com/zcash/halo2/issues/427" xlink:title="zcash/halo2#427&#10;Use smaller extended&#10;domains where possible&#10;during proving" target="_blank">
<polygon fill="#c2e0c6" stroke="#000000" stroke-width="2" points="207,-874 19,-874 19,-806 207,-806 207,-874"/>
<text text-anchor="middle" x="113" y="-858.8" font-family="Times,serif" font-size="14.00" fill="#000000">zcash/halo2#427</text>
<text text-anchor="middle" x="113" y="-843.8" font-family="Times,serif" font-size="14.00" fill="#000000">Use smaller extended</text>
<text text-anchor="middle" x="113" y="-828.8" font-family="Times,serif" font-size="14.00" fill="#000000">domains where possible</text>
<text text-anchor="middle" x="113" y="-813.8" font-family="Times,serif" font-size="14.00" fill="#000000">during proving</text>
</a>
</g>
</g>
<!-- zcash/halo2#456 -->
<g id="node19" class="node open">
<title>zcash/halo2#456</title>
<g id="a_node19"><a xlink:href="https://github.com/zcash/halo2/issues/456" xlink:title="zcash/halo2#456&#10;Benchmark `sha256`&#10;gadget." target="_blank">
<polygon fill="#c2e0c6" stroke="#000000" stroke-width="2" points="198,-945.5 28,-945.5 28,-892.5 198,-892.5 198,-945.5"/>
<text text-anchor="middle" x="113" y="-930.3" font-family="Times,serif" font-size="14.00" fill="#000000">zcash/halo2#456</text>
<text text-anchor="middle" x="113" y="-915.3" font-family="Times,serif" font-size="14.00" fill="#000000">Benchmark `sha256`</text>
<text text-anchor="middle" x="113" y="-900.3" font-family="Times,serif" font-size="14.00" fill="#000000">gadget.</text>
</a>
</g>
</g>
<!-- zcash/halo2#455 -->
<g id="node20" class="node open">
<title>zcash/halo2#455</title>
<g id="a_node20"><a xlink:href="https://github.com/zcash/halo2/issues/455" xlink:title="zcash/halo2#455&#10;[Book] add description of&#10;Poseidon gadget and chip" target="_blank">
<polygon fill="#c2e0c6" stroke="#000000" stroke-width="2" points="213,-1016.5 13,-1016.5 13,-963.5 213,-963.5 213,-1016.5"/>
<text text-anchor="middle" x="113" y="-1001.3" font-family="Times,serif" font-size="14.00" fill="#000000">zcash/halo2#455</text>
<text text-anchor="middle" x="113" y="-986.3" font-family="Times,serif" font-size="14.00" fill="#000000">[Book] add description of</text>
<text text-anchor="middle" x="113" y="-971.3" font-family="Times,serif" font-size="14.00" fill="#000000">Poseidon gadget and chip</text>
</a>
</g>
</g>
<!-- zcash/halo2#251 -->
<g id="node21" class="node open">
<title>zcash/halo2#251</title>
<g id="a_node21"><a xlink:href="https://github.com/zcash/halo2/issues/251" xlink:title="zcash/halo2#251&#10;Implement user&#45;facing API&#10;for recursive proving of&#10;IVC" target="_blank">
<polygon fill="#c2e0c6" stroke="#000000" points="1186,-506 976,-506 976,-438 1186,-438 1186,-506"/>
<text text-anchor="middle" x="1081" y="-490.8" font-family="Times,serif" font-size="14.00" fill="#000000">zcash/halo2#251</text>
<text text-anchor="middle" x="1081" y="-475.8" font-family="Times,serif" font-size="14.00" fill="#000000">Implement user&#45;facing API</text>
<text text-anchor="middle" x="1081" y="-460.8" font-family="Times,serif" font-size="14.00" fill="#000000">for recursive proving of</text>
<text text-anchor="middle" x="1081" y="-445.8" font-family="Times,serif" font-size="14.00" fill="#000000">IVC</text>
</a>
</g>
</g>
<!-- zcash/halo2#251&#45;&gt;zcash/halo2#75 -->
<g id="edge11" class="edge">
<title>zcash/halo2#251&#45;&gt;zcash/halo2#75</title>
<path fill="none" stroke="#000000" d="M1186.2,-498.72C1200.5,-502.37 1215.3,-506.11 1229.5,-509.73"/>
<polygon fill="#000000" stroke="#000000" points="1228.746,-513.1496 1239.3,-512.22 1230.4699,-506.3651 1228.746,-513.1496"/>
</g>
<!-- zcash/halo2#437 -->
<g id="node22" class="node open">
<title>zcash/halo2#437</title>
<g id="a_node22"><a xlink:href="https://github.com/zcash/halo2/issues/437" xlink:title="zcash/halo2#437&#10;Amend user&#45;facing API to&#10;work for both IVC and PCD" target="_blank">
<polygon fill="#c2e0c6" stroke="#000000" points="1436,-467.5 1222,-467.5 1222,-414.5 1436,-414.5 1436,-467.5"/>
<text text-anchor="middle" x="1329" y="-452.3" font-family="Times,serif" font-size="14.00" fill="#000000">zcash/halo2#437</text>
<text text-anchor="middle" x="1329" y="-437.3" font-family="Times,serif" font-size="14.00" fill="#000000">Amend user&#45;facing API to</text>
<text text-anchor="middle" x="1329" y="-422.3" font-family="Times,serif" font-size="14.00" fill="#000000">work for both IVC and PCD</text>
</a>
</g>
</g>
<!-- zcash/halo2#251&#45;&gt;zcash/halo2#437 -->
<g id="edge12" class="edge">
<title>zcash/halo2#251&#45;&gt;zcash/halo2#437</title>
<path fill="none" stroke="#000000" d="M1186.2,-458.85C1194.6,-457.8 1203.2,-456.73 1211.7,-455.66"/>
<polygon fill="#000000" stroke="#000000" points="1212.2114,-459.1234 1221.7,-454.41 1211.3431,-452.1775 1212.2114,-459.1234"/>
</g>
<!-- zcash/halo2#436 -->
<g id="node23" class="node open">
<title>zcash/halo2#436</title>
<g id="a_node23"><a xlink:href="https://github.com/zcash/halo2/issues/436" xlink:title="zcash/halo2#436&#10;Implement mock&#10;verification circuit for&#10;PCD" target="_blank">
<polygon fill="#c2e0c6" stroke="#000000" points="687,-416 512,-416 512,-348 687,-348 687,-416"/>
<text text-anchor="middle" x="599.5" y="-400.8" font-family="Times,serif" font-size="14.00" fill="#000000">zcash/halo2#436</text>
<text text-anchor="middle" x="599.5" y="-385.8" font-family="Times,serif" font-size="14.00" fill="#000000">Implement mock</text>
<text text-anchor="middle" x="599.5" y="-370.8" font-family="Times,serif" font-size="14.00" fill="#000000">verification circuit for</text>
<text text-anchor="middle" x="599.5" y="-355.8" font-family="Times,serif" font-size="14.00" fill="#000000">PCD</text>
</a>
</g>
</g>
<!-- zcash/halo2#436&#45;&gt;zcash/halo2#437 -->
<g id="edge13" class="edge">
<title>zcash/halo2#436&#45;&gt;zcash/halo2#437</title>
<path fill="none" stroke="#000000" d="M687.44,-388.94C802.16,-398.03 1009.1,-414.49 1186,-429 1194.3,-429.68 1202.9,-430.39 1211.5,-431.1"/>
<polygon fill="#000000" stroke="#000000" points="1211.3417,-434.599 1221.6,-431.95 1211.9288,-427.6236 1211.3417,-434.599"/>
</g>
<!-- zcash/halo2#438 -->
<g id="node24" class="node open">
<title>zcash/halo2#438</title>
<g id="a_node24"><a xlink:href="https://github.com/zcash/halo2/issues/438" xlink:title="zcash/halo2#438&#10;Implement the logic for&#10;the PCD verifier circuit" target="_blank">
<polygon fill="#c2e0c6" stroke="#000000" points="930,-381.5 744,-381.5 744,-328.5 930,-328.5 930,-381.5"/>
<text text-anchor="middle" x="837" y="-366.3" font-family="Times,serif" font-size="14.00" fill="#000000">zcash/halo2#438</text>
<text text-anchor="middle" x="837" y="-351.3" font-family="Times,serif" font-size="14.00" fill="#000000">Implement the logic for</text>
<text text-anchor="middle" x="837" y="-336.3" font-family="Times,serif" font-size="14.00" fill="#000000">the PCD verifier circuit</text>
</a>
</g>
</g>
<!-- zcash/halo2#436&#45;&gt;zcash/halo2#438 -->
<g id="edge14" class="edge">
<title>zcash/halo2#436&#45;&gt;zcash/halo2#438</title>
<path fill="none" stroke="#000000" d="M687.26,-372.02C702.33,-370.31 718.11,-368.52 733.54,-366.76"/>
<polygon fill="#000000" stroke="#000000" points="734.0767,-370.2217 743.62,-365.62 733.29,-363.266 734.0767,-370.2217"/>
</g>
<!-- zcash/halo2#435 -->
<g id="node25" class="node open">
<title>zcash/halo2#435</title>
<g id="a_node25"><a xlink:href="https://github.com/zcash/halo2/issues/435" xlink:title="zcash/halo2#435&#10;Implement mock&#10;verification circuit for&#10;IVC" target="_blank">
<polygon fill="#c2e0c6" stroke="#000000" points="687,-574 512,-574 512,-506 687,-506 687,-574"/>
<text text-anchor="middle" x="599.5" y="-558.8" font-family="Times,serif" font-size="14.00" fill="#000000">zcash/halo2#435</text>
<text text-anchor="middle" x="599.5" y="-543.8" font-family="Times,serif" font-size="14.00" fill="#000000">Implement mock</text>
<text text-anchor="middle" x="599.5" y="-528.8" font-family="Times,serif" font-size="14.00" fill="#000000">verification circuit for</text>
<text text-anchor="middle" x="599.5" y="-513.8" font-family="Times,serif" font-size="14.00" fill="#000000">IVC</text>
</a>
</g>
</g>
<!-- zcash/halo2#247 -->
<g id="node26" class="node open">
<title>zcash/halo2#247</title>
<g id="a_node26"><a xlink:href="https://github.com/zcash/halo2/issues/247" xlink:title="zcash/halo2#247&#10;Implement underlying&#10;scaffolding for creating&#10;the IVC proof cycle" target="_blank">
<polygon fill="#c2e0c6" stroke="#000000" points="929.5,-506 744.5,-506 744.5,-438 929.5,-438 929.5,-506"/>
<text text-anchor="middle" x="837" y="-490.8" font-family="Times,serif" font-size="14.00" fill="#000000">zcash/halo2#247</text>
<text text-anchor="middle" x="837" y="-475.8" font-family="Times,serif" font-size="14.00" fill="#000000">Implement underlying</text>
<text text-anchor="middle" x="837" y="-460.8" font-family="Times,serif" font-size="14.00" fill="#000000">scaffolding for creating</text>
<text text-anchor="middle" x="837" y="-445.8" font-family="Times,serif" font-size="14.00" fill="#000000">the IVC proof cycle</text>
</a>
</g>
</g>
<!-- zcash/halo2#435&#45;&gt;zcash/halo2#247 -->
<g id="edge15" class="edge">
<title>zcash/halo2#435&#45;&gt;zcash/halo2#247</title>
<path fill="none" stroke="#000000" d="M687.26,-514.87C702.69,-510.45 718.87,-505.82 734.66,-501.3"/>
<polygon fill="#000000" stroke="#000000" points="735.7671,-504.6238 744.42,-498.51 733.8431,-497.8934 735.7671,-504.6238"/>
</g>
<!-- zcash/halo2#247&#45;&gt;zcash/halo2#250 -->
<g id="edge16" class="edge">
<title>zcash/halo2#247&#45;&gt;zcash/halo2#250</title>
<path fill="none" stroke="#000000" d="M921.17,-506.06C927.59,-508.99 933.93,-511.98 940,-515 970.53,-530.17 1003.5,-549.21 1029.9,-565.12"/>
<polygon fill="#000000" stroke="#000000" points="1028.2316,-568.2012 1038.6,-570.38 1031.8533,-562.211 1028.2316,-568.2012"/>
</g>
<!-- zcash/halo2#247&#45;&gt;zcash/halo2#251 -->
<g id="edge17" class="edge">
<title>zcash/halo2#247&#45;&gt;zcash/halo2#251</title>
<path fill="none" stroke="#000000" d="M929.59,-472C941.39,-472 953.58,-472 965.68,-472"/>
<polygon fill="#000000" stroke="#000000" points="965.81,-475.5001 975.81,-472 965.81,-468.5001 965.81,-475.5001"/>
</g>
<!-- zcash/halo2#246 -->
<g id="node27" class="node open">
<title>zcash/halo2#246</title>
<g id="a_node27"><a xlink:href="https://github.com/zcash/halo2/issues/246" xlink:title="zcash/halo2#246&#10;Create recursive proof&#10;structures" target="_blank">
<polygon fill="#c2e0c6" stroke="#000000" points="453,-487.5 274,-487.5 274,-434.5 453,-434.5 453,-487.5"/>
<text text-anchor="middle" x="363.5" y="-472.3" font-family="Times,serif" font-size="14.00" fill="#000000">zcash/halo2#246</text>
<text text-anchor="middle" x="363.5" y="-457.3" font-family="Times,serif" font-size="14.00" fill="#000000">Create recursive proof</text>
<text text-anchor="middle" x="363.5" y="-442.3" font-family="Times,serif" font-size="14.00" fill="#000000">structures</text>
</a>
</g>
</g>
<!-- zcash/halo2#246&#45;&gt;zcash/halo2#436 -->
<g id="edge18" class="edge">
<title>zcash/halo2#246&#45;&gt;zcash/halo2#436</title>
<path fill="none" stroke="#000000" d="M442.74,-434.47C461.84,-428.08 482.47,-421.17 502.29,-414.54"/>
<polygon fill="#000000" stroke="#000000" points="503.568,-417.8031 511.94,-411.31 501.3462,-411.1651 503.568,-417.8031"/>
</g>
<!-- zcash/halo2#246&#45;&gt;zcash/halo2#435 -->
<g id="edge19" class="edge">
<title>zcash/halo2#246&#45;&gt;zcash/halo2#435</title>
<path fill="none" stroke="#000000" d="M442.74,-487.53C461.84,-493.92 482.47,-500.83 502.29,-507.46"/>
<polygon fill="#000000" stroke="#000000" points="501.3462,-510.8349 511.94,-510.69 503.568,-504.1969 501.3462,-510.8349"/>
</g>
<!-- zcash/halo2#439 -->
<g id="node28" class="node open">
<title>zcash/halo2#439</title>
<g id="a_node28"><a xlink:href="https://github.com/zcash/halo2/issues/439" xlink:title="zcash/halo2#439&#10;Support split&#10;accumulation in Halo 2" target="_blank">
<polygon fill="#c2e0c6" stroke="#000000" stroke-width="2" points="204.5,-487.5 21.5,-487.5 21.5,-434.5 204.5,-434.5 204.5,-487.5"/>
<text text-anchor="middle" x="113" y="-472.3" font-family="Times,serif" font-size="14.00" fill="#000000">zcash/halo2#439</text>
<text text-anchor="middle" x="113" y="-457.3" font-family="Times,serif" font-size="14.00" fill="#000000">Support split</text>
<text text-anchor="middle" x="113" y="-442.3" font-family="Times,serif" font-size="14.00" fill="#000000">accumulation in Halo 2</text>
</a>
</g>
</g>
<!-- zcash/halo2#439&#45;&gt;zcash/halo2#246 -->
<g id="edge20" class="edge">
<title>zcash/halo2#439&#45;&gt;zcash/halo2#246</title>
<path fill="none" stroke="#000000" d="M204.85,-461C224,-461 244.27,-461 263.68,-461"/>
<polygon fill="#000000" stroke="#000000" points="263.75,-464.5001 273.75,-461 263.75,-457.5001 263.75,-464.5001"/>
</g>
<!-- zcash/halo2#359 -->
<g id="node29" class="node open">
<title>zcash/halo2#359</title>
<g id="a_node29"><a xlink:href="https://github.com/zcash/halo2/issues/359" xlink:title="zcash/halo2#359&#10;Set up `BaseTranscript`,&#10;`ScalarTranscript`" target="_blank">
<polygon fill="#c2e0c6" stroke="#000000" stroke-width="2" points="698,-487.5 501,-487.5 501,-434.5 698,-434.5 698,-487.5"/>
<text text-anchor="middle" x="599.5" y="-472.3" font-family="Times,serif" font-size="14.00" fill="#000000">zcash/halo2#359</text>
<text text-anchor="middle" x="599.5" y="-457.3" font-family="Times,serif" font-size="14.00" fill="#000000">Set up `BaseTranscript`,</text>
<text text-anchor="middle" x="599.5" y="-442.3" font-family="Times,serif" font-size="14.00" fill="#000000">`ScalarTranscript`</text>
</a>
</g>
</g>
<!-- zcash/halo2#359&#45;&gt;zcash/halo2#247 -->
<g id="edge21" class="edge">
<title>zcash/halo2#359&#45;&gt;zcash/halo2#247</title>
<path fill="none" stroke="#000000" d="M698.16,-465.57C710.11,-466.12 722.33,-466.69 734.34,-467.25"/>
<polygon fill="#000000" stroke="#000000" points="734.21,-470.7476 744.36,-467.71 734.5311,-463.755 734.21,-470.7476"/>
</g>
<!-- zcash/halo2#249 -->
<g id="node30" class="node open">
<title>zcash/halo2#249</title>
<g id="a_node30"><a xlink:href="https://github.com/zcash/halo2/issues/249" xlink:title="zcash/halo2#249&#10;Implement recursion&#10;circuit logic for&#10;handling public inputs" target="_blank">
<polygon fill="#c2e0c6" stroke="#000000" stroke-width="2" points="925.5,-750 748.5,-750 748.5,-682 925.5,-682 925.5,-750"/>
<text text-anchor="middle" x="837" y="-734.8" font-family="Times,serif" font-size="14.00" fill="#000000">zcash/halo2#249</text>
<text text-anchor="middle" x="837" y="-719.8" font-family="Times,serif" font-size="14.00" fill="#000000">Implement recursion</text>
<text text-anchor="middle" x="837" y="-704.8" font-family="Times,serif" font-size="14.00" fill="#000000">circuit logic for</text>
<text text-anchor="middle" x="837" y="-689.8" font-family="Times,serif" font-size="14.00" fill="#000000">handling public inputs</text>
</a>
</g>
</g>
<!-- zcash/halo2#249&#45;&gt;zcash/halo2#250 -->
<g id="edge22" class="edge">
<title>zcash/halo2#249&#45;&gt;zcash/halo2#250</title>
<path fill="none" stroke="#000000" d="M920.51,-681.96C927.14,-679.01 933.7,-676 940,-673 968.74,-659.3 999.98,-642.65 1025.7,-628.43"/>
<polygon fill="#000000" stroke="#000000" points="1027.5416,-631.4112 1034.6,-623.51 1024.1549,-625.285 1027.5416,-631.4112"/>
</g>
<!-- zcash/halo2#398 -->
<g id="node31" class="node committed">
<title>zcash/halo2#398</title>
<g id="a_node31"><a xlink:href="https://github.com/zcash/halo2/issues/398" xlink:title="zcash/halo2#398&#10;[MockProver] Testing is&#10;slower after #389" target="_blank">
<polygon fill="#a6cfff" stroke="#000000" points="458,-296.5 269,-296.5 269,-243.5 458,-243.5 458,-296.5"/>
<text text-anchor="middle" x="363.5" y="-281.3" font-family="Times,serif" font-size="14.00" fill="#000000">zcash/halo2#398</text>
<text text-anchor="middle" x="363.5" y="-266.3" font-family="Times,serif" font-size="14.00" fill="#000000">[MockProver] Testing is</text>
<text text-anchor="middle" x="363.5" y="-251.3" font-family="Times,serif" font-size="14.00" fill="#000000">slower after #389</text>
</a>
</g>
</g>
<!-- zcash/halo2#398&#45;&gt;zcash/halo2#426 -->
<g id="edge23" class="edge">
<title>zcash/halo2#398&#45;&gt;zcash/halo2#426</title>
<path fill="none" stroke="#000000" d="M442.74,-243.47C464.44,-236.21 488.1,-228.29 510.31,-220.86"/>
<polygon fill="#000000" stroke="#000000" points="511.7,-224.0856 520.07,-217.59 509.4761,-217.4482 511.7,-224.0856"/>
</g>
<!-- zcash/halo2#528 -->
<g id="node32" class="node committed">
<title>zcash/halo2#528</title>
<g id="a_node32"><a xlink:href="https://github.com/zcash/halo2/issues/528" xlink:title="zcash/halo2#528&#10;Add benchmark for a&#10;circuit with a highly&#45;&#10;padded lookup table" target="_blank">
<polygon fill="#a6cfff" stroke="#000000" stroke-width="2" points="197,-304 29,-304 29,-236 197,-236 197,-304"/>
<text text-anchor="middle" x="113" y="-288.8" font-family="Times,serif" font-size="14.00" fill="#000000">zcash/halo2#528</text>
<text text-anchor="middle" x="113" y="-273.8" font-family="Times,serif" font-size="14.00" fill="#000000">Add benchmark for a</text>
<text text-anchor="middle" x="113" y="-258.8" font-family="Times,serif" font-size="14.00" fill="#000000">circuit with a highly&#45;</text>
<text text-anchor="middle" x="113" y="-243.8" font-family="Times,serif" font-size="14.00" fill="#000000">padded lookup table</text>
</a>
</g>
</g>
<!-- zcash/halo2#528&#45;&gt;zcash/halo2#398 -->
<g id="edge24" class="edge">
<title>zcash/halo2#528&#45;&gt;zcash/halo2#398</title>
<path fill="none" stroke="#000000" d="M197.11,-270C216.9,-270 238.23,-270 258.8,-270"/>
<polygon fill="#000000" stroke="#000000" points="258.82,-273.5001 268.82,-270 258.82,-266.5001 258.82,-273.5001"/>
</g>
<!-- zcash/halo2#477 -->
<g id="node33" class="node committed">
<title>zcash/halo2#477</title>
<g id="a_node33"><a xlink:href="https://github.com/zcash/halo2/issues/477" xlink:title="zcash/halo2#477&#10;Add a helper for checking&#10;`MockProver::verify`&#10;results" target="_blank">
<polygon fill="#a6cfff" stroke="#000000" stroke-width="2" points="465,-225 262,-225 262,-157 465,-157 465,-225"/>
<text text-anchor="middle" x="363.5" y="-209.8" font-family="Times,serif" font-size="14.00" fill="#000000">zcash/halo2#477</text>
<text text-anchor="middle" x="363.5" y="-194.8" font-family="Times,serif" font-size="14.00" fill="#000000">Add a helper for checking</text>
<text text-anchor="middle" x="363.5" y="-179.8" font-family="Times,serif" font-size="14.00" fill="#000000">`MockProver::verify`</text>
<text text-anchor="middle" x="363.5" y="-164.8" font-family="Times,serif" font-size="14.00" fill="#000000">results</text>
</a>
</g>
</g>
<!-- zcash/halo2#477&#45;&gt;zcash/halo2#426 -->
<g id="edge25" class="edge">
<title>zcash/halo2#477&#45;&gt;zcash/halo2#426</title>
<path fill="none" stroke="#000000" d="M465.3,-191C477.68,-191 490.3,-191 502.6,-191"/>
<polygon fill="#000000" stroke="#000000" points="502.85,-194.5001 512.85,-191 502.85,-187.5001 502.85,-194.5001"/>
</g>
<!-- zcash/halo2#539 -->
<g id="node34" class="node open">
<title>zcash/halo2#539</title>
<g id="a_node34"><a xlink:href="https://github.com/zcash/halo2/issues/539" xlink:title="zcash/halo2#539&#10;Cost model miscalculates&#10;the degree of lookup&#10;arguments" target="_blank">
<polygon fill="#c2e0c6" stroke="#000000" stroke-width="2" points="463.5,-139 263.5,-139 263.5,-71 463.5,-71 463.5,-139"/>
<text text-anchor="middle" x="363.5" y="-123.8" font-family="Times,serif" font-size="14.00" fill="#000000">zcash/halo2#539</text>
<text text-anchor="middle" x="363.5" y="-108.8" font-family="Times,serif" font-size="14.00" fill="#000000">Cost model miscalculates</text>
<text text-anchor="middle" x="363.5" y="-93.8" font-family="Times,serif" font-size="14.00" fill="#000000">the degree of lookup</text>
<text text-anchor="middle" x="363.5" y="-78.8" font-family="Times,serif" font-size="14.00" fill="#000000">arguments</text>
</a>
</g>
</g>
<!-- zcash/halo2#539&#45;&gt;zcash/halo2#426 -->
<g id="edge26" class="edge">
<title>zcash/halo2#539&#45;&gt;zcash/halo2#426</title>
<path fill="none" stroke="#000000" d="M457.11,-139.11C477.02,-146.37 497.89,-153.97 517.34,-161.06"/>
<polygon fill="#000000" stroke="#000000" points="516.156,-164.3536 526.75,-164.49 518.5533,-157.7769 516.156,-164.3536"/>
</g>
<!-- zcash/halo2#248 -->
<g id="node35" class="node open">
<title>zcash/halo2#248</title>
<g id="a_node35"><a xlink:href="https://github.com/zcash/halo2/issues/248" xlink:title="zcash/halo2#248&#10;Implement endoscaling in&#10;the circuit" target="_blank">
<polygon fill="#c2e0c6" stroke="#000000" stroke-width="2" points="938.5,-663.5 735.5,-663.5 735.5,-610.5 938.5,-610.5 938.5,-663.5"/>
<text text-anchor="middle" x="837" y="-648.3" font-family="Times,serif" font-size="14.00" fill="#000000">zcash/halo2#248</text>
<text text-anchor="middle" x="837" y="-633.3" font-family="Times,serif" font-size="14.00" fill="#000000">Implement endoscaling in</text>
<text text-anchor="middle" x="837" y="-618.3" font-family="Times,serif" font-size="14.00" fill="#000000">the circuit</text>
</a>
</g>
</g>
<!-- zcash/halo2#248&#45;&gt;zcash/halo2#250 -->
<g id="edge27" class="edge">
<title>zcash/halo2#248&#45;&gt;zcash/halo2#250</title>
<path fill="none" stroke="#000000" d="M938.71,-620.33C951.51,-618.23 964.61,-616.08 977.43,-613.98"/>
<polygon fill="#000000" stroke="#000000" points="978.341,-617.3773 987.64,-612.3 977.2044,-610.4701 978.341,-617.3773"/>
</g>
<!-- zcash/halo2#245 -->
<g id="node36" class="node open">
<title>zcash/halo2#245</title>
<g id="a_node36"><a xlink:href="https://github.com/zcash/halo2/issues/245" xlink:title="zcash/halo2#245&#10;Remove the need to&#10;multiply by powers of x^n&#10;in verifier" target="_blank">
<polygon fill="#c2e0c6" stroke="#000000" stroke-width="2" points="940,-592 734,-592 734,-524 940,-524 940,-592"/>
<text text-anchor="middle" x="837" y="-576.8" font-family="Times,serif" font-size="14.00" fill="#000000">zcash/halo2#245</text>
<text text-anchor="middle" x="837" y="-561.8" font-family="Times,serif" font-size="14.00" fill="#000000">Remove the need to</text>
<text text-anchor="middle" x="837" y="-546.8" font-family="Times,serif" font-size="14.00" fill="#000000">multiply by powers of x^n</text>
<text text-anchor="middle" x="837" y="-531.8" font-family="Times,serif" font-size="14.00" fill="#000000">in verifier</text>
</a>
</g>
</g>
<!-- zcash/halo2#245&#45;&gt;zcash/halo2#250 -->
<g id="edge28" class="edge">
<title>zcash/halo2#245&#45;&gt;zcash/halo2#250</title>
<path fill="none" stroke="#000000" d="M940.12,-574.48C952.65,-576.48 965.44,-578.53 977.96,-580.53"/>
<polygon fill="#000000" stroke="#000000" points="977.5036,-584.0014 987.93,-582.12 978.606,-577.0887 977.5036,-584.0014"/>
</g>
<!-- zcash/halo2#312 -->
<g id="node37" class="node open">
<title>zcash/halo2#312</title>
<g id="a_node37"><a xlink:href="https://github.com/zcash/halo2/issues/312" xlink:title="zcash/halo2#312&#10;[Book] Document gadget&#10;API" target="_blank">
<polygon fill="#c2e0c6" stroke="#000000" stroke-width="2" points="210.5,-1087.5 15.5,-1087.5 15.5,-1034.5 210.5,-1034.5 210.5,-1087.5"/>
<text text-anchor="middle" x="113" y="-1072.3" font-family="Times,serif" font-size="14.00" fill="#000000">zcash/halo2#312</text>
<text text-anchor="middle" x="113" y="-1057.3" font-family="Times,serif" font-size="14.00" fill="#000000">[Book] Document gadget</text>
<text text-anchor="middle" x="113" y="-1042.3" font-family="Times,serif" font-size="14.00" fill="#000000">API</text>
</a>
</g>
</g>
<!-- zcash/pasta_curves#23 -->
<g id="node38" class="node open">
<title>zcash/pasta_curves#23</title>
<g id="a_node38"><a xlink:href="https://github.com/zcash/pasta_curves/pull/23" xlink:title="zcash/pasta_curves#23&#10;Ensure that GitHub&#39;s&#10;&quot;View license&quot; link&#10;points to complete&#10;license information" target="_blank">
<polygon fill="#c2e0c6" stroke="#000000" stroke-width="2" points="206,-1188.5 20,-1188.5 20,-1184.5 16,-1184.5 16,-1180.5 20,-1180.5 20,-1113.5 16,-1113.5 16,-1109.5 20,-1109.5 20,-1105.5 206,-1105.5 206,-1188.5"/>
<polyline fill="none" stroke="#000000" stroke-width="2" points="20,-1184.5 24,-1184.5 24,-1180.5 20,-1180.5 "/>
<polyline fill="none" stroke="#000000" stroke-width="2" points="20,-1113.5 24,-1113.5 24,-1109.5 20,-1109.5 "/>
<text text-anchor="middle" x="113" y="-1173.3" font-family="Times,serif" font-size="14.00" fill="#000000">zcash/pasta_curves#23</text>
<text text-anchor="middle" x="113" y="-1158.3" font-family="Times,serif" font-size="14.00" fill="#000000">Ensure that GitHub&#39;s</text>
<text text-anchor="middle" x="113" y="-1143.3" font-family="Times,serif" font-size="14.00" fill="#000000">&quot;View license&quot; link</text>
<text text-anchor="middle" x="113" y="-1128.3" font-family="Times,serif" font-size="14.00" fill="#000000">points to complete</text>
<text text-anchor="middle" x="113" y="-1113.3" font-family="Times,serif" font-size="14.00" fill="#000000">license information</text>
</a>
</g>
</g>
</g>
</svg>
