<?xml version="1.0" encoding="UTF-8" standalone="no"?>
<?xml-stylesheet href="zcash-dag.css" type="text/css"?>
<!DOCTYPE svg PUBLIC "-//W3C//DTD SVG 1.1//EN"
 "http://www.w3.org/Graphics/SVG/1.1/DTD/svg11.dtd">
<!-- Generated by graphviz version 2.43.0 (0)
 -->
<!-- Pages: 1 -->
<svg width="654pt" height="177pt"
 viewBox="0.00 0.00 654.00 177.00" xmlns="http://www.w3.org/2000/svg" xmlns:xlink="http://www.w3.org/1999/xlink">
<g id="graph0" class="graph" transform="scale(1 1) rotate(0) translate(4 173)">
<polygon fill="white" stroke="transparent" points="-4,4 -4,-173 650,-173 650,4 -4,4"/>
<!-- zcash/zcash#2718 -->
<g id="node1" class="node open">
<title>zcash/zcash#2718</title>
<g id="a_node1"><a xlink:href="https://github.com/zcash/zcash/issues/2718" xlink:title="zcash/zcash#2718&#10;Commit to an absolute&#10;minimum time before which&#10;any kind of address&#10;withdrawal" target="_blank">
<polygon fill="#c2e0c6" stroke="black" stroke-width="2" points="218,-169 0,-169 0,-86 218,-86 218,-169"/>
<text text-anchor="middle" x="109" y="-153.8" font-family="Times,serif" font-size="14.00">zcash/zcash#2718</text>
<text text-anchor="middle" x="109" y="-138.8" font-family="Times,serif" font-size="14.00">Commit to an absolute</text>
<text text-anchor="middle" x="109" y="-123.8" font-family="Times,serif" font-size="14.00">minimum time before which</text>
<text text-anchor="middle" x="109" y="-108.8" font-family="Times,serif" font-size="14.00">any kind of address</text>
<text text-anchor="middle" x="109" y="-93.8" font-family="Times,serif" font-size="14.00">withdrawal</text>
</a>
</g>
</g>
<!-- zcash/zcash#3788 -->
<g id="node2" class="node open">
<title>zcash/zcash#3788</title>
<g id="a_node2"><a xlink:href="https://github.com/zcash/zcash/issues/3788" xlink:title="zcash/zcash#3788&#10;Sprout Deprecation&#10;roadmap" target="_blank">
<polygon fill="#c2e0c6" stroke="black" points="418,-154 261,-154 261,-101 418,-101 418,-154"/>
<text text-anchor="middle" x="339.5" y="-138.8" font-family="Times,serif" font-size="14.00">zcash/zcash#3788</text>
<text text-anchor="middle" x="339.5" y="-123.8" font-family="Times,serif" font-size="14.00">Sprout Deprecation</text>
<text text-anchor="middle" x="339.5" y="-108.8" font-family="Times,serif" font-size="14.00">roadmap</text>
</a>
</g>
</g>
<!-- zcash/zcash#2718&#45;&gt;zcash/zcash#3788 -->
<g id="edge1" class="edge">
<title>zcash/zcash#2718&#45;&gt;zcash/zcash#3788</title>
<path fill="none" stroke="black" d="M218.23,-127.5C229.15,-127.5 240.16,-127.5 250.83,-127.5"/>
<polygon fill="black" stroke="black" points="250.95,-131 260.95,-127.5 250.95,-124 250.95,-131"/>
</g>
<!-- zcash/zcash#4202 -->
<g id="node3" class="node open">
<title>zcash/zcash#4202</title>
<g id="a_node3"><a xlink:href="https://github.com/zcash/zcash/issues/4202" xlink:title="zcash/zcash#4202&#10;Sprout Pool Retirement" target="_blank">
<polygon fill="#c2e0c6" stroke="black" points="646,-103.5 643,-107.5 622,-107.5 619,-103.5 461,-103.5 461,-65.5 646,-65.5 646,-103.5"/>
<text text-anchor="middle" x="553.5" y="-88.3" font-family="Times,serif" font-size="14.00">zcash/zcash#4202</text>
<text text-anchor="middle" x="553.5" y="-73.3" font-family="Times,serif" font-size="14.00">Sprout Pool Retirement</text>
</a>
</g>
</g>
<!-- zcash/zcash#3788&#45;&gt;zcash/zcash#4202 -->
<g id="edge2" class="edge">
<title>zcash/zcash#3788&#45;&gt;zcash/zcash#4202</title>
<path fill="none" stroke="black" d="M418.24,-111.73C428.82,-109.59 439.81,-107.36 450.75,-105.14"/>
<polygon fill="black" stroke="black" points="451.65,-108.53 460.75,-103.11 450.25,-101.67 451.65,-108.53"/>
</g>
<!-- zcash/zcash#3787 -->
<g id="node4" class="node open">
<title>zcash/zcash#3787</title>
<g id="a_node4"><a xlink:href="https://github.com/zcash/zcash/issues/3787" xlink:title="zcash/zcash#3787&#10;Deprecate the Sprout&#10;value pool by moving&#10;remaining funds to a&#10;permissioned faucet" target="_blank">
<polygon fill="#c2e0c6" stroke="black" stroke-width="2" points="425,-83 254,-83 254,0 425,0 425,-83"/>
<text text-anchor="middle" x="339.5" y="-67.8" font-family="Times,serif" font-size="14.00">zcash/zcash#3787</text>
<text text-anchor="middle" x="339.5" y="-52.8" font-family="Times,serif" font-size="14.00">Deprecate the Sprout</text>
<text text-anchor="middle" x="339.5" y="-37.8" font-family="Times,serif" font-size="14.00">value pool by moving</text>
<text text-anchor="middle" x="339.5" y="-22.8" font-family="Times,serif" font-size="14.00">remaining funds to a</text>
<text text-anchor="middle" x="339.5" y="-7.8" font-family="Times,serif" font-size="14.00">permissioned faucet</text>
</a>
</g>
</g>
<!-- zcash/zcash#3787&#45;&gt;zcash/zcash#4202 -->
<g id="edge3" class="edge">
<title>zcash/zcash#3787&#45;&gt;zcash/zcash#4202</title>
<path fill="none" stroke="black" d="M425.2,-58.68C433.66,-60.4 442.3,-62.15 450.91,-63.89"/>
<polygon fill="black" stroke="black" points="450.48,-67.38 460.98,-65.94 451.88,-60.52 450.48,-67.38"/>
</g>
</g>
</svg>
