<?xml version="1.0" encoding="UTF-8" standalone="no"?>
<?xml-stylesheet href="zcash-dag.css" type="text/css"?>
<!DOCTYPE svg PUBLIC "-//W3C//DTD SVG 1.1//EN"
 "http://www.w3.org/Graphics/SVG/1.1/DTD/svg11.dtd">
<!-- Generated by graphviz version 2.43.0 (0)
 -->
<!-- Pages: 1 -->
<svg width="1734pt" height="2482pt"
 viewBox="0.00 0.00 1734.00 2481.50" xmlns="http://www.w3.org/2000/svg" xmlns:xlink="http://www.w3.org/1999/xlink">
<g id="graph0" class="graph" transform="scale(1 1) rotate(0) translate(4 2477.5)">
<polygon fill="white" stroke="transparent" points="-4,4 -4,-2477.5 1730,-2477.5 1730,4 -4,4"/>
<g id="clust1" class="cluster">
<title>cluster_1</title>
<polygon fill="none" stroke="blue" points="42,-611 42,-718 1718,-718 1718,-611 42,-611"/>
<text text-anchor="middle" x="880" y="-702.8" font-family="Times,serif" font-size="14.00">Request ZEC Flow</text>
</g>
<g id="clust2" class="cluster">
<title>cluster_2</title>
<polygon fill="none" stroke="blue" points="8,-804 8,-983 980,-983 980,-804 8,-804"/>
<text text-anchor="middle" x="494" y="-967.8" font-family="Times,serif" font-size="14.00">Spend&#45;before&#45;Sync</text>
</g>
<g id="clust3" class="cluster">
<title>cluster_5</title>
<polygon fill="none" stroke="blue" points="8,-1436 8,-1529 335,-1529 335,-1436 8,-1436"/>
<text text-anchor="middle" x="171.5" y="-1513.8" font-family="Times,serif" font-size="14.00">UniFFI</text>
</g>
<g id="clust4" class="cluster">
<title>cluster_0</title>
<polygon fill="none" stroke="blue" points="54,-439 54,-603 641,-603 641,-439 54,-439"/>
<text text-anchor="middle" x="347.5" y="-587.8" font-family="Times,serif" font-size="14.00">Secant iOS v1.0.0</text>
</g>
<g id="clust5" class="cluster">
<title>cluster_4</title>
<polygon fill="none" stroke="blue" points="8,-1351 8,-1428 335,-1428 335,-1351 8,-1351"/>
<text text-anchor="middle" x="171.5" y="-1412.8" font-family="Times,serif" font-size="14.00">Orchard in Mobile SDKs</text>
</g>
<g id="clust6" class="cluster">
<title>cluster_3</title>
<polygon fill="none" stroke="blue" points="37.5,-991 37.5,-1343 657.5,-1343 657.5,-991 37.5,-991"/>
<text text-anchor="middle" x="347.5" y="-1327.8" font-family="Times,serif" font-size="14.00">SDK 2.0 Post&#45;Release Cleanup</text>
</g>
<g id="clust7" class="cluster">
<title>cluster_6</title>
<polygon fill="none" stroke="blue" points="363,-8 363,-431 684,-431 684,-8 363,-8"/>
<text text-anchor="middle" x="523.5" y="-415.8" font-family="Times,serif" font-size="14.00">Blocking TODOs, Enhancements and Fixes</text>
</g>
<g id="clust8" class="cluster">
<title>cluster_7</title>
<polygon fill="none" stroke="blue" points="54,-1537 54,-1885 289,-1885 289,-1537 54,-1537"/>
<text text-anchor="middle" x="171.5" y="-1869.8" font-family="Times,serif" font-size="14.00">Core BTS UI Improvements</text>
</g>
<g id="clust9" class="cluster">
<title>cluster_8</title>
<polygon fill="none" stroke="blue" points="0,0 0,-2473.5 1726,-2473.5 1726,0 0,0"/>
<text text-anchor="middle" x="863" y="-2458.3" font-family="Times,serif" font-size="14.00">Add Orchard Support</text>
</g>
<g id="clust10" class="cluster">
<title>cluster_9</title>
<polygon fill="none" stroke="blue" points="37.5,-1893 37.5,-2057 305.5,-2057 305.5,-1893 37.5,-1893"/>
<text text-anchor="middle" x="171.5" y="-2041.8" font-family="Times,serif" font-size="14.00">Pre&#45;DAG sync</text>
</g>
<!-- zcash/secant&#45;ios&#45;wallet#93 -->
<g id="node1" class="node open">
<title>zcash/secant&#45;ios&#45;wallet#93</title>
<g id="a_node1"><a xlink:href="https://github.com/zcash/secant-ios-wallet/issues/93" xlink:title="zcash/secant&#45;ios&#45;wallet#93&#10;[Functional] Request ZEC&#10;Screen" target="_blank">
<polygon fill="#c2e0c6" stroke="black" points="1218,-679.5 1008,-679.5 1008,-626.5 1218,-626.5 1218,-679.5"/>
<text text-anchor="middle" x="1113" y="-664.3" font-family="Times,serif" font-size="14.00">zcash/secant&#45;ios&#45;wallet#93</text>
<text text-anchor="middle" x="1113" y="-649.3" font-family="Times,serif" font-size="14.00">[Functional] Request ZEC</text>
<text text-anchor="middle" x="1113" y="-634.3" font-family="Times,serif" font-size="14.00">Screen</text>
</a>
</g>
</g>
<!-- zcash/secant&#45;ios&#45;wallet#94 -->
<g id="node2" class="node open">
<title>zcash/secant&#45;ios&#45;wallet#94</title>
<g id="a_node2"><a xlink:href="https://github.com/zcash/secant-ios-wallet/issues/94" xlink:title="zcash/secant&#45;ios&#45;wallet#94&#10;[Functional] Share ZEC&#10;Request Screen" target="_blank">
<polygon fill="#c2e0c6" stroke="black" points="1464,-679.5 1254,-679.5 1254,-626.5 1464,-626.5 1464,-679.5"/>
<text text-anchor="middle" x="1359" y="-664.3" font-family="Times,serif" font-size="14.00">zcash/secant&#45;ios&#45;wallet#94</text>
<text text-anchor="middle" x="1359" y="-649.3" font-family="Times,serif" font-size="14.00">[Functional] Share ZEC</text>
<text text-anchor="middle" x="1359" y="-634.3" font-family="Times,serif" font-size="14.00">Request Screen</text>
</a>
</g>
</g>
<!-- zcash/secant&#45;ios&#45;wallet#93&#45;&gt;zcash/secant&#45;ios&#45;wallet#94 -->
<g id="edge1" class="edge">
<title>zcash/secant&#45;ios&#45;wallet#93&#45;&gt;zcash/secant&#45;ios&#45;wallet#94</title>
<path fill="none" stroke="black" d="M1218.2,-653C1226.6,-653 1235.1,-653 1243.5,-653"/>
<polygon fill="black" stroke="black" points="1243.8,-656.5 1253.8,-653 1243.8,-649.5 1243.8,-656.5"/>
</g>
<!-- zcash/secant&#45;ios&#45;wallet#90 -->
<g id="node3" class="node open">
<title>zcash/secant&#45;ios&#45;wallet#90</title>
<g id="a_node3"><a xlink:href="https://github.com/zcash/secant-ios-wallet/issues/90" xlink:title="zcash/secant&#45;ios&#45;wallet#90&#10;Request ZEC Flow" target="_blank">
<polygon fill="#c2e0c6" stroke="black" points="1710,-672 1500,-672 1500,-634 1710,-634 1710,-672"/>
<text text-anchor="middle" x="1605" y="-656.8" font-family="Times,serif" font-size="14.00">zcash/secant&#45;ios&#45;wallet#90</text>
<text text-anchor="middle" x="1605" y="-641.8" font-family="Times,serif" font-size="14.00">Request ZEC Flow</text>
</a>
</g>
</g>
<!-- zcash/secant&#45;ios&#45;wallet#94&#45;&gt;zcash/secant&#45;ios&#45;wallet#90 -->
<g id="edge2" class="edge">
<title>zcash/secant&#45;ios&#45;wallet#94&#45;&gt;zcash/secant&#45;ios&#45;wallet#90</title>
<path fill="none" stroke="black" d="M1464.2,-653C1472.6,-653 1481.1,-653 1489.5,-653"/>
<polygon fill="black" stroke="black" points="1489.8,-656.5 1499.8,-653 1489.8,-649.5 1489.8,-656.5"/>
</g>
<!-- zcash/secant&#45;ios&#45;wallet#109 -->
<g id="node4" class="node open">
<title>zcash/secant&#45;ios&#45;wallet#109</title>
<g id="a_node4"><a xlink:href="https://github.com/zcash/secant-ios-wallet/issues/109" xlink:title="zcash/secant&#45;ios&#45;wallet#109&#10;[Research Spike] ZIP&#45;321&#10;Payment URIs and&#10;deeplinking" target="_blank">
<polygon fill="#c2e0c6" stroke="black" points="633,-687 414,-687 414,-619 633,-619 633,-687"/>
<text text-anchor="middle" x="523.5" y="-671.8" font-family="Times,serif" font-size="14.00">zcash/secant&#45;ios&#45;wallet#109</text>
<text text-anchor="middle" x="523.5" y="-656.8" font-family="Times,serif" font-size="14.00">[Research Spike] ZIP&#45;321</text>
<text text-anchor="middle" x="523.5" y="-641.8" font-family="Times,serif" font-size="14.00">Payment URIs and</text>
<text text-anchor="middle" x="523.5" y="-626.8" font-family="Times,serif" font-size="14.00">deeplinking</text>
</a>
</g>
</g>
<!-- zcash/secant&#45;ios&#45;wallet#141 -->
<g id="node5" class="node open">
<title>zcash/secant&#45;ios&#45;wallet#141</title>
<g id="a_node5"><a xlink:href="https://github.com/zcash/secant-ios-wallet/issues/141" xlink:title="zcash/secant&#45;ios&#45;wallet#141&#10;Encode URI in QR Code" target="_blank">
<polygon fill="#c2e0c6" stroke="black" points="955.5,-672 736.5,-672 736.5,-634 955.5,-634 955.5,-672"/>
<text text-anchor="middle" x="846" y="-656.8" font-family="Times,serif" font-size="14.00">zcash/secant&#45;ios&#45;wallet#141</text>
<text text-anchor="middle" x="846" y="-641.8" font-family="Times,serif" font-size="14.00">Encode URI in QR Code</text>
</a>
</g>
</g>
<!-- zcash/secant&#45;ios&#45;wallet#109&#45;&gt;zcash/secant&#45;ios&#45;wallet#141 -->
<g id="edge3" class="edge">
<title>zcash/secant&#45;ios&#45;wallet#109&#45;&gt;zcash/secant&#45;ios&#45;wallet#141</title>
<path fill="none" stroke="black" d="M633.01,-653C662.95,-653 695.58,-653 726.08,-653"/>
<polygon fill="black" stroke="black" points="726.33,-656.5 736.33,-653 726.33,-649.5 726.33,-656.5"/>
</g>
<!-- zcash/secant&#45;ios&#45;wallet#141&#45;&gt;zcash/secant&#45;ios&#45;wallet#93 -->
<g id="edge4" class="edge">
<title>zcash/secant&#45;ios&#45;wallet#141&#45;&gt;zcash/secant&#45;ios&#45;wallet#93</title>
<path fill="none" stroke="black" d="M955.55,-653C969.47,-653 983.75,-653 997.75,-653"/>
<polygon fill="black" stroke="black" points="997.9,-656.5 1007.9,-653 997.9,-649.5 997.9,-656.5"/>
</g>
<!-- zcash/ZcashLightClientKit#319 -->
<g id="node6" class="node open">
<title>zcash/ZcashLightClientKit#319</title>
<g id="a_node6"><a xlink:href="https://github.com/zcash/ZcashLightClientKit/issues/319" xlink:title="zcash/ZcashLightClientKit#319&#10;ZIP&#45;321 Request&#10;Generation API" target="_blank">
<polygon fill="#c2e0c6" stroke="black" stroke-width="2" points="293,-679.5 50,-679.5 50,-626.5 293,-626.5 293,-679.5"/>
<text text-anchor="middle" x="171.5" y="-664.3" font-family="Times,serif" font-size="14.00">zcash/ZcashLightClientKit#319</text>
<text text-anchor="middle" x="171.5" y="-649.3" font-family="Times,serif" font-size="14.00">ZIP&#45;321 Request</text>
<text text-anchor="middle" x="171.5" y="-634.3" font-family="Times,serif" font-size="14.00">Generation API</text>
</a>
</g>
</g>
<!-- zcash/ZcashLightClientKit#319&#45;&gt;zcash/secant&#45;ios&#45;wallet#109 -->
<g id="edge5" class="edge">
<title>zcash/ZcashLightClientKit#319&#45;&gt;zcash/secant&#45;ios&#45;wallet#109</title>
<path fill="none" stroke="black" d="M293.44,-653C329.05,-653 367.97,-653 403.46,-653"/>
<polygon fill="black" stroke="black" points="403.86,-656.5 413.86,-653 403.86,-649.5 403.86,-656.5"/>
</g>
<!-- zcash/ZcashLightClientKit#1164 -->
<g id="node7" class="node open">
<title>zcash/ZcashLightClientKit#1164</title>
<g id="a_node7"><a xlink:href="https://github.com/zcash/ZcashLightClientKit/issues/1164" xlink:title="zcash/ZcashLightClientKit#1164&#10;ZcashLightClientKit&#10;v2.0.0&#45;rc1" target="_blank">
<polygon fill="#c2e0c6" stroke="black" stroke-width="2" points="297.5,-944.5 45.5,-944.5 45.5,-891.5 297.5,-891.5 297.5,-944.5"/>
<text text-anchor="middle" x="171.5" y="-929.3" font-family="Times,serif" font-size="14.00">zcash/ZcashLightClientKit#1164</text>
<text text-anchor="middle" x="171.5" y="-914.3" font-family="Times,serif" font-size="14.00">ZcashLightClientKit</text>
<text text-anchor="middle" x="171.5" y="-899.3" font-family="Times,serif" font-size="14.00">v2.0.0&#45;rc1</text>
</a>
</g>
</g>
<!-- zcash/ZcashLightClientKit#1219 -->
<g id="node8" class="node open">
<title>zcash/ZcashLightClientKit#1219</title>
<g id="a_node8"><a xlink:href="https://github.com/zcash/ZcashLightClientKit/issues/1219" xlink:title="zcash/ZcashLightClientKit#1219&#10;ZcashLightClientKit&#10;v2.0.0 zashi acceptance&#10;testing" target="_blank">
<polygon fill="#c2e0c6" stroke="black" points="649.5,-952 397.5,-952 397.5,-884 649.5,-884 649.5,-952"/>
<text text-anchor="middle" x="523.5" y="-936.8" font-family="Times,serif" font-size="14.00">zcash/ZcashLightClientKit#1219</text>
<text text-anchor="middle" x="523.5" y="-921.8" font-family="Times,serif" font-size="14.00">ZcashLightClientKit</text>
<text text-anchor="middle" x="523.5" y="-906.8" font-family="Times,serif" font-size="14.00">v2.0.0 zashi acceptance</text>
<text text-anchor="middle" x="523.5" y="-891.8" font-family="Times,serif" font-size="14.00">testing</text>
</a>
</g>
</g>
<!-- zcash/ZcashLightClientKit#1164&#45;&gt;zcash/ZcashLightClientKit#1219 -->
<g id="edge6" class="edge">
<title>zcash/ZcashLightClientKit#1164&#45;&gt;zcash/ZcashLightClientKit#1219</title>
<path fill="none" stroke="black" d="M297.87,-918C326.82,-918 357.75,-918 387.11,-918"/>
<polygon fill="black" stroke="black" points="387.42,-921.5 397.42,-918 387.42,-914.5 387.42,-921.5"/>
</g>
<!-- zcash/ZcashLightClientKit#1220 -->
<g id="node9" class="node open">
<title>zcash/ZcashLightClientKit#1220</title>
<g id="a_node9"><a xlink:href="https://github.com/zcash/ZcashLightClientKit/issues/1220" xlink:title="zcash/ZcashLightClientKit#1220&#10;ZcashLightClientKit&#10;v2.0.0" target="_blank">
<polygon fill="#c2e0c6" stroke="black" points="972,-904.5 720,-904.5 720,-851.5 972,-851.5 972,-904.5"/>
<text text-anchor="middle" x="846" y="-889.3" font-family="Times,serif" font-size="14.00">zcash/ZcashLightClientKit#1220</text>
<text text-anchor="middle" x="846" y="-874.3" font-family="Times,serif" font-size="14.00">ZcashLightClientKit</text>
<text text-anchor="middle" x="846" y="-859.3" font-family="Times,serif" font-size="14.00">v2.0.0</text>
</a>
</g>
</g>
<!-- zcash/ZcashLightClientKit#1219&#45;&gt;zcash/ZcashLightClientKit#1220 -->
<g id="edge7" class="edge">
<title>zcash/ZcashLightClientKit#1219&#45;&gt;zcash/ZcashLightClientKit#1220</title>
<path fill="none" stroke="black" d="M649.79,-902.36C669.47,-899.91 689.88,-897.36 709.77,-894.88"/>
<polygon fill="black" stroke="black" points="710.31,-898.34 719.8,-893.63 709.44,-891.39 710.31,-898.34"/>
</g>
<!-- zcash&#45;hackworks/zcash&#45;light&#45;client&#45;ffi#29 -->
<g id="node10" class="node open">
<title>zcash&#45;hackworks/zcash&#45;light&#45;client&#45;ffi#29</title>
<g id="a_node10"><a xlink:href="https://github.com/zcash-hackworks/zcash-light-client-ffi/issues/29" xlink:title="zcash&#45;hackworks/zcash&#45;light&#45;client&#45;ffi#29&#10;zcash&#45;light&#45;client&#45;ffi&#10;v0.4.0" target="_blank">
<polygon fill="#c2e0c6" stroke="black" stroke-width="2" points="679,-865.5 368,-865.5 368,-812.5 679,-812.5 679,-865.5"/>
<text text-anchor="middle" x="523.5" y="-850.3" font-family="Times,serif" font-size="14.00">zcash&#45;hackworks/zcash&#45;light&#45;client&#45;ffi#29</text>
<text text-anchor="middle" x="523.5" y="-835.3" font-family="Times,serif" font-size="14.00">zcash&#45;light&#45;client&#45;ffi</text>
<text text-anchor="middle" x="523.5" y="-820.3" font-family="Times,serif" font-size="14.00">v0.4.0</text>
</a>
</g>
</g>
<!-- zcash&#45;hackworks/zcash&#45;light&#45;client&#45;ffi#29&#45;&gt;zcash/ZcashLightClientKit#1220 -->
<g id="edge8" class="edge">
<title>zcash&#45;hackworks/zcash&#45;light&#45;client&#45;ffi#29&#45;&gt;zcash/ZcashLightClientKit#1220</title>
<path fill="none" stroke="black" d="M679.12,-857.81C689.32,-859.06 699.56,-860.3 709.66,-861.53"/>
<polygon fill="black" stroke="black" points="709.36,-865.02 719.71,-862.75 710.2,-858.07 709.36,-865.02"/>
</g>
<!-- zcash&#45;hackworks/zcash&#45;light&#45;client&#45;ffi#98 -->
<g id="node11" class="node open">
<title>zcash&#45;hackworks/zcash&#45;light&#45;client&#45;ffi#98</title>
<g id="a_node11"><a xlink:href="https://github.com/zcash-hackworks/zcash-light-client-ffi/pull/98" xlink:title="zcash&#45;hackworks/zcash&#45;light&#45;client&#45;ffi#98&#10;Fix checkpoint depth bug" target="_blank">
<polygon fill="#c2e0c6" stroke="black" stroke-width="2" points="327,-850 16,-850 16,-846 12,-846 12,-842 16,-842 16,-820 12,-820 12,-816 16,-816 16,-812 327,-812 327,-850"/>
<polyline fill="none" stroke="black" stroke-width="2" points="16,-846 20,-846 20,-842 16,-842 "/>
<polyline fill="none" stroke="black" stroke-width="2" points="16,-820 20,-820 20,-816 16,-816 "/>
<text text-anchor="middle" x="171.5" y="-834.8" font-family="Times,serif" font-size="14.00">zcash&#45;hackworks/zcash&#45;light&#45;client&#45;ffi#98</text>
<text text-anchor="middle" x="171.5" y="-819.8" font-family="Times,serif" font-size="14.00">Fix checkpoint depth bug</text>
</a>
</g>
</g>
<!-- zcash/ZcashLightClientKit#1246 -->
<g id="node35" class="node open">
<title>zcash/ZcashLightClientKit#1246</title>
<g id="a_node35"><a xlink:href="https://github.com/zcash/ZcashLightClientKit/pull/1246" xlink:title="zcash/ZcashLightClientKit#1246&#10;Update zcash&#45;light&#45;&#10;client&#45;ffi dependency for&#10;release candidate prep." target="_blank">
<polygon fill="#c2e0c6" stroke="black" points="649.5,-794 397.5,-794 397.5,-790 393.5,-790 393.5,-786 397.5,-786 397.5,-734 393.5,-734 393.5,-730 397.5,-730 397.5,-726 649.5,-726 649.5,-794"/>
<polyline fill="none" stroke="black" points="397.5,-790 401.5,-790 401.5,-786 397.5,-786 "/>
<polyline fill="none" stroke="black" points="397.5,-734 401.5,-734 401.5,-730 397.5,-730 "/>
<text text-anchor="middle" x="523.5" y="-778.8" font-family="Times,serif" font-size="14.00">zcash/ZcashLightClientKit#1246</text>
<text text-anchor="middle" x="523.5" y="-763.8" font-family="Times,serif" font-size="14.00">Update zcash&#45;light&#45;</text>
<text text-anchor="middle" x="523.5" y="-748.8" font-family="Times,serif" font-size="14.00">client&#45;ffi dependency for</text>
<text text-anchor="middle" x="523.5" y="-733.8" font-family="Times,serif" font-size="14.00">release candidate prep.</text>
</a>
</g>
</g>
<!-- zcash&#45;hackworks/zcash&#45;light&#45;client&#45;ffi#98&#45;&gt;zcash/ZcashLightClientKit#1246 -->
<g id="edge17" class="edge">
<title>zcash&#45;hackworks/zcash&#45;light&#45;client&#45;ffi#98&#45;&gt;zcash/ZcashLightClientKit#1246</title>
<path fill="none" stroke="black" d="M266.29,-811.97C303.52,-804.42 347.04,-795.59 387.55,-787.38"/>
<polygon fill="black" stroke="black" points="388.4,-790.78 397.5,-785.36 387,-783.92 388.4,-790.78"/>
</g>
<!-- zcash&#45;hackworks/zcash&#45;light&#45;client&#45;ffi#25 -->
<g id="node12" class="node open">
<title>zcash&#45;hackworks/zcash&#45;light&#45;client&#45;ffi#25</title>
<g id="a_node12"><a xlink:href="https://github.com/zcash-hackworks/zcash-light-client-ffi/issues/25" xlink:title="zcash&#45;hackworks/zcash&#45;light&#45;client&#45;ffi#25&#10;Migrate to FFI library&#10;generated by Uniffi" target="_blank">
<polygon fill="#c2e0c6" stroke="black" stroke-width="2" points="327,-1497.5 16,-1497.5 16,-1444.5 327,-1444.5 327,-1497.5"/>
<text text-anchor="middle" x="171.5" y="-1482.3" font-family="Times,serif" font-size="14.00">zcash&#45;hackworks/zcash&#45;light&#45;client&#45;ffi#25</text>
<text text-anchor="middle" x="171.5" y="-1467.3" font-family="Times,serif" font-size="14.00">Migrate to FFI library</text>
<text text-anchor="middle" x="171.5" y="-1452.3" font-family="Times,serif" font-size="14.00">generated by Uniffi</text>
</a>
</g>
</g>
<!-- zcash/secant&#45;ios&#45;wallet#372 -->
<g id="node13" class="node open">
<title>zcash/secant&#45;ios&#45;wallet#372</title>
<g id="a_node13"><a xlink:href="https://github.com/zcash/secant-ios-wallet/issues/372" xlink:title="zcash/secant&#45;ios&#45;wallet#372&#10;Blocking TODOs,&#10;Enhancements and Fixes" target="_blank">
<polygon fill="#c2e0c6" stroke="black" stroke-width="2" points="281,-500.5 62,-500.5 62,-447.5 281,-447.5 281,-500.5"/>
<text text-anchor="middle" x="171.5" y="-485.3" font-family="Times,serif" font-size="14.00">zcash/secant&#45;ios&#45;wallet#372</text>
<text text-anchor="middle" x="171.5" y="-470.3" font-family="Times,serif" font-size="14.00">Blocking TODOs,</text>
<text text-anchor="middle" x="171.5" y="-455.3" font-family="Times,serif" font-size="14.00">Enhancements and Fixes</text>
</a>
</g>
</g>
<!-- zcash/secant&#45;ios&#45;wallet#303 -->
<g id="node14" class="node open">
<title>zcash/secant&#45;ios&#45;wallet#303</title>
<g id="a_node14"><a xlink:href="https://github.com/zcash/secant-ios-wallet/issues/303" xlink:title="zcash/secant&#45;ios&#45;wallet#303&#10;Release &#45; v1.0.0" target="_blank">
<polygon fill="#c2e0c6" stroke="black" points="633,-528 414,-528 414,-490 633,-490 633,-528"/>
<text text-anchor="middle" x="523.5" y="-512.8" font-family="Times,serif" font-size="14.00">zcash/secant&#45;ios&#45;wallet#303</text>
<text text-anchor="middle" x="523.5" y="-497.8" font-family="Times,serif" font-size="14.00">Release &#45; v1.0.0</text>
</a>
</g>
</g>
<!-- zcash/secant&#45;ios&#45;wallet#372&#45;&gt;zcash/secant&#45;ios&#45;wallet#303 -->
<g id="edge9" class="edge">
<title>zcash/secant&#45;ios&#45;wallet#372&#45;&gt;zcash/secant&#45;ios&#45;wallet#303</title>
<path fill="none" stroke="black" d="M281.32,-484.88C320.17,-488.77 364.12,-493.16 403.76,-497.13"/>
<polygon fill="black" stroke="black" points="403.44,-500.62 413.74,-498.12 404.13,-493.65 403.44,-500.62"/>
</g>
<!-- zcash/secant&#45;ios&#45;wallet#322 -->
<g id="node22" class="node open">
<title>zcash/secant&#45;ios&#45;wallet#322</title>
<g id="a_node22"><a xlink:href="https://github.com/zcash/secant-ios-wallet/issues/322" xlink:title="zcash/secant&#45;ios&#45;wallet#322&#10;Handle&#10;WrappedCaptureDeviceError&#10;in the ScanReducer" target="_blank">
<polygon fill="#c2e0c6" stroke="black" points="636,-400 411,-400 411,-332 636,-332 636,-400"/>
<text text-anchor="middle" x="523.5" y="-384.8" font-family="Times,serif" font-size="14.00">zcash/secant&#45;ios&#45;wallet#322</text>
<text text-anchor="middle" x="523.5" y="-369.8" font-family="Times,serif" font-size="14.00">Handle</text>
<text text-anchor="middle" x="523.5" y="-354.8" font-family="Times,serif" font-size="14.00">WrappedCaptureDeviceError</text>
<text text-anchor="middle" x="523.5" y="-339.8" font-family="Times,serif" font-size="14.00">in the ScanReducer</text>
</a>
</g>
</g>
<!-- zcash/secant&#45;ios&#45;wallet#372&#45;&gt;zcash/secant&#45;ios&#45;wallet#322 -->
<g id="edge15" class="edge">
<title>zcash/secant&#45;ios&#45;wallet#372&#45;&gt;zcash/secant&#45;ios&#45;wallet#322</title>
<path fill="none" stroke="black" d="M258.57,-447.44C301.93,-434.06 355.22,-417.62 402.53,-403.02"/>
<polygon fill="black" stroke="black" points="403.7,-406.32 412.22,-400.03 401.63,-399.63 403.7,-406.32"/>
</g>
<!-- zcash/secant&#45;ios&#45;wallet#380 -->
<g id="node34" class="node closed">
<title>zcash/secant&#45;ios&#45;wallet#380</title>
<g id="a_node34"><a xlink:href="https://github.com/zcash/secant-ios-wallet/issues/380" xlink:title="zcash/secant&#45;ios&#45;wallet#380&#10;Release v1.1.0" target="_blank">
<polygon fill="#fad8c7" stroke="black" points="955.5,-528 736.5,-528 736.5,-490 955.5,-490 955.5,-528"/>
<text text-anchor="middle" x="846" y="-512.8" font-family="Times,serif" font-size="14.00">zcash/secant&#45;ios&#45;wallet#380</text>
<text text-anchor="middle" x="846" y="-497.8" font-family="Times,serif" font-size="14.00">Release v1.1.0</text>
</a>
</g>
</g>
<!-- zcash/secant&#45;ios&#45;wallet#303&#45;&gt;zcash/secant&#45;ios&#45;wallet#380 -->
<g id="edge16" class="edge">
<title>zcash/secant&#45;ios&#45;wallet#303&#45;&gt;zcash/secant&#45;ios&#45;wallet#380</title>
<path fill="none" stroke="black" d="M633.01,-509C662.95,-509 695.58,-509 726.08,-509"/>
<polygon fill="black" stroke="black" points="726.33,-512.5 736.33,-509 726.33,-505.5 726.33,-512.5"/>
</g>
<!-- zcash/secant&#45;ios&#45;wallet#233 -->
<g id="node15" class="node open">
<title>zcash/secant&#45;ios&#45;wallet#233</title>
<g id="a_node15"><a xlink:href="https://github.com/zcash/secant-ios-wallet/issues/233" xlink:title="zcash/secant&#45;ios&#45;wallet#233&#10;Localization and&#10;Accessibility" target="_blank">
<polygon fill="#c2e0c6" stroke="black" stroke-width="2" points="281,-571.5 62,-571.5 62,-518.5 281,-518.5 281,-571.5"/>
<text text-anchor="middle" x="171.5" y="-556.3" font-family="Times,serif" font-size="14.00">zcash/secant&#45;ios&#45;wallet#233</text>
<text text-anchor="middle" x="171.5" y="-541.3" font-family="Times,serif" font-size="14.00">Localization and</text>
<text text-anchor="middle" x="171.5" y="-526.3" font-family="Times,serif" font-size="14.00">Accessibility</text>
</a>
</g>
</g>
<!-- zcash/secant&#45;ios&#45;wallet#233&#45;&gt;zcash/secant&#45;ios&#45;wallet#303 -->
<g id="edge10" class="edge">
<title>zcash/secant&#45;ios&#45;wallet#233&#45;&gt;zcash/secant&#45;ios&#45;wallet#303</title>
<path fill="none" stroke="black" d="M281.32,-533.81C320.17,-529.81 364.12,-525.29 403.76,-521.21"/>
<polygon fill="black" stroke="black" points="404.15,-524.69 413.74,-520.19 403.44,-517.72 404.15,-524.69"/>
</g>
<!-- zcash&#45;hackworks/zcash&#45;light&#45;client&#45;ffi#17 -->
<g id="node16" class="node open">
<title>zcash&#45;hackworks/zcash&#45;light&#45;client&#45;ffi#17</title>
<g id="a_node16"><a xlink:href="https://github.com/zcash-hackworks/zcash-light-client-ffi/issues/17" xlink:title="zcash&#45;hackworks/zcash&#45;light&#45;client&#45;ffi#17&#10;Add Orchard support" target="_blank">
<polygon fill="#c2e0c6" stroke="black" stroke-width="2" points="327,-1397 16,-1397 16,-1359 327,-1359 327,-1397"/>
<text text-anchor="middle" x="171.5" y="-1381.8" font-family="Times,serif" font-size="14.00">zcash&#45;hackworks/zcash&#45;light&#45;client&#45;ffi#17</text>
<text text-anchor="middle" x="171.5" y="-1366.8" font-family="Times,serif" font-size="14.00">Add Orchard support</text>
</a>
</g>
</g>
<!-- zcash/ZcashLightClientKit#1217 -->
<g id="node17" class="node open">
<title>zcash/ZcashLightClientKit#1217</title>
<g id="a_node17"><a xlink:href="https://github.com/zcash/ZcashLightClientKit/issues/1217" xlink:title="zcash/ZcashLightClientKit#1217&#10;Scan historic range in&#10;reverse order" target="_blank">
<polygon fill="#c2e0c6" stroke="black" stroke-width="2" points="297.5,-1311.5 45.5,-1311.5 45.5,-1258.5 297.5,-1258.5 297.5,-1311.5"/>
<text text-anchor="middle" x="171.5" y="-1296.3" font-family="Times,serif" font-size="14.00">zcash/ZcashLightClientKit#1217</text>
<text text-anchor="middle" x="171.5" y="-1281.3" font-family="Times,serif" font-size="14.00">Scan historic range in</text>
<text text-anchor="middle" x="171.5" y="-1266.3" font-family="Times,serif" font-size="14.00">reverse order</text>
</a>
</g>
</g>
<!-- zcash/ZcashLightClientKit#1218 -->
<g id="node18" class="node open">
<title>zcash/ZcashLightClientKit#1218</title>
<g id="a_node18"><a xlink:href="https://github.com/zcash/ZcashLightClientKit/issues/1218" xlink:title="zcash/ZcashLightClientKit#1218&#10;Post&#45;Spend&#45;before&#45;Sync&#10;cleanups" target="_blank">
<polygon fill="#c2e0c6" stroke="black" points="649.5,-1215.5 397.5,-1215.5 397.5,-1162.5 649.5,-1162.5 649.5,-1215.5"/>
<text text-anchor="middle" x="523.5" y="-1200.3" font-family="Times,serif" font-size="14.00">zcash/ZcashLightClientKit#1218</text>
<text text-anchor="middle" x="523.5" y="-1185.3" font-family="Times,serif" font-size="14.00">Post&#45;Spend&#45;before&#45;Sync</text>
<text text-anchor="middle" x="523.5" y="-1170.3" font-family="Times,serif" font-size="14.00">cleanups</text>
</a>
</g>
</g>
<!-- zcash/ZcashLightClientKit#1217&#45;&gt;zcash/ZcashLightClientKit#1218 -->
<g id="edge11" class="edge">
<title>zcash/ZcashLightClientKit#1217&#45;&gt;zcash/ZcashLightClientKit#1218</title>
<path fill="none" stroke="black" d="M297.87,-1258.4C310.45,-1255.4 323,-1252.2 335,-1249 368.04,-1240.1 403.92,-1228.9 435.37,-1218.7"/>
<polygon fill="black" stroke="black" points="436.54,-1222 444.98,-1215.6 434.39,-1215.34 436.54,-1222"/>
</g>
<!-- zcash/ZcashLightClientKit#298 -->
<g id="node19" class="node open">
<title>zcash/ZcashLightClientKit#298</title>
<g id="a_node19"><a xlink:href="https://github.com/zcash/ZcashLightClientKit/issues/298" xlink:title="zcash/ZcashLightClientKit#298&#10;Make BalanceTests pass" target="_blank">
<polygon fill="#c2e0c6" stroke="black" stroke-width="2" points="293,-1240 50,-1240 50,-1202 293,-1202 293,-1240"/>
<text text-anchor="middle" x="171.5" y="-1224.8" font-family="Times,serif" font-size="14.00">zcash/ZcashLightClientKit#298</text>
<text text-anchor="middle" x="171.5" y="-1209.8" font-family="Times,serif" font-size="14.00">Make BalanceTests pass</text>
</a>
</g>
</g>
<!-- zcash/ZcashLightClientKit#298&#45;&gt;zcash/ZcashLightClientKit#1218 -->
<g id="edge12" class="edge">
<title>zcash/ZcashLightClientKit#298&#45;&gt;zcash/ZcashLightClientKit#1218</title>
<path fill="none" stroke="black" d="M293.44,-1209.9C323.75,-1207.2 356.46,-1204.2 387.41,-1201.4"/>
<polygon fill="black" stroke="black" points="387.79,-1204.88 397.39,-1200.4 387.09,-1197.91 387.79,-1204.88"/>
</g>
<!-- zcash/ZcashLightClientKit#1225 -->
<g id="node20" class="node open">
<title>zcash/ZcashLightClientKit#1225</title>
<g id="a_node20"><a xlink:href="https://github.com/zcash/ZcashLightClientKit/issues/1225" xlink:title="zcash/ZcashLightClientKit#1225&#10;Add more tests to the&#10;ScanActionTests" target="_blank">
<polygon fill="#c2e0c6" stroke="black" stroke-width="2" points="297.5,-1183.5 45.5,-1183.5 45.5,-1130.5 297.5,-1130.5 297.5,-1183.5"/>
<text text-anchor="middle" x="171.5" y="-1168.3" font-family="Times,serif" font-size="14.00">zcash/ZcashLightClientKit#1225</text>
<text text-anchor="middle" x="171.5" y="-1153.3" font-family="Times,serif" font-size="14.00">Add more tests to the</text>
<text text-anchor="middle" x="171.5" y="-1138.3" font-family="Times,serif" font-size="14.00">ScanActionTests</text>
</a>
</g>
</g>
<!-- zcash/ZcashLightClientKit#1225&#45;&gt;zcash/ZcashLightClientKit#1218 -->
<g id="edge13" class="edge">
<title>zcash/ZcashLightClientKit#1225&#45;&gt;zcash/ZcashLightClientKit#1218</title>
<path fill="none" stroke="black" d="M297.87,-1168.5C326.82,-1171.1 357.75,-1173.9 387.11,-1176.6"/>
<polygon fill="black" stroke="black" points="387.13,-1180.12 397.42,-1177.6 387.8,-1173.15 387.13,-1180.12"/>
</g>
<!-- zcash/ZcashLightClientKit#1226 -->
<g id="node21" class="node open">
<title>zcash/ZcashLightClientKit#1226</title>
<g id="a_node21"><a xlink:href="https://github.com/zcash/ZcashLightClientKit/issues/1226" xlink:title="zcash/ZcashLightClientKit#1226&#10;Remove&#10;TransactionRepository&#10;dependency from Enhance,&#10;Download and&#10;MigrateLegacyCacheDB&#10;actions" target="_blank">
<polygon fill="#c2e0c6" stroke="black" stroke-width="2" points="297.5,-1112.5 45.5,-1112.5 45.5,-999.5 297.5,-999.5 297.5,-1112.5"/>
<text text-anchor="middle" x="171.5" y="-1097.3" font-family="Times,serif" font-size="14.00">zcash/ZcashLightClientKit#1226</text>
<text text-anchor="middle" x="171.5" y="-1082.3" font-family="Times,serif" font-size="14.00">Remove</text>
<text text-anchor="middle" x="171.5" y="-1067.3" font-family="Times,serif" font-size="14.00">TransactionRepository</text>
<text text-anchor="middle" x="171.5" y="-1052.3" font-family="Times,serif" font-size="14.00">dependency from Enhance,</text>
<text text-anchor="middle" x="171.5" y="-1037.3" font-family="Times,serif" font-size="14.00">Download and</text>
<text text-anchor="middle" x="171.5" y="-1022.3" font-family="Times,serif" font-size="14.00">MigrateLegacyCacheDB</text>
<text text-anchor="middle" x="171.5" y="-1007.3" font-family="Times,serif" font-size="14.00">actions</text>
</a>
</g>
</g>
<!-- zcash/ZcashLightClientKit#1226&#45;&gt;zcash/ZcashLightClientKit#1218 -->
<g id="edge14" class="edge">
<title>zcash/ZcashLightClientKit#1226&#45;&gt;zcash/ZcashLightClientKit#1218</title>
<path fill="none" stroke="black" d="M297.87,-1103.6C346.19,-1122 400.02,-1142.5 442.87,-1158.7"/>
<polygon fill="black" stroke="black" points="441.81,-1162.04 452.4,-1162.4 444.34,-1155.52 441.81,-1162.04"/>
</g>
<!-- zcash/secant&#45;ios&#45;wallet#497 -->
<g id="node23" class="node open">
<title>zcash/secant&#45;ios&#45;wallet#497</title>
<g id="a_node23"><a xlink:href="https://github.com/zcash/secant-ios-wallet/issues/497" xlink:title="zcash/secant&#45;ios&#45;wallet#497&#10;Get rid of stateChanged&#10;subject from&#10;SDKSynchronizerClient" target="_blank">
<polygon fill="#c2e0c6" stroke="black" stroke-width="2" points="633,-314 414,-314 414,-246 633,-246 633,-314"/>
<text text-anchor="middle" x="523.5" y="-298.8" font-family="Times,serif" font-size="14.00">zcash/secant&#45;ios&#45;wallet#497</text>
<text text-anchor="middle" x="523.5" y="-283.8" font-family="Times,serif" font-size="14.00">Get rid of stateChanged</text>
<text text-anchor="middle" x="523.5" y="-268.8" font-family="Times,serif" font-size="14.00">subject from</text>
<text text-anchor="middle" x="523.5" y="-253.8" font-family="Times,serif" font-size="14.00">SDKSynchronizerClient</text>
</a>
</g>
</g>
<!-- zcash/secant&#45;ios&#45;wallet#219 -->
<g id="node24" class="node open">
<title>zcash/secant&#45;ios&#45;wallet#219</title>
<g id="a_node24"><a xlink:href="https://github.com/zcash/secant-ios-wallet/issues/219" xlink:title="zcash/secant&#45;ios&#45;wallet#219&#10;Integration of some event&#10;logging tool" target="_blank">
<polygon fill="#c2e0c6" stroke="black" stroke-width="2" points="633,-227.5 414,-227.5 414,-174.5 633,-174.5 633,-227.5"/>
<text text-anchor="middle" x="523.5" y="-212.3" font-family="Times,serif" font-size="14.00">zcash/secant&#45;ios&#45;wallet#219</text>
<text text-anchor="middle" x="523.5" y="-197.3" font-family="Times,serif" font-size="14.00">Integration of some event</text>
<text text-anchor="middle" x="523.5" y="-182.3" font-family="Times,serif" font-size="14.00">logging tool</text>
</a>
</g>
</g>
<!-- zcash/ZcashLightClientKit#695 -->
<g id="node25" class="node open">
<title>zcash/ZcashLightClientKit#695</title>
<g id="a_node25"><a xlink:href="https://github.com/zcash/ZcashLightClientKit/issues/695" xlink:title="zcash/ZcashLightClientKit#695&#10;Add `#DEBUG` tag to code&#10;that never should be in&#10;release mode" target="_blank">
<polygon fill="#c2e0c6" stroke="black" stroke-width="2" points="645,-156 402,-156 402,-88 645,-88 645,-156"/>
<text text-anchor="middle" x="523.5" y="-140.8" font-family="Times,serif" font-size="14.00">zcash/ZcashLightClientKit#695</text>
<text text-anchor="middle" x="523.5" y="-125.8" font-family="Times,serif" font-size="14.00">Add `#DEBUG` tag to code</text>
<text text-anchor="middle" x="523.5" y="-110.8" font-family="Times,serif" font-size="14.00">that never should be in</text>
<text text-anchor="middle" x="523.5" y="-95.8" font-family="Times,serif" font-size="14.00">release mode</text>
</a>
</g>
</g>
<!-- zcash/secant&#45;ios&#45;wallet#311 -->
<g id="node26" class="node open">
<title>zcash/secant&#45;ios&#45;wallet#311</title>
<g id="a_node26"><a xlink:href="https://github.com/zcash/secant-ios-wallet/issues/311" xlink:title="zcash/secant&#45;ios&#45;wallet#311&#10;Integrate ZEC price from&#10;the SDK" target="_blank">
<polygon fill="#c2e0c6" stroke="black" stroke-width="2" points="633,-69.5 414,-69.5 414,-16.5 633,-16.5 633,-69.5"/>
<text text-anchor="middle" x="523.5" y="-54.3" font-family="Times,serif" font-size="14.00">zcash/secant&#45;ios&#45;wallet#311</text>
<text text-anchor="middle" x="523.5" y="-39.3" font-family="Times,serif" font-size="14.00">Integrate ZEC price from</text>
<text text-anchor="middle" x="523.5" y="-24.3" font-family="Times,serif" font-size="14.00">the SDK</text>
</a>
</g>
</g>
<!-- zcash/secant&#45;ios&#45;wallet#802 -->
<g id="node27" class="node open">
<title>zcash/secant&#45;ios&#45;wallet#802</title>
<g id="a_node27"><a xlink:href="https://github.com/zcash/secant-ios-wallet/issues/802" xlink:title="zcash/secant&#45;ios&#45;wallet#802&#10;Core BTS UI: Load Screen" target="_blank">
<polygon fill="#c2e0c6" stroke="black" stroke-width="2" points="281,-1854 62,-1854 62,-1816 281,-1816 281,-1854"/>
<text text-anchor="middle" x="171.5" y="-1838.8" font-family="Times,serif" font-size="14.00">zcash/secant&#45;ios&#45;wallet#802</text>
<text text-anchor="middle" x="171.5" y="-1823.8" font-family="Times,serif" font-size="14.00">Core BTS UI: Load Screen</text>
</a>
</g>
</g>
<!-- zcash/secant&#45;ios&#45;wallet#808 -->
<g id="node28" class="node open">
<title>zcash/secant&#45;ios&#45;wallet#808</title>
<g id="a_node28"><a xlink:href="https://github.com/zcash/secant-ios-wallet/issues/808" xlink:title="zcash/secant&#45;ios&#45;wallet#808&#10;Core BTS UI: Settings&#10;Screen" target="_blank">
<polygon fill="#c2e0c6" stroke="black" stroke-width="2" points="281,-1797.5 62,-1797.5 62,-1744.5 281,-1744.5 281,-1797.5"/>
<text text-anchor="middle" x="171.5" y="-1782.3" font-family="Times,serif" font-size="14.00">zcash/secant&#45;ios&#45;wallet#808</text>
<text text-anchor="middle" x="171.5" y="-1767.3" font-family="Times,serif" font-size="14.00">Core BTS UI: Settings</text>
<text text-anchor="middle" x="171.5" y="-1752.3" font-family="Times,serif" font-size="14.00">Screen</text>
</a>
</g>
</g>
<!-- zcash/secant&#45;ios&#45;wallet#807 -->
<g id="node29" class="node open">
<title>zcash/secant&#45;ios&#45;wallet#807</title>
<g id="a_node29"><a xlink:href="https://github.com/zcash/secant-ios-wallet/issues/807" xlink:title="zcash/secant&#45;ios&#45;wallet#807&#10;Core BTS UI: About Screen" target="_blank">
<polygon fill="#c2e0c6" stroke="black" stroke-width="2" points="281,-1726 62,-1726 62,-1688 281,-1688 281,-1726"/>
<text text-anchor="middle" x="171.5" y="-1710.8" font-family="Times,serif" font-size="14.00">zcash/secant&#45;ios&#45;wallet#807</text>
<text text-anchor="middle" x="171.5" y="-1695.8" font-family="Times,serif" font-size="14.00">Core BTS UI: About Screen</text>
</a>
</g>
</g>
<!-- zcash/secant&#45;ios&#45;wallet#803 -->
<g id="node30" class="node open">
<title>zcash/secant&#45;ios&#45;wallet#803</title>
<g id="a_node30"><a xlink:href="https://github.com/zcash/secant-ios-wallet/issues/803" xlink:title="zcash/secant&#45;ios&#45;wallet#803&#10;Core BTS UI: Recovery&#10;Phrase Screen" target="_blank">
<polygon fill="#c2e0c6" stroke="black" stroke-width="2" points="281,-1669.5 62,-1669.5 62,-1616.5 281,-1616.5 281,-1669.5"/>
<text text-anchor="middle" x="171.5" y="-1654.3" font-family="Times,serif" font-size="14.00">zcash/secant&#45;ios&#45;wallet#803</text>
<text text-anchor="middle" x="171.5" y="-1639.3" font-family="Times,serif" font-size="14.00">Core BTS UI: Recovery</text>
<text text-anchor="middle" x="171.5" y="-1624.3" font-family="Times,serif" font-size="14.00">Phrase Screen</text>
</a>
</g>
</g>
<!-- zcash/secant&#45;ios&#45;wallet#806 -->
<g id="node31" class="node open">
<title>zcash/secant&#45;ios&#45;wallet#806</title>
<g id="a_node31"><a xlink:href="https://github.com/zcash/secant-ios-wallet/issues/806" xlink:title="zcash/secant&#45;ios&#45;wallet#806&#10;Core BTS UI: Warning&#10;Screen" target="_blank">
<polygon fill="#c2e0c6" stroke="black" stroke-width="2" points="281,-1598.5 62,-1598.5 62,-1545.5 281,-1545.5 281,-1598.5"/>
<text text-anchor="middle" x="171.5" y="-1583.3" font-family="Times,serif" font-size="14.00">zcash/secant&#45;ios&#45;wallet#806</text>
<text text-anchor="middle" x="171.5" y="-1568.3" font-family="Times,serif" font-size="14.00">Core BTS UI: Warning</text>
<text text-anchor="middle" x="171.5" y="-1553.3" font-family="Times,serif" font-size="14.00">Screen</text>
</a>
</g>
</g>
<!-- zcash/ZcashLightClientKit#1143 -->
<g id="node32" class="node open">
<title>zcash/ZcashLightClientKit#1143</title>
<g id="a_node32"><a xlink:href="https://github.com/zcash/ZcashLightClientKit/issues/1143" xlink:title="zcash/ZcashLightClientKit#1143&#10;Make state machine to&#10;work in a local context" target="_blank">
<polygon fill="#c2e0c6" stroke="black" stroke-width="2" points="297.5,-2025.5 45.5,-2025.5 45.5,-1972.5 297.5,-1972.5 297.5,-2025.5"/>
<text text-anchor="middle" x="171.5" y="-2010.3" font-family="Times,serif" font-size="14.00">zcash/ZcashLightClientKit#1143</text>
<text text-anchor="middle" x="171.5" y="-1995.3" font-family="Times,serif" font-size="14.00">Make state machine to</text>
<text text-anchor="middle" x="171.5" y="-1980.3" font-family="Times,serif" font-size="14.00">work in a local context</text>
</a>
</g>
</g>
<!-- zcash/ZcashLightClientKit#1147 -->
<g id="node33" class="node open">
<title>zcash/ZcashLightClientKit#1147</title>
<g id="a_node33"><a xlink:href="https://github.com/zcash/ZcashLightClientKit/issues/1147" xlink:title="zcash/ZcashLightClientKit#1147&#10;Update&#10;cbp_state_machine.png" target="_blank">
<polygon fill="#c2e0c6" stroke="black" stroke-width="2" points="297.5,-1954.5 45.5,-1954.5 45.5,-1901.5 297.5,-1901.5 297.5,-1954.5"/>
<text text-anchor="middle" x="171.5" y="-1939.3" font-family="Times,serif" font-size="14.00">zcash/ZcashLightClientKit#1147</text>
<text text-anchor="middle" x="171.5" y="-1924.3" font-family="Times,serif" font-size="14.00">Update</text>
<text text-anchor="middle" x="171.5" y="-1909.3" font-family="Times,serif" font-size="14.00">cbp_state_machine.png</text>
</a>
</g>
</g>
<!-- zcash/secant&#45;ios&#45;wallet#214 -->
<g id="node36" class="node open">
<title>zcash/secant&#45;ios&#45;wallet#214</title>
<g id="a_node36"><a xlink:href="https://github.com/zcash/secant-ios-wallet/issues/214" xlink:title="zcash/secant&#45;ios&#45;wallet#214&#10;[Scaffold] Add About&#10;Screen" target="_blank">
<polygon fill="#c2e0c6" stroke="black" stroke-width="2" points="281,-2118.5 62,-2118.5 62,-2065.5 281,-2065.5 281,-2118.5"/>
<text text-anchor="middle" x="171.5" y="-2103.3" font-family="Times,serif" font-size="14.00">zcash/secant&#45;ios&#45;wallet#214</text>
<text text-anchor="middle" x="171.5" y="-2088.3" font-family="Times,serif" font-size="14.00">[Scaffold] Add About</text>
<text text-anchor="middle" x="171.5" y="-2073.3" font-family="Times,serif" font-size="14.00">Screen</text>
</a>
</g>
</g>
<!-- zcash/secant&#45;ios&#45;wallet#89 -->
<g id="node37" class="node closed">
<title>zcash/secant&#45;ios&#45;wallet#89</title>
<g id="a_node37"><a xlink:href="https://github.com/zcash/secant-ios-wallet/issues/89" xlink:title="zcash/secant&#45;ios&#45;wallet#89&#10;[Functional] Sending&#10;Screen &#45; Failure" target="_blank">
<polygon fill="#fad8c7" stroke="black" points="628.5,-2189.5 418.5,-2189.5 418.5,-2136.5 628.5,-2136.5 628.5,-2189.5"/>
<text text-anchor="middle" x="523.5" y="-2174.3" font-family="Times,serif" font-size="14.00">zcash/secant&#45;ios&#45;wallet#89</text>
<text text-anchor="middle" x="523.5" y="-2159.3" font-family="Times,serif" font-size="14.00">[Functional] Sending</text>
<text text-anchor="middle" x="523.5" y="-2144.3" font-family="Times,serif" font-size="14.00">Screen &#45; Failure</text>
</a>
</g>
</g>
<!-- zcash/secant&#45;ios&#45;wallet#411 -->
<g id="node38" class="node open">
<title>zcash/secant&#45;ios&#45;wallet#411</title>
<g id="a_node38"><a xlink:href="https://github.com/zcash/secant-ios-wallet/issues/411" xlink:title="zcash/secant&#45;ios&#45;wallet#411&#10;Async SynchronizerClient&#10;methods refactor" target="_blank">
<polygon fill="#c2e0c6" stroke="black" stroke-width="2" points="281,-2260.5 62,-2260.5 62,-2207.5 281,-2207.5 281,-2260.5"/>
<text text-anchor="middle" x="171.5" y="-2245.3" font-family="Times,serif" font-size="14.00">zcash/secant&#45;ios&#45;wallet#411</text>
<text text-anchor="middle" x="171.5" y="-2230.3" font-family="Times,serif" font-size="14.00">Async SynchronizerClient</text>
<text text-anchor="middle" x="171.5" y="-2215.3" font-family="Times,serif" font-size="14.00">methods refactor</text>
</a>
</g>
</g>
<!-- zcash/secant&#45;ios&#45;wallet#232 -->
<g id="node39" class="node open">
<title>zcash/secant&#45;ios&#45;wallet#232</title>
<g id="a_node39"><a xlink:href="https://github.com/zcash/secant-ios-wallet/issues/232" xlink:title="zcash/secant&#45;ios&#45;wallet#232&#10;Add error handling UI for&#10;ZEC send UI" target="_blank">
<polygon fill="#c2e0c6" stroke="black" stroke-width="2" points="281,-2189.5 62,-2189.5 62,-2136.5 281,-2136.5 281,-2189.5"/>
<text text-anchor="middle" x="171.5" y="-2174.3" font-family="Times,serif" font-size="14.00">zcash/secant&#45;ios&#45;wallet#232</text>
<text text-anchor="middle" x="171.5" y="-2159.3" font-family="Times,serif" font-size="14.00">Add error handling UI for</text>
<text text-anchor="middle" x="171.5" y="-2144.3" font-family="Times,serif" font-size="14.00">ZEC send UI</text>
</a>
</g>
</g>
<!-- zcash/secant&#45;ios&#45;wallet#232&#45;&gt;zcash/secant&#45;ios&#45;wallet#89 -->
<g id="edge18" class="edge">
<title>zcash/secant&#45;ios&#45;wallet#232&#45;&gt;zcash/secant&#45;ios&#45;wallet#89</title>
<path fill="none" stroke="black" d="M281.32,-2163C321.56,-2163 367.27,-2163 407.99,-2163"/>
<polygon fill="black" stroke="black" points="408.23,-2166.5 418.23,-2163 408.23,-2159.5 408.23,-2166.5"/>
</g>
<!-- zcash/secant&#45;ios&#45;wallet#694 -->
<g id="node40" class="node open">
<title>zcash/secant&#45;ios&#45;wallet#694</title>
<g id="a_node40"><a xlink:href="https://github.com/zcash/secant-ios-wallet/issues/694" xlink:title="zcash/secant&#45;ios&#45;wallet#694&#10;Instrument a forced&#10;upgrade mechanism" target="_blank">
<polygon fill="#c2e0c6" stroke="black" stroke-width="2" points="281,-2331.5 62,-2331.5 62,-2278.5 281,-2278.5 281,-2331.5"/>
<text text-anchor="middle" x="171.5" y="-2316.3" font-family="Times,serif" font-size="14.00">zcash/secant&#45;ios&#45;wallet#694</text>
<text text-anchor="middle" x="171.5" y="-2301.3" font-family="Times,serif" font-size="14.00">Instrument a forced</text>
<text text-anchor="middle" x="171.5" y="-2286.3" font-family="Times,serif" font-size="14.00">upgrade mechanism</text>
</a>
</g>
</g>
<!-- zcash/secant&#45;ios&#45;wallet#237 -->
<g id="node41" class="node open">
<title>zcash/secant&#45;ios&#45;wallet#237</title>
<g id="a_node41"><a xlink:href="https://github.com/zcash/secant-ios-wallet/issues/237" xlink:title="zcash/secant&#45;ios&#45;wallet#237&#10;Design: Privacy &amp; Opt&#45;&#10;in/out for cloud services" target="_blank">
<polygon fill="#c2e0c6" stroke="black" stroke-width="2" points="281,-2402.5 62,-2402.5 62,-2349.5 281,-2349.5 281,-2402.5"/>
<text text-anchor="middle" x="171.5" y="-2387.3" font-family="Times,serif" font-size="14.00">zcash/secant&#45;ios&#45;wallet#237</text>
<text text-anchor="middle" x="171.5" y="-2372.3" font-family="Times,serif" font-size="14.00">Design: Privacy &amp; Opt&#45;</text>
<text text-anchor="middle" x="171.5" y="-2357.3" font-family="Times,serif" font-size="14.00">in/out for cloud services</text>
</a>
</g>
</g>
<!-- zcash/secant&#45;ios&#45;wallet#695 -->
<g id="node42" class="node open">
<title>zcash/secant&#45;ios&#45;wallet#695</title>
<g id="a_node42"><a xlink:href="https://github.com/zcash/secant-ios-wallet/issues/695" xlink:title="zcash/secant&#45;ios&#45;wallet#695&#10;Support for opt&#45;in cloud&#10;backup of keys" target="_blank">
<polygon fill="#c2e0c6" stroke="black" stroke-width="2" points="281,-2473.5 62,-2473.5 62,-2420.5 281,-2420.5 281,-2473.5"/>
<text text-anchor="middle" x="171.5" y="-2458.3" font-family="Times,serif" font-size="14.00">zcash/secant&#45;ios&#45;wallet#695</text>
<text text-anchor="middle" x="171.5" y="-2443.3" font-family="Times,serif" font-size="14.00">Support for opt&#45;in cloud</text>
<text text-anchor="middle" x="171.5" y="-2428.3" font-family="Times,serif" font-size="14.00">backup of keys</text>
</a>
</g>
</g>
</g>
</svg>
