<?xml version="1.0" encoding="UTF-8" standalone="no"?>
<?xml-stylesheet href="zcash-dag.css" type="text/css"?>
<!DOCTYPE svg PUBLIC "-//W3C//DTD SVG 1.1//EN"
 "http://www.w3.org/Graphics/SVG/1.1/DTD/svg11.dtd">
<!-- Generated by graphviz version 2.43.0 (0)
 -->
<!-- Pages: 1 -->
<svg width="1670pt" height="2302pt"
 viewBox="0.00 0.00 1669.50 2302.00" xmlns="http://www.w3.org/2000/svg" xmlns:xlink="http://www.w3.org/1999/xlink">
<g id="graph0" class="graph" transform="scale(1 1) rotate(0) translate(4 2298)">
<polygon fill="white" stroke="transparent" points="-4,4 -4,-2298 1665.5,-2298 1665.5,4 -4,4"/>
<g id="clust1" class="cluster">
<title>cluster_1</title>
<polygon fill="none" stroke="blue" points="37.5,-93 37.5,-1018 627.5,-1018 627.5,-93 37.5,-93"/>
<text text-anchor="middle" x="332.5" y="-1002.8" font-family="Times,serif" font-size="14.00">SDK 2.0 Post&#45;Release Cleanup</text>
</g>
<g id="clust2" class="cluster">
<title>cluster_2</title>
<polygon fill="none" stroke="blue" points="8,-8 8,-85 335,-85 335,-8 8,-8"/>
<text text-anchor="middle" x="171.5" y="-69.8" font-family="Times,serif" font-size="14.00">Orchard in Mobile SDKs</text>
</g>
<g id="clust3" class="cluster">
<title>cluster_3</title>
<polygon fill="none" stroke="blue" points="8,-1141 8,-1234 335,-1234 335,-1141 8,-1141"/>
<text text-anchor="middle" x="171.5" y="-1218.8" font-family="Times,serif" font-size="14.00">UniFFI</text>
</g>
<g id="clust4" class="cluster">
<title>cluster_0</title>
<polygon fill="none" stroke="blue" points="42,-1026 42,-1133 1653.5,-1133 1653.5,-1026 42,-1026"/>
<text text-anchor="middle" x="847.75" y="-1117.8" font-family="Times,serif" font-size="14.00">Request ZEC Flow</text>
</g>
<g id="clust5" class="cluster">
<title>cluster_5</title>
<polygon fill="none" stroke="blue" points="0,0 0,-2294 1661.5,-2294 1661.5,0 0,0"/>
<text text-anchor="middle" x="830.75" y="-2278.8" font-family="Times,serif" font-size="14.00">Add Orchard Support</text>
</g>
<g id="clust6" class="cluster">
<title>cluster_4</title>
<polygon fill="none" stroke="blue" points="54,-1242 54,-1391 289,-1391 289,-1242 54,-1242"/>
<text text-anchor="middle" x="171.5" y="-1375.8" font-family="Times,serif" font-size="14.00">Core BTS UI Improvements</text>
</g>
<g id="clust7" class="cluster">
<title>cluster_6</title>
<polygon fill="none" stroke="blue" points="37.5,-1399 37.5,-1563 305.5,-1563 305.5,-1399 37.5,-1399"/>
<text text-anchor="middle" x="171.5" y="-1547.8" font-family="Times,serif" font-size="14.00">Pre&#45;DAG sync</text>
</g>
<!-- zcash/ZcashLightClientKit#1217 -->
<g id="node1" class="node open">
<title>zcash/ZcashLightClientKit#1217</title>
<g id="a_node1"><a xlink:href="https://github.com/zcash/ZcashLightClientKit/issues/1217" xlink:title="zcash/ZcashLightClientKit#1217&#10;Scan historic range in&#10;reverse order" target="_blank">
<polygon fill="#c2e0c6" stroke="black" stroke-width="2" points="297.5,-986.5 45.5,-986.5 45.5,-933.5 297.5,-933.5 297.5,-986.5"/>
<text text-anchor="middle" x="171.5" y="-971.3" font-family="Times,serif" font-size="14.00">zcash/ZcashLightClientKit#1217</text>
<text text-anchor="middle" x="171.5" y="-956.3" font-family="Times,serif" font-size="14.00">Scan historic range in</text>
<text text-anchor="middle" x="171.5" y="-941.3" font-family="Times,serif" font-size="14.00">reverse order</text>
</a>
</g>
</g>
<!-- zcash/ZcashLightClientKit#1218 -->
<g id="node2" class="node open">
<title>zcash/ZcashLightClientKit#1218</title>
<g id="a_node2"><a xlink:href="https://github.com/zcash/ZcashLightClientKit/issues/1218" xlink:title="zcash/ZcashLightClientKit#1218&#10;Post&#45;Spend&#45;before&#45;Sync&#10;cleanups" target="_blank">
<polygon fill="#c2e0c6" stroke="black" points="619.5,-600.5 367.5,-600.5 367.5,-547.5 619.5,-547.5 619.5,-600.5"/>
<text text-anchor="middle" x="493.5" y="-585.3" font-family="Times,serif" font-size="14.00">zcash/ZcashLightClientKit#1218</text>
<text text-anchor="middle" x="493.5" y="-570.3" font-family="Times,serif" font-size="14.00">Post&#45;Spend&#45;before&#45;Sync</text>
<text text-anchor="middle" x="493.5" y="-555.3" font-family="Times,serif" font-size="14.00">cleanups</text>
</a>
</g>
</g>
<!-- zcash/ZcashLightClientKit#1217&#45;&gt;zcash/ZcashLightClientKit#1218 -->
<g id="edge1" class="edge">
<title>zcash/ZcashLightClientKit#1217&#45;&gt;zcash/ZcashLightClientKit#1218</title>
<path fill="none" stroke="black" d="M297.88,-944.98C311.28,-939.77 324.02,-932.94 335,-924 435.5,-842.23 474.19,-682.77 486.99,-610.8"/>
<polygon fill="black" stroke="black" points="490.46,-611.29 488.7,-600.84 483.56,-610.1 490.46,-611.29"/>
</g>
<!-- zcash/ZcashLightClientKit#1286 -->
<g id="node3" class="node open">
<title>zcash/ZcashLightClientKit#1286</title>
<g id="a_node3"><a xlink:href="https://github.com/zcash/ZcashLightClientKit/issues/1286" xlink:title="zcash/ZcashLightClientKit#1286&#10;Add structured error&#10;types for errors received&#10;across the FFI boundary." target="_blank">
<polygon fill="#c2e0c6" stroke="black" stroke-width="2" points="297.5,-915 45.5,-915 45.5,-847 297.5,-847 297.5,-915"/>
<text text-anchor="middle" x="171.5" y="-899.8" font-family="Times,serif" font-size="14.00">zcash/ZcashLightClientKit#1286</text>
<text text-anchor="middle" x="171.5" y="-884.8" font-family="Times,serif" font-size="14.00">Add structured error</text>
<text text-anchor="middle" x="171.5" y="-869.8" font-family="Times,serif" font-size="14.00">types for errors received</text>
<text text-anchor="middle" x="171.5" y="-854.8" font-family="Times,serif" font-size="14.00">across the FFI boundary.</text>
</a>
</g>
</g>
<!-- zcash/ZcashLightClientKit#1286&#45;&gt;zcash/ZcashLightClientKit#1218 -->
<g id="edge2" class="edge">
<title>zcash/ZcashLightClientKit#1286&#45;&gt;zcash/ZcashLightClientKit#1218</title>
<path fill="none" stroke="black" d="M297.85,-858.66C311.11,-853.21 323.81,-846.43 335,-838 413.61,-778.76 460.7,-667.86 480.88,-610.48"/>
<polygon fill="black" stroke="black" points="484.29,-611.33 484.23,-600.74 477.67,-609.06 484.29,-611.33"/>
</g>
<!-- zcash/ZcashLightClientKit#298 -->
<g id="node4" class="node open">
<title>zcash/ZcashLightClientKit#298</title>
<g id="a_node4"><a xlink:href="https://github.com/zcash/ZcashLightClientKit/issues/298" xlink:title="zcash/ZcashLightClientKit#298&#10;Make BalanceTests pass" target="_blank">
<polygon fill="#c2e0c6" stroke="black" stroke-width="2" points="293,-829 50,-829 50,-791 293,-791 293,-829"/>
<text text-anchor="middle" x="171.5" y="-813.8" font-family="Times,serif" font-size="14.00">zcash/ZcashLightClientKit#298</text>
<text text-anchor="middle" x="171.5" y="-798.8" font-family="Times,serif" font-size="14.00">Make BalanceTests pass</text>
</a>
</g>
</g>
<!-- zcash/ZcashLightClientKit#298&#45;&gt;zcash/ZcashLightClientKit#1218 -->
<g id="edge3" class="edge">
<title>zcash/ZcashLightClientKit#298&#45;&gt;zcash/ZcashLightClientKit#1218</title>
<path fill="none" stroke="black" d="M293.39,-798.91C308.03,-794.58 322.28,-788.77 335,-781 402.92,-739.5 451.97,-657.03 475.94,-609.67"/>
<polygon fill="black" stroke="black" points="479.09,-611.2 480.4,-600.69 472.82,-608.09 479.09,-611.2"/>
</g>
<!-- zcash/ZcashLightClientKit#1260 -->
<g id="node5" class="node open">
<title>zcash/ZcashLightClientKit#1260</title>
<g id="a_node5"><a xlink:href="https://github.com/zcash/ZcashLightClientKit/issues/1260" xlink:title="zcash/ZcashLightClientKit#1260&#10;Restore&#10;allPendingTransactions&#10;with use of&#10;v_transactions" target="_blank">
<polygon fill="#c2e0c6" stroke="black" stroke-width="2" points="297.5,-772.5 45.5,-772.5 45.5,-689.5 297.5,-689.5 297.5,-772.5"/>
<text text-anchor="middle" x="171.5" y="-757.3" font-family="Times,serif" font-size="14.00">zcash/ZcashLightClientKit#1260</text>
<text text-anchor="middle" x="171.5" y="-742.3" font-family="Times,serif" font-size="14.00">Restore</text>
<text text-anchor="middle" x="171.5" y="-727.3" font-family="Times,serif" font-size="14.00">allPendingTransactions</text>
<text text-anchor="middle" x="171.5" y="-712.3" font-family="Times,serif" font-size="14.00">with use of</text>
<text text-anchor="middle" x="171.5" y="-697.3" font-family="Times,serif" font-size="14.00">v_transactions</text>
</a>
</g>
</g>
<!-- zcash/ZcashLightClientKit#1260&#45;&gt;zcash/ZcashLightClientKit#1218 -->
<g id="edge4" class="edge">
<title>zcash/ZcashLightClientKit#1260&#45;&gt;zcash/ZcashLightClientKit#1218</title>
<path fill="none" stroke="black" d="M297.7,-695.76C310.5,-690.96 323.14,-685.7 335,-680 376.81,-659.89 420.26,-629.85 450.91,-606.88"/>
<polygon fill="black" stroke="black" points="453.34,-609.43 459.2,-600.6 449.12,-603.85 453.34,-609.43"/>
</g>
<!-- zcash/ZcashLightClientKit#1261 -->
<g id="node6" class="node open">
<title>zcash/ZcashLightClientKit#1261</title>
<g id="a_node6"><a xlink:href="https://github.com/zcash/ZcashLightClientKit/issues/1261" xlink:title="zcash/ZcashLightClientKit#1261&#10;Mark generated files in&#10;`.gitattributes`" target="_blank">
<polygon fill="#c2e0c6" stroke="black" stroke-width="2" points="297.5,-671.5 45.5,-671.5 45.5,-618.5 297.5,-618.5 297.5,-671.5"/>
<text text-anchor="middle" x="171.5" y="-656.3" font-family="Times,serif" font-size="14.00">zcash/ZcashLightClientKit#1261</text>
<text text-anchor="middle" x="171.5" y="-641.3" font-family="Times,serif" font-size="14.00">Mark generated files in</text>
<text text-anchor="middle" x="171.5" y="-626.3" font-family="Times,serif" font-size="14.00">`.gitattributes`</text>
</a>
</g>
</g>
<!-- zcash/ZcashLightClientKit#1261&#45;&gt;zcash/ZcashLightClientKit#1218 -->
<g id="edge5" class="edge">
<title>zcash/ZcashLightClientKit#1261&#45;&gt;zcash/ZcashLightClientKit#1218</title>
<path fill="none" stroke="black" d="M292.31,-618.47C306.69,-615.28 321.18,-612.07 335,-609 344.13,-606.97 353.56,-604.88 363.06,-602.77"/>
<polygon fill="black" stroke="black" points="363.97,-606.15 372.97,-600.57 362.45,-599.32 363.97,-606.15"/>
</g>
<!-- zcash/ZcashLightClientKit#1225 -->
<g id="node7" class="node open">
<title>zcash/ZcashLightClientKit#1225</title>
<g id="a_node7"><a xlink:href="https://github.com/zcash/ZcashLightClientKit/issues/1225" xlink:title="zcash/ZcashLightClientKit#1225&#10;Add more tests to the&#10;ScanActionTests" target="_blank">
<polygon fill="#c2e0c6" stroke="black" stroke-width="2" points="297.5,-600.5 45.5,-600.5 45.5,-547.5 297.5,-547.5 297.5,-600.5"/>
<text text-anchor="middle" x="171.5" y="-585.3" font-family="Times,serif" font-size="14.00">zcash/ZcashLightClientKit#1225</text>
<text text-anchor="middle" x="171.5" y="-570.3" font-family="Times,serif" font-size="14.00">Add more tests to the</text>
<text text-anchor="middle" x="171.5" y="-555.3" font-family="Times,serif" font-size="14.00">ScanActionTests</text>
</a>
</g>
</g>
<!-- zcash/ZcashLightClientKit#1225&#45;&gt;zcash/ZcashLightClientKit#1218 -->
<g id="edge6" class="edge">
<title>zcash/ZcashLightClientKit#1225&#45;&gt;zcash/ZcashLightClientKit#1218</title>
<path fill="none" stroke="black" d="M297.6,-574C317.24,-574 337.62,-574 357.48,-574"/>
<polygon fill="black" stroke="black" points="357.49,-577.5 367.49,-574 357.49,-570.5 357.49,-577.5"/>
</g>
<!-- zcash/ZcashLightClientKit#1247 -->
<g id="node8" class="node open">
<title>zcash/ZcashLightClientKit#1247</title>
<g id="a_node8"><a xlink:href="https://github.com/zcash/ZcashLightClientKit/issues/1247" xlink:title="zcash/ZcashLightClientKit#1247&#10;[SBS] DarkSideTests&#10;checks and fixes" target="_blank">
<polygon fill="#c2e0c6" stroke="black" stroke-width="2" points="297.5,-529.5 45.5,-529.5 45.5,-476.5 297.5,-476.5 297.5,-529.5"/>
<text text-anchor="middle" x="171.5" y="-514.3" font-family="Times,serif" font-size="14.00">zcash/ZcashLightClientKit#1247</text>
<text text-anchor="middle" x="171.5" y="-499.3" font-family="Times,serif" font-size="14.00">[SBS] DarkSideTests</text>
<text text-anchor="middle" x="171.5" y="-484.3" font-family="Times,serif" font-size="14.00">checks and fixes</text>
</a>
</g>
</g>
<!-- zcash/ZcashLightClientKit#1247&#45;&gt;zcash/ZcashLightClientKit#1218 -->
<g id="edge7" class="edge">
<title>zcash/ZcashLightClientKit#1247&#45;&gt;zcash/ZcashLightClientKit#1218</title>
<path fill="none" stroke="black" d="M296.75,-529.59C309.67,-532.41 322.6,-535.25 335,-538 345.48,-540.33 356.35,-542.76 367.26,-545.22"/>
<polygon fill="black" stroke="black" points="366.74,-548.69 377.27,-547.49 368.29,-541.87 366.74,-548.69"/>
</g>
<!-- zcash/ZcashLightClientKit#1226 -->
<g id="node9" class="node open">
<title>zcash/ZcashLightClientKit#1226</title>
<g id="a_node9"><a xlink:href="https://github.com/zcash/ZcashLightClientKit/issues/1226" xlink:title="zcash/ZcashLightClientKit#1226&#10;Remove&#10;TransactionRepository&#10;dependency from Enhance,&#10;Download and&#10;MigrateLegacyCacheDB&#10;actions" target="_blank">
<polygon fill="#c2e0c6" stroke="black" stroke-width="2" points="297.5,-458.5 45.5,-458.5 45.5,-345.5 297.5,-345.5 297.5,-458.5"/>
<text text-anchor="middle" x="171.5" y="-443.3" font-family="Times,serif" font-size="14.00">zcash/ZcashLightClientKit#1226</text>
<text text-anchor="middle" x="171.5" y="-428.3" font-family="Times,serif" font-size="14.00">Remove</text>
<text text-anchor="middle" x="171.5" y="-413.3" font-family="Times,serif" font-size="14.00">TransactionRepository</text>
<text text-anchor="middle" x="171.5" y="-398.3" font-family="Times,serif" font-size="14.00">dependency from Enhance,</text>
<text text-anchor="middle" x="171.5" y="-383.3" font-family="Times,serif" font-size="14.00">Download and</text>
<text text-anchor="middle" x="171.5" y="-368.3" font-family="Times,serif" font-size="14.00">MigrateLegacyCacheDB</text>
<text text-anchor="middle" x="171.5" y="-353.3" font-family="Times,serif" font-size="14.00">actions</text>
</a>
</g>
</g>
<!-- zcash/ZcashLightClientKit#1226&#45;&gt;zcash/ZcashLightClientKit#1218 -->
<g id="edge8" class="edge">
<title>zcash/ZcashLightClientKit#1226&#45;&gt;zcash/ZcashLightClientKit#1218</title>
<path fill="none" stroke="black" d="M297.53,-448.79C310.36,-454.55 323.06,-460.65 335,-467 375.69,-488.63 418.76,-518.43 449.56,-541.09"/>
<polygon fill="black" stroke="black" points="447.79,-544.14 457.91,-547.28 451.96,-538.51 447.79,-544.14"/>
</g>
<!-- zcash/ZcashLightClientKit#1250 -->
<g id="node10" class="node open">
<title>zcash/ZcashLightClientKit#1250</title>
<g id="a_node10"><a xlink:href="https://github.com/zcash/ZcashLightClientKit/issues/1250" xlink:title="zcash/ZcashLightClientKit#1250&#10;[TODO] treeState.height&#10;in testInitWithShortSeedA&#10;ndFail" target="_blank">
<polygon fill="#c2e0c6" stroke="black" stroke-width="2" points="297.5,-327 45.5,-327 45.5,-259 297.5,-259 297.5,-327"/>
<text text-anchor="middle" x="171.5" y="-311.8" font-family="Times,serif" font-size="14.00">zcash/ZcashLightClientKit#1250</text>
<text text-anchor="middle" x="171.5" y="-296.8" font-family="Times,serif" font-size="14.00">[TODO] treeState.height</text>
<text text-anchor="middle" x="171.5" y="-281.8" font-family="Times,serif" font-size="14.00">in testInitWithShortSeedA</text>
<text text-anchor="middle" x="171.5" y="-266.8" font-family="Times,serif" font-size="14.00">ndFail</text>
</a>
</g>
</g>
<!-- zcash/ZcashLightClientKit#1250&#45;&gt;zcash/ZcashLightClientKit#1218 -->
<g id="edge9" class="edge">
<title>zcash/ZcashLightClientKit#1250&#45;&gt;zcash/ZcashLightClientKit#1218</title>
<path fill="none" stroke="black" d="M297.88,-316.03C311.06,-321.36 323.74,-327.92 335,-336 407.76,-388.21 456.29,-485.34 478.54,-537.93"/>
<polygon fill="black" stroke="black" points="475.32,-539.31 482.38,-547.21 481.79,-536.63 475.32,-539.31"/>
</g>
<!-- zcash/ZcashLightClientKit#1284 -->
<g id="node11" class="node open">
<title>zcash/ZcashLightClientKit#1284</title>
<g id="a_node11"><a xlink:href="https://github.com/zcash/ZcashLightClientKit/issues/1284" xlink:title="zcash/ZcashLightClientKit#1284&#10;Remove `UnspentTransactio&#10;nOutputsDao`" target="_blank">
<polygon fill="#c2e0c6" stroke="black" stroke-width="2" points="297.5,-240.5 45.5,-240.5 45.5,-187.5 297.5,-187.5 297.5,-240.5"/>
<text text-anchor="middle" x="171.5" y="-225.3" font-family="Times,serif" font-size="14.00">zcash/ZcashLightClientKit#1284</text>
<text text-anchor="middle" x="171.5" y="-210.3" font-family="Times,serif" font-size="14.00">Remove `UnspentTransactio</text>
<text text-anchor="middle" x="171.5" y="-195.3" font-family="Times,serif" font-size="14.00">nOutputsDao`</text>
</a>
</g>
</g>
<!-- zcash/ZcashLightClientKit#1284&#45;&gt;zcash/ZcashLightClientKit#1218 -->
<g id="edge10" class="edge">
<title>zcash/ZcashLightClientKit#1284&#45;&gt;zcash/ZcashLightClientKit#1218</title>
<path fill="none" stroke="black" d="M297.62,-229.34C311.07,-234.49 323.89,-241.23 335,-250 429.33,-324.45 470.78,-469.66 485.6,-537.47"/>
<polygon fill="black" stroke="black" points="482.18,-538.22 487.67,-547.28 489.03,-536.77 482.18,-538.22"/>
</g>
<!-- zcash/ZcashLightClientKit#1285 -->
<g id="node12" class="node open">
<title>zcash/ZcashLightClientKit#1285</title>
<g id="a_node12"><a xlink:href="https://github.com/zcash/ZcashLightClientKit/issues/1285" xlink:title="zcash/ZcashLightClientKit#1285&#10;Remove `AccountSQLDAO`&#10;from&#10;`AccountEntity.swift`" target="_blank">
<polygon fill="#c2e0c6" stroke="black" stroke-width="2" points="297.5,-169 45.5,-169 45.5,-101 297.5,-101 297.5,-169"/>
<text text-anchor="middle" x="171.5" y="-153.8" font-family="Times,serif" font-size="14.00">zcash/ZcashLightClientKit#1285</text>
<text text-anchor="middle" x="171.5" y="-138.8" font-family="Times,serif" font-size="14.00">Remove `AccountSQLDAO`</text>
<text text-anchor="middle" x="171.5" y="-123.8" font-family="Times,serif" font-size="14.00">from</text>
<text text-anchor="middle" x="171.5" y="-108.8" font-family="Times,serif" font-size="14.00">`AccountEntity.swift`</text>
</a>
</g>
</g>
<!-- zcash/ZcashLightClientKit#1285&#45;&gt;zcash/ZcashLightClientKit#1218 -->
<g id="edge11" class="edge">
<title>zcash/ZcashLightClientKit#1285&#45;&gt;zcash/ZcashLightClientKit#1218</title>
<path fill="none" stroke="black" d="M297.62,-154.91C311.23,-160.78 324.08,-168.32 335,-178 444.57,-275.17 478.86,-458.82 488.78,-537.13"/>
<polygon fill="black" stroke="black" points="485.35,-537.95 490.02,-547.46 492.3,-537.11 485.35,-537.95"/>
</g>
<!-- zcash&#45;hackworks/zcash&#45;light&#45;client&#45;ffi#17 -->
<g id="node13" class="node open">
<title>zcash&#45;hackworks/zcash&#45;light&#45;client&#45;ffi#17</title>
<g id="a_node13"><a xlink:href="https://github.com/zcash-hackworks/zcash-light-client-ffi/issues/17" xlink:title="zcash&#45;hackworks/zcash&#45;light&#45;client&#45;ffi#17&#10;Add Orchard support" target="_blank">
<polygon fill="#c2e0c6" stroke="black" stroke-width="2" points="327,-54 16,-54 16,-16 327,-16 327,-54"/>
<text text-anchor="middle" x="171.5" y="-38.8" font-family="Times,serif" font-size="14.00">zcash&#45;hackworks/zcash&#45;light&#45;client&#45;ffi#17</text>
<text text-anchor="middle" x="171.5" y="-23.8" font-family="Times,serif" font-size="14.00">Add Orchard support</text>
</a>
</g>
</g>
<!-- zcash&#45;hackworks/zcash&#45;light&#45;client&#45;ffi#25 -->
<g id="node14" class="node open">
<title>zcash&#45;hackworks/zcash&#45;light&#45;client&#45;ffi#25</title>
<g id="a_node14"><a xlink:href="https://github.com/zcash-hackworks/zcash-light-client-ffi/issues/25" xlink:title="zcash&#45;hackworks/zcash&#45;light&#45;client&#45;ffi#25&#10;Migrate to FFI library&#10;generated by Uniffi" target="_blank">
<polygon fill="#c2e0c6" stroke="black" stroke-width="2" points="327,-1202.5 16,-1202.5 16,-1149.5 327,-1149.5 327,-1202.5"/>
<text text-anchor="middle" x="171.5" y="-1187.3" font-family="Times,serif" font-size="14.00">zcash&#45;hackworks/zcash&#45;light&#45;client&#45;ffi#25</text>
<text text-anchor="middle" x="171.5" y="-1172.3" font-family="Times,serif" font-size="14.00">Migrate to FFI library</text>
<text text-anchor="middle" x="171.5" y="-1157.3" font-family="Times,serif" font-size="14.00">generated by Uniffi</text>
</a>
</g>
</g>
<!-- zcash/secant&#45;ios&#45;wallet#93 -->
<g id="node15" class="node open">
<title>zcash/secant&#45;ios&#45;wallet#93</title>
<g id="a_node15"><a xlink:href="https://github.com/zcash/secant-ios-wallet/issues/93" xlink:title="zcash/secant&#45;ios&#45;wallet#93&#10;[Functional] Request ZEC&#10;Screen" target="_blank">
<polygon fill="#c2e0c6" stroke="black" points="1153.5,-1094.5 943.5,-1094.5 943.5,-1041.5 1153.5,-1041.5 1153.5,-1094.5"/>
<text text-anchor="middle" x="1048.5" y="-1079.3" font-family="Times,serif" font-size="14.00">zcash/secant&#45;ios&#45;wallet#93</text>
<text text-anchor="middle" x="1048.5" y="-1064.3" font-family="Times,serif" font-size="14.00">[Functional] Request ZEC</text>
<text text-anchor="middle" x="1048.5" y="-1049.3" font-family="Times,serif" font-size="14.00">Screen</text>
</a>
</g>
</g>
<!-- zcash/secant&#45;ios&#45;wallet#94 -->
<g id="node16" class="node open">
<title>zcash/secant&#45;ios&#45;wallet#94</title>
<g id="a_node16"><a xlink:href="https://github.com/zcash/secant-ios-wallet/issues/94" xlink:title="zcash/secant&#45;ios&#45;wallet#94&#10;[Functional] Share ZEC&#10;Request Screen" target="_blank">
<polygon fill="#c2e0c6" stroke="black" points="1399.5,-1094.5 1189.5,-1094.5 1189.5,-1041.5 1399.5,-1041.5 1399.5,-1094.5"/>
<text text-anchor="middle" x="1294.5" y="-1079.3" font-family="Times,serif" font-size="14.00">zcash/secant&#45;ios&#45;wallet#94</text>
<text text-anchor="middle" x="1294.5" y="-1064.3" font-family="Times,serif" font-size="14.00">[Functional] Share ZEC</text>
<text text-anchor="middle" x="1294.5" y="-1049.3" font-family="Times,serif" font-size="14.00">Request Screen</text>
</a>
</g>
</g>
<!-- zcash/secant&#45;ios&#45;wallet#93&#45;&gt;zcash/secant&#45;ios&#45;wallet#94 -->
<g id="edge12" class="edge">
<title>zcash/secant&#45;ios&#45;wallet#93&#45;&gt;zcash/secant&#45;ios&#45;wallet#94</title>
<path fill="none" stroke="black" d="M1153.7,-1068C1162.1,-1068 1170.6,-1068 1179,-1068"/>
<polygon fill="black" stroke="black" points="1179.3,-1071.5 1189.3,-1068 1179.3,-1064.5 1179.3,-1071.5"/>
</g>
<!-- zcash/secant&#45;ios&#45;wallet#90 -->
<g id="node17" class="node open">
<title>zcash/secant&#45;ios&#45;wallet#90</title>
<g id="a_node17"><a xlink:href="https://github.com/zcash/secant-ios-wallet/issues/90" xlink:title="zcash/secant&#45;ios&#45;wallet#90&#10;Request ZEC Flow" target="_blank">
<polygon fill="#c2e0c6" stroke="black" points="1645.5,-1087 1435.5,-1087 1435.5,-1049 1645.5,-1049 1645.5,-1087"/>
<text text-anchor="middle" x="1540.5" y="-1071.8" font-family="Times,serif" font-size="14.00">zcash/secant&#45;ios&#45;wallet#90</text>
<text text-anchor="middle" x="1540.5" y="-1056.8" font-family="Times,serif" font-size="14.00">Request ZEC Flow</text>
</a>
</g>
</g>
<!-- zcash/secant&#45;ios&#45;wallet#94&#45;&gt;zcash/secant&#45;ios&#45;wallet#90 -->
<g id="edge13" class="edge">
<title>zcash/secant&#45;ios&#45;wallet#94&#45;&gt;zcash/secant&#45;ios&#45;wallet#90</title>
<path fill="none" stroke="black" d="M1399.7,-1068C1408.1,-1068 1416.6,-1068 1425,-1068"/>
<polygon fill="black" stroke="black" points="1425.3,-1071.5 1435.3,-1068 1425.3,-1064.5 1425.3,-1071.5"/>
</g>
<!-- zcash/secant&#45;ios&#45;wallet#109 -->
<g id="node18" class="node open">
<title>zcash/secant&#45;ios&#45;wallet#109</title>
<g id="a_node18"><a xlink:href="https://github.com/zcash/secant-ios-wallet/issues/109" xlink:title="zcash/secant&#45;ios&#45;wallet#109&#10;[Research Spike] ZIP&#45;321&#10;Payment URIs and&#10;deeplinking" target="_blank">
<polygon fill="#c2e0c6" stroke="black" points="603,-1102 384,-1102 384,-1034 603,-1034 603,-1102"/>
<text text-anchor="middle" x="493.5" y="-1086.8" font-family="Times,serif" font-size="14.00">zcash/secant&#45;ios&#45;wallet#109</text>
<text text-anchor="middle" x="493.5" y="-1071.8" font-family="Times,serif" font-size="14.00">[Research Spike] ZIP&#45;321</text>
<text text-anchor="middle" x="493.5" y="-1056.8" font-family="Times,serif" font-size="14.00">Payment URIs and</text>
<text text-anchor="middle" x="493.5" y="-1041.8" font-family="Times,serif" font-size="14.00">deeplinking</text>
</a>
</g>
</g>
<!-- zcash/secant&#45;ios&#45;wallet#141 -->
<g id="node19" class="node open">
<title>zcash/secant&#45;ios&#45;wallet#141</title>
<g id="a_node19"><a xlink:href="https://github.com/zcash/secant-ios-wallet/issues/141" xlink:title="zcash/secant&#45;ios&#45;wallet#141&#10;Encode URI in QR Code" target="_blank">
<polygon fill="#c2e0c6" stroke="black" points="891,-1087 672,-1087 672,-1049 891,-1049 891,-1087"/>
<text text-anchor="middle" x="781.5" y="-1071.8" font-family="Times,serif" font-size="14.00">zcash/secant&#45;ios&#45;wallet#141</text>
<text text-anchor="middle" x="781.5" y="-1056.8" font-family="Times,serif" font-size="14.00">Encode URI in QR Code</text>
</a>
</g>
</g>
<!-- zcash/secant&#45;ios&#45;wallet#109&#45;&gt;zcash/secant&#45;ios&#45;wallet#141 -->
<g id="edge14" class="edge">
<title>zcash/secant&#45;ios&#45;wallet#109&#45;&gt;zcash/secant&#45;ios&#45;wallet#141</title>
<path fill="none" stroke="black" d="M603.03,-1068C622.14,-1068 642.12,-1068 661.5,-1068"/>
<polygon fill="black" stroke="black" points="661.57,-1071.5 671.57,-1068 661.57,-1064.5 661.57,-1071.5"/>
</g>
<!-- zcash/secant&#45;ios&#45;wallet#141&#45;&gt;zcash/secant&#45;ios&#45;wallet#93 -->
<g id="edge15" class="edge">
<title>zcash/secant&#45;ios&#45;wallet#141&#45;&gt;zcash/secant&#45;ios&#45;wallet#93</title>
<path fill="none" stroke="black" d="M891.05,-1068C904.97,-1068 919.25,-1068 933.25,-1068"/>
<polygon fill="black" stroke="black" points="933.39,-1071.5 943.39,-1068 933.39,-1064.5 933.39,-1071.5"/>
</g>
<!-- zcash/ZcashLightClientKit#319 -->
<g id="node20" class="node open">
<title>zcash/ZcashLightClientKit#319</title>
<g id="a_node20"><a xlink:href="https://github.com/zcash/ZcashLightClientKit/issues/319" xlink:title="zcash/ZcashLightClientKit#319&#10;ZIP&#45;321 Request&#10;Generation API" target="_blank">
<polygon fill="#c2e0c6" stroke="black" stroke-width="2" points="293,-1094.5 50,-1094.5 50,-1041.5 293,-1041.5 293,-1094.5"/>
<text text-anchor="middle" x="171.5" y="-1079.3" font-family="Times,serif" font-size="14.00">zcash/ZcashLightClientKit#319</text>
<text text-anchor="middle" x="171.5" y="-1064.3" font-family="Times,serif" font-size="14.00">ZIP&#45;321 Request</text>
<text text-anchor="middle" x="171.5" y="-1049.3" font-family="Times,serif" font-size="14.00">Generation API</text>
</a>
</g>
</g>
<!-- zcash/ZcashLightClientKit#319&#45;&gt;zcash/secant&#45;ios&#45;wallet#109 -->
<g id="edge16" class="edge">
<title>zcash/ZcashLightClientKit#319&#45;&gt;zcash/secant&#45;ios&#45;wallet#109</title>
<path fill="none" stroke="black" d="M293.02,-1068C319.49,-1068 347.5,-1068 373.9,-1068"/>
<polygon fill="black" stroke="black" points="373.93,-1071.5 383.93,-1068 373.93,-1064.5 373.93,-1071.5"/>
</g>
<!-- zcash/secant&#45;ios&#45;wallet#808 -->
<g id="node21" class="node open">
<title>zcash/secant&#45;ios&#45;wallet#808</title>
<g id="a_node21"><a xlink:href="https://github.com/zcash/secant-ios-wallet/issues/808" xlink:title="zcash/secant&#45;ios&#45;wallet#808&#10;Core BTS UI: Settings&#10;Screen" target="_blank">
<polygon fill="#c2e0c6" stroke="black" stroke-width="2" points="281,-1359.5 62,-1359.5 62,-1306.5 281,-1306.5 281,-1359.5"/>
<text text-anchor="middle" x="171.5" y="-1344.3" font-family="Times,serif" font-size="14.00">zcash/secant&#45;ios&#45;wallet#808</text>
<text text-anchor="middle" x="171.5" y="-1329.3" font-family="Times,serif" font-size="14.00">Core BTS UI: Settings</text>
<text text-anchor="middle" x="171.5" y="-1314.3" font-family="Times,serif" font-size="14.00">Screen</text>
</a>
</g>
</g>
<!-- zcash/secant&#45;ios&#45;wallet#807 -->
<g id="node22" class="node open">
<title>zcash/secant&#45;ios&#45;wallet#807</title>
<g id="a_node22"><a xlink:href="https://github.com/zcash/secant-ios-wallet/issues/807" xlink:title="zcash/secant&#45;ios&#45;wallet#807&#10;Core BTS UI: About Screen" target="_blank">
<polygon fill="#c2e0c6" stroke="black" stroke-width="2" points="281,-1288 62,-1288 62,-1250 281,-1250 281,-1288"/>
<text text-anchor="middle" x="171.5" y="-1272.8" font-family="Times,serif" font-size="14.00">zcash/secant&#45;ios&#45;wallet#807</text>
<text text-anchor="middle" x="171.5" y="-1257.8" font-family="Times,serif" font-size="14.00">Core BTS UI: About Screen</text>
</a>
</g>
</g>
<!-- zcash/ZcashLightClientKit#1143 -->
<g id="node23" class="node open">
<title>zcash/ZcashLightClientKit#1143</title>
<g id="a_node23"><a xlink:href="https://github.com/zcash/ZcashLightClientKit/issues/1143" xlink:title="zcash/ZcashLightClientKit#1143&#10;Make state machine to&#10;work in a local context" target="_blank">
<polygon fill="#c2e0c6" stroke="black" stroke-width="2" points="297.5,-1531.5 45.5,-1531.5 45.5,-1478.5 297.5,-1478.5 297.5,-1531.5"/>
<text text-anchor="middle" x="171.5" y="-1516.3" font-family="Times,serif" font-size="14.00">zcash/ZcashLightClientKit#1143</text>
<text text-anchor="middle" x="171.5" y="-1501.3" font-family="Times,serif" font-size="14.00">Make state machine to</text>
<text text-anchor="middle" x="171.5" y="-1486.3" font-family="Times,serif" font-size="14.00">work in a local context</text>
</a>
</g>
</g>
<!-- zcash/ZcashLightClientKit#1147 -->
<g id="node24" class="node open">
<title>zcash/ZcashLightClientKit#1147</title>
<g id="a_node24"><a xlink:href="https://github.com/zcash/ZcashLightClientKit/issues/1147" xlink:title="zcash/ZcashLightClientKit#1147&#10;Update&#10;cbp_state_machine.png" target="_blank">
<polygon fill="#c2e0c6" stroke="black" stroke-width="2" points="297.5,-1460.5 45.5,-1460.5 45.5,-1407.5 297.5,-1407.5 297.5,-1460.5"/>
<text text-anchor="middle" x="171.5" y="-1445.3" font-family="Times,serif" font-size="14.00">zcash/ZcashLightClientKit#1147</text>
<text text-anchor="middle" x="171.5" y="-1430.3" font-family="Times,serif" font-size="14.00">Update</text>
<text text-anchor="middle" x="171.5" y="-1415.3" font-family="Times,serif" font-size="14.00">cbp_state_machine.png</text>
</a>
</g>
</g>
<!-- zcash/secant&#45;ios&#45;wallet#372 -->
<g id="node25" class="node closed">
<title>zcash/secant&#45;ios&#45;wallet#372</title>
<g id="a_node25"><a xlink:href="https://github.com/zcash/secant-ios-wallet/issues/372" xlink:title="zcash/secant&#45;ios&#45;wallet#372&#10;Blocking TODOs,&#10;Enhancements and Fixes" target="_blank">
<polygon fill="#fad8c7" stroke="black" points="603,-1631.5 384,-1631.5 384,-1578.5 603,-1578.5 603,-1631.5"/>
<text text-anchor="middle" x="493.5" y="-1616.3" font-family="Times,serif" font-size="14.00">zcash/secant&#45;ios&#45;wallet#372</text>
<text text-anchor="middle" x="493.5" y="-1601.3" font-family="Times,serif" font-size="14.00">Blocking TODOs,</text>
<text text-anchor="middle" x="493.5" y="-1586.3" font-family="Times,serif" font-size="14.00">Enhancements and Fixes</text>
</a>
</g>
</g>
<!-- zcash/secant&#45;ios&#45;wallet#303 -->
<g id="node26" class="node closed">
<title>zcash/secant&#45;ios&#45;wallet#303</title>
<g id="a_node26"><a xlink:href="https://github.com/zcash/secant-ios-wallet/issues/303" xlink:title="zcash/secant&#45;ios&#45;wallet#303&#10;Release &#45; v1.0.0" target="_blank">
<polygon fill="#fad8c7" stroke="black" points="603,-1703 384,-1703 384,-1665 603,-1665 603,-1703"/>
<text text-anchor="middle" x="493.5" y="-1687.8" font-family="Times,serif" font-size="14.00">zcash/secant&#45;ios&#45;wallet#303</text>
<text text-anchor="middle" x="493.5" y="-1672.8" font-family="Times,serif" font-size="14.00">Release &#45; v1.0.0</text>
</a>
</g>
</g>
<!-- zcash/secant&#45;ios&#45;wallet#380 -->
<g id="node27" class="node closed">
<title>zcash/secant&#45;ios&#45;wallet#380</title>
<g id="a_node27"><a xlink:href="https://github.com/zcash/secant-ios-wallet/issues/380" xlink:title="zcash/secant&#45;ios&#45;wallet#380&#10;Release v1.1.0" target="_blank">
<polygon fill="#fad8c7" stroke="black" points="891,-1703 672,-1703 672,-1665 891,-1665 891,-1703"/>
<text text-anchor="middle" x="781.5" y="-1687.8" font-family="Times,serif" font-size="14.00">zcash/secant&#45;ios&#45;wallet#380</text>
<text text-anchor="middle" x="781.5" y="-1672.8" font-family="Times,serif" font-size="14.00">Release v1.1.0</text>
</a>
</g>
</g>
<!-- zcash/secant&#45;ios&#45;wallet#303&#45;&gt;zcash/secant&#45;ios&#45;wallet#380 -->
<g id="edge17" class="edge">
<title>zcash/secant&#45;ios&#45;wallet#303&#45;&gt;zcash/secant&#45;ios&#45;wallet#380</title>
<path fill="none" stroke="black" d="M603.03,-1684C622.14,-1684 642.12,-1684 661.5,-1684"/>
<polygon fill="black" stroke="black" points="661.57,-1687.5 671.57,-1684 661.57,-1680.5 661.57,-1687.5"/>
</g>
<!-- zcash/secant&#45;ios&#45;wallet#214 -->
<g id="node28" class="node open">
<title>zcash/secant&#45;ios&#45;wallet#214</title>
<g id="a_node28"><a xlink:href="https://github.com/zcash/secant-ios-wallet/issues/214" xlink:title="zcash/secant&#45;ios&#45;wallet#214&#10;[Scaffold] Add About&#10;Screen" target="_blank">
<polygon fill="#c2e0c6" stroke="black" stroke-width="2" points="281,-1781.5 62,-1781.5 62,-1728.5 281,-1728.5 281,-1781.5"/>
<text text-anchor="middle" x="171.5" y="-1766.3" font-family="Times,serif" font-size="14.00">zcash/secant&#45;ios&#45;wallet#214</text>
<text text-anchor="middle" x="171.5" y="-1751.3" font-family="Times,serif" font-size="14.00">[Scaffold] Add About</text>
<text text-anchor="middle" x="171.5" y="-1736.3" font-family="Times,serif" font-size="14.00">Screen</text>
</a>
</g>
</g>
<!-- zcash/secant&#45;ios&#45;wallet#89 -->
<g id="node29" class="node closed">
<title>zcash/secant&#45;ios&#45;wallet#89</title>
<g id="a_node29"><a xlink:href="https://github.com/zcash/secant-ios-wallet/issues/89" xlink:title="zcash/secant&#45;ios&#45;wallet#89&#10;[Functional] Sending&#10;Screen &#45; Failure" target="_blank">
<polygon fill="#fad8c7" stroke="black" points="598.5,-1852.5 388.5,-1852.5 388.5,-1799.5 598.5,-1799.5 598.5,-1852.5"/>
<text text-anchor="middle" x="493.5" y="-1837.3" font-family="Times,serif" font-size="14.00">zcash/secant&#45;ios&#45;wallet#89</text>
<text text-anchor="middle" x="493.5" y="-1822.3" font-family="Times,serif" font-size="14.00">[Functional] Sending</text>
<text text-anchor="middle" x="493.5" y="-1807.3" font-family="Times,serif" font-size="14.00">Screen &#45; Failure</text>
</a>
</g>
</g>
<!-- zcash/secant&#45;ios&#45;wallet#233 -->
<g id="node30" class="node open">
<title>zcash/secant&#45;ios&#45;wallet#233</title>
<g id="a_node30"><a xlink:href="https://github.com/zcash/secant-ios-wallet/issues/233" xlink:title="zcash/secant&#45;ios&#45;wallet#233&#10;Localization and&#10;Accessibility" target="_blank">
<polygon fill="#c2e0c6" stroke="black" stroke-width="2" points="281,-1710.5 62,-1710.5 62,-1657.5 281,-1657.5 281,-1710.5"/>
<text text-anchor="middle" x="171.5" y="-1695.3" font-family="Times,serif" font-size="14.00">zcash/secant&#45;ios&#45;wallet#233</text>
<text text-anchor="middle" x="171.5" y="-1680.3" font-family="Times,serif" font-size="14.00">Localization and</text>
<text text-anchor="middle" x="171.5" y="-1665.3" font-family="Times,serif" font-size="14.00">Accessibility</text>
</a>
</g>
</g>
<!-- zcash/secant&#45;ios&#45;wallet#233&#45;&gt;zcash/secant&#45;ios&#45;wallet#303 -->
<g id="edge18" class="edge">
<title>zcash/secant&#45;ios&#45;wallet#233&#45;&gt;zcash/secant&#45;ios&#45;wallet#303</title>
<path fill="none" stroke="black" d="M281.28,-1684C310.99,-1684 343.33,-1684 373.58,-1684"/>
<polygon fill="black" stroke="black" points="373.75,-1687.5 383.75,-1684 373.75,-1680.5 373.75,-1687.5"/>
</g>
<!-- zcash/secant&#45;ios&#45;wallet#411 -->
<g id="node31" class="node open">
<title>zcash/secant&#45;ios&#45;wallet#411</title>
<g id="a_node31"><a xlink:href="https://github.com/zcash/secant-ios-wallet/issues/411" xlink:title="zcash/secant&#45;ios&#45;wallet#411&#10;Async SynchronizerClient&#10;methods refactor" target="_blank">
<polygon fill="#c2e0c6" stroke="black" stroke-width="2" points="281,-1923.5 62,-1923.5 62,-1870.5 281,-1870.5 281,-1923.5"/>
<text text-anchor="middle" x="171.5" y="-1908.3" font-family="Times,serif" font-size="14.00">zcash/secant&#45;ios&#45;wallet#411</text>
<text text-anchor="middle" x="171.5" y="-1893.3" font-family="Times,serif" font-size="14.00">Async SynchronizerClient</text>
<text text-anchor="middle" x="171.5" y="-1878.3" font-family="Times,serif" font-size="14.00">methods refactor</text>
</a>
</g>
</g>
<!-- zcash/secant&#45;ios&#45;wallet#232 -->
<g id="node32" class="node open">
<title>zcash/secant&#45;ios&#45;wallet#232</title>
<g id="a_node32"><a xlink:href="https://github.com/zcash/secant-ios-wallet/issues/232" xlink:title="zcash/secant&#45;ios&#45;wallet#232&#10;Add error handling UI for&#10;ZEC send UI" target="_blank">
<polygon fill="#c2e0c6" stroke="black" stroke-width="2" points="281,-1852.5 62,-1852.5 62,-1799.5 281,-1799.5 281,-1852.5"/>
<text text-anchor="middle" x="171.5" y="-1837.3" font-family="Times,serif" font-size="14.00">zcash/secant&#45;ios&#45;wallet#232</text>
<text text-anchor="middle" x="171.5" y="-1822.3" font-family="Times,serif" font-size="14.00">Add error handling UI for</text>
<text text-anchor="middle" x="171.5" y="-1807.3" font-family="Times,serif" font-size="14.00">ZEC send UI</text>
</a>
</g>
</g>
<!-- zcash/secant&#45;ios&#45;wallet#232&#45;&gt;zcash/secant&#45;ios&#45;wallet#89 -->
<g id="edge19" class="edge">
<title>zcash/secant&#45;ios&#45;wallet#232&#45;&gt;zcash/secant&#45;ios&#45;wallet#89</title>
<path fill="none" stroke="black" d="M281.28,-1826C312.51,-1826 346.65,-1826 378.2,-1826"/>
<polygon fill="black" stroke="black" points="378.34,-1829.5 388.34,-1826 378.34,-1822.5 378.34,-1829.5"/>
</g>
<!-- zcash/secant&#45;ios&#45;wallet#694 -->
<g id="node33" class="node open">
<title>zcash/secant&#45;ios&#45;wallet#694</title>
<g id="a_node33"><a xlink:href="https://github.com/zcash/secant-ios-wallet/issues/694" xlink:title="zcash/secant&#45;ios&#45;wallet#694&#10;Instrument a forced&#10;upgrade mechanism" target="_blank">
<polygon fill="#c2e0c6" stroke="black" stroke-width="2" points="281,-1994.5 62,-1994.5 62,-1941.5 281,-1941.5 281,-1994.5"/>
<text text-anchor="middle" x="171.5" y="-1979.3" font-family="Times,serif" font-size="14.00">zcash/secant&#45;ios&#45;wallet#694</text>
<text text-anchor="middle" x="171.5" y="-1964.3" font-family="Times,serif" font-size="14.00">Instrument a forced</text>
<text text-anchor="middle" x="171.5" y="-1949.3" font-family="Times,serif" font-size="14.00">upgrade mechanism</text>
</a>
</g>
</g>
<!-- zcash/secant&#45;ios&#45;wallet#237 -->
<g id="node34" class="node open">
<title>zcash/secant&#45;ios&#45;wallet#237</title>
<g id="a_node34"><a xlink:href="https://github.com/zcash/secant-ios-wallet/issues/237" xlink:title="zcash/secant&#45;ios&#45;wallet#237&#10;Design: Privacy &amp; Opt&#45;&#10;in/out for cloud services" target="_blank">
<polygon fill="#c2e0c6" stroke="black" stroke-width="2" points="281,-2065.5 62,-2065.5 62,-2012.5 281,-2012.5 281,-2065.5"/>
<text text-anchor="middle" x="171.5" y="-2050.3" font-family="Times,serif" font-size="14.00">zcash/secant&#45;ios&#45;wallet#237</text>
<text text-anchor="middle" x="171.5" y="-2035.3" font-family="Times,serif" font-size="14.00">Design: Privacy &amp; Opt&#45;</text>
<text text-anchor="middle" x="171.5" y="-2020.3" font-family="Times,serif" font-size="14.00">in/out for cloud services</text>
</a>
</g>
</g>
<!-- zcash/secant&#45;ios&#45;wallet#695 -->
<g id="node35" class="node open">
<title>zcash/secant&#45;ios&#45;wallet#695</title>
<g id="a_node35"><a xlink:href="https://github.com/zcash/secant-ios-wallet/issues/695" xlink:title="zcash/secant&#45;ios&#45;wallet#695&#10;Support for opt&#45;in cloud&#10;backup of keys" target="_blank">
<polygon fill="#c2e0c6" stroke="black" stroke-width="2" points="281,-2136.5 62,-2136.5 62,-2083.5 281,-2083.5 281,-2136.5"/>
<text text-anchor="middle" x="171.5" y="-2121.3" font-family="Times,serif" font-size="14.00">zcash/secant&#45;ios&#45;wallet#695</text>
<text text-anchor="middle" x="171.5" y="-2106.3" font-family="Times,serif" font-size="14.00">Support for opt&#45;in cloud</text>
<text text-anchor="middle" x="171.5" y="-2091.3" font-family="Times,serif" font-size="14.00">backup of keys</text>
</a>
</g>
</g>
<!-- zcash/secant&#45;ios&#45;wallet#322 -->
<g id="node36" class="node open">
<title>zcash/secant&#45;ios&#45;wallet#322</title>
<g id="a_node36"><a xlink:href="https://github.com/zcash/secant-ios-wallet/issues/322" xlink:title="zcash/secant&#45;ios&#45;wallet#322&#10;Handle&#10;WrappedCaptureDeviceError&#10;in the ScanReducer" target="_blank">
<polygon fill="#c2e0c6" stroke="black" stroke-width="2" points="284,-1639 59,-1639 59,-1571 284,-1571 284,-1639"/>
<text text-anchor="middle" x="171.5" y="-1623.8" font-family="Times,serif" font-size="14.00">zcash/secant&#45;ios&#45;wallet#322</text>
<text text-anchor="middle" x="171.5" y="-1608.8" font-family="Times,serif" font-size="14.00">Handle</text>
<text text-anchor="middle" x="171.5" y="-1593.8" font-family="Times,serif" font-size="14.00">WrappedCaptureDeviceError</text>
<text text-anchor="middle" x="171.5" y="-1578.8" font-family="Times,serif" font-size="14.00">in the ScanReducer</text>
</a>
</g>
</g>
<!-- zcash/secant&#45;ios&#45;wallet#322&#45;&gt;zcash/secant&#45;ios&#45;wallet#372 -->
<g id="edge20" class="edge">
<title>zcash/secant&#45;ios&#45;wallet#322&#45;&gt;zcash/secant&#45;ios&#45;wallet#372</title>
<path fill="none" stroke="black" d="M284.42,-1605C313.28,-1605 344.44,-1605 373.64,-1605"/>
<polygon fill="black" stroke="black" points="373.88,-1608.5 383.88,-1605 373.88,-1601.5 373.88,-1608.5"/>
</g>
<!-- zcash/ZcashLightClientKit#1186 -->
<g id="node37" class="node open">
<title>zcash/ZcashLightClientKit#1186</title>
<g id="a_node37"><a xlink:href="https://github.com/zcash/ZcashLightClientKit/issues/1186" xlink:title="zcash/ZcashLightClientKit#1186&#10;Enable ZIP 317 fees" target="_blank">
<polygon fill="#c2e0c6" stroke="black" stroke-width="2" points="297.5,-2294 45.5,-2294 45.5,-2256 297.5,-2256 297.5,-2294"/>
<text text-anchor="middle" x="171.5" y="-2278.8" font-family="Times,serif" font-size="14.00">zcash/ZcashLightClientKit#1186</text>
<text text-anchor="middle" x="171.5" y="-2263.8" font-family="Times,serif" font-size="14.00">Enable ZIP 317 fees</text>
</a>
</g>
</g>
<!-- zcash/ZcashLightClientKit#1204 -->
<g id="node38" class="node open">
<title>zcash/ZcashLightClientKit#1204</title>
<g id="a_node38"><a xlink:href="https://github.com/zcash/ZcashLightClientKit/issues/1204" xlink:title="zcash/ZcashLightClientKit#1204&#10;Expose ZIP 317" target="_blank">
<polygon fill="#c2e0c6" stroke="black" points="619.5,-2294 367.5,-2294 367.5,-2256 619.5,-2256 619.5,-2294"/>
<text text-anchor="middle" x="493.5" y="-2278.8" font-family="Times,serif" font-size="14.00">zcash/ZcashLightClientKit#1204</text>
<text text-anchor="middle" x="493.5" y="-2263.8" font-family="Times,serif" font-size="14.00">Expose ZIP 317</text>
</a>
</g>
</g>
<!-- zcash/ZcashLightClientKit#1186&#45;&gt;zcash/ZcashLightClientKit#1204 -->
<g id="edge21" class="edge">
<title>zcash/ZcashLightClientKit#1186&#45;&gt;zcash/ZcashLightClientKit#1204</title>
<path fill="none" stroke="black" d="M297.6,-2275C317.24,-2275 337.62,-2275 357.48,-2275"/>
<polygon fill="black" stroke="black" points="357.49,-2278.5 367.49,-2275 357.49,-2271.5 357.49,-2278.5"/>
</g>
<!-- zcash/ZcashLightClientKit#1300 -->
<g id="node39" class="node open">
<title>zcash/ZcashLightClientKit#1300</title>
<g id="a_node39"><a xlink:href="https://github.com/zcash/ZcashLightClientKit/issues/1300" xlink:title="zcash/ZcashLightClientKit#1300&#10;Release&#10;ZcashLightClientKit 2.1.0" target="_blank">
<polygon fill="#c2e0c6" stroke="black" points="907.5,-2261.5 655.5,-2261.5 655.5,-2208.5 907.5,-2208.5 907.5,-2261.5"/>
<text text-anchor="middle" x="781.5" y="-2246.3" font-family="Times,serif" font-size="14.00">zcash/ZcashLightClientKit#1300</text>
<text text-anchor="middle" x="781.5" y="-2231.3" font-family="Times,serif" font-size="14.00">Release</text>
<text text-anchor="middle" x="781.5" y="-2216.3" font-family="Times,serif" font-size="14.00">ZcashLightClientKit 2.1.0</text>
</a>
</g>
</g>
<!-- zcash/ZcashLightClientKit#1204&#45;&gt;zcash/ZcashLightClientKit#1300 -->
<g id="edge22" class="edge">
<title>zcash/ZcashLightClientKit#1204&#45;&gt;zcash/ZcashLightClientKit#1300</title>
<path fill="none" stroke="black" d="M619.53,-2257.5C628.06,-2256.3 636.68,-2255.1 645.27,-2253.9"/>
<polygon fill="black" stroke="black" points="645.9,-2257.35 655.32,-2252.5 644.93,-2250.41 645.9,-2257.35"/>
</g>
<!-- zcash&#45;hackworks/zcash&#45;light&#45;client&#45;ffi#101 -->
<g id="node40" class="node open">
<title>zcash&#45;hackworks/zcash&#45;light&#45;client&#45;ffi#101</title>
<g id="a_node40"><a xlink:href="https://github.com/zcash-hackworks/zcash-light-client-ffi/issues/101" xlink:title="zcash&#45;hackworks/zcash&#45;light&#45;client&#45;ffi#101&#10;Expose `zcash_client_back&#10;end::data_api::WalletRead&#10;::get_wallet_summary` via&#10;the FFI" target="_blank">
<polygon fill="#c2e0c6" stroke="black" stroke-width="2" points="331.5,-2237.5 11.5,-2237.5 11.5,-2154.5 331.5,-2154.5 331.5,-2237.5"/>
<text text-anchor="middle" x="171.5" y="-2222.3" font-family="Times,serif" font-size="14.00">zcash&#45;hackworks/zcash&#45;light&#45;client&#45;ffi#101</text>
<text text-anchor="middle" x="171.5" y="-2207.3" font-family="Times,serif" font-size="14.00">Expose `zcash_client_back</text>
<text text-anchor="middle" x="171.5" y="-2192.3" font-family="Times,serif" font-size="14.00">end::data_api::WalletRead</text>
<text text-anchor="middle" x="171.5" y="-2177.3" font-family="Times,serif" font-size="14.00">::get_wallet_summary` via</text>
<text text-anchor="middle" x="171.5" y="-2162.3" font-family="Times,serif" font-size="14.00">the FFI</text>
</a>
</g>
</g>
<!-- zcash/ZcashLightClientKit#1299 -->
<g id="node41" class="node open">
<title>zcash/ZcashLightClientKit#1299</title>
<g id="a_node41"><a xlink:href="https://github.com/zcash/ZcashLightClientKit/issues/1299" xlink:title="zcash/ZcashLightClientKit#1299&#10;Replace wallet balance&#10;and scan progress FFI&#10;usage with the &quot;wallet&#10;summary&quot; FFI" target="_blank">
<polygon fill="#c2e0c6" stroke="black" points="619.5,-2237.5 367.5,-2237.5 367.5,-2154.5 619.5,-2154.5 619.5,-2237.5"/>
<text text-anchor="middle" x="493.5" y="-2222.3" font-family="Times,serif" font-size="14.00">zcash/ZcashLightClientKit#1299</text>
<text text-anchor="middle" x="493.5" y="-2207.3" font-family="Times,serif" font-size="14.00">Replace wallet balance</text>
<text text-anchor="middle" x="493.5" y="-2192.3" font-family="Times,serif" font-size="14.00">and scan progress FFI</text>
<text text-anchor="middle" x="493.5" y="-2177.3" font-family="Times,serif" font-size="14.00">usage with the &quot;wallet</text>
<text text-anchor="middle" x="493.5" y="-2162.3" font-family="Times,serif" font-size="14.00">summary&quot; FFI</text>
</a>
</g>
</g>
<!-- zcash&#45;hackworks/zcash&#45;light&#45;client&#45;ffi#101&#45;&gt;zcash/ZcashLightClientKit#1299 -->
<g id="edge23" class="edge">
<title>zcash&#45;hackworks/zcash&#45;light&#45;client&#45;ffi#101&#45;&gt;zcash/ZcashLightClientKit#1299</title>
<path fill="none" stroke="black" d="M331.56,-2196C340.04,-2196 348.52,-2196 356.9,-2196"/>
<polygon fill="black" stroke="black" points="357.08,-2199.5 367.08,-2196 357.08,-2192.5 357.08,-2199.5"/>
</g>
<!-- zcash/ZcashLightClientKit#1299&#45;&gt;zcash/ZcashLightClientKit#1300 -->
<g id="edge24" class="edge">
<title>zcash/ZcashLightClientKit#1299&#45;&gt;zcash/ZcashLightClientKit#1300</title>
<path fill="none" stroke="black" d="M619.53,-2213C628.06,-2214.2 636.68,-2215.4 645.27,-2216.6"/>
<polygon fill="black" stroke="black" points="644.95,-2220.09 655.32,-2217.9 645.85,-2213.15 644.95,-2220.09"/>
</g>
</g>
</svg>
