<?xml version="1.0" encoding="UTF-8" standalone="no"?>
<?xml-stylesheet href="zcash-dag.css" type="text/css"?>
<!DOCTYPE svg PUBLIC "-//W3C//DTD SVG 1.1//EN"
 "http://www.w3.org/Graphics/SVG/1.1/DTD/svg11.dtd">
<!-- Generated by graphviz version 2.40.1 (20161225.0304)
 -->
<!-- Pages: 1 -->
<svg width="1669pt" height="1150pt"
 viewBox="0.00 0.00 1669.00 1149.50" xmlns="http://www.w3.org/2000/svg" xmlns:xlink="http://www.w3.org/1999/xlink">
<g id="graph0" class="graph" transform="scale(1 1) rotate(0) translate(4 1145.5)">
<polygon fill="#ffffff" stroke="transparent" points="-4,4 -4,-1145.5 1665,-1145.5 1665,4 -4,4"/>
<!-- zcash/pasta_curves#35 -->
<g id="node1" class="node open">
<title>zcash/pasta_curves#35</title>
<g id="a_node1"><a xlink:href="https://github.com/zcash/pasta_curves/issues/35" xlink:title="zcash/pasta_curves#35&#10;Enable `ec&#45;gpu` to&#10;generate MSM and FFT code&#10;for `pasta_curves`" target="_blank">
<polygon fill="#c2e0c6" stroke="#000000" stroke-width="2" points="226,-68 0,-68 0,0 226,0 226,-68"/>
<text text-anchor="middle" x="113" y="-52.8" font-family="Times,serif" font-size="14.00" fill="#000000">zcash/pasta_curves#35</text>
<text text-anchor="middle" x="113" y="-37.8" font-family="Times,serif" font-size="14.00" fill="#000000">Enable `ec&#45;gpu` to</text>
<text text-anchor="middle" x="113" y="-22.8" font-family="Times,serif" font-size="14.00" fill="#000000">generate MSM and FFT code</text>
<text text-anchor="middle" x="113" y="-7.8" font-family="Times,serif" font-size="14.00" fill="#000000">for `pasta_curves`</text>
</a>
</g>
</g>
<!-- zcash/halo2#379 -->
<g id="node2" class="node open">
<title>zcash/halo2#379</title>
<g id="a_node2"><a xlink:href="https://github.com/zcash/halo2/issues/379" xlink:title="zcash/halo2#379&#10;Add `ec&#45;gpu` support" target="_blank">
<polygon fill="#c2e0c6" stroke="#000000" points="450,-53 277,-53 277,-15 450,-15 450,-53"/>
<text text-anchor="middle" x="363.5" y="-37.8" font-family="Times,serif" font-size="14.00" fill="#000000">zcash/halo2#379</text>
<text text-anchor="middle" x="363.5" y="-22.8" font-family="Times,serif" font-size="14.00" fill="#000000">Add `ec&#45;gpu` support</text>
</a>
</g>
</g>
<!-- zcash/pasta_curves#35&#45;&gt;zcash/halo2#379 -->
<g id="edge1" class="edge">
<title>zcash/pasta_curves#35&#45;&gt;zcash/halo2#379</title>
<path fill="none" stroke="#000000" d="M226.16,-34C239.69,-34 253.42,-34 266.69,-34"/>
<polygon fill="#000000" stroke="#000000" points="266.75,-37.5001 276.75,-34 266.75,-30.5001 266.75,-37.5001"/>
</g>
<!-- zcash/halo2#426 -->
<g id="node3" class="node committed">
<title>zcash/halo2#426</title>
<g id="a_node3"><a xlink:href="https://github.com/zcash/halo2/issues/426" xlink:title="zcash/halo2#426&#10;Publish `halo2_proofs&#10;0.1.0`" target="_blank">
<polygon fill="#a6cfff" stroke="#000000" points="686,-170.5 513,-170.5 513,-117.5 686,-117.5 686,-170.5"/>
<text text-anchor="middle" x="599.5" y="-155.3" font-family="Times,serif" font-size="14.00" fill="#000000">zcash/halo2#426</text>
<text text-anchor="middle" x="599.5" y="-140.3" font-family="Times,serif" font-size="14.00" fill="#000000">Publish `halo2_proofs</text>
<text text-anchor="middle" x="599.5" y="-125.3" font-family="Times,serif" font-size="14.00" fill="#000000">0.1.0`</text>
</a>
</g>
</g>
<!-- zcash/halo2#460 -->
<g id="node4" class="node committed">
<title>zcash/halo2#460</title>
<g id="a_node4"><a xlink:href="https://github.com/zcash/halo2/issues/460" xlink:title="zcash/halo2#460&#10;Publish `halo2_gadgets&#10;v0.1.0`" target="_blank">
<polygon fill="#a6cfff" stroke="#000000" points="929.5,-248.5 744.5,-248.5 744.5,-195.5 929.5,-195.5 929.5,-248.5"/>
<text text-anchor="middle" x="837" y="-233.3" font-family="Times,serif" font-size="14.00" fill="#000000">zcash/halo2#460</text>
<text text-anchor="middle" x="837" y="-218.3" font-family="Times,serif" font-size="14.00" fill="#000000">Publish `halo2_gadgets</text>
<text text-anchor="middle" x="837" y="-203.3" font-family="Times,serif" font-size="14.00" fill="#000000">v0.1.0`</text>
</a>
</g>
</g>
<!-- zcash/halo2#426&#45;&gt;zcash/halo2#460 -->
<g id="edge2" class="edge">
<title>zcash/halo2#426&#45;&gt;zcash/halo2#460</title>
<path fill="none" stroke="#000000" d="M680.24,-170.52C701.56,-177.52 724.7,-185.12 746.5,-192.28"/>
<polygon fill="#000000" stroke="#000000" points="745.4873,-195.6312 756.08,-195.42 747.6676,-188.9794 745.4873,-195.6312"/>
</g>
<!-- zcash/halo2#380 -->
<g id="node5" class="node committed">
<title>zcash/halo2#380</title>
<g id="a_node5"><a xlink:href="https://github.com/zcash/halo2/pull/380" xlink:title="zcash/halo2#380&#10;[book] Fix errors and&#10;typos" target="_blank">
<polygon fill="#a6cfff" stroke="#000000" points="921,-170.5 753,-170.5 753,-166.5 749,-166.5 749,-162.5 753,-162.5 753,-125.5 749,-125.5 749,-121.5 753,-121.5 753,-117.5 921,-117.5 921,-170.5"/>
<polyline fill="none" stroke="#000000" points="753,-166.5 757,-166.5 757,-162.5 753,-162.5 "/>
<polyline fill="none" stroke="#000000" points="753,-125.5 757,-125.5 757,-121.5 753,-121.5 "/>
<text text-anchor="middle" x="837" y="-155.3" font-family="Times,serif" font-size="14.00" fill="#000000">zcash/halo2#380</text>
<text text-anchor="middle" x="837" y="-140.3" font-family="Times,serif" font-size="14.00" fill="#000000">[book] Fix errors and</text>
<text text-anchor="middle" x="837" y="-125.3" font-family="Times,serif" font-size="14.00" fill="#000000">typos</text>
</a>
</g>
</g>
<!-- zcash/halo2#426&#45;&gt;zcash/halo2#380 -->
<g id="edge3" class="edge">
<title>zcash/halo2#426&#45;&gt;zcash/halo2#380</title>
<path fill="none" stroke="#000000" d="M686.25,-144C704.59,-144 724.02,-144 742.63,-144"/>
<polygon fill="#000000" stroke="#000000" points="742.86,-147.5001 752.86,-144 742.86,-140.5001 742.86,-147.5001"/>
</g>
<!-- zcash/halo2#75 -->
<g id="node6" class="node open">
<title>zcash/halo2#75</title>
<g id="a_node6"><a xlink:href="https://github.com/zcash/halo2/issues/75" xlink:title="zcash/halo2#75&#10;Implement support for&#10;recursion" target="_blank">
<polygon fill="#c2e0c6" stroke="#000000" points="1418.5,-514.5 1239.5,-514.5 1239.5,-461.5 1418.5,-461.5 1418.5,-514.5"/>
<text text-anchor="middle" x="1329" y="-499.3" font-family="Times,serif" font-size="14.00" fill="#000000">zcash/halo2#75</text>
<text text-anchor="middle" x="1329" y="-484.3" font-family="Times,serif" font-size="14.00" fill="#000000">Implement support for</text>
<text text-anchor="middle" x="1329" y="-469.3" font-family="Times,serif" font-size="14.00" fill="#000000">recursion</text>
</a>
</g>
</g>
<!-- zcash/halo2#494 -->
<g id="node7" class="node open">
<title>zcash/halo2#494</title>
<g id="a_node7"><a xlink:href="https://github.com/zcash/halo2/issues/494" xlink:title="zcash/halo2#494&#10;Consider adding an API&#10;that enables application&#10;circuits to be built&#10;across both fields" target="_blank">
<polygon fill="#c2e0c6" stroke="#000000" points="1661,-529.5 1472,-529.5 1472,-446.5 1661,-446.5 1661,-529.5"/>
<text text-anchor="middle" x="1566.5" y="-514.3" font-family="Times,serif" font-size="14.00" fill="#000000">zcash/halo2#494</text>
<text text-anchor="middle" x="1566.5" y="-499.3" font-family="Times,serif" font-size="14.00" fill="#000000">Consider adding an API</text>
<text text-anchor="middle" x="1566.5" y="-484.3" font-family="Times,serif" font-size="14.00" fill="#000000">that enables application</text>
<text text-anchor="middle" x="1566.5" y="-469.3" font-family="Times,serif" font-size="14.00" fill="#000000">circuits to be built</text>
<text text-anchor="middle" x="1566.5" y="-454.3" font-family="Times,serif" font-size="14.00" fill="#000000">across both fields</text>
</a>
</g>
</g>
<!-- zcash/halo2#75&#45;&gt;zcash/halo2#494 -->
<g id="edge4" class="edge">
<title>zcash/halo2#75&#45;&gt;zcash/halo2#494</title>
<path fill="none" stroke="#000000" d="M1418.8,-488C1432.7,-488 1447.3,-488 1461.5,-488"/>
<polygon fill="#000000" stroke="#000000" points="1461.8,-491.5001 1471.8,-488 1461.8,-484.5001 1461.8,-491.5001"/>
</g>
<!-- zcash/halo2#79 -->
<g id="node8" class="node open">
<title>zcash/halo2#79</title>
<g id="a_node8"><a xlink:href="https://github.com/zcash/halo2/issues/79" xlink:title="zcash/halo2#79&#10;Migrate Rescue and&#10;Poseidon gadgets to&#10;algebraic hash&#10;abstraction" target="_blank">
<polygon fill="#c2e0c6" stroke="#000000" points="1161.5,-796.5 1000.5,-796.5 1000.5,-713.5 1161.5,-713.5 1161.5,-796.5"/>
<text text-anchor="middle" x="1081" y="-781.3" font-family="Times,serif" font-size="14.00" fill="#000000">zcash/halo2#79</text>
<text text-anchor="middle" x="1081" y="-766.3" font-family="Times,serif" font-size="14.00" fill="#000000">Migrate Rescue and</text>
<text text-anchor="middle" x="1081" y="-751.3" font-family="Times,serif" font-size="14.00" fill="#000000">Poseidon gadgets to</text>
<text text-anchor="middle" x="1081" y="-736.3" font-family="Times,serif" font-size="14.00" fill="#000000">algebraic hash</text>
<text text-anchor="middle" x="1081" y="-721.3" font-family="Times,serif" font-size="14.00" fill="#000000">abstraction</text>
</a>
</g>
</g>
<!-- zcash/halo2#78 -->
<g id="node9" class="node open">
<title>zcash/halo2#78</title>
<g id="a_node9"><a xlink:href="https://github.com/zcash/halo2/issues/78" xlink:title="zcash/halo2#78&#10;Implement algebraic hash&#10;/ random oracle&#10;abstraction gadget" target="_blank">
<polygon fill="#c2e0c6" stroke="#000000" stroke-width="2" points="939,-789 735,-789 735,-721 939,-721 939,-789"/>
<text text-anchor="middle" x="837" y="-773.8" font-family="Times,serif" font-size="14.00" fill="#000000">zcash/halo2#78</text>
<text text-anchor="middle" x="837" y="-758.8" font-family="Times,serif" font-size="14.00" fill="#000000">Implement algebraic hash</text>
<text text-anchor="middle" x="837" y="-743.8" font-family="Times,serif" font-size="14.00" fill="#000000">/ random oracle</text>
<text text-anchor="middle" x="837" y="-728.8" font-family="Times,serif" font-size="14.00" fill="#000000">abstraction gadget</text>
</a>
</g>
</g>
<!-- zcash/halo2#78&#45;&gt;zcash/halo2#79 -->
<g id="edge5" class="edge">
<title>zcash/halo2#78&#45;&gt;zcash/halo2#79</title>
<path fill="none" stroke="#000000" d="M939.06,-755C956.04,-755 973.55,-755 990.23,-755"/>
<polygon fill="#000000" stroke="#000000" points="990.5,-758.5001 1000.5,-755 990.5,-751.5001 990.5,-758.5001"/>
</g>
<!-- zcash/halo2#250 -->
<g id="node10" class="node open">
<title>zcash/halo2#250</title>
<g id="a_node10"><a xlink:href="https://github.com/zcash/halo2/issues/250" xlink:title="zcash/halo2#250&#10;Implement the logic for&#10;the IVC verifier circuit" target="_blank">
<polygon fill="#c2e0c6" stroke="#000000" points="1174,-576.5 988,-576.5 988,-523.5 1174,-523.5 1174,-576.5"/>
<text text-anchor="middle" x="1081" y="-561.3" font-family="Times,serif" font-size="14.00" fill="#000000">zcash/halo2#250</text>
<text text-anchor="middle" x="1081" y="-546.3" font-family="Times,serif" font-size="14.00" fill="#000000">Implement the logic for</text>
<text text-anchor="middle" x="1081" y="-531.3" font-family="Times,serif" font-size="14.00" fill="#000000">the IVC verifier circuit</text>
</a>
</g>
</g>
<!-- zcash/halo2#78&#45;&gt;zcash/halo2#250 -->
<g id="edge6" class="edge">
<title>zcash/halo2#78&#45;&gt;zcash/halo2#250</title>
<path fill="none" stroke="#000000" d="M926.1,-720.99C930.93,-718.17 935.6,-715.17 940,-712 989.13,-676.55 1032.7,-620.85 1058,-584.87"/>
<polygon fill="#000000" stroke="#000000" points="1060.8952,-586.8368 1063.7,-576.62 1055.1361,-582.8578 1060.8952,-586.8368"/>
</g>
<!-- zcash/halo2#250&#45;&gt;zcash/halo2#75 -->
<g id="edge7" class="edge">
<title>zcash/halo2#250&#45;&gt;zcash/halo2#75</title>
<path fill="none" stroke="#000000" d="M1174.1,-526.74C1192.1,-522.22 1211.1,-517.47 1229.4,-512.91"/>
<polygon fill="#000000" stroke="#000000" points="1230.256,-516.3038 1239.1,-510.47 1228.5483,-509.5153 1230.256,-516.3038"/>
</g>
<!-- zcash/halo2#57 -->
<g id="node11" class="node open">
<title>zcash/halo2#57</title>
<g id="a_node11"><a xlink:href="https://github.com/zcash/halo2/issues/57" xlink:title="zcash/halo2#57&#10;Remove unused&#10;fixed_values from&#10;ProvingKey" target="_blank">
<polygon fill="#c2e0c6" stroke="#000000" stroke-width="2" points="184.5,-527 41.5,-527 41.5,-459 184.5,-459 184.5,-527"/>
<text text-anchor="middle" x="113" y="-511.8" font-family="Times,serif" font-size="14.00" fill="#000000">zcash/halo2#57</text>
<text text-anchor="middle" x="113" y="-496.8" font-family="Times,serif" font-size="14.00" fill="#000000">Remove unused</text>
<text text-anchor="middle" x="113" y="-481.8" font-family="Times,serif" font-size="14.00" fill="#000000">fixed_values from</text>
<text text-anchor="middle" x="113" y="-466.8" font-family="Times,serif" font-size="14.00" fill="#000000">ProvingKey</text>
</a>
</g>
</g>
<!-- zcash/halo2#443 -->
<g id="node12" class="node open">
<title>zcash/halo2#443</title>
<g id="a_node12"><a xlink:href="https://github.com/zcash/halo2/issues/443" xlink:title="zcash/halo2#443&#10;implement `read` &amp;&#10;`write` for `halo2::plonk&#10;::ProvingKey`" target="_blank">
<polygon fill="#c2e0c6" stroke="#000000" points="460.5,-527 266.5,-527 266.5,-459 460.5,-459 460.5,-527"/>
<text text-anchor="middle" x="363.5" y="-511.8" font-family="Times,serif" font-size="14.00" fill="#000000">zcash/halo2#443</text>
<text text-anchor="middle" x="363.5" y="-496.8" font-family="Times,serif" font-size="14.00" fill="#000000">implement `read` &amp;</text>
<text text-anchor="middle" x="363.5" y="-481.8" font-family="Times,serif" font-size="14.00" fill="#000000">`write` for `halo2::plonk</text>
<text text-anchor="middle" x="363.5" y="-466.8" font-family="Times,serif" font-size="14.00" fill="#000000">::ProvingKey`</text>
</a>
</g>
</g>
<!-- zcash/halo2#57&#45;&gt;zcash/halo2#443 -->
<g id="edge8" class="edge">
<title>zcash/halo2#57&#45;&gt;zcash/halo2#443</title>
<path fill="none" stroke="#000000" d="M184.78,-493C207.05,-493 232.09,-493 256.22,-493"/>
<polygon fill="#000000" stroke="#000000" points="256.49,-496.5001 266.49,-493 256.49,-489.5001 256.49,-496.5001"/>
</g>
<!-- zcash/halo2#449 -->
<g id="node13" class="node committed">
<title>zcash/halo2#449</title>
<g id="a_node13"><a xlink:href="https://github.com/zcash/halo2/issues/449" xlink:title="zcash/halo2#449&#10;Define a stable&#10;serialization format for&#10;`VerifyingKey`" target="_blank">
<polygon fill="#a6cfff" stroke="#000000" stroke-width="2" points="204,-613 22,-613 22,-545 204,-545 204,-613"/>
<text text-anchor="middle" x="113" y="-597.8" font-family="Times,serif" font-size="14.00" fill="#000000">zcash/halo2#449</text>
<text text-anchor="middle" x="113" y="-582.8" font-family="Times,serif" font-size="14.00" fill="#000000">Define a stable</text>
<text text-anchor="middle" x="113" y="-567.8" font-family="Times,serif" font-size="14.00" fill="#000000">serialization format for</text>
<text text-anchor="middle" x="113" y="-552.8" font-family="Times,serif" font-size="14.00" fill="#000000">`VerifyingKey`</text>
</a>
</g>
</g>
<!-- zcash/halo2#482 -->
<g id="node14" class="node open">
<title>zcash/halo2#482</title>
<g id="a_node14"><a xlink:href="https://github.com/zcash/halo2/issues/482" xlink:title="zcash/halo2#482&#10;Raise MSRV to 1.56.1" target="_blank">
<polygon fill="#c2e0c6" stroke="#000000" stroke-width="2" points="199.5,-669 26.5,-669 26.5,-631 199.5,-631 199.5,-669"/>
<text text-anchor="middle" x="113" y="-653.8" font-family="Times,serif" font-size="14.00" fill="#000000">zcash/halo2#482</text>
<text text-anchor="middle" x="113" y="-638.8" font-family="Times,serif" font-size="14.00" fill="#000000">Raise MSRV to 1.56.1</text>
</a>
</g>
</g>
<!-- zcash/halo2#483 -->
<g id="node15" class="node committed">
<title>zcash/halo2#483</title>
<g id="a_node15"><a xlink:href="https://github.com/zcash/halo2/issues/483" xlink:title="zcash/halo2#483&#10;Refactor variable&#45;base&#10;scalar mul to distinguish&#10;the &quot;base field element&quot;&#10;case" target="_blank">
<polygon fill="#a6cfff" stroke="#000000" stroke-width="2" points="696.5,-271.5 502.5,-271.5 502.5,-188.5 696.5,-188.5 696.5,-271.5"/>
<text text-anchor="middle" x="599.5" y="-256.3" font-family="Times,serif" font-size="14.00" fill="#000000">zcash/halo2#483</text>
<text text-anchor="middle" x="599.5" y="-241.3" font-family="Times,serif" font-size="14.00" fill="#000000">Refactor variable&#45;base</text>
<text text-anchor="middle" x="599.5" y="-226.3" font-family="Times,serif" font-size="14.00" fill="#000000">scalar mul to distinguish</text>
<text text-anchor="middle" x="599.5" y="-211.3" font-family="Times,serif" font-size="14.00" fill="#000000">the &quot;base field element&quot;</text>
<text text-anchor="middle" x="599.5" y="-196.3" font-family="Times,serif" font-size="14.00" fill="#000000">case</text>
</a>
</g>
</g>
<!-- zcash/halo2#483&#45;&gt;zcash/halo2#460 -->
<g id="edge9" class="edge">
<title>zcash/halo2#483&#45;&gt;zcash/halo2#460</title>
<path fill="none" stroke="#000000" d="M696.79,-226.72C709.1,-226.31 721.72,-225.88 734.12,-225.47"/>
<polygon fill="#000000" stroke="#000000" points="734.5842,-228.9564 744.46,-225.12 734.3473,-221.9604 734.5842,-228.9564"/>
</g>
<!-- zcash/halo2#420 -->
<g id="node16" class="node open">
<title>zcash/halo2#420</title>
<g id="a_node16"><a xlink:href="https://github.com/zcash/halo2/issues/420" xlink:title="zcash/halo2#420&#10;CI: Measure memory&#45;usage&#10;benchmarks" target="_blank">
<polygon fill="#c2e0c6" stroke="#000000" stroke-width="2" points="220.5,-740.5 5.5,-740.5 5.5,-687.5 220.5,-687.5 220.5,-740.5"/>
<text text-anchor="middle" x="113" y="-725.3" font-family="Times,serif" font-size="14.00" fill="#000000">zcash/halo2#420</text>
<text text-anchor="middle" x="113" y="-710.3" font-family="Times,serif" font-size="14.00" fill="#000000">CI: Measure memory&#45;usage</text>
<text text-anchor="middle" x="113" y="-695.3" font-family="Times,serif" font-size="14.00" fill="#000000">benchmarks</text>
</a>
</g>
</g>
<!-- zcash/halo2#418 -->
<g id="node17" class="node open">
<title>zcash/halo2#418</title>
<g id="a_node17"><a xlink:href="https://github.com/zcash/halo2/issues/418" xlink:title="zcash/halo2#418&#10;[memory optimization]&#10;lookup prover memory&#10;analysis" target="_blank">
<polygon fill="#c2e0c6" stroke="#000000" points="453,-748 274,-748 274,-680 453,-680 453,-748"/>
<text text-anchor="middle" x="363.5" y="-732.8" font-family="Times,serif" font-size="14.00" fill="#000000">zcash/halo2#418</text>
<text text-anchor="middle" x="363.5" y="-717.8" font-family="Times,serif" font-size="14.00" fill="#000000">[memory optimization]</text>
<text text-anchor="middle" x="363.5" y="-702.8" font-family="Times,serif" font-size="14.00" fill="#000000">lookup prover memory</text>
<text text-anchor="middle" x="363.5" y="-687.8" font-family="Times,serif" font-size="14.00" fill="#000000">analysis</text>
</a>
</g>
</g>
<!-- zcash/halo2#420&#45;&gt;zcash/halo2#418 -->
<g id="edge10" class="edge">
<title>zcash/halo2#420&#45;&gt;zcash/halo2#418</title>
<path fill="none" stroke="#000000" d="M220.69,-714C234.99,-714 249.6,-714 263.75,-714"/>
<polygon fill="#000000" stroke="#000000" points="263.97,-717.5001 273.97,-714 263.97,-710.5001 263.97,-717.5001"/>
</g>
<!-- zcash/halo2#427 -->
<g id="node18" class="node open">
<title>zcash/halo2#427</title>
<g id="a_node18"><a xlink:href="https://github.com/zcash/halo2/issues/427" xlink:title="zcash/halo2#427&#10;Use smaller extended&#10;domains where possible&#10;during proving" target="_blank">
<polygon fill="#c2e0c6" stroke="#000000" stroke-width="2" points="207,-827 19,-827 19,-759 207,-759 207,-827"/>
<text text-anchor="middle" x="113" y="-811.8" font-family="Times,serif" font-size="14.00" fill="#000000">zcash/halo2#427</text>
<text text-anchor="middle" x="113" y="-796.8" font-family="Times,serif" font-size="14.00" fill="#000000">Use smaller extended</text>
<text text-anchor="middle" x="113" y="-781.8" font-family="Times,serif" font-size="14.00" fill="#000000">domains where possible</text>
<text text-anchor="middle" x="113" y="-766.8" font-family="Times,serif" font-size="14.00" fill="#000000">during proving</text>
</a>
</g>
</g>
<!-- zcash/halo2#456 -->
<g id="node19" class="node open">
<title>zcash/halo2#456</title>
<g id="a_node19"><a xlink:href="https://github.com/zcash/halo2/issues/456" xlink:title="zcash/halo2#456&#10;Benchmark `sha256`&#10;gadget." target="_blank">
<polygon fill="#c2e0c6" stroke="#000000" stroke-width="2" points="198,-898.5 28,-898.5 28,-845.5 198,-845.5 198,-898.5"/>
<text text-anchor="middle" x="113" y="-883.3" font-family="Times,serif" font-size="14.00" fill="#000000">zcash/halo2#456</text>
<text text-anchor="middle" x="113" y="-868.3" font-family="Times,serif" font-size="14.00" fill="#000000">Benchmark `sha256`</text>
<text text-anchor="middle" x="113" y="-853.3" font-family="Times,serif" font-size="14.00" fill="#000000">gadget.</text>
</a>
</g>
</g>
<!-- zcash/halo2#455 -->
<g id="node20" class="node open">
<title>zcash/halo2#455</title>
<g id="a_node20"><a xlink:href="https://github.com/zcash/halo2/issues/455" xlink:title="zcash/halo2#455&#10;[Book] add description of&#10;Poseidon gadget and chip" target="_blank">
<polygon fill="#c2e0c6" stroke="#000000" stroke-width="2" points="213,-969.5 13,-969.5 13,-916.5 213,-916.5 213,-969.5"/>
<text text-anchor="middle" x="113" y="-954.3" font-family="Times,serif" font-size="14.00" fill="#000000">zcash/halo2#455</text>
<text text-anchor="middle" x="113" y="-939.3" font-family="Times,serif" font-size="14.00" fill="#000000">[Book] add description of</text>
<text text-anchor="middle" x="113" y="-924.3" font-family="Times,serif" font-size="14.00" fill="#000000">Poseidon gadget and chip</text>
</a>
</g>
</g>
<!-- zcash/halo2#251 -->
<g id="node21" class="node open">
<title>zcash/halo2#251</title>
<g id="a_node21"><a xlink:href="https://github.com/zcash/halo2/issues/251" xlink:title="zcash/halo2#251&#10;Implement user&#45;facing API&#10;for recursive proving of&#10;IVC" target="_blank">
<polygon fill="#c2e0c6" stroke="#000000" points="1186,-459 976,-459 976,-391 1186,-391 1186,-459"/>
<text text-anchor="middle" x="1081" y="-443.8" font-family="Times,serif" font-size="14.00" fill="#000000">zcash/halo2#251</text>
<text text-anchor="middle" x="1081" y="-428.8" font-family="Times,serif" font-size="14.00" fill="#000000">Implement user&#45;facing API</text>
<text text-anchor="middle" x="1081" y="-413.8" font-family="Times,serif" font-size="14.00" fill="#000000">for recursive proving of</text>
<text text-anchor="middle" x="1081" y="-398.8" font-family="Times,serif" font-size="14.00" fill="#000000">IVC</text>
</a>
</g>
</g>
<!-- zcash/halo2#251&#45;&gt;zcash/halo2#75 -->
<g id="edge11" class="edge">
<title>zcash/halo2#251&#45;&gt;zcash/halo2#75</title>
<path fill="none" stroke="#000000" d="M1186.2,-451.72C1200.5,-455.37 1215.3,-459.11 1229.5,-462.73"/>
<polygon fill="#000000" stroke="#000000" points="1228.746,-466.1496 1239.3,-465.22 1230.4699,-459.3651 1228.746,-466.1496"/>
</g>
<!-- zcash/halo2#437 -->
<g id="node22" class="node open">
<title>zcash/halo2#437</title>
<g id="a_node22"><a xlink:href="https://github.com/zcash/halo2/issues/437" xlink:title="zcash/halo2#437&#10;Amend user&#45;facing API to&#10;work for both IVC and PCD" target="_blank">
<polygon fill="#c2e0c6" stroke="#000000" points="1436,-420.5 1222,-420.5 1222,-367.5 1436,-367.5 1436,-420.5"/>
<text text-anchor="middle" x="1329" y="-405.3" font-family="Times,serif" font-size="14.00" fill="#000000">zcash/halo2#437</text>
<text text-anchor="middle" x="1329" y="-390.3" font-family="Times,serif" font-size="14.00" fill="#000000">Amend user&#45;facing API to</text>
<text text-anchor="middle" x="1329" y="-375.3" font-family="Times,serif" font-size="14.00" fill="#000000">work for both IVC and PCD</text>
</a>
</g>
</g>
<!-- zcash/halo2#251&#45;&gt;zcash/halo2#437 -->
<g id="edge12" class="edge">
<title>zcash/halo2#251&#45;&gt;zcash/halo2#437</title>
<path fill="none" stroke="#000000" d="M1186.2,-411.85C1194.6,-410.8 1203.2,-409.73 1211.7,-408.66"/>
<polygon fill="#000000" stroke="#000000" points="1212.2114,-412.1234 1221.7,-407.41 1211.3431,-405.1775 1212.2114,-412.1234"/>
</g>
<!-- zcash/halo2#436 -->
<g id="node23" class="node open">
<title>zcash/halo2#436</title>
<g id="a_node23"><a xlink:href="https://github.com/zcash/halo2/issues/436" xlink:title="zcash/halo2#436&#10;Implement mock&#10;verification circuit for&#10;PCD" target="_blank">
<polygon fill="#c2e0c6" stroke="#000000" points="687,-369 512,-369 512,-301 687,-301 687,-369"/>
<text text-anchor="middle" x="599.5" y="-353.8" font-family="Times,serif" font-size="14.00" fill="#000000">zcash/halo2#436</text>
<text text-anchor="middle" x="599.5" y="-338.8" font-family="Times,serif" font-size="14.00" fill="#000000">Implement mock</text>
<text text-anchor="middle" x="599.5" y="-323.8" font-family="Times,serif" font-size="14.00" fill="#000000">verification circuit for</text>
<text text-anchor="middle" x="599.5" y="-308.8" font-family="Times,serif" font-size="14.00" fill="#000000">PCD</text>
</a>
</g>
</g>
<!-- zcash/halo2#436&#45;&gt;zcash/halo2#437 -->
<g id="edge13" class="edge">
<title>zcash/halo2#436&#45;&gt;zcash/halo2#437</title>
<path fill="none" stroke="#000000" d="M687.44,-341.94C802.16,-351.03 1009.1,-367.49 1186,-382 1194.3,-382.68 1202.9,-383.39 1211.5,-384.1"/>
<polygon fill="#000000" stroke="#000000" points="1211.3417,-387.599 1221.6,-384.95 1211.9288,-380.6236 1211.3417,-387.599"/>
</g>
<!-- zcash/halo2#438 -->
<g id="node24" class="node open">
<title>zcash/halo2#438</title>
<g id="a_node24"><a xlink:href="https://github.com/zcash/halo2/issues/438" xlink:title="zcash/halo2#438&#10;Implement the logic for&#10;the PCD verifier circuit" target="_blank">
<polygon fill="#c2e0c6" stroke="#000000" points="930,-334.5 744,-334.5 744,-281.5 930,-281.5 930,-334.5"/>
<text text-anchor="middle" x="837" y="-319.3" font-family="Times,serif" font-size="14.00" fill="#000000">zcash/halo2#438</text>
<text text-anchor="middle" x="837" y="-304.3" font-family="Times,serif" font-size="14.00" fill="#000000">Implement the logic for</text>
<text text-anchor="middle" x="837" y="-289.3" font-family="Times,serif" font-size="14.00" fill="#000000">the PCD verifier circuit</text>
</a>
</g>
</g>
<!-- zcash/halo2#436&#45;&gt;zcash/halo2#438 -->
<g id="edge14" class="edge">
<title>zcash/halo2#436&#45;&gt;zcash/halo2#438</title>
<path fill="none" stroke="#000000" d="M687.26,-325.02C702.33,-323.31 718.11,-321.52 733.54,-319.76"/>
<polygon fill="#000000" stroke="#000000" points="734.0767,-323.2217 743.62,-318.62 733.29,-316.266 734.0767,-323.2217"/>
</g>
<!-- zcash/halo2#435 -->
<g id="node25" class="node open">
<title>zcash/halo2#435</title>
<g id="a_node25"><a xlink:href="https://github.com/zcash/halo2/issues/435" xlink:title="zcash/halo2#435&#10;Implement mock&#10;verification circuit for&#10;IVC" target="_blank">
<polygon fill="#c2e0c6" stroke="#000000" points="687,-527 512,-527 512,-459 687,-459 687,-527"/>
<text text-anchor="middle" x="599.5" y="-511.8" font-family="Times,serif" font-size="14.00" fill="#000000">zcash/halo2#435</text>
<text text-anchor="middle" x="599.5" y="-496.8" font-family="Times,serif" font-size="14.00" fill="#000000">Implement mock</text>
<text text-anchor="middle" x="599.5" y="-481.8" font-family="Times,serif" font-size="14.00" fill="#000000">verification circuit for</text>
<text text-anchor="middle" x="599.5" y="-466.8" font-family="Times,serif" font-size="14.00" fill="#000000">IVC</text>
</a>
</g>
</g>
<!-- zcash/halo2#247 -->
<g id="node26" class="node open">
<title>zcash/halo2#247</title>
<g id="a_node26"><a xlink:href="https://github.com/zcash/halo2/issues/247" xlink:title="zcash/halo2#247&#10;Implement underlying&#10;scaffolding for creating&#10;the IVC proof cycle" target="_blank">
<polygon fill="#c2e0c6" stroke="#000000" points="929.5,-459 744.5,-459 744.5,-391 929.5,-391 929.5,-459"/>
<text text-anchor="middle" x="837" y="-443.8" font-family="Times,serif" font-size="14.00" fill="#000000">zcash/halo2#247</text>
<text text-anchor="middle" x="837" y="-428.8" font-family="Times,serif" font-size="14.00" fill="#000000">Implement underlying</text>
<text text-anchor="middle" x="837" y="-413.8" font-family="Times,serif" font-size="14.00" fill="#000000">scaffolding for creating</text>
<text text-anchor="middle" x="837" y="-398.8" font-family="Times,serif" font-size="14.00" fill="#000000">the IVC proof cycle</text>
</a>
</g>
</g>
<!-- zcash/halo2#435&#45;&gt;zcash/halo2#247 -->
<g id="edge15" class="edge">
<title>zcash/halo2#435&#45;&gt;zcash/halo2#247</title>
<path fill="none" stroke="#000000" d="M687.26,-467.87C702.69,-463.45 718.87,-458.82 734.66,-454.3"/>
<polygon fill="#000000" stroke="#000000" points="735.7671,-457.6238 744.42,-451.51 733.8431,-450.8934 735.7671,-457.6238"/>
</g>
<!-- zcash/halo2#247&#45;&gt;zcash/halo2#250 -->
<g id="edge16" class="edge">
<title>zcash/halo2#247&#45;&gt;zcash/halo2#250</title>
<path fill="none" stroke="#000000" d="M921.17,-459.06C927.59,-461.99 933.93,-464.98 940,-468 970.53,-483.17 1003.5,-502.21 1029.9,-518.12"/>
<polygon fill="#000000" stroke="#000000" points="1028.2316,-521.2012 1038.6,-523.38 1031.8533,-515.211 1028.2316,-521.2012"/>
</g>
<!-- zcash/halo2#247&#45;&gt;zcash/halo2#251 -->
<g id="edge17" class="edge">
<title>zcash/halo2#247&#45;&gt;zcash/halo2#251</title>
<path fill="none" stroke="#000000" d="M929.59,-425C941.39,-425 953.58,-425 965.68,-425"/>
<polygon fill="#000000" stroke="#000000" points="965.81,-428.5001 975.81,-425 965.81,-421.5001 965.81,-428.5001"/>
</g>
<!-- zcash/halo2#246 -->
<g id="node27" class="node open">
<title>zcash/halo2#246</title>
<g id="a_node27"><a xlink:href="https://github.com/zcash/halo2/issues/246" xlink:title="zcash/halo2#246&#10;Create recursive proof&#10;structures" target="_blank">
<polygon fill="#c2e0c6" stroke="#000000" points="453,-440.5 274,-440.5 274,-387.5 453,-387.5 453,-440.5"/>
<text text-anchor="middle" x="363.5" y="-425.3" font-family="Times,serif" font-size="14.00" fill="#000000">zcash/halo2#246</text>
<text text-anchor="middle" x="363.5" y="-410.3" font-family="Times,serif" font-size="14.00" fill="#000000">Create recursive proof</text>
<text text-anchor="middle" x="363.5" y="-395.3" font-family="Times,serif" font-size="14.00" fill="#000000">structures</text>
</a>
</g>
</g>
<!-- zcash/halo2#246&#45;&gt;zcash/halo2#436 -->
<g id="edge18" class="edge">
<title>zcash/halo2#246&#45;&gt;zcash/halo2#436</title>
<path fill="none" stroke="#000000" d="M442.74,-387.47C461.84,-381.08 482.47,-374.17 502.29,-367.54"/>
<polygon fill="#000000" stroke="#000000" points="503.568,-370.8031 511.94,-364.31 501.3462,-364.1651 503.568,-370.8031"/>
</g>
<!-- zcash/halo2#246&#45;&gt;zcash/halo2#435 -->
<g id="edge19" class="edge">
<title>zcash/halo2#246&#45;&gt;zcash/halo2#435</title>
<path fill="none" stroke="#000000" d="M442.74,-440.53C461.84,-446.92 482.47,-453.83 502.29,-460.46"/>
<polygon fill="#000000" stroke="#000000" points="501.3462,-463.8349 511.94,-463.69 503.568,-457.1969 501.3462,-463.8349"/>
</g>
<!-- zcash/halo2#439 -->
<g id="node28" class="node open">
<title>zcash/halo2#439</title>
<g id="a_node28"><a xlink:href="https://github.com/zcash/halo2/issues/439" xlink:title="zcash/halo2#439&#10;Support split&#10;accumulation in Halo 2" target="_blank">
<polygon fill="#c2e0c6" stroke="#000000" stroke-width="2" points="204.5,-440.5 21.5,-440.5 21.5,-387.5 204.5,-387.5 204.5,-440.5"/>
<text text-anchor="middle" x="113" y="-425.3" font-family="Times,serif" font-size="14.00" fill="#000000">zcash/halo2#439</text>
<text text-anchor="middle" x="113" y="-410.3" font-family="Times,serif" font-size="14.00" fill="#000000">Support split</text>
<text text-anchor="middle" x="113" y="-395.3" font-family="Times,serif" font-size="14.00" fill="#000000">accumulation in Halo 2</text>
</a>
</g>
</g>
<!-- zcash/halo2#439&#45;&gt;zcash/halo2#246 -->
<g id="edge20" class="edge">
<title>zcash/halo2#439&#45;&gt;zcash/halo2#246</title>
<path fill="none" stroke="#000000" d="M204.85,-414C224,-414 244.27,-414 263.68,-414"/>
<polygon fill="#000000" stroke="#000000" points="263.75,-417.5001 273.75,-414 263.75,-410.5001 263.75,-417.5001"/>
</g>
<!-- zcash/halo2#359 -->
<g id="node29" class="node open">
<title>zcash/halo2#359</title>
<g id="a_node29"><a xlink:href="https://github.com/zcash/halo2/issues/359" xlink:title="zcash/halo2#359&#10;Set up `BaseTranscript`,&#10;`ScalarTranscript`" target="_blank">
<polygon fill="#c2e0c6" stroke="#000000" stroke-width="2" points="698,-440.5 501,-440.5 501,-387.5 698,-387.5 698,-440.5"/>
<text text-anchor="middle" x="599.5" y="-425.3" font-family="Times,serif" font-size="14.00" fill="#000000">zcash/halo2#359</text>
<text text-anchor="middle" x="599.5" y="-410.3" font-family="Times,serif" font-size="14.00" fill="#000000">Set up `BaseTranscript`,</text>
<text text-anchor="middle" x="599.5" y="-395.3" font-family="Times,serif" font-size="14.00" fill="#000000">`ScalarTranscript`</text>
</a>
</g>
</g>
<!-- zcash/halo2#359&#45;&gt;zcash/halo2#247 -->
<g id="edge21" class="edge">
<title>zcash/halo2#359&#45;&gt;zcash/halo2#247</title>
<path fill="none" stroke="#000000" d="M698.16,-418.57C710.11,-419.12 722.33,-419.69 734.34,-420.25"/>
<polygon fill="#000000" stroke="#000000" points="734.21,-423.7476 744.36,-420.71 734.5311,-416.755 734.21,-423.7476"/>
</g>
<!-- zcash/halo2#249 -->
<g id="node30" class="node open">
<title>zcash/halo2#249</title>
<g id="a_node30"><a xlink:href="https://github.com/zcash/halo2/issues/249" xlink:title="zcash/halo2#249&#10;Implement recursion&#10;circuit logic for&#10;handling public inputs" target="_blank">
<polygon fill="#c2e0c6" stroke="#000000" stroke-width="2" points="925.5,-703 748.5,-703 748.5,-635 925.5,-635 925.5,-703"/>
<text text-anchor="middle" x="837" y="-687.8" font-family="Times,serif" font-size="14.00" fill="#000000">zcash/halo2#249</text>
<text text-anchor="middle" x="837" y="-672.8" font-family="Times,serif" font-size="14.00" fill="#000000">Implement recursion</text>
<text text-anchor="middle" x="837" y="-657.8" font-family="Times,serif" font-size="14.00" fill="#000000">circuit logic for</text>
<text text-anchor="middle" x="837" y="-642.8" font-family="Times,serif" font-size="14.00" fill="#000000">handling public inputs</text>
</a>
</g>
</g>
<!-- zcash/halo2#249&#45;&gt;zcash/halo2#250 -->
<g id="edge22" class="edge">
<title>zcash/halo2#249&#45;&gt;zcash/halo2#250</title>
<path fill="none" stroke="#000000" d="M920.51,-634.96C927.14,-632.01 933.7,-629 940,-626 968.74,-612.3 999.98,-595.65 1025.7,-581.43"/>
<polygon fill="#000000" stroke="#000000" points="1027.5416,-584.4112 1034.6,-576.51 1024.1549,-578.285 1027.5416,-584.4112"/>
</g>
<!-- zcash/halo2#398 -->
<g id="node31" class="node committed">
<title>zcash/halo2#398</title>
<g id="a_node31"><a xlink:href="https://github.com/zcash/halo2/issues/398" xlink:title="zcash/halo2#398&#10;[MockProver] Testing is&#10;slower after #389" target="_blank">
<polygon fill="#a6cfff" stroke="#000000" points="458,-210.5 269,-210.5 269,-157.5 458,-157.5 458,-210.5"/>
<text text-anchor="middle" x="363.5" y="-195.3" font-family="Times,serif" font-size="14.00" fill="#000000">zcash/halo2#398</text>
<text text-anchor="middle" x="363.5" y="-180.3" font-family="Times,serif" font-size="14.00" fill="#000000">[MockProver] Testing is</text>
<text text-anchor="middle" x="363.5" y="-165.3" font-family="Times,serif" font-size="14.00" fill="#000000">slower after #389</text>
</a>
</g>
</g>
<!-- zcash/halo2#398&#45;&gt;zcash/halo2#426 -->
<g id="edge23" class="edge">
<title>zcash/halo2#398&#45;&gt;zcash/halo2#426</title>
<path fill="none" stroke="#000000" d="M458.13,-167.96C472.82,-165.47 488.02,-162.9 502.75,-160.4"/>
<polygon fill="#000000" stroke="#000000" points="503.5979,-163.8062 512.87,-158.68 502.4249,-156.9051 503.5979,-163.8062"/>
</g>
<!-- zcash/halo2#528 -->
<g id="node32" class="node committed">
<title>zcash/halo2#528</title>
<g id="a_node32"><a xlink:href="https://github.com/zcash/halo2/issues/528" xlink:title="zcash/halo2#528&#10;Add benchmark for a&#10;circuit with a highly&#45;&#10;padded lookup table" target="_blank">
<polygon fill="#a6cfff" stroke="#000000" stroke-width="2" points="197,-218 29,-218 29,-150 197,-150 197,-218"/>
<text text-anchor="middle" x="113" y="-202.8" font-family="Times,serif" font-size="14.00" fill="#000000">zcash/halo2#528</text>
<text text-anchor="middle" x="113" y="-187.8" font-family="Times,serif" font-size="14.00" fill="#000000">Add benchmark for a</text>
<text text-anchor="middle" x="113" y="-172.8" font-family="Times,serif" font-size="14.00" fill="#000000">circuit with a highly&#45;</text>
<text text-anchor="middle" x="113" y="-157.8" font-family="Times,serif" font-size="14.00" fill="#000000">padded lookup table</text>
</a>
</g>
</g>
<!-- zcash/halo2#528&#45;&gt;zcash/halo2#398 -->
<g id="edge24" class="edge">
<title>zcash/halo2#528&#45;&gt;zcash/halo2#398</title>
<path fill="none" stroke="#000000" d="M197.11,-184C216.9,-184 238.23,-184 258.8,-184"/>
<polygon fill="#000000" stroke="#000000" points="258.82,-187.5001 268.82,-184 258.82,-180.5001 258.82,-187.5001"/>
</g>
<!-- zcash/halo2#477 -->
<g id="node33" class="node committed">
<title>zcash/halo2#477</title>
<g id="a_node33"><a xlink:href="https://github.com/zcash/halo2/issues/477" xlink:title="zcash/halo2#477&#10;Add a helper for checking&#10;`MockProver::verify`&#10;results" target="_blank">
<polygon fill="#a6cfff" stroke="#000000" stroke-width="2" points="465,-139 262,-139 262,-71 465,-71 465,-139"/>
<text text-anchor="middle" x="363.5" y="-123.8" font-family="Times,serif" font-size="14.00" fill="#000000">zcash/halo2#477</text>
<text text-anchor="middle" x="363.5" y="-108.8" font-family="Times,serif" font-size="14.00" fill="#000000">Add a helper for checking</text>
<text text-anchor="middle" x="363.5" y="-93.8" font-family="Times,serif" font-size="14.00" fill="#000000">`MockProver::verify`</text>
<text text-anchor="middle" x="363.5" y="-78.8" font-family="Times,serif" font-size="14.00" fill="#000000">results</text>
</a>
</g>
</g>
<!-- zcash/halo2#477&#45;&gt;zcash/halo2#426 -->
<g id="edge25" class="edge">
<title>zcash/halo2#477&#45;&gt;zcash/halo2#426</title>
<path fill="none" stroke="#000000" d="M465.3,-121.82C477.8,-123.89 490.55,-126 502.97,-128.05"/>
<polygon fill="#000000" stroke="#000000" points="502.4136,-131.5054 512.85,-129.68 503.5531,-124.5988 502.4136,-131.5054"/>
</g>
<!-- zcash/halo2#248 -->
<g id="node34" class="node open">
<title>zcash/halo2#248</title>
<g id="a_node34"><a xlink:href="https://github.com/zcash/halo2/issues/248" xlink:title="zcash/halo2#248&#10;Implement endoscaling in&#10;the circuit" target="_blank">
<polygon fill="#c2e0c6" stroke="#000000" stroke-width="2" points="938.5,-616.5 735.5,-616.5 735.5,-563.5 938.5,-563.5 938.5,-616.5"/>
<text text-anchor="middle" x="837" y="-601.3" font-family="Times,serif" font-size="14.00" fill="#000000">zcash/halo2#248</text>
<text text-anchor="middle" x="837" y="-586.3" font-family="Times,serif" font-size="14.00" fill="#000000">Implement endoscaling in</text>
<text text-anchor="middle" x="837" y="-571.3" font-family="Times,serif" font-size="14.00" fill="#000000">the circuit</text>
</a>
</g>
</g>
<!-- zcash/halo2#248&#45;&gt;zcash/halo2#250 -->
<g id="edge26" class="edge">
<title>zcash/halo2#248&#45;&gt;zcash/halo2#250</title>
<path fill="none" stroke="#000000" d="M938.71,-573.33C951.51,-571.23 964.61,-569.08 977.43,-566.98"/>
<polygon fill="#000000" stroke="#000000" points="978.341,-570.3773 987.64,-565.3 977.2044,-563.4701 978.341,-570.3773"/>
</g>
<!-- zcash/halo2#245 -->
<g id="node35" class="node open">
<title>zcash/halo2#245</title>
<g id="a_node35"><a xlink:href="https://github.com/zcash/halo2/issues/245" xlink:title="zcash/halo2#245&#10;Remove the need to&#10;multiply by powers of x^n&#10;in verifier" target="_blank">
<polygon fill="#c2e0c6" stroke="#000000" stroke-width="2" points="940,-545 734,-545 734,-477 940,-477 940,-545"/>
<text text-anchor="middle" x="837" y="-529.8" font-family="Times,serif" font-size="14.00" fill="#000000">zcash/halo2#245</text>
<text text-anchor="middle" x="837" y="-514.8" font-family="Times,serif" font-size="14.00" fill="#000000">Remove the need to</text>
<text text-anchor="middle" x="837" y="-499.8" font-family="Times,serif" font-size="14.00" fill="#000000">multiply by powers of x^n</text>
<text text-anchor="middle" x="837" y="-484.8" font-family="Times,serif" font-size="14.00" fill="#000000">in verifier</text>
</a>
</g>
</g>
<!-- zcash/halo2#245&#45;&gt;zcash/halo2#250 -->
<g id="edge27" class="edge">
<title>zcash/halo2#245&#45;&gt;zcash/halo2#250</title>
<path fill="none" stroke="#000000" d="M940.12,-527.48C952.65,-529.48 965.44,-531.53 977.96,-533.53"/>
<polygon fill="#000000" stroke="#000000" points="977.5036,-537.0014 987.93,-535.12 978.606,-530.0887 977.5036,-537.0014"/>
</g>
<!-- zcash/halo2#312 -->
<g id="node36" class="node open">
<title>zcash/halo2#312</title>
<g id="a_node36"><a xlink:href="https://github.com/zcash/halo2/issues/312" xlink:title="zcash/halo2#312&#10;[Book] Document gadget&#10;API" target="_blank">
<polygon fill="#c2e0c6" stroke="#000000" stroke-width="2" points="210.5,-1040.5 15.5,-1040.5 15.5,-987.5 210.5,-987.5 210.5,-1040.5"/>
<text text-anchor="middle" x="113" y="-1025.3" font-family="Times,serif" font-size="14.00" fill="#000000">zcash/halo2#312</text>
<text text-anchor="middle" x="113" y="-1010.3" font-family="Times,serif" font-size="14.00" fill="#000000">[Book] Document gadget</text>
<text text-anchor="middle" x="113" y="-995.3" font-family="Times,serif" font-size="14.00" fill="#000000">API</text>
</a>
</g>
</g>
<!-- zcash/pasta_curves#23 -->
<g id="node37" class="node open">
<title>zcash/pasta_curves#23</title>
<g id="a_node37"><a xlink:href="https://github.com/zcash/pasta_curves/pull/23" xlink:title="zcash/pasta_curves#23&#10;Ensure that GitHub&#39;s&#10;&quot;View license&quot; link&#10;points to complete&#10;license information" target="_blank">
<polygon fill="#c2e0c6" stroke="#000000" stroke-width="2" points="206,-1141.5 20,-1141.5 20,-1137.5 16,-1137.5 16,-1133.5 20,-1133.5 20,-1066.5 16,-1066.5 16,-1062.5 20,-1062.5 20,-1058.5 206,-1058.5 206,-1141.5"/>
<polyline fill="none" stroke="#000000" stroke-width="2" points="20,-1137.5 24,-1137.5 24,-1133.5 20,-1133.5 "/>
<polyline fill="none" stroke="#000000" stroke-width="2" points="20,-1066.5 24,-1066.5 24,-1062.5 20,-1062.5 "/>
<text text-anchor="middle" x="113" y="-1126.3" font-family="Times,serif" font-size="14.00" fill="#000000">zcash/pasta_curves#23</text>
<text text-anchor="middle" x="113" y="-1111.3" font-family="Times,serif" font-size="14.00" fill="#000000">Ensure that GitHub&#39;s</text>
<text text-anchor="middle" x="113" y="-1096.3" font-family="Times,serif" font-size="14.00" fill="#000000">&quot;View license&quot; link</text>
<text text-anchor="middle" x="113" y="-1081.3" font-family="Times,serif" font-size="14.00" fill="#000000">points to complete</text>
<text text-anchor="middle" x="113" y="-1066.3" font-family="Times,serif" font-size="14.00" fill="#000000">license information</text>
</a>
</g>
</g>
</g>
</svg>
