<?xml version="1.0" encoding="UTF-8" standalone="no"?>
<?xml-stylesheet href="zcash-dag.css" type="text/css"?>
<!DOCTYPE svg PUBLIC "-//W3C//DTD SVG 1.1//EN"
 "http://www.w3.org/Graphics/SVG/1.1/DTD/svg11.dtd">
<!-- Generated by graphviz version 2.40.1 (20161225.0304)
 -->
<!-- Pages: 1 -->
<svg width="1660pt" height="1276pt"
 viewBox="0.00 0.00 1660.00 1275.50" xmlns="http://www.w3.org/2000/svg" xmlns:xlink="http://www.w3.org/1999/xlink">
<g id="graph0" class="graph" transform="scale(1 1) rotate(0) translate(4 1271.5)">
<polygon fill="#ffffff" stroke="transparent" points="-4,4 -4,-1271.5 1656,-1271.5 1656,4 -4,4"/>
<!-- zcash/pasta_curves#35 -->
<g id="node1" class="node open">
<title>zcash/pasta_curves#35</title>
<g id="a_node1"><a xlink:href="https://github.com/zcash/pasta_curves/issues/35" xlink:title="zcash/pasta_curves#35&#10;Enable `ec&#45;gpu` to&#10;generate MSM and FFT code&#10;for `pasta_curves`" target="_blank">
<polygon fill="#c2e0c6" stroke="#000000" stroke-width="2" points="226,-68 0,-68 0,0 226,0 226,-68"/>
<text text-anchor="middle" x="113" y="-52.8" font-family="Times,serif" font-size="14.00" fill="#000000">zcash/pasta_curves#35</text>
<text text-anchor="middle" x="113" y="-37.8" font-family="Times,serif" font-size="14.00" fill="#000000">Enable `ec&#45;gpu` to</text>
<text text-anchor="middle" x="113" y="-22.8" font-family="Times,serif" font-size="14.00" fill="#000000">generate MSM and FFT code</text>
<text text-anchor="middle" x="113" y="-7.8" font-family="Times,serif" font-size="14.00" fill="#000000">for `pasta_curves`</text>
</a>
</g>
</g>
<!-- zcash/halo2#379 -->
<g id="node2" class="node open">
<title>zcash/halo2#379</title>
<g id="a_node2"><a xlink:href="https://github.com/zcash/halo2/issues/379" xlink:title="zcash/halo2#379&#10;Add `ec&#45;gpu` support" target="_blank">
<polygon fill="#c2e0c6" stroke="#000000" points="445.5,-53 272.5,-53 272.5,-15 445.5,-15 445.5,-53"/>
<text text-anchor="middle" x="359" y="-37.8" font-family="Times,serif" font-size="14.00" fill="#000000">zcash/halo2#379</text>
<text text-anchor="middle" x="359" y="-22.8" font-family="Times,serif" font-size="14.00" fill="#000000">Add `ec&#45;gpu` support</text>
</a>
</g>
</g>
<!-- zcash/pasta_curves#35&#45;&gt;zcash/halo2#379 -->
<g id="edge1" class="edge">
<title>zcash/pasta_curves#35&#45;&gt;zcash/halo2#379</title>
<path fill="none" stroke="#000000" d="M226.28,-34C238.28,-34 250.4,-34 262.18,-34"/>
<polygon fill="#000000" stroke="#000000" points="262.44,-37.5001 272.44,-34 262.44,-30.5001 262.44,-37.5001"/>
</g>
<!-- zcash/halo2#426 -->
<g id="node3" class="node committed">
<title>zcash/halo2#426</title>
<g id="a_node3"><a xlink:href="https://github.com/zcash/halo2/issues/426" xlink:title="zcash/halo2#426&#10;Publish `halo2_proofs&#10;0.1.0`" target="_blank">
<polygon fill="#a6cfff" stroke="#000000" points="445.5,-232.5 272.5,-232.5 272.5,-179.5 445.5,-179.5 445.5,-232.5"/>
<text text-anchor="middle" x="359" y="-217.3" font-family="Times,serif" font-size="14.00" fill="#000000">zcash/halo2#426</text>
<text text-anchor="middle" x="359" y="-202.3" font-family="Times,serif" font-size="14.00" fill="#000000">Publish `halo2_proofs</text>
<text text-anchor="middle" x="359" y="-187.3" font-family="Times,serif" font-size="14.00" fill="#000000">0.1.0`</text>
</a>
</g>
</g>
<!-- zcash/halo2#460 -->
<g id="node4" class="node committed">
<title>zcash/halo2#460</title>
<g id="a_node4"><a xlink:href="https://github.com/zcash/halo2/issues/460" xlink:title="zcash/halo2#460&#10;Publish `halo2_gadgets&#10;v0.1.0`" target="_blank">
<polygon fill="#a6cfff" stroke="#000000" points="683,-310.5 498,-310.5 498,-257.5 683,-257.5 683,-310.5"/>
<text text-anchor="middle" x="590.5" y="-295.3" font-family="Times,serif" font-size="14.00" fill="#000000">zcash/halo2#460</text>
<text text-anchor="middle" x="590.5" y="-280.3" font-family="Times,serif" font-size="14.00" fill="#000000">Publish `halo2_gadgets</text>
<text text-anchor="middle" x="590.5" y="-265.3" font-family="Times,serif" font-size="14.00" fill="#000000">v0.1.0`</text>
</a>
</g>
</g>
<!-- zcash/halo2#426&#45;&gt;zcash/halo2#460 -->
<g id="edge2" class="edge">
<title>zcash/halo2#426&#45;&gt;zcash/halo2#460</title>
<path fill="none" stroke="#000000" d="M437.7,-232.52C458.39,-239.49 480.84,-247.05 502,-254.18"/>
<polygon fill="#000000" stroke="#000000" points="501.0359,-257.5484 511.63,-257.42 503.2682,-250.9138 501.0359,-257.5484"/>
</g>
<!-- zcash/halo2#380 -->
<g id="node5" class="node committed">
<title>zcash/halo2#380</title>
<g id="a_node5"><a xlink:href="https://github.com/zcash/halo2/pull/380" xlink:title="zcash/halo2#380&#10;[book] Fix errors and&#10;typos" target="_blank">
<polygon fill="#a6cfff" stroke="#000000" points="674.5,-232.5 506.5,-232.5 506.5,-228.5 502.5,-228.5 502.5,-224.5 506.5,-224.5 506.5,-187.5 502.5,-187.5 502.5,-183.5 506.5,-183.5 506.5,-179.5 674.5,-179.5 674.5,-232.5"/>
<polyline fill="none" stroke="#000000" points="506.5,-228.5 510.5,-228.5 510.5,-224.5 506.5,-224.5 "/>
<polyline fill="none" stroke="#000000" points="506.5,-187.5 510.5,-187.5 510.5,-183.5 506.5,-183.5 "/>
<text text-anchor="middle" x="590.5" y="-217.3" font-family="Times,serif" font-size="14.00" fill="#000000">zcash/halo2#380</text>
<text text-anchor="middle" x="590.5" y="-202.3" font-family="Times,serif" font-size="14.00" fill="#000000">[book] Fix errors and</text>
<text text-anchor="middle" x="590.5" y="-187.3" font-family="Times,serif" font-size="14.00" fill="#000000">typos</text>
</a>
</g>
</g>
<!-- zcash/halo2#426&#45;&gt;zcash/halo2#380 -->
<g id="edge3" class="edge">
<title>zcash/halo2#426&#45;&gt;zcash/halo2#380</title>
<path fill="none" stroke="#000000" d="M445.53,-206C462.02,-206 479.35,-206 496.06,-206"/>
<polygon fill="#000000" stroke="#000000" points="496.38,-209.5001 506.38,-206 496.38,-202.5001 496.38,-209.5001"/>
</g>
<!-- zcash/halo2#75 -->
<g id="node6" class="node open">
<title>zcash/halo2#75</title>
<g id="a_node6"><a xlink:href="https://github.com/zcash/halo2/issues/75" xlink:title="zcash/halo2#75&#10;Implement support for&#10;recursion" target="_blank">
<polygon fill="#c2e0c6" stroke="#000000" points="1409.5,-557.5 1230.5,-557.5 1230.5,-504.5 1409.5,-504.5 1409.5,-557.5"/>
<text text-anchor="middle" x="1320" y="-542.3" font-family="Times,serif" font-size="14.00" fill="#000000">zcash/halo2#75</text>
<text text-anchor="middle" x="1320" y="-527.3" font-family="Times,serif" font-size="14.00" fill="#000000">Implement support for</text>
<text text-anchor="middle" x="1320" y="-512.3" font-family="Times,serif" font-size="14.00" fill="#000000">recursion</text>
</a>
</g>
</g>
<!-- zcash/halo2#494 -->
<g id="node7" class="node open">
<title>zcash/halo2#494</title>
<g id="a_node7"><a xlink:href="https://github.com/zcash/halo2/issues/494" xlink:title="zcash/halo2#494&#10;Consider adding an API&#10;that enables application&#10;circuits to be built&#10;across both fields" target="_blank">
<polygon fill="#c2e0c6" stroke="#000000" points="1652,-572.5 1463,-572.5 1463,-489.5 1652,-489.5 1652,-572.5"/>
<text text-anchor="middle" x="1557.5" y="-557.3" font-family="Times,serif" font-size="14.00" fill="#000000">zcash/halo2#494</text>
<text text-anchor="middle" x="1557.5" y="-542.3" font-family="Times,serif" font-size="14.00" fill="#000000">Consider adding an API</text>
<text text-anchor="middle" x="1557.5" y="-527.3" font-family="Times,serif" font-size="14.00" fill="#000000">that enables application</text>
<text text-anchor="middle" x="1557.5" y="-512.3" font-family="Times,serif" font-size="14.00" fill="#000000">circuits to be built</text>
<text text-anchor="middle" x="1557.5" y="-497.3" font-family="Times,serif" font-size="14.00" fill="#000000">across both fields</text>
</a>
</g>
</g>
<!-- zcash/halo2#75&#45;&gt;zcash/halo2#494 -->
<g id="edge4" class="edge">
<title>zcash/halo2#75&#45;&gt;zcash/halo2#494</title>
<path fill="none" stroke="#000000" d="M1409.8,-531C1423.7,-531 1438.3,-531 1452.5,-531"/>
<polygon fill="#000000" stroke="#000000" points="1452.8,-534.5001 1462.8,-531 1452.8,-527.5001 1452.8,-534.5001"/>
</g>
<!-- zcash/halo2#79 -->
<g id="node8" class="node open">
<title>zcash/halo2#79</title>
<g id="a_node8"><a xlink:href="https://github.com/zcash/halo2/issues/79" xlink:title="zcash/halo2#79&#10;Migrate Rescue and&#10;Poseidon gadgets to&#10;algebraic hash&#10;abstraction" target="_blank">
<polygon fill="#c2e0c6" stroke="#000000" points="1152.5,-839.5 991.5,-839.5 991.5,-756.5 1152.5,-756.5 1152.5,-839.5"/>
<text text-anchor="middle" x="1072" y="-824.3" font-family="Times,serif" font-size="14.00" fill="#000000">zcash/halo2#79</text>
<text text-anchor="middle" x="1072" y="-809.3" font-family="Times,serif" font-size="14.00" fill="#000000">Migrate Rescue and</text>
<text text-anchor="middle" x="1072" y="-794.3" font-family="Times,serif" font-size="14.00" fill="#000000">Poseidon gadgets to</text>
<text text-anchor="middle" x="1072" y="-779.3" font-family="Times,serif" font-size="14.00" fill="#000000">algebraic hash</text>
<text text-anchor="middle" x="1072" y="-764.3" font-family="Times,serif" font-size="14.00" fill="#000000">abstraction</text>
</a>
</g>
</g>
<!-- zcash/halo2#78 -->
<g id="node9" class="node open">
<title>zcash/halo2#78</title>
<g id="a_node9"><a xlink:href="https://github.com/zcash/halo2/issues/78" xlink:title="zcash/halo2#78&#10;Implement algebraic hash&#10;/ random oracle&#10;abstraction gadget" target="_blank">
<polygon fill="#c2e0c6" stroke="#000000" stroke-width="2" points="930,-832 726,-832 726,-764 930,-764 930,-832"/>
<text text-anchor="middle" x="828" y="-816.8" font-family="Times,serif" font-size="14.00" fill="#000000">zcash/halo2#78</text>
<text text-anchor="middle" x="828" y="-801.8" font-family="Times,serif" font-size="14.00" fill="#000000">Implement algebraic hash</text>
<text text-anchor="middle" x="828" y="-786.8" font-family="Times,serif" font-size="14.00" fill="#000000">/ random oracle</text>
<text text-anchor="middle" x="828" y="-771.8" font-family="Times,serif" font-size="14.00" fill="#000000">abstraction gadget</text>
</a>
</g>
</g>
<!-- zcash/halo2#78&#45;&gt;zcash/halo2#79 -->
<g id="edge5" class="edge">
<title>zcash/halo2#78&#45;&gt;zcash/halo2#79</title>
<path fill="none" stroke="#000000" d="M930.06,-798C947.04,-798 964.55,-798 981.23,-798"/>
<polygon fill="#000000" stroke="#000000" points="981.49,-801.5001 991.49,-798 981.49,-794.5001 981.49,-801.5001"/>
</g>
<!-- zcash/halo2#250 -->
<g id="node10" class="node open">
<title>zcash/halo2#250</title>
<g id="a_node10"><a xlink:href="https://github.com/zcash/halo2/issues/250" xlink:title="zcash/halo2#250&#10;Implement the logic for&#10;the IVC verifier circuit" target="_blank">
<polygon fill="#c2e0c6" stroke="#000000" points="1165,-619.5 979,-619.5 979,-566.5 1165,-566.5 1165,-619.5"/>
<text text-anchor="middle" x="1072" y="-604.3" font-family="Times,serif" font-size="14.00" fill="#000000">zcash/halo2#250</text>
<text text-anchor="middle" x="1072" y="-589.3" font-family="Times,serif" font-size="14.00" fill="#000000">Implement the logic for</text>
<text text-anchor="middle" x="1072" y="-574.3" font-family="Times,serif" font-size="14.00" fill="#000000">the IVC verifier circuit</text>
</a>
</g>
</g>
<!-- zcash/halo2#78&#45;&gt;zcash/halo2#250 -->
<g id="edge6" class="edge">
<title>zcash/halo2#78&#45;&gt;zcash/halo2#250</title>
<path fill="none" stroke="#000000" d="M917.1,-763.99C921.93,-761.17 926.6,-758.17 931,-755 980.13,-719.55 1023.7,-663.85 1049,-627.87"/>
<polygon fill="#000000" stroke="#000000" points="1051.8952,-629.8368 1054.7,-619.62 1046.1361,-625.8578 1051.8952,-629.8368"/>
</g>
<!-- zcash/halo2#250&#45;&gt;zcash/halo2#75 -->
<g id="edge7" class="edge">
<title>zcash/halo2#250&#45;&gt;zcash/halo2#75</title>
<path fill="none" stroke="#000000" d="M1165.1,-569.74C1183.1,-565.22 1202.1,-560.47 1220.4,-555.91"/>
<polygon fill="#000000" stroke="#000000" points="1221.256,-559.3038 1230.1,-553.47 1219.5483,-552.5153 1221.256,-559.3038"/>
</g>
<!-- zcash/halo2#57 -->
<g id="node11" class="node open">
<title>zcash/halo2#57</title>
<g id="a_node11"><a xlink:href="https://github.com/zcash/halo2/issues/57" xlink:title="zcash/halo2#57&#10;Remove unused&#10;fixed_values from&#10;ProvingKey" target="_blank">
<polygon fill="#c2e0c6" stroke="#000000" stroke-width="2" points="184.5,-566 41.5,-566 41.5,-498 184.5,-498 184.5,-566"/>
<text text-anchor="middle" x="113" y="-550.8" font-family="Times,serif" font-size="14.00" fill="#000000">zcash/halo2#57</text>
<text text-anchor="middle" x="113" y="-535.8" font-family="Times,serif" font-size="14.00" fill="#000000">Remove unused</text>
<text text-anchor="middle" x="113" y="-520.8" font-family="Times,serif" font-size="14.00" fill="#000000">fixed_values from</text>
<text text-anchor="middle" x="113" y="-505.8" font-family="Times,serif" font-size="14.00" fill="#000000">ProvingKey</text>
</a>
</g>
</g>
<!-- zcash/halo2#443 -->
<g id="node12" class="node open">
<title>zcash/halo2#443</title>
<g id="a_node12"><a xlink:href="https://github.com/zcash/halo2/issues/443" xlink:title="zcash/halo2#443&#10;implement `read` &amp;&#10;`write` for `halo2::plonk&#10;::ProvingKey`" target="_blank">
<polygon fill="#c2e0c6" stroke="#000000" points="456,-566 262,-566 262,-498 456,-498 456,-566"/>
<text text-anchor="middle" x="359" y="-550.8" font-family="Times,serif" font-size="14.00" fill="#000000">zcash/halo2#443</text>
<text text-anchor="middle" x="359" y="-535.8" font-family="Times,serif" font-size="14.00" fill="#000000">implement `read` &amp;</text>
<text text-anchor="middle" x="359" y="-520.8" font-family="Times,serif" font-size="14.00" fill="#000000">`write` for `halo2::plonk</text>
<text text-anchor="middle" x="359" y="-505.8" font-family="Times,serif" font-size="14.00" fill="#000000">::ProvingKey`</text>
</a>
</g>
</g>
<!-- zcash/halo2#57&#45;&gt;zcash/halo2#443 -->
<g id="edge8" class="edge">
<title>zcash/halo2#57&#45;&gt;zcash/halo2#443</title>
<path fill="none" stroke="#000000" d="M184.81,-532C205.82,-532 229.24,-532 251.93,-532"/>
<polygon fill="#000000" stroke="#000000" points="251.94,-535.5001 261.94,-532 251.94,-528.5001 251.94,-535.5001"/>
</g>
<!-- zcash/halo2#449 -->
<g id="node13" class="node open">
<title>zcash/halo2#449</title>
<g id="a_node13"><a xlink:href="https://github.com/zcash/halo2/issues/449" xlink:title="zcash/halo2#449&#10;Define a stable&#10;serialization format for&#10;`VerifyingKey`" target="_blank">
<polygon fill="#c2e0c6" stroke="#000000" stroke-width="2" points="204,-652 22,-652 22,-584 204,-584 204,-652"/>
<text text-anchor="middle" x="113" y="-636.8" font-family="Times,serif" font-size="14.00" fill="#000000">zcash/halo2#449</text>
<text text-anchor="middle" x="113" y="-621.8" font-family="Times,serif" font-size="14.00" fill="#000000">Define a stable</text>
<text text-anchor="middle" x="113" y="-606.8" font-family="Times,serif" font-size="14.00" fill="#000000">serialization format for</text>
<text text-anchor="middle" x="113" y="-591.8" font-family="Times,serif" font-size="14.00" fill="#000000">`VerifyingKey`</text>
</a>
</g>
</g>
<!-- zcash/halo2#482 -->
<g id="node14" class="node open">
<title>zcash/halo2#482</title>
<g id="a_node14"><a xlink:href="https://github.com/zcash/halo2/issues/482" xlink:title="zcash/halo2#482&#10;Raise MSRV to 1.56.1" target="_blank">
<polygon fill="#c2e0c6" stroke="#000000" stroke-width="2" points="199.5,-708 26.5,-708 26.5,-670 199.5,-670 199.5,-708"/>
<text text-anchor="middle" x="113" y="-692.8" font-family="Times,serif" font-size="14.00" fill="#000000">zcash/halo2#482</text>
<text text-anchor="middle" x="113" y="-677.8" font-family="Times,serif" font-size="14.00" fill="#000000">Raise MSRV to 1.56.1</text>
</a>
</g>
</g>
<!-- zcash/halo2#483 -->
<g id="node15" class="node committed">
<title>zcash/halo2#483</title>
<g id="a_node15"><a xlink:href="https://github.com/zcash/halo2/issues/483" xlink:title="zcash/halo2#483&#10;Refactor variable&#45;base&#10;scalar mul to distinguish&#10;the &quot;base field element&quot;&#10;case" target="_blank">
<polygon fill="#a6cfff" stroke="#000000" stroke-width="2" points="456,-333.5 262,-333.5 262,-250.5 456,-250.5 456,-333.5"/>
<text text-anchor="middle" x="359" y="-318.3" font-family="Times,serif" font-size="14.00" fill="#000000">zcash/halo2#483</text>
<text text-anchor="middle" x="359" y="-303.3" font-family="Times,serif" font-size="14.00" fill="#000000">Refactor variable&#45;base</text>
<text text-anchor="middle" x="359" y="-288.3" font-family="Times,serif" font-size="14.00" fill="#000000">scalar mul to distinguish</text>
<text text-anchor="middle" x="359" y="-273.3" font-family="Times,serif" font-size="14.00" fill="#000000">the &quot;base field element&quot;</text>
<text text-anchor="middle" x="359" y="-258.3" font-family="Times,serif" font-size="14.00" fill="#000000">case</text>
</a>
</g>
</g>
<!-- zcash/halo2#483&#45;&gt;zcash/halo2#460 -->
<g id="edge9" class="edge">
<title>zcash/halo2#483&#45;&gt;zcash/halo2#460</title>
<path fill="none" stroke="#000000" d="M456.17,-288.64C466.47,-288.29 476.97,-287.92 487.34,-287.56"/>
<polygon fill="#000000" stroke="#000000" points="487.7745,-291.0474 497.65,-287.21 487.537,-284.0514 487.7745,-291.0474"/>
</g>
<!-- zcash/halo2#420 -->
<g id="node16" class="node open">
<title>zcash/halo2#420</title>
<g id="a_node16"><a xlink:href="https://github.com/zcash/halo2/issues/420" xlink:title="zcash/halo2#420&#10;CI: Measure memory&#45;usage&#10;benchmarks" target="_blank">
<polygon fill="#c2e0c6" stroke="#000000" stroke-width="2" points="220.5,-779.5 5.5,-779.5 5.5,-726.5 220.5,-726.5 220.5,-779.5"/>
<text text-anchor="middle" x="113" y="-764.3" font-family="Times,serif" font-size="14.00" fill="#000000">zcash/halo2#420</text>
<text text-anchor="middle" x="113" y="-749.3" font-family="Times,serif" font-size="14.00" fill="#000000">CI: Measure memory&#45;usage</text>
<text text-anchor="middle" x="113" y="-734.3" font-family="Times,serif" font-size="14.00" fill="#000000">benchmarks</text>
</a>
</g>
</g>
<!-- zcash/halo2#418 -->
<g id="node17" class="node open">
<title>zcash/halo2#418</title>
<g id="a_node17"><a xlink:href="https://github.com/zcash/halo2/issues/418" xlink:title="zcash/halo2#418&#10;[memory optimization]&#10;lookup prover memory&#10;analysis" target="_blank">
<polygon fill="#c2e0c6" stroke="#000000" points="448.5,-787 269.5,-787 269.5,-719 448.5,-719 448.5,-787"/>
<text text-anchor="middle" x="359" y="-771.8" font-family="Times,serif" font-size="14.00" fill="#000000">zcash/halo2#418</text>
<text text-anchor="middle" x="359" y="-756.8" font-family="Times,serif" font-size="14.00" fill="#000000">[memory optimization]</text>
<text text-anchor="middle" x="359" y="-741.8" font-family="Times,serif" font-size="14.00" fill="#000000">lookup prover memory</text>
<text text-anchor="middle" x="359" y="-726.8" font-family="Times,serif" font-size="14.00" fill="#000000">analysis</text>
</a>
</g>
</g>
<!-- zcash/halo2#420&#45;&gt;zcash/halo2#418 -->
<g id="edge10" class="edge">
<title>zcash/halo2#420&#45;&gt;zcash/halo2#418</title>
<path fill="none" stroke="#000000" d="M220.54,-753C233.4,-753 246.48,-753 259.22,-753"/>
<polygon fill="#000000" stroke="#000000" points="259.35,-756.5001 269.35,-753 259.35,-749.5001 259.35,-756.5001"/>
</g>
<!-- zcash/halo2#427 -->
<g id="node18" class="node open">
<title>zcash/halo2#427</title>
<g id="a_node18"><a xlink:href="https://github.com/zcash/halo2/issues/427" xlink:title="zcash/halo2#427&#10;Use smaller extended&#10;domains where possible&#10;during proving" target="_blank">
<polygon fill="#c2e0c6" stroke="#000000" stroke-width="2" points="207,-866 19,-866 19,-798 207,-798 207,-866"/>
<text text-anchor="middle" x="113" y="-850.8" font-family="Times,serif" font-size="14.00" fill="#000000">zcash/halo2#427</text>
<text text-anchor="middle" x="113" y="-835.8" font-family="Times,serif" font-size="14.00" fill="#000000">Use smaller extended</text>
<text text-anchor="middle" x="113" y="-820.8" font-family="Times,serif" font-size="14.00" fill="#000000">domains where possible</text>
<text text-anchor="middle" x="113" y="-805.8" font-family="Times,serif" font-size="14.00" fill="#000000">during proving</text>
</a>
</g>
</g>
<!-- zcash/halo2#456 -->
<g id="node19" class="node open">
<title>zcash/halo2#456</title>
<g id="a_node19"><a xlink:href="https://github.com/zcash/halo2/issues/456" xlink:title="zcash/halo2#456&#10;Benchmark `sha256`&#10;gadget." target="_blank">
<polygon fill="#c2e0c6" stroke="#000000" stroke-width="2" points="198,-937.5 28,-937.5 28,-884.5 198,-884.5 198,-937.5"/>
<text text-anchor="middle" x="113" y="-922.3" font-family="Times,serif" font-size="14.00" fill="#000000">zcash/halo2#456</text>
<text text-anchor="middle" x="113" y="-907.3" font-family="Times,serif" font-size="14.00" fill="#000000">Benchmark `sha256`</text>
<text text-anchor="middle" x="113" y="-892.3" font-family="Times,serif" font-size="14.00" fill="#000000">gadget.</text>
</a>
</g>
</g>
<!-- zcash/halo2#455 -->
<g id="node20" class="node open">
<title>zcash/halo2#455</title>
<g id="a_node20"><a xlink:href="https://github.com/zcash/halo2/issues/455" xlink:title="zcash/halo2#455&#10;[Book] add description of&#10;Poseidon gadget and chip" target="_blank">
<polygon fill="#c2e0c6" stroke="#000000" stroke-width="2" points="213,-1008.5 13,-1008.5 13,-955.5 213,-955.5 213,-1008.5"/>
<text text-anchor="middle" x="113" y="-993.3" font-family="Times,serif" font-size="14.00" fill="#000000">zcash/halo2#455</text>
<text text-anchor="middle" x="113" y="-978.3" font-family="Times,serif" font-size="14.00" fill="#000000">[Book] add description of</text>
<text text-anchor="middle" x="113" y="-963.3" font-family="Times,serif" font-size="14.00" fill="#000000">Poseidon gadget and chip</text>
</a>
</g>
</g>
<!-- zcash/halo2#251 -->
<g id="node21" class="node open">
<title>zcash/halo2#251</title>
<g id="a_node21"><a xlink:href="https://github.com/zcash/halo2/issues/251" xlink:title="zcash/halo2#251&#10;Implement user&#45;facing API&#10;for recursive proving of&#10;IVC" target="_blank">
<polygon fill="#c2e0c6" stroke="#000000" points="1177,-502 967,-502 967,-434 1177,-434 1177,-502"/>
<text text-anchor="middle" x="1072" y="-486.8" font-family="Times,serif" font-size="14.00" fill="#000000">zcash/halo2#251</text>
<text text-anchor="middle" x="1072" y="-471.8" font-family="Times,serif" font-size="14.00" fill="#000000">Implement user&#45;facing API</text>
<text text-anchor="middle" x="1072" y="-456.8" font-family="Times,serif" font-size="14.00" fill="#000000">for recursive proving of</text>
<text text-anchor="middle" x="1072" y="-441.8" font-family="Times,serif" font-size="14.00" fill="#000000">IVC</text>
</a>
</g>
</g>
<!-- zcash/halo2#251&#45;&gt;zcash/halo2#75 -->
<g id="edge11" class="edge">
<title>zcash/halo2#251&#45;&gt;zcash/halo2#75</title>
<path fill="none" stroke="#000000" d="M1177.2,-494.72C1191.5,-498.37 1206.3,-502.11 1220.5,-505.73"/>
<polygon fill="#000000" stroke="#000000" points="1219.746,-509.1496 1230.3,-508.22 1221.4699,-502.3651 1219.746,-509.1496"/>
</g>
<!-- zcash/halo2#437 -->
<g id="node22" class="node open">
<title>zcash/halo2#437</title>
<g id="a_node22"><a xlink:href="https://github.com/zcash/halo2/issues/437" xlink:title="zcash/halo2#437&#10;Amend user&#45;facing API to&#10;work for both IVC and PCD" target="_blank">
<polygon fill="#c2e0c6" stroke="#000000" points="1427,-463.5 1213,-463.5 1213,-410.5 1427,-410.5 1427,-463.5"/>
<text text-anchor="middle" x="1320" y="-448.3" font-family="Times,serif" font-size="14.00" fill="#000000">zcash/halo2#437</text>
<text text-anchor="middle" x="1320" y="-433.3" font-family="Times,serif" font-size="14.00" fill="#000000">Amend user&#45;facing API to</text>
<text text-anchor="middle" x="1320" y="-418.3" font-family="Times,serif" font-size="14.00" fill="#000000">work for both IVC and PCD</text>
</a>
</g>
</g>
<!-- zcash/halo2#251&#45;&gt;zcash/halo2#437 -->
<g id="edge12" class="edge">
<title>zcash/halo2#251&#45;&gt;zcash/halo2#437</title>
<path fill="none" stroke="#000000" d="M1177.2,-454.85C1185.6,-453.8 1194.2,-452.73 1202.7,-451.66"/>
<polygon fill="#000000" stroke="#000000" points="1203.2114,-455.1234 1212.7,-450.41 1202.3431,-448.1775 1203.2114,-455.1234"/>
</g>
<!-- zcash/halo2#436 -->
<g id="node23" class="node open">
<title>zcash/halo2#436</title>
<g id="a_node23"><a xlink:href="https://github.com/zcash/halo2/issues/436" xlink:title="zcash/halo2#436&#10;Implement mock&#10;verification circuit for&#10;PCD" target="_blank">
<polygon fill="#c2e0c6" stroke="#000000" points="678,-404 503,-404 503,-336 678,-336 678,-404"/>
<text text-anchor="middle" x="590.5" y="-388.8" font-family="Times,serif" font-size="14.00" fill="#000000">zcash/halo2#436</text>
<text text-anchor="middle" x="590.5" y="-373.8" font-family="Times,serif" font-size="14.00" fill="#000000">Implement mock</text>
<text text-anchor="middle" x="590.5" y="-358.8" font-family="Times,serif" font-size="14.00" fill="#000000">verification circuit for</text>
<text text-anchor="middle" x="590.5" y="-343.8" font-family="Times,serif" font-size="14.00" fill="#000000">PCD</text>
</a>
</g>
</g>
<!-- zcash/halo2#436&#45;&gt;zcash/halo2#437 -->
<g id="edge13" class="edge">
<title>zcash/halo2#436&#45;&gt;zcash/halo2#437</title>
<path fill="none" stroke="#000000" d="M678.36,-380.87C693.89,-382.67 709.91,-384.46 725,-386 771.08,-390.71 1042.8,-413.7 1202.6,-427.15"/>
<polygon fill="#000000" stroke="#000000" points="1202.743,-430.6741 1213,-428.02 1203.3266,-423.6985 1202.743,-430.6741"/>
</g>
<!-- zcash/halo2#438 -->
<g id="node24" class="node open">
<title>zcash/halo2#438</title>
<g id="a_node24"><a xlink:href="https://github.com/zcash/halo2/issues/438" xlink:title="zcash/halo2#438&#10;Implement the logic for&#10;the PCD verifier circuit" target="_blank">
<polygon fill="#c2e0c6" stroke="#000000" points="921,-377.5 735,-377.5 735,-324.5 921,-324.5 921,-377.5"/>
<text text-anchor="middle" x="828" y="-362.3" font-family="Times,serif" font-size="14.00" fill="#000000">zcash/halo2#438</text>
<text text-anchor="middle" x="828" y="-347.3" font-family="Times,serif" font-size="14.00" fill="#000000">Implement the logic for</text>
<text text-anchor="middle" x="828" y="-332.3" font-family="Times,serif" font-size="14.00" fill="#000000">the PCD verifier circuit</text>
</a>
</g>
</g>
<!-- zcash/halo2#436&#45;&gt;zcash/halo2#438 -->
<g id="edge14" class="edge">
<title>zcash/halo2#436&#45;&gt;zcash/halo2#438</title>
<path fill="none" stroke="#000000" d="M678.26,-362.98C693.33,-361.77 709.11,-360.51 724.54,-359.28"/>
<polygon fill="#000000" stroke="#000000" points="724.9325,-362.7598 734.62,-358.47 724.3718,-355.7823 724.9325,-362.7598"/>
</g>
<!-- zcash/halo2#435 -->
<g id="node25" class="node open">
<title>zcash/halo2#435</title>
<g id="a_node25"><a xlink:href="https://github.com/zcash/halo2/issues/435" xlink:title="zcash/halo2#435&#10;Implement mock&#10;verification circuit for&#10;IVC" target="_blank">
<polygon fill="#c2e0c6" stroke="#000000" points="678,-562 503,-562 503,-494 678,-494 678,-562"/>
<text text-anchor="middle" x="590.5" y="-546.8" font-family="Times,serif" font-size="14.00" fill="#000000">zcash/halo2#435</text>
<text text-anchor="middle" x="590.5" y="-531.8" font-family="Times,serif" font-size="14.00" fill="#000000">Implement mock</text>
<text text-anchor="middle" x="590.5" y="-516.8" font-family="Times,serif" font-size="14.00" fill="#000000">verification circuit for</text>
<text text-anchor="middle" x="590.5" y="-501.8" font-family="Times,serif" font-size="14.00" fill="#000000">IVC</text>
</a>
</g>
</g>
<!-- zcash/halo2#247 -->
<g id="node26" class="node open">
<title>zcash/halo2#247</title>
<g id="a_node26"><a xlink:href="https://github.com/zcash/halo2/issues/247" xlink:title="zcash/halo2#247&#10;Implement underlying&#10;scaffolding for creating&#10;the IVC proof cycle" target="_blank">
<polygon fill="#c2e0c6" stroke="#000000" points="920.5,-502 735.5,-502 735.5,-434 920.5,-434 920.5,-502"/>
<text text-anchor="middle" x="828" y="-486.8" font-family="Times,serif" font-size="14.00" fill="#000000">zcash/halo2#247</text>
<text text-anchor="middle" x="828" y="-471.8" font-family="Times,serif" font-size="14.00" fill="#000000">Implement underlying</text>
<text text-anchor="middle" x="828" y="-456.8" font-family="Times,serif" font-size="14.00" fill="#000000">scaffolding for creating</text>
<text text-anchor="middle" x="828" y="-441.8" font-family="Times,serif" font-size="14.00" fill="#000000">the IVC proof cycle</text>
</a>
</g>
</g>
<!-- zcash/halo2#435&#45;&gt;zcash/halo2#247 -->
<g id="edge15" class="edge">
<title>zcash/halo2#435&#45;&gt;zcash/halo2#247</title>
<path fill="none" stroke="#000000" d="M678.26,-505.83C693.69,-501.93 709.87,-497.84 725.66,-493.86"/>
<polygon fill="#000000" stroke="#000000" points="726.5843,-497.2365 735.42,-491.39 724.8669,-490.4504 726.5843,-497.2365"/>
</g>
<!-- zcash/halo2#247&#45;&gt;zcash/halo2#250 -->
<g id="edge16" class="edge">
<title>zcash/halo2#247&#45;&gt;zcash/halo2#250</title>
<path fill="none" stroke="#000000" d="M912.17,-502.06C918.59,-504.99 924.93,-507.98 931,-511 961.53,-526.17 994.53,-545.21 1020.9,-561.12"/>
<polygon fill="#000000" stroke="#000000" points="1019.2316,-564.2012 1029.6,-566.38 1022.8533,-558.211 1019.2316,-564.2012"/>
</g>
<!-- zcash/halo2#247&#45;&gt;zcash/halo2#251 -->
<g id="edge17" class="edge">
<title>zcash/halo2#247&#45;&gt;zcash/halo2#251</title>
<path fill="none" stroke="#000000" d="M920.59,-468C932.39,-468 944.58,-468 956.68,-468"/>
<polygon fill="#000000" stroke="#000000" points="956.81,-471.5001 966.81,-468 956.81,-464.5001 956.81,-471.5001"/>
</g>
<!-- zcash/halo2#246 -->
<g id="node27" class="node open">
<title>zcash/halo2#246</title>
<g id="a_node27"><a xlink:href="https://github.com/zcash/halo2/issues/246" xlink:title="zcash/halo2#246&#10;Create recursive proof&#10;structures" target="_blank">
<polygon fill="#c2e0c6" stroke="#000000" points="448.5,-479.5 269.5,-479.5 269.5,-426.5 448.5,-426.5 448.5,-479.5"/>
<text text-anchor="middle" x="359" y="-464.3" font-family="Times,serif" font-size="14.00" fill="#000000">zcash/halo2#246</text>
<text text-anchor="middle" x="359" y="-449.3" font-family="Times,serif" font-size="14.00" fill="#000000">Create recursive proof</text>
<text text-anchor="middle" x="359" y="-434.3" font-family="Times,serif" font-size="14.00" fill="#000000">structures</text>
</a>
</g>
</g>
<!-- zcash/halo2#246&#45;&gt;zcash/halo2#436 -->
<g id="edge18" class="edge">
<title>zcash/halo2#246&#45;&gt;zcash/halo2#436</title>
<path fill="none" stroke="#000000" d="M433.2,-426.4C452.38,-419.52 473.32,-412.01 493.48,-404.79"/>
<polygon fill="#000000" stroke="#000000" points="494.7504,-408.0527 502.98,-401.38 492.3855,-401.4643 494.7504,-408.0527"/>
</g>
<!-- zcash/halo2#246&#45;&gt;zcash/halo2#435 -->
<g id="edge19" class="edge">
<title>zcash/halo2#246&#45;&gt;zcash/halo2#435</title>
<path fill="none" stroke="#000000" d="M440.94,-479.55C457.84,-485.02 475.8,-490.84 493.19,-496.47"/>
<polygon fill="#000000" stroke="#000000" points="492.1779,-499.8212 502.77,-499.58 494.3394,-493.1632 492.1779,-499.8212"/>
</g>
<!-- zcash/halo2#439 -->
<g id="node28" class="node open">
<title>zcash/halo2#439</title>
<g id="a_node28"><a xlink:href="https://github.com/zcash/halo2/issues/439" xlink:title="zcash/halo2#439&#10;Support split&#10;accumulation in Halo 2" target="_blank">
<polygon fill="#c2e0c6" stroke="#000000" stroke-width="2" points="204.5,-479.5 21.5,-479.5 21.5,-426.5 204.5,-426.5 204.5,-479.5"/>
<text text-anchor="middle" x="113" y="-464.3" font-family="Times,serif" font-size="14.00" fill="#000000">zcash/halo2#439</text>
<text text-anchor="middle" x="113" y="-449.3" font-family="Times,serif" font-size="14.00" fill="#000000">Support split</text>
<text text-anchor="middle" x="113" y="-434.3" font-family="Times,serif" font-size="14.00" fill="#000000">accumulation in Halo 2</text>
</a>
</g>
</g>
<!-- zcash/halo2#439&#45;&gt;zcash/halo2#246 -->
<g id="edge20" class="edge">
<title>zcash/halo2#439&#45;&gt;zcash/halo2#246</title>
<path fill="none" stroke="#000000" d="M204.6,-453C222.38,-453 241.1,-453 259.14,-453"/>
<polygon fill="#000000" stroke="#000000" points="259.37,-456.5001 269.37,-453 259.37,-449.5001 259.37,-456.5001"/>
</g>
<!-- zcash/halo2#359 -->
<g id="node29" class="node open">
<title>zcash/halo2#359</title>
<g id="a_node29"><a xlink:href="https://github.com/zcash/halo2/issues/359" xlink:title="zcash/halo2#359&#10;Set up `BaseTranscript`,&#10;`ScalarTranscript`" target="_blank">
<polygon fill="#c2e0c6" stroke="#000000" stroke-width="2" points="689,-475.5 492,-475.5 492,-422.5 689,-422.5 689,-475.5"/>
<text text-anchor="middle" x="590.5" y="-460.3" font-family="Times,serif" font-size="14.00" fill="#000000">zcash/halo2#359</text>
<text text-anchor="middle" x="590.5" y="-445.3" font-family="Times,serif" font-size="14.00" fill="#000000">Set up `BaseTranscript`,</text>
<text text-anchor="middle" x="590.5" y="-430.3" font-family="Times,serif" font-size="14.00" fill="#000000">`ScalarTranscript`</text>
</a>
</g>
</g>
<!-- zcash/halo2#359&#45;&gt;zcash/halo2#247 -->
<g id="edge21" class="edge">
<title>zcash/halo2#359&#45;&gt;zcash/halo2#247</title>
<path fill="none" stroke="#000000" d="M689.16,-456.89C701.11,-457.85 713.33,-458.83 725.34,-459.79"/>
<polygon fill="#000000" stroke="#000000" points="725.1131,-463.2829 735.36,-460.59 725.6703,-456.3051 725.1131,-463.2829"/>
</g>
<!-- zcash/halo2#249 -->
<g id="node30" class="node open">
<title>zcash/halo2#249</title>
<g id="a_node30"><a xlink:href="https://github.com/zcash/halo2/issues/249" xlink:title="zcash/halo2#249&#10;Implement recursion&#10;circuit logic for&#10;handling public inputs" target="_blank">
<polygon fill="#c2e0c6" stroke="#000000" stroke-width="2" points="916.5,-746 739.5,-746 739.5,-678 916.5,-678 916.5,-746"/>
<text text-anchor="middle" x="828" y="-730.8" font-family="Times,serif" font-size="14.00" fill="#000000">zcash/halo2#249</text>
<text text-anchor="middle" x="828" y="-715.8" font-family="Times,serif" font-size="14.00" fill="#000000">Implement recursion</text>
<text text-anchor="middle" x="828" y="-700.8" font-family="Times,serif" font-size="14.00" fill="#000000">circuit logic for</text>
<text text-anchor="middle" x="828" y="-685.8" font-family="Times,serif" font-size="14.00" fill="#000000">handling public inputs</text>
</a>
</g>
</g>
<!-- zcash/halo2#249&#45;&gt;zcash/halo2#250 -->
<g id="edge22" class="edge">
<title>zcash/halo2#249&#45;&gt;zcash/halo2#250</title>
<path fill="none" stroke="#000000" d="M909.53,-677.93C916.83,-674.65 924.07,-671.32 931,-668 959.3,-654.46 990.13,-638.23 1015.7,-624.34"/>
<polygon fill="#000000" stroke="#000000" points="1017.397,-627.4012 1024.5,-619.54 1014.045,-621.2559 1017.397,-627.4012"/>
</g>
<!-- zcash/halo2#398 -->
<g id="node31" class="node committed">
<title>zcash/halo2#398</title>
<g id="a_node31"><a xlink:href="https://github.com/zcash/halo2/issues/398" xlink:title="zcash/halo2#398&#10;[MockProver] Testing is&#10;slower after #389" target="_blank">
<polygon fill="#a6cfff" stroke="#000000" stroke-width="2" points="207.5,-311.5 18.5,-311.5 18.5,-258.5 207.5,-258.5 207.5,-311.5"/>
<text text-anchor="middle" x="113" y="-296.3" font-family="Times,serif" font-size="14.00" fill="#000000">zcash/halo2#398</text>
<text text-anchor="middle" x="113" y="-281.3" font-family="Times,serif" font-size="14.00" fill="#000000">[MockProver] Testing is</text>
<text text-anchor="middle" x="113" y="-266.3" font-family="Times,serif" font-size="14.00" fill="#000000">slower after #389</text>
</a>
</g>
</g>
<!-- zcash/halo2#398&#45;&gt;zcash/halo2#426 -->
<g id="edge23" class="edge">
<title>zcash/halo2#398&#45;&gt;zcash/halo2#426</title>
<path fill="none" stroke="#000000" d="M196.32,-258.5C206.32,-255.3 216.39,-252.08 226,-249 239.42,-244.69 253.6,-240.12 267.51,-235.64"/>
<polygon fill="#000000" stroke="#000000" points="268.6312,-238.956 277.07,-232.55 266.4782,-232.2953 268.6312,-238.956"/>
</g>
<!-- zcash/halo2#477 -->
<g id="node32" class="node committed">
<title>zcash/halo2#477</title>
<g id="a_node32"><a xlink:href="https://github.com/zcash/halo2/issues/477" xlink:title="zcash/halo2#477&#10;Add a helper for checking&#10;`MockProver::verify`&#10;results" target="_blank">
<polygon fill="#a6cfff" stroke="#000000" stroke-width="2" points="214.5,-240 11.5,-240 11.5,-172 214.5,-172 214.5,-240"/>
<text text-anchor="middle" x="113" y="-224.8" font-family="Times,serif" font-size="14.00" fill="#000000">zcash/halo2#477</text>
<text text-anchor="middle" x="113" y="-209.8" font-family="Times,serif" font-size="14.00" fill="#000000">Add a helper for checking</text>
<text text-anchor="middle" x="113" y="-194.8" font-family="Times,serif" font-size="14.00" fill="#000000">`MockProver::verify`</text>
<text text-anchor="middle" x="113" y="-179.8" font-family="Times,serif" font-size="14.00" fill="#000000">results</text>
</a>
</g>
</g>
<!-- zcash/halo2#477&#45;&gt;zcash/halo2#426 -->
<g id="edge24" class="edge">
<title>zcash/halo2#477&#45;&gt;zcash/halo2#426</title>
<path fill="none" stroke="#000000" d="M214.83,-206C230.45,-206 246.53,-206 262.03,-206"/>
<polygon fill="#000000" stroke="#000000" points="262.13,-209.5001 272.13,-206 262.13,-202.5001 262.13,-209.5001"/>
</g>
<!-- zcash/halo2#548 -->
<g id="node33" class="node committed">
<title>zcash/halo2#548</title>
<g id="a_node33"><a xlink:href="https://github.com/zcash/halo2/issues/548" xlink:title="zcash/halo2#548&#10;Find performance and&#10;memory optimizations for&#10;halo2_proofs 0.1.0" target="_blank">
<polygon fill="#a6cfff" stroke="#000000" stroke-width="2" points="213.5,-154 12.5,-154 12.5,-86 213.5,-86 213.5,-154"/>
<text text-anchor="middle" x="113" y="-138.8" font-family="Times,serif" font-size="14.00" fill="#000000">zcash/halo2#548</text>
<text text-anchor="middle" x="113" y="-123.8" font-family="Times,serif" font-size="14.00" fill="#000000">Find performance and</text>
<text text-anchor="middle" x="113" y="-108.8" font-family="Times,serif" font-size="14.00" fill="#000000">memory optimizations for</text>
<text text-anchor="middle" x="113" y="-93.8" font-family="Times,serif" font-size="14.00" fill="#000000">halo2_proofs 0.1.0</text>
</a>
</g>
</g>
<!-- zcash/halo2#548&#45;&gt;zcash/halo2#426 -->
<g id="edge25" class="edge">
<title>zcash/halo2#548&#45;&gt;zcash/halo2#426</title>
<path fill="none" stroke="#000000" d="M210.58,-154.11C231.42,-161.4 253.29,-169.04 273.63,-176.16"/>
<polygon fill="#000000" stroke="#000000" points="272.5752,-179.4988 283.17,-179.49 274.8821,-172.8899 272.5752,-179.4988"/>
</g>
<!-- zcash/halo2#466 -->
<g id="node34" class="node committed">
<title>zcash/halo2#466</title>
<g id="a_node34"><a xlink:href="https://github.com/zcash/halo2/issues/466" xlink:title="zcash/halo2#466&#10;[Book] Document the&#10;selector combining&#10;optimization" target="_blank">
<polygon fill="#a6cfff" stroke="#000000" stroke-width="2" points="197.5,-1095 28.5,-1095 28.5,-1027 197.5,-1027 197.5,-1095"/>
<text text-anchor="middle" x="113" y="-1079.8" font-family="Times,serif" font-size="14.00" fill="#000000">zcash/halo2#466</text>
<text text-anchor="middle" x="113" y="-1064.8" font-family="Times,serif" font-size="14.00" fill="#000000">[Book] Document the</text>
<text text-anchor="middle" x="113" y="-1049.8" font-family="Times,serif" font-size="14.00" fill="#000000">selector combining</text>
<text text-anchor="middle" x="113" y="-1034.8" font-family="Times,serif" font-size="14.00" fill="#000000">optimization</text>
</a>
</g>
</g>
<!-- zcash/halo2#248 -->
<g id="node35" class="node open">
<title>zcash/halo2#248</title>
<g id="a_node35"><a xlink:href="https://github.com/zcash/halo2/issues/248" xlink:title="zcash/halo2#248&#10;Implement endoscaling in&#10;the circuit" target="_blank">
<polygon fill="#c2e0c6" stroke="#000000" stroke-width="2" points="929.5,-659.5 726.5,-659.5 726.5,-606.5 929.5,-606.5 929.5,-659.5"/>
<text text-anchor="middle" x="828" y="-644.3" font-family="Times,serif" font-size="14.00" fill="#000000">zcash/halo2#248</text>
<text text-anchor="middle" x="828" y="-629.3" font-family="Times,serif" font-size="14.00" fill="#000000">Implement endoscaling in</text>
<text text-anchor="middle" x="828" y="-614.3" font-family="Times,serif" font-size="14.00" fill="#000000">the circuit</text>
</a>
</g>
</g>
<!-- zcash/halo2#248&#45;&gt;zcash/halo2#250 -->
<g id="edge26" class="edge">
<title>zcash/halo2#248&#45;&gt;zcash/halo2#250</title>
<path fill="none" stroke="#000000" d="M929.71,-616.33C942.51,-614.23 955.61,-612.08 968.43,-609.98"/>
<polygon fill="#000000" stroke="#000000" points="969.341,-613.3773 978.64,-608.3 968.2044,-606.4701 969.341,-613.3773"/>
</g>
<!-- zcash/halo2#245 -->
<g id="node36" class="node open">
<title>zcash/halo2#245</title>
<g id="a_node36"><a xlink:href="https://github.com/zcash/halo2/issues/245" xlink:title="zcash/halo2#245&#10;Remove the need to&#10;multiply by powers of x^n&#10;in verifier" target="_blank">
<polygon fill="#c2e0c6" stroke="#000000" stroke-width="2" points="931,-588 725,-588 725,-520 931,-520 931,-588"/>
<text text-anchor="middle" x="828" y="-572.8" font-family="Times,serif" font-size="14.00" fill="#000000">zcash/halo2#245</text>
<text text-anchor="middle" x="828" y="-557.8" font-family="Times,serif" font-size="14.00" fill="#000000">Remove the need to</text>
<text text-anchor="middle" x="828" y="-542.8" font-family="Times,serif" font-size="14.00" fill="#000000">multiply by powers of x^n</text>
<text text-anchor="middle" x="828" y="-527.8" font-family="Times,serif" font-size="14.00" fill="#000000">in verifier</text>
</a>
</g>
</g>
<!-- zcash/halo2#245&#45;&gt;zcash/halo2#250 -->
<g id="edge27" class="edge">
<title>zcash/halo2#245&#45;&gt;zcash/halo2#250</title>
<path fill="none" stroke="#000000" d="M931.12,-570.48C943.65,-572.48 956.44,-574.53 968.96,-576.53"/>
<polygon fill="#000000" stroke="#000000" points="968.5036,-580.0014 978.93,-578.12 969.606,-573.0887 968.5036,-580.0014"/>
</g>
<!-- zcash/halo2#312 -->
<g id="node37" class="node open">
<title>zcash/halo2#312</title>
<g id="a_node37"><a xlink:href="https://github.com/zcash/halo2/issues/312" xlink:title="zcash/halo2#312&#10;[Book] Document gadget&#10;API" target="_blank">
<polygon fill="#c2e0c6" stroke="#000000" stroke-width="2" points="210.5,-1166.5 15.5,-1166.5 15.5,-1113.5 210.5,-1113.5 210.5,-1166.5"/>
<text text-anchor="middle" x="113" y="-1151.3" font-family="Times,serif" font-size="14.00" fill="#000000">zcash/halo2#312</text>
<text text-anchor="middle" x="113" y="-1136.3" font-family="Times,serif" font-size="14.00" fill="#000000">[Book] Document gadget</text>
<text text-anchor="middle" x="113" y="-1121.3" font-family="Times,serif" font-size="14.00" fill="#000000">API</text>
</a>
</g>
</g>
<!-- zcash/pasta_curves#23 -->
<g id="node38" class="node open">
<title>zcash/pasta_curves#23</title>
<g id="a_node38"><a xlink:href="https://github.com/zcash/pasta_curves/pull/23" xlink:title="zcash/pasta_curves#23&#10;Ensure that GitHub&#39;s&#10;&quot;View license&quot; link&#10;points to complete&#10;license information" target="_blank">
<polygon fill="#c2e0c6" stroke="#000000" stroke-width="2" points="206,-1267.5 20,-1267.5 20,-1263.5 16,-1263.5 16,-1259.5 20,-1259.5 20,-1192.5 16,-1192.5 16,-1188.5 20,-1188.5 20,-1184.5 206,-1184.5 206,-1267.5"/>
<polyline fill="none" stroke="#000000" stroke-width="2" points="20,-1263.5 24,-1263.5 24,-1259.5 20,-1259.5 "/>
<polyline fill="none" stroke="#000000" stroke-width="2" points="20,-1192.5 24,-1192.5 24,-1188.5 20,-1188.5 "/>
<text text-anchor="middle" x="113" y="-1252.3" font-family="Times,serif" font-size="14.00" fill="#000000">zcash/pasta_curves#23</text>
<text text-anchor="middle" x="113" y="-1237.3" font-family="Times,serif" font-size="14.00" fill="#000000">Ensure that GitHub&#39;s</text>
<text text-anchor="middle" x="113" y="-1222.3" font-family="Times,serif" font-size="14.00" fill="#000000">&quot;View license&quot; link</text>
<text text-anchor="middle" x="113" y="-1207.3" font-family="Times,serif" font-size="14.00" fill="#000000">points to complete</text>
<text text-anchor="middle" x="113" y="-1192.3" font-family="Times,serif" font-size="14.00" fill="#000000">license information</text>
</a>
</g>
</g>
</g>
</svg>
