<?xml version="1.0" encoding="UTF-8" standalone="no"?>
<?xml-stylesheet href="zcash-dag.css" type="text/css"?>
<!DOCTYPE svg PUBLIC "-//W3C//DTD SVG 1.1//EN"
 "http://www.w3.org/Graphics/SVG/1.1/DTD/svg11.dtd">
<!-- Generated by graphviz version 2.43.0 (0)
 -->
<!-- Pages: 1 -->
<svg width="683pt" height="286pt"
 viewBox="0.00 0.00 683.00 286.00" xmlns="http://www.w3.org/2000/svg" xmlns:xlink="http://www.w3.org/1999/xlink">
<g id="graph0" class="graph" transform="scale(1 1) rotate(0) translate(4 282)">
<polygon fill="white" stroke="transparent" points="-4,4 -4,-282 679,-282 679,4 -4,4"/>
<!-- zcash/zcash#2718 -->
<g id="node1" class="node open">
<title>zcash/zcash#2718</title>
<g id="a_node1"><a xlink:href="https://github.com/zcash/zcash/issues/2718" xlink:title="zcash/zcash#2718&#10;Commit to an absolute&#10;minimum time before which&#10;any kind of address&#10;withdrawal" target="_blank">
<polygon fill="#c2e0c6" stroke="black" stroke-width="2" points="218,-278 0,-278 0,-195 218,-195 218,-278"/>
<text text-anchor="middle" x="109" y="-262.8" font-family="Times,serif" font-size="14.00">zcash/zcash#2718</text>
<text text-anchor="middle" x="109" y="-247.8" font-family="Times,serif" font-size="14.00">Commit to an absolute</text>
<text text-anchor="middle" x="109" y="-232.8" font-family="Times,serif" font-size="14.00">minimum time before which</text>
<text text-anchor="middle" x="109" y="-217.8" font-family="Times,serif" font-size="14.00">any kind of address</text>
<text text-anchor="middle" x="109" y="-202.8" font-family="Times,serif" font-size="14.00">withdrawal</text>
</a>
</g>
</g>
<!-- zcash/zcash#3788 -->
<g id="node2" class="node open">
<title>zcash/zcash#3788</title>
<g id="a_node2"><a xlink:href="https://github.com/zcash/zcash/issues/3788" xlink:title="zcash/zcash#3788&#10;Sprout Deprecation&#10;roadmap" target="_blank">
<polygon fill="#c2e0c6" stroke="black" points="432.5,-241 275.5,-241 275.5,-188 432.5,-188 432.5,-241"/>
<text text-anchor="middle" x="354" y="-225.8" font-family="Times,serif" font-size="14.00">zcash/zcash#3788</text>
<text text-anchor="middle" x="354" y="-210.8" font-family="Times,serif" font-size="14.00">Sprout Deprecation</text>
<text text-anchor="middle" x="354" y="-195.8" font-family="Times,serif" font-size="14.00">roadmap</text>
</a>
</g>
</g>
<!-- zcash/zcash#2718&#45;&gt;zcash/zcash#3788 -->
<g id="edge1" class="edge">
<title>zcash/zcash#2718&#45;&gt;zcash/zcash#3788</title>
<path fill="none" stroke="black" d="M218.35,-226.69C233.98,-225.28 249.91,-223.83 265.07,-222.46"/>
<polygon fill="black" stroke="black" points="265.8,-225.91 275.44,-221.52 265.16,-218.94 265.8,-225.91"/>
</g>
<!-- zcash/zcash#4202 -->
<g id="node3" class="node open">
<title>zcash/zcash#4202</title>
<g id="a_node3"><a xlink:href="https://github.com/zcash/zcash/issues/4202" xlink:title="zcash/zcash#4202&#10;Sprout Pool Retirement" target="_blank">
<polygon fill="#c2e0c6" stroke="black" points="675,-154.5 672,-158.5 651,-158.5 648,-154.5 490,-154.5 490,-116.5 675,-116.5 675,-154.5"/>
<text text-anchor="middle" x="582.5" y="-139.3" font-family="Times,serif" font-size="14.00">zcash/zcash#4202</text>
<text text-anchor="middle" x="582.5" y="-124.3" font-family="Times,serif" font-size="14.00">Sprout Pool Retirement</text>
</a>
</g>
</g>
<!-- zcash/zcash#3788&#45;&gt;zcash/zcash#4202 -->
<g id="edge2" class="edge">
<title>zcash/zcash#3788&#45;&gt;zcash/zcash#4202</title>
<path fill="none" stroke="black" d="M431.05,-187.97C458.98,-178.23 490.3,-167.31 517.11,-157.96"/>
<polygon fill="black" stroke="black" points="518.48,-161.19 526.77,-154.59 516.18,-154.58 518.48,-161.19"/>
</g>
<!-- zcash/zips#825 -->
<g id="node4" class="node open">
<title>zcash/zips#825</title>
<g id="a_node4"><a xlink:href="https://github.com/zcash/zips/issues/825" xlink:title="zcash/zips#825&#10;Proposal to disallow v4&#10;transactions and move all&#10;Sprout funds to the ZSF&#10;in NU7" target="_blank">
<polygon fill="#c2e0c6" stroke="black" stroke-width="2" points="209,-177 9,-177 9,-94 209,-94 209,-177"/>
<text text-anchor="middle" x="109" y="-161.8" font-family="Times,serif" font-size="14.00">zcash/zips#825</text>
<text text-anchor="middle" x="109" y="-146.8" font-family="Times,serif" font-size="14.00">Proposal to disallow v4</text>
<text text-anchor="middle" x="109" y="-131.8" font-family="Times,serif" font-size="14.00">transactions and move all</text>
<text text-anchor="middle" x="109" y="-116.8" font-family="Times,serif" font-size="14.00">Sprout funds to the ZSF</text>
<text text-anchor="middle" x="109" y="-101.8" font-family="Times,serif" font-size="14.00">in NU7</text>
</a>
</g>
</g>
<!-- zcash/zips#825&#45;&gt;zcash/zcash#3788 -->
<g id="edge3" class="edge">
<title>zcash/zips#825&#45;&gt;zcash/zcash#3788</title>
<path fill="none" stroke="black" d="M209.19,-167.75C227.88,-173.82 247.29,-180.13 265.59,-186.08"/>
<polygon fill="black" stroke="black" points="264.75,-189.49 275.34,-189.25 266.91,-182.83 264.75,-189.49"/>
</g>
<!-- zcash/zips#452 -->
<g id="node5" class="node open">
<title>zcash/zips#452</title>
<g id="a_node5"><a xlink:href="https://github.com/zcash/zips/issues/452" xlink:title="zcash/zips#452&#10;Develop one or more Pool&#10;Lifecycle proposals to&#10;become ZIPs." target="_blank">
<polygon fill="#c2e0c6" stroke="black" points="454,-169.5 254,-169.5 254,-101.5 454,-101.5 454,-169.5"/>
<text text-anchor="middle" x="354" y="-154.3" font-family="Times,serif" font-size="14.00">zcash/zips#452</text>
<text text-anchor="middle" x="354" y="-139.3" font-family="Times,serif" font-size="14.00">Develop one or more Pool</text>
<text text-anchor="middle" x="354" y="-124.3" font-family="Times,serif" font-size="14.00">Lifecycle proposals to</text>
<text text-anchor="middle" x="354" y="-109.3" font-family="Times,serif" font-size="14.00">become ZIPs.</text>
</a>
</g>
</g>
<!-- zcash/zips#825&#45;&gt;zcash/zips#452 -->
<g id="edge4" class="edge">
<title>zcash/zips#825&#45;&gt;zcash/zips#452</title>
<path fill="none" stroke="black" d="M209.19,-135.5C220.56,-135.5 232.19,-135.5 243.69,-135.5"/>
<polygon fill="black" stroke="black" points="243.74,-139 253.74,-135.5 243.74,-132 243.74,-139"/>
</g>
<!-- zcash/zips#452&#45;&gt;zcash/zcash#4202 -->
<g id="edge5" class="edge">
<title>zcash/zips#452&#45;&gt;zcash/zcash#4202</title>
<path fill="none" stroke="black" d="M454.02,-135.5C462.57,-135.5 471.24,-135.5 479.82,-135.5"/>
<polygon fill="black" stroke="black" points="479.83,-139 489.83,-135.5 479.83,-132 479.83,-139"/>
</g>
<!-- zcash/zcash#3787 -->
<g id="node6" class="node open">
<title>zcash/zcash#3787</title>
<g id="a_node6"><a xlink:href="https://github.com/zcash/zcash/issues/3787" xlink:title="zcash/zcash#3787&#10;Deprecate the Sprout&#10;value pool by moving&#10;remaining funds to a&#10;permissioned faucet" target="_blank">
<polygon fill="#c2e0c6" stroke="black" stroke-width="2" points="439.5,-83 268.5,-83 268.5,0 439.5,0 439.5,-83"/>
<text text-anchor="middle" x="354" y="-67.8" font-family="Times,serif" font-size="14.00">zcash/zcash#3787</text>
<text text-anchor="middle" x="354" y="-52.8" font-family="Times,serif" font-size="14.00">Deprecate the Sprout</text>
<text text-anchor="middle" x="354" y="-37.8" font-family="Times,serif" font-size="14.00">value pool by moving</text>
<text text-anchor="middle" x="354" y="-22.8" font-family="Times,serif" font-size="14.00">remaining funds to a</text>
<text text-anchor="middle" x="354" y="-7.8" font-family="Times,serif" font-size="14.00">permissioned faucet</text>
</a>
</g>
</g>
<!-- zcash/zcash#3787&#45;&gt;zcash/zcash#4202 -->
<g id="edge6" class="edge">
<title>zcash/zcash#3787&#45;&gt;zcash/zcash#4202</title>
<path fill="none" stroke="black" d="M439.66,-76.64C468.65,-88.67 500.3,-101.8 526.34,-112.61"/>
<polygon fill="black" stroke="black" points="525.09,-115.88 535.67,-116.48 527.77,-109.42 525.09,-115.88"/>
</g>
</g>
</svg>
