<?xml version="1.0" encoding="UTF-8" standalone="no"?>
<?xml-stylesheet href="zcash-dag.css" type="text/css"?>
<!DOCTYPE svg PUBLIC "-//W3C//DTD SVG 1.1//EN"
 "http://www.w3.org/Graphics/SVG/1.1/DTD/svg11.dtd">
<!-- Generated by graphviz version 2.43.0 (0)
 -->
<!-- Pages: 1 -->
<svg width="1970pt" height="887pt"
 viewBox="0.00 0.00 1970.00 887.00" xmlns="http://www.w3.org/2000/svg" xmlns:xlink="http://www.w3.org/1999/xlink">
<g id="graph0" class="graph" transform="scale(1 1) rotate(0) translate(4 883)">
<polygon fill="white" stroke="transparent" points="-4,4 -4,-883 1966,-883 1966,4 -4,4"/>
<g id="clust1" class="cluster">
<title>cluster_2</title>
<polygon fill="none" stroke="blue" points="0,0 0,-93 674,-93 674,0 0,0"/>
<text text-anchor="middle" x="337" y="-77.8" font-family="Times,serif" font-size="14.00">UniFFI</text>
</g>
<g id="clust2" class="cluster">
<title>cluster_0</title>
<polygon fill="none" stroke="blue" points="1219,-249 1219,-413 1454,-413 1454,-249 1219,-249"/>
<text text-anchor="middle" x="1336.5" y="-397.8" font-family="Times,serif" font-size="14.00">Secant iOS v1.0.0</text>
</g>
<g id="clust3" class="cluster">
<title>cluster_1</title>
<polygon fill="none" stroke="blue" points="0,-101 0,-178 327,-178 327,-101 0,-101"/>
<text text-anchor="middle" x="163.5" y="-162.8" font-family="Times,serif" font-size="14.00">Orchard in Mobile SDKs</text>
</g>
<!-- zcash&#45;hackworks/zcash&#45;light&#45;client&#45;ffi#29 -->
<g id="node1" class="node open">
<title>zcash&#45;hackworks/zcash&#45;light&#45;client&#45;ffi#29</title>
<g id="a_node1"><a xlink:href="https://github.com/zcash-hackworks/zcash-light-client-ffi/issues/29" xlink:title="zcash&#45;hackworks/zcash&#45;light&#45;client&#45;ffi#29&#10;Release v0.4.0" target="_blank">
<polygon fill="#c2e0c6" stroke="black" points="666,-58 355,-58 355,-20 666,-20 666,-58"/>
<text text-anchor="middle" x="510.5" y="-42.8" font-family="Times,serif" font-size="14.00">zcash&#45;hackworks/zcash&#45;light&#45;client&#45;ffi#29</text>
<text text-anchor="middle" x="510.5" y="-27.8" font-family="Times,serif" font-size="14.00">Release v0.4.0</text>
</a>
</g>
</g>
<!-- zcash&#45;hackworks/zcash&#45;light&#45;client&#45;ffi#25 -->
<g id="node2" class="node open">
<title>zcash&#45;hackworks/zcash&#45;light&#45;client&#45;ffi#25</title>
<g id="a_node2"><a xlink:href="https://github.com/zcash-hackworks/zcash-light-client-ffi/issues/25" xlink:title="zcash&#45;hackworks/zcash&#45;light&#45;client&#45;ffi#25&#10;Migrate to FFI library&#10;generated by Uniffi" target="_blank">
<polygon fill="#c2e0c6" stroke="black" stroke-width="2" points="319,-61.5 8,-61.5 8,-8.5 319,-8.5 319,-61.5"/>
<text text-anchor="middle" x="163.5" y="-46.3" font-family="Times,serif" font-size="14.00">zcash&#45;hackworks/zcash&#45;light&#45;client&#45;ffi#25</text>
<text text-anchor="middle" x="163.5" y="-31.3" font-family="Times,serif" font-size="14.00">Migrate to FFI library</text>
<text text-anchor="middle" x="163.5" y="-16.3" font-family="Times,serif" font-size="14.00">generated by Uniffi</text>
</a>
</g>
</g>
<!-- zcash&#45;hackworks/zcash&#45;light&#45;client&#45;ffi#25&#45;&gt;zcash&#45;hackworks/zcash&#45;light&#45;client&#45;ffi#29 -->
<g id="edge1" class="edge">
<title>zcash&#45;hackworks/zcash&#45;light&#45;client&#45;ffi#25&#45;&gt;zcash&#45;hackworks/zcash&#45;light&#45;client&#45;ffi#29</title>
<path fill="none" stroke="black" d="M319.09,-36.79C327.66,-36.89 336.28,-36.99 344.89,-37.09"/>
<polygon fill="black" stroke="black" points="344.93,-40.59 354.97,-37.21 345.01,-33.59 344.93,-40.59"/>
</g>
<!-- zcash/secant&#45;ios&#45;wallet#372 -->
<g id="node3" class="node open">
<title>zcash/secant&#45;ios&#45;wallet#372</title>
<g id="a_node3"><a xlink:href="https://github.com/zcash/secant-ios-wallet/issues/372" xlink:title="zcash/secant&#45;ios&#45;wallet#372&#10;Blocking TODOs,&#10;Enhancements and Fixes" target="_blank">
<polygon fill="#c2e0c6" stroke="black" stroke-width="2" points="1446,-310.5 1227,-310.5 1227,-257.5 1446,-257.5 1446,-310.5"/>
<text text-anchor="middle" x="1336.5" y="-295.3" font-family="Times,serif" font-size="14.00">zcash/secant&#45;ios&#45;wallet#372</text>
<text text-anchor="middle" x="1336.5" y="-280.3" font-family="Times,serif" font-size="14.00">Blocking TODOs,</text>
<text text-anchor="middle" x="1336.5" y="-265.3" font-family="Times,serif" font-size="14.00">Enhancements and Fixes</text>
</a>
</g>
</g>
<!-- zcash/secant&#45;ios&#45;wallet#303 -->
<g id="node6" class="node open">
<title>zcash/secant&#45;ios&#45;wallet#303</title>
<g id="a_node6"><a xlink:href="https://github.com/zcash/secant-ios-wallet/issues/303" xlink:title="zcash/secant&#45;ios&#45;wallet#303&#10;Release &#45; v1.0.0" target="_blank">
<polygon fill="#c2e0c6" stroke="black" points="1704,-374 1485,-374 1485,-336 1704,-336 1704,-374"/>
<text text-anchor="middle" x="1594.5" y="-358.8" font-family="Times,serif" font-size="14.00">zcash/secant&#45;ios&#45;wallet#303</text>
<text text-anchor="middle" x="1594.5" y="-343.8" font-family="Times,serif" font-size="14.00">Release &#45; v1.0.0</text>
</a>
</g>
</g>
<!-- zcash/secant&#45;ios&#45;wallet#372&#45;&gt;zcash/secant&#45;ios&#45;wallet#303 -->
<g id="edge3" class="edge">
<title>zcash/secant&#45;ios&#45;wallet#372&#45;&gt;zcash/secant&#45;ios&#45;wallet#303</title>
<path fill="none" stroke="black" d="M1424.4,-310.53C1443.4,-316.12 1463.3,-321.88 1482,-327 1489.8,-329.14 1497.9,-331.3 1506.1,-333.43"/>
<polygon fill="black" stroke="black" points="1505.44,-336.87 1516,-336 1507.2,-330.1 1505.44,-336.87"/>
</g>
<!-- zcash/secant&#45;ios&#45;wallet#322 -->
<g id="node7" class="node open">
<title>zcash/secant&#45;ios&#45;wallet#322</title>
<g id="a_node7"><a xlink:href="https://github.com/zcash/secant-ios-wallet/issues/322" xlink:title="zcash/secant&#45;ios&#45;wallet#322&#10;Handle&#10;WrappedCaptureDeviceError&#10;in the ScanReducer" target="_blank">
<polygon fill="#c2e0c6" stroke="black" points="1707,-318 1482,-318 1482,-250 1707,-250 1707,-318"/>
<text text-anchor="middle" x="1594.5" y="-302.8" font-family="Times,serif" font-size="14.00">zcash/secant&#45;ios&#45;wallet#322</text>
<text text-anchor="middle" x="1594.5" y="-287.8" font-family="Times,serif" font-size="14.00">Handle</text>
<text text-anchor="middle" x="1594.5" y="-272.8" font-family="Times,serif" font-size="14.00">WrappedCaptureDeviceError</text>
<text text-anchor="middle" x="1594.5" y="-257.8" font-family="Times,serif" font-size="14.00">in the ScanReducer</text>
</a>
</g>
</g>
<!-- zcash/secant&#45;ios&#45;wallet#372&#45;&gt;zcash/secant&#45;ios&#45;wallet#322 -->
<g id="edge4" class="edge">
<title>zcash/secant&#45;ios&#45;wallet#372&#45;&gt;zcash/secant&#45;ios&#45;wallet#322</title>
<path fill="none" stroke="black" d="M1446.1,-284C1454.6,-284 1463.2,-284 1471.8,-284"/>
<polygon fill="black" stroke="black" points="1471.9,-287.5 1481.9,-284 1471.9,-280.5 1471.9,-287.5"/>
</g>
<!-- zcash/secant&#45;ios&#45;wallet#233 -->
<g id="node4" class="node open">
<title>zcash/secant&#45;ios&#45;wallet#233</title>
<g id="a_node4"><a xlink:href="https://github.com/zcash/secant-ios-wallet/issues/233" xlink:title="zcash/secant&#45;ios&#45;wallet#233&#10;Localization and&#10;Accessibility" target="_blank">
<polygon fill="#c2e0c6" stroke="black" stroke-width="2" points="1446,-381.5 1227,-381.5 1227,-328.5 1446,-328.5 1446,-381.5"/>
<text text-anchor="middle" x="1336.5" y="-366.3" font-family="Times,serif" font-size="14.00">zcash/secant&#45;ios&#45;wallet#233</text>
<text text-anchor="middle" x="1336.5" y="-351.3" font-family="Times,serif" font-size="14.00">Localization and</text>
<text text-anchor="middle" x="1336.5" y="-336.3" font-family="Times,serif" font-size="14.00">Accessibility</text>
</a>
</g>
</g>
<!-- zcash/secant&#45;ios&#45;wallet#233&#45;&gt;zcash/secant&#45;ios&#45;wallet#303 -->
<g id="edge5" class="edge">
<title>zcash/secant&#45;ios&#45;wallet#233&#45;&gt;zcash/secant&#45;ios&#45;wallet#303</title>
<path fill="none" stroke="black" d="M1446.1,-355C1455.5,-355 1465,-355 1474.5,-355"/>
<polygon fill="black" stroke="black" points="1474.8,-358.5 1484.8,-355 1474.8,-351.5 1474.8,-358.5"/>
</g>
<!-- zcash&#45;hackworks/zcash&#45;light&#45;client&#45;ffi#17 -->
<g id="node5" class="node open">
<title>zcash&#45;hackworks/zcash&#45;light&#45;client&#45;ffi#17</title>
<g id="a_node5"><a xlink:href="https://github.com/zcash-hackworks/zcash-light-client-ffi/issues/17" xlink:title="zcash&#45;hackworks/zcash&#45;light&#45;client&#45;ffi#17&#10;Add Orchard support" target="_blank">
<polygon fill="#c2e0c6" stroke="black" stroke-width="2" points="319,-147 8,-147 8,-109 319,-109 319,-147"/>
<text text-anchor="middle" x="163.5" y="-131.8" font-family="Times,serif" font-size="14.00">zcash&#45;hackworks/zcash&#45;light&#45;client&#45;ffi#17</text>
<text text-anchor="middle" x="163.5" y="-116.8" font-family="Times,serif" font-size="14.00">Add Orchard support</text>
</a>
</g>
</g>
<!-- zcash&#45;hackworks/zcash&#45;light&#45;client&#45;ffi#17&#45;&gt;zcash&#45;hackworks/zcash&#45;light&#45;client&#45;ffi#29 -->
<g id="edge2" class="edge">
<title>zcash&#45;hackworks/zcash&#45;light&#45;client&#45;ffi#17&#45;&gt;zcash&#45;hackworks/zcash&#45;light&#45;client&#45;ffi#29</title>
<path fill="none" stroke="black" d="M274.16,-108.93C291.9,-105.31 310.02,-101.3 327,-97 366.92,-86.89 410.93,-72.98 445.73,-61.33"/>
<polygon fill="black" stroke="black" points="446.93,-64.61 455.29,-58.1 444.7,-57.98 446.93,-64.61"/>
</g>
<!-- zcash/secant&#45;ios&#45;wallet#380 -->
<g id="node8" class="node closed">
<title>zcash/secant&#45;ios&#45;wallet#380</title>
<g id="a_node8"><a xlink:href="https://github.com/zcash/secant-ios-wallet/issues/380" xlink:title="zcash/secant&#45;ios&#45;wallet#380&#10;Release v1.1.0" target="_blank">
<polygon fill="#fad8c7" stroke="black" points="1962,-303 1743,-303 1743,-265 1962,-265 1962,-303"/>
<text text-anchor="middle" x="1852.5" y="-287.8" font-family="Times,serif" font-size="14.00">zcash/secant&#45;ios&#45;wallet#380</text>
<text text-anchor="middle" x="1852.5" y="-272.8" font-family="Times,serif" font-size="14.00">Release v1.1.0</text>
</a>
</g>
</g>
<!-- zcash/secant&#45;ios&#45;wallet#303&#45;&gt;zcash/secant&#45;ios&#45;wallet#380 -->
<g id="edge6" class="edge">
<title>zcash/secant&#45;ios&#45;wallet#303&#45;&gt;zcash/secant&#45;ios&#45;wallet#380</title>
<path fill="none" stroke="black" d="M1673,-336C1684.4,-333.07 1696,-330.01 1707,-327 1730.9,-320.46 1756.8,-312.89 1780,-305.94"/>
<polygon fill="black" stroke="black" points="1781.23,-309.23 1789.8,-303 1779.22,-302.52 1781.23,-309.23"/>
</g>
<!-- zcash/secant&#45;ios&#45;wallet#214 -->
<g id="node9" class="node open">
<title>zcash/secant&#45;ios&#45;wallet#214</title>
<g id="a_node9"><a xlink:href="https://github.com/zcash/secant-ios-wallet/issues/214" xlink:title="zcash/secant&#45;ios&#45;wallet#214&#10;[Scaffold] Add About&#10;Screen" target="_blank">
<polygon fill="#c2e0c6" stroke="black" stroke-width="2" points="273,-310.5 54,-310.5 54,-257.5 273,-257.5 273,-310.5"/>
<text text-anchor="middle" x="163.5" y="-295.3" font-family="Times,serif" font-size="14.00">zcash/secant&#45;ios&#45;wallet#214</text>
<text text-anchor="middle" x="163.5" y="-280.3" font-family="Times,serif" font-size="14.00">[Scaffold] Add About</text>
<text text-anchor="middle" x="163.5" y="-265.3" font-family="Times,serif" font-size="14.00">Screen</text>
</a>
</g>
</g>
<!-- zcash/secant&#45;ios&#45;wallet#93 -->
<g id="node10" class="node open">
<title>zcash/secant&#45;ios&#45;wallet#93</title>
<g id="a_node10"><a xlink:href="https://github.com/zcash/secant-ios-wallet/issues/93" xlink:title="zcash/secant&#45;ios&#45;wallet#93&#10;[Functional] Request ZEC&#10;Screen" target="_blank">
<polygon fill="#c2e0c6" stroke="black" points="1191,-239.5 981,-239.5 981,-186.5 1191,-186.5 1191,-239.5"/>
<text text-anchor="middle" x="1086" y="-224.3" font-family="Times,serif" font-size="14.00">zcash/secant&#45;ios&#45;wallet#93</text>
<text text-anchor="middle" x="1086" y="-209.3" font-family="Times,serif" font-size="14.00">[Functional] Request ZEC</text>
<text text-anchor="middle" x="1086" y="-194.3" font-family="Times,serif" font-size="14.00">Screen</text>
</a>
</g>
</g>
<!-- zcash/secant&#45;ios&#45;wallet#94 -->
<g id="node11" class="node open">
<title>zcash/secant&#45;ios&#45;wallet#94</title>
<g id="a_node11"><a xlink:href="https://github.com/zcash/secant-ios-wallet/issues/94" xlink:title="zcash/secant&#45;ios&#45;wallet#94&#10;[Functional] Share ZEC&#10;Request Screen" target="_blank">
<polygon fill="#c2e0c6" stroke="black" points="1441.5,-239.5 1231.5,-239.5 1231.5,-186.5 1441.5,-186.5 1441.5,-239.5"/>
<text text-anchor="middle" x="1336.5" y="-224.3" font-family="Times,serif" font-size="14.00">zcash/secant&#45;ios&#45;wallet#94</text>
<text text-anchor="middle" x="1336.5" y="-209.3" font-family="Times,serif" font-size="14.00">[Functional] Share ZEC</text>
<text text-anchor="middle" x="1336.5" y="-194.3" font-family="Times,serif" font-size="14.00">Request Screen</text>
</a>
</g>
</g>
<!-- zcash/secant&#45;ios&#45;wallet#93&#45;&gt;zcash/secant&#45;ios&#45;wallet#94 -->
<g id="edge7" class="edge">
<title>zcash/secant&#45;ios&#45;wallet#93&#45;&gt;zcash/secant&#45;ios&#45;wallet#94</title>
<path fill="none" stroke="black" d="M1191.3,-213C1201.3,-213 1211.4,-213 1221.5,-213"/>
<polygon fill="black" stroke="black" points="1221.5,-216.5 1231.5,-213 1221.5,-209.5 1221.5,-216.5"/>
</g>
<!-- zcash/secant&#45;ios&#45;wallet#90 -->
<g id="node12" class="node open">
<title>zcash/secant&#45;ios&#45;wallet#90</title>
<g id="a_node12"><a xlink:href="https://github.com/zcash/secant-ios-wallet/issues/90" xlink:title="zcash/secant&#45;ios&#45;wallet#90&#10;Request ZEC Flow" target="_blank">
<polygon fill="#c2e0c6" stroke="black" points="1699.5,-232 1489.5,-232 1489.5,-194 1699.5,-194 1699.5,-232"/>
<text text-anchor="middle" x="1594.5" y="-216.8" font-family="Times,serif" font-size="14.00">zcash/secant&#45;ios&#45;wallet#90</text>
<text text-anchor="middle" x="1594.5" y="-201.8" font-family="Times,serif" font-size="14.00">Request ZEC Flow</text>
</a>
</g>
</g>
<!-- zcash/secant&#45;ios&#45;wallet#94&#45;&gt;zcash/secant&#45;ios&#45;wallet#90 -->
<g id="edge8" class="edge">
<title>zcash/secant&#45;ios&#45;wallet#94&#45;&gt;zcash/secant&#45;ios&#45;wallet#90</title>
<path fill="none" stroke="black" d="M1441.6,-213C1454.1,-213 1466.8,-213 1479.4,-213"/>
<polygon fill="black" stroke="black" points="1479.5,-216.5 1489.5,-213 1479.5,-209.5 1479.5,-216.5"/>
</g>
<!-- zcash/secant&#45;ios&#45;wallet#90&#45;&gt;zcash/secant&#45;ios&#45;wallet#380 -->
<g id="edge9" class="edge">
<title>zcash/secant&#45;ios&#45;wallet#90&#45;&gt;zcash/secant&#45;ios&#45;wallet#380</title>
<path fill="none" stroke="black" d="M1673,-232C1684.4,-234.93 1696,-237.99 1707,-241 1730.9,-247.54 1756.8,-255.11 1780,-262.06"/>
<polygon fill="black" stroke="black" points="1779.22,-265.48 1789.8,-265 1781.23,-258.77 1779.22,-265.48"/>
</g>
<!-- zcash/secant&#45;ios&#45;wallet#89 -->
<g id="node13" class="node closed">
<title>zcash/secant&#45;ios&#45;wallet#89</title>
<g id="a_node13"><a xlink:href="https://github.com/zcash/secant-ios-wallet/issues/89" xlink:title="zcash/secant&#45;ios&#45;wallet#89&#10;[Functional] Sending&#10;Screen &#45; Failure" target="_blank">
<polygon fill="#fad8c7" stroke="black" points="615.5,-381.5 405.5,-381.5 405.5,-328.5 615.5,-328.5 615.5,-381.5"/>
<text text-anchor="middle" x="510.5" y="-366.3" font-family="Times,serif" font-size="14.00">zcash/secant&#45;ios&#45;wallet#89</text>
<text text-anchor="middle" x="510.5" y="-351.3" font-family="Times,serif" font-size="14.00">[Functional] Sending</text>
<text text-anchor="middle" x="510.5" y="-336.3" font-family="Times,serif" font-size="14.00">Screen &#45; Failure</text>
</a>
</g>
</g>
<!-- zcash/secant&#45;ios&#45;wallet#411 -->
<g id="node14" class="node open">
<title>zcash/secant&#45;ios&#45;wallet#411</title>
<g id="a_node14"><a xlink:href="https://github.com/zcash/secant-ios-wallet/issues/411" xlink:title="zcash/secant&#45;ios&#45;wallet#411&#10;Async SynchronizerClient&#10;methods refactor" target="_blank">
<polygon fill="#c2e0c6" stroke="black" stroke-width="2" points="273,-452.5 54,-452.5 54,-399.5 273,-399.5 273,-452.5"/>
<text text-anchor="middle" x="163.5" y="-437.3" font-family="Times,serif" font-size="14.00">zcash/secant&#45;ios&#45;wallet#411</text>
<text text-anchor="middle" x="163.5" y="-422.3" font-family="Times,serif" font-size="14.00">Async SynchronizerClient</text>
<text text-anchor="middle" x="163.5" y="-407.3" font-family="Times,serif" font-size="14.00">methods refactor</text>
</a>
</g>
</g>
<!-- zcash/secant&#45;ios&#45;wallet#109 -->
<g id="node15" class="node open">
<title>zcash/secant&#45;ios&#45;wallet#109</title>
<g id="a_node15"><a xlink:href="https://github.com/zcash/secant-ios-wallet/issues/109" xlink:title="zcash/secant&#45;ios&#45;wallet#109&#10;[Research Spike] ZIP&#45;321&#10;Payment URIs and&#10;deeplinking" target="_blank">
<polygon fill="#c2e0c6" stroke="black" points="620,-247 401,-247 401,-179 620,-179 620,-247"/>
<text text-anchor="middle" x="510.5" y="-231.8" font-family="Times,serif" font-size="14.00">zcash/secant&#45;ios&#45;wallet#109</text>
<text text-anchor="middle" x="510.5" y="-216.8" font-family="Times,serif" font-size="14.00">[Research Spike] ZIP&#45;321</text>
<text text-anchor="middle" x="510.5" y="-201.8" font-family="Times,serif" font-size="14.00">Payment URIs and</text>
<text text-anchor="middle" x="510.5" y="-186.8" font-family="Times,serif" font-size="14.00">deeplinking</text>
</a>
</g>
</g>
<!-- zcash/secant&#45;ios&#45;wallet#141 -->
<g id="node16" class="node open">
<title>zcash/secant&#45;ios&#45;wallet#141</title>
<g id="a_node16"><a xlink:href="https://github.com/zcash/secant-ios-wallet/issues/141" xlink:title="zcash/secant&#45;ios&#45;wallet#141&#10;Encode URI in QR Code" target="_blank">
<polygon fill="#c2e0c6" stroke="black" points="933,-232 714,-232 714,-194 933,-194 933,-232"/>
<text text-anchor="middle" x="823.5" y="-216.8" font-family="Times,serif" font-size="14.00">zcash/secant&#45;ios&#45;wallet#141</text>
<text text-anchor="middle" x="823.5" y="-201.8" font-family="Times,serif" font-size="14.00">Encode URI in QR Code</text>
</a>
</g>
</g>
<!-- zcash/secant&#45;ios&#45;wallet#109&#45;&gt;zcash/secant&#45;ios&#45;wallet#141 -->
<g id="edge10" class="edge">
<title>zcash/secant&#45;ios&#45;wallet#109&#45;&gt;zcash/secant&#45;ios&#45;wallet#141</title>
<path fill="none" stroke="black" d="M620.27,-213C647.26,-213 676.32,-213 703.76,-213"/>
<polygon fill="black" stroke="black" points="703.79,-216.5 713.79,-213 703.79,-209.5 703.79,-216.5"/>
</g>
<!-- zcash/secant&#45;ios&#45;wallet#141&#45;&gt;zcash/secant&#45;ios&#45;wallet#93 -->
<g id="edge11" class="edge">
<title>zcash/secant&#45;ios&#45;wallet#141&#45;&gt;zcash/secant&#45;ios&#45;wallet#93</title>
<path fill="none" stroke="black" d="M933.09,-213C945.41,-213 958,-213 970.4,-213"/>
<polygon fill="black" stroke="black" points="970.76,-216.5 980.76,-213 970.76,-209.5 970.76,-216.5"/>
</g>
<!-- zcash/secant&#45;ios&#45;wallet#232 -->
<g id="node17" class="node open">
<title>zcash/secant&#45;ios&#45;wallet#232</title>
<g id="a_node17"><a xlink:href="https://github.com/zcash/secant-ios-wallet/issues/232" xlink:title="zcash/secant&#45;ios&#45;wallet#232&#10;Add error handling UI for&#10;ZEC send UI" target="_blank">
<polygon fill="#c2e0c6" stroke="black" stroke-width="2" points="273,-381.5 54,-381.5 54,-328.5 273,-328.5 273,-381.5"/>
<text text-anchor="middle" x="163.5" y="-366.3" font-family="Times,serif" font-size="14.00">zcash/secant&#45;ios&#45;wallet#232</text>
<text text-anchor="middle" x="163.5" y="-351.3" font-family="Times,serif" font-size="14.00">Add error handling UI for</text>
<text text-anchor="middle" x="163.5" y="-336.3" font-family="Times,serif" font-size="14.00">ZEC send UI</text>
</a>
</g>
</g>
<!-- zcash/secant&#45;ios&#45;wallet#232&#45;&gt;zcash/secant&#45;ios&#45;wallet#89 -->
<g id="edge12" class="edge">
<title>zcash/secant&#45;ios&#45;wallet#232&#45;&gt;zcash/secant&#45;ios&#45;wallet#89</title>
<path fill="none" stroke="black" d="M273.19,-355C312.07,-355 355.99,-355 395.32,-355"/>
<polygon fill="black" stroke="black" points="395.48,-358.5 405.48,-355 395.48,-351.5 395.48,-358.5"/>
</g>
<!-- zcash/ZcashLightClientKit#319 -->
<g id="node18" class="node open">
<title>zcash/ZcashLightClientKit#319</title>
<g id="a_node18"><a xlink:href="https://github.com/zcash/ZcashLightClientKit/issues/319" xlink:title="zcash/ZcashLightClientKit#319&#10;ZIP&#45;321 Request&#10;Generation API" target="_blank">
<polygon fill="#c2e0c6" stroke="black" stroke-width="2" points="285,-239.5 42,-239.5 42,-186.5 285,-186.5 285,-239.5"/>
<text text-anchor="middle" x="163.5" y="-224.3" font-family="Times,serif" font-size="14.00">zcash/ZcashLightClientKit#319</text>
<text text-anchor="middle" x="163.5" y="-209.3" font-family="Times,serif" font-size="14.00">ZIP&#45;321 Request</text>
<text text-anchor="middle" x="163.5" y="-194.3" font-family="Times,serif" font-size="14.00">Generation API</text>
</a>
</g>
</g>
<!-- zcash/ZcashLightClientKit#319&#45;&gt;zcash/secant&#45;ios&#45;wallet#109 -->
<g id="edge13" class="edge">
<title>zcash/ZcashLightClientKit#319&#45;&gt;zcash/secant&#45;ios&#45;wallet#109</title>
<path fill="none" stroke="black" d="M285.16,-213C319.39,-213 356.61,-213 390.72,-213"/>
<polygon fill="black" stroke="black" points="390.72,-216.5 400.72,-213 390.72,-209.5 390.72,-216.5"/>
</g>
<!-- zcash/secant&#45;ios&#45;wallet#694 -->
<g id="node19" class="node open">
<title>zcash/secant&#45;ios&#45;wallet#694</title>
<g id="a_node19"><a xlink:href="https://github.com/zcash/secant-ios-wallet/issues/694" xlink:title="zcash/secant&#45;ios&#45;wallet#694&#10;Instrument a forced&#10;upgrade mechanism" target="_blank">
<polygon fill="#c2e0c6" stroke="black" stroke-width="2" points="273,-523.5 54,-523.5 54,-470.5 273,-470.5 273,-523.5"/>
<text text-anchor="middle" x="163.5" y="-508.3" font-family="Times,serif" font-size="14.00">zcash/secant&#45;ios&#45;wallet#694</text>
<text text-anchor="middle" x="163.5" y="-493.3" font-family="Times,serif" font-size="14.00">Instrument a forced</text>
<text text-anchor="middle" x="163.5" y="-478.3" font-family="Times,serif" font-size="14.00">upgrade mechanism</text>
</a>
</g>
</g>
<!-- zcash/secant&#45;ios&#45;wallet#237 -->
<g id="node20" class="node open">
<title>zcash/secant&#45;ios&#45;wallet#237</title>
<g id="a_node20"><a xlink:href="https://github.com/zcash/secant-ios-wallet/issues/237" xlink:title="zcash/secant&#45;ios&#45;wallet#237&#10;Design: Privacy &amp; Opt&#45;&#10;in/out for cloud services" target="_blank">
<polygon fill="#c2e0c6" stroke="black" stroke-width="2" points="273,-594.5 54,-594.5 54,-541.5 273,-541.5 273,-594.5"/>
<text text-anchor="middle" x="163.5" y="-579.3" font-family="Times,serif" font-size="14.00">zcash/secant&#45;ios&#45;wallet#237</text>
<text text-anchor="middle" x="163.5" y="-564.3" font-family="Times,serif" font-size="14.00">Design: Privacy &amp; Opt&#45;</text>
<text text-anchor="middle" x="163.5" y="-549.3" font-family="Times,serif" font-size="14.00">in/out for cloud services</text>
</a>
</g>
</g>
<!-- zcash/secant&#45;ios&#45;wallet#695 -->
<g id="node21" class="node open">
<title>zcash/secant&#45;ios&#45;wallet#695</title>
<g id="a_node21"><a xlink:href="https://github.com/zcash/secant-ios-wallet/issues/695" xlink:title="zcash/secant&#45;ios&#45;wallet#695&#10;Support for opt&#45;in cloud&#10;backup of keys" target="_blank">
<polygon fill="#c2e0c6" stroke="black" stroke-width="2" points="273,-665.5 54,-665.5 54,-612.5 273,-612.5 273,-665.5"/>
<text text-anchor="middle" x="163.5" y="-650.3" font-family="Times,serif" font-size="14.00">zcash/secant&#45;ios&#45;wallet#695</text>
<text text-anchor="middle" x="163.5" y="-635.3" font-family="Times,serif" font-size="14.00">Support for opt&#45;in cloud</text>
<text text-anchor="middle" x="163.5" y="-620.3" font-family="Times,serif" font-size="14.00">backup of keys</text>
</a>
</g>
</g>
<!-- zcash/ZcashLightClientKit#442 -->
<g id="node22" class="node open">
<title>zcash/ZcashLightClientKit#442</title>
<g id="a_node22"><a xlink:href="https://github.com/zcash/ZcashLightClientKit/issues/442" xlink:title="zcash/ZcashLightClientKit#442&#10;Parallelize download and&#10;processing of blocks" target="_blank">
<polygon fill="#c2e0c6" stroke="black" points="945,-709.5 702,-709.5 702,-656.5 945,-656.5 945,-709.5"/>
<text text-anchor="middle" x="823.5" y="-694.3" font-family="Times,serif" font-size="14.00">zcash/ZcashLightClientKit#442</text>
<text text-anchor="middle" x="823.5" y="-679.3" font-family="Times,serif" font-size="14.00">Parallelize download and</text>
<text text-anchor="middle" x="823.5" y="-664.3" font-family="Times,serif" font-size="14.00">processing of blocks</text>
</a>
</g>
</g>
<!-- zcash/ZcashLightClientKit#566 -->
<g id="node23" class="node open">
<title>zcash/ZcashLightClientKit#566</title>
<g id="a_node23"><a xlink:href="https://github.com/zcash/ZcashLightClientKit/issues/566" xlink:title="zcash/ZcashLightClientKit#566&#10;Parallel block processing&#10;&#45; Phase 1" target="_blank">
<polygon fill="#c2e0c6" stroke="black" stroke-width="2" points="285,-736.5 42,-736.5 42,-683.5 285,-683.5 285,-736.5"/>
<text text-anchor="middle" x="163.5" y="-721.3" font-family="Times,serif" font-size="14.00">zcash/ZcashLightClientKit#566</text>
<text text-anchor="middle" x="163.5" y="-706.3" font-family="Times,serif" font-size="14.00">Parallel block processing</text>
<text text-anchor="middle" x="163.5" y="-691.3" font-family="Times,serif" font-size="14.00">&#45; Phase 1</text>
</a>
</g>
</g>
<!-- zcash/ZcashLightClientKit#566&#45;&gt;zcash/ZcashLightClientKit#442 -->
<g id="edge14" class="edge">
<title>zcash/ZcashLightClientKit#566&#45;&gt;zcash/ZcashLightClientKit#442</title>
<path fill="none" stroke="black" d="M285.24,-706.59C388.5,-703.47 541.06,-698.38 674,-692 679.78,-691.72 685.7,-691.42 691.67,-691.11"/>
<polygon fill="black" stroke="black" points="691.96,-694.6 701.76,-690.57 691.59,-687.61 691.96,-694.6"/>
</g>
<!-- zcash/ZcashLightClientKit#569 -->
<g id="node24" class="node closed">
<title>zcash/ZcashLightClientKit#569</title>
<g id="a_node24"><a xlink:href="https://github.com/zcash/ZcashLightClientKit/issues/569" xlink:title="zcash/ZcashLightClientKit#569&#10;Empty blocks cache during&#10;synchronisation" target="_blank">
<polygon fill="#fad8c7" stroke="black" points="632,-682.5 389,-682.5 389,-629.5 632,-629.5 632,-682.5"/>
<text text-anchor="middle" x="510.5" y="-667.3" font-family="Times,serif" font-size="14.00">zcash/ZcashLightClientKit#569</text>
<text text-anchor="middle" x="510.5" y="-652.3" font-family="Times,serif" font-size="14.00">Empty blocks cache during</text>
<text text-anchor="middle" x="510.5" y="-637.3" font-family="Times,serif" font-size="14.00">synchronisation</text>
</a>
</g>
</g>
<!-- zcash/ZcashLightClientKit#566&#45;&gt;zcash/ZcashLightClientKit#569 -->
<g id="edge15" class="edge">
<title>zcash/ZcashLightClientKit#566&#45;&gt;zcash/ZcashLightClientKit#569</title>
<path fill="none" stroke="black" d="M285.16,-691.11C315.5,-686.37 348.19,-681.25 378.98,-676.43"/>
<polygon fill="black" stroke="black" points="379.56,-679.88 388.9,-674.88 378.48,-672.97 379.56,-679.88"/>
</g>
<!-- zcash/ZcashLightClientKit#569&#45;&gt;zcash/ZcashLightClientKit#442 -->
<g id="edge16" class="edge">
<title>zcash/ZcashLightClientKit#569&#45;&gt;zcash/ZcashLightClientKit#442</title>
<path fill="none" stroke="black" d="M632.19,-666.48C651.76,-668.18 672.11,-669.94 691.9,-671.66"/>
<polygon fill="black" stroke="black" points="691.61,-675.15 701.88,-672.53 692.22,-668.17 691.61,-675.15"/>
</g>
<!-- zcash/ZcashLightClientKit#298 -->
<g id="node25" class="node open">
<title>zcash/ZcashLightClientKit#298</title>
<g id="a_node25"><a xlink:href="https://github.com/zcash/ZcashLightClientKit/issues/298" xlink:title="zcash/ZcashLightClientKit#298&#10;Make BalanceTests pass" target="_blank">
<polygon fill="#c2e0c6" stroke="black" stroke-width="2" points="285,-793 42,-793 42,-755 285,-755 285,-793"/>
<text text-anchor="middle" x="163.5" y="-777.8" font-family="Times,serif" font-size="14.00">zcash/ZcashLightClientKit#298</text>
<text text-anchor="middle" x="163.5" y="-762.8" font-family="Times,serif" font-size="14.00">Make BalanceTests pass</text>
</a>
</g>
</g>
<!-- zcash/ZcashLightClientKit#128 -->
<g id="node26" class="node closed">
<title>zcash/ZcashLightClientKit#128</title>
<g id="a_node26"><a xlink:href="https://github.com/zcash/ZcashLightClientKit/issues/128" xlink:title="zcash/ZcashLightClientKit#128&#10;Verified Balance and&#10;total Balance not updated&#10;after sending" target="_blank">
<polygon fill="#fad8c7" stroke="black" points="632,-808 389,-808 389,-740 632,-740 632,-808"/>
<text text-anchor="middle" x="510.5" y="-792.8" font-family="Times,serif" font-size="14.00">zcash/ZcashLightClientKit#128</text>
<text text-anchor="middle" x="510.5" y="-777.8" font-family="Times,serif" font-size="14.00">Verified Balance and</text>
<text text-anchor="middle" x="510.5" y="-762.8" font-family="Times,serif" font-size="14.00">total Balance not updated</text>
<text text-anchor="middle" x="510.5" y="-747.8" font-family="Times,serif" font-size="14.00">after sending</text>
</a>
</g>
</g>
<!-- zcash/ZcashLightClientKit#298&#45;&gt;zcash/ZcashLightClientKit#128 -->
<g id="edge17" class="edge">
<title>zcash/ZcashLightClientKit#298&#45;&gt;zcash/ZcashLightClientKit#128</title>
<path fill="none" stroke="black" d="M285.16,-774C315.37,-774 347.91,-774 378.58,-774"/>
<polygon fill="black" stroke="black" points="378.9,-777.5 388.9,-774 378.9,-770.5 378.9,-777.5"/>
</g>
<!-- zcash/ZcashLightClientKit#434 -->
<g id="node27" class="node open">
<title>zcash/ZcashLightClientKit#434</title>
<g id="a_node27"><a xlink:href="https://github.com/zcash/ZcashLightClientKit/issues/434" xlink:title="zcash/ZcashLightClientKit#434&#10;Expose an API that&#10;expresses syncing&#10;progress more clearly" target="_blank">
<polygon fill="#c2e0c6" stroke="black" stroke-width="2" points="285,-879 42,-879 42,-811 285,-811 285,-879"/>
<text text-anchor="middle" x="163.5" y="-863.8" font-family="Times,serif" font-size="14.00">zcash/ZcashLightClientKit#434</text>
<text text-anchor="middle" x="163.5" y="-848.8" font-family="Times,serif" font-size="14.00">Expose an API that</text>
<text text-anchor="middle" x="163.5" y="-833.8" font-family="Times,serif" font-size="14.00">expresses syncing</text>
<text text-anchor="middle" x="163.5" y="-818.8" font-family="Times,serif" font-size="14.00">progress more clearly</text>
</a>
</g>
</g>
</g>
</svg>
