<?xml version="1.0" encoding="UTF-8" standalone="no"?>
<?xml-stylesheet href="zcash-dag.css" type="text/css"?>
<!DOCTYPE svg PUBLIC "-//W3C//DTD SVG 1.1//EN"
 "http://www.w3.org/Graphics/SVG/1.1/DTD/svg11.dtd">
<!-- Generated by graphviz version 2.40.1 (20161225.0304)
 -->
<!-- Pages: 1 -->
<svg width="1660pt" height="992pt"
 viewBox="0.00 0.00 1660.00 991.50" xmlns="http://www.w3.org/2000/svg" xmlns:xlink="http://www.w3.org/1999/xlink">
<g id="graph0" class="graph" transform="scale(1 1) rotate(0) translate(4 987.5)">
<polygon fill="#ffffff" stroke="transparent" points="-4,4 -4,-987.5 1656,-987.5 1656,4 -4,4"/>
<!-- zcash/pasta_curves#35 -->
<g id="node1" class="node open">
<title>zcash/pasta_curves#35</title>
<g id="a_node1"><a xlink:href="https://github.com/zcash/pasta_curves/issues/35" xlink:title="zcash/pasta_curves#35&#10;Enable `ec&#45;gpu` to&#10;generate MSM and FFT code&#10;for `pasta_curves`" target="_blank">
<polygon fill="#c2e0c6" stroke="#000000" stroke-width="2" points="226,-68 0,-68 0,0 226,0 226,-68"/>
<text text-anchor="middle" x="113" y="-52.8" font-family="Times,serif" font-size="14.00" fill="#000000">zcash/pasta_curves#35</text>
<text text-anchor="middle" x="113" y="-37.8" font-family="Times,serif" font-size="14.00" fill="#000000">Enable `ec&#45;gpu` to</text>
<text text-anchor="middle" x="113" y="-22.8" font-family="Times,serif" font-size="14.00" fill="#000000">generate MSM and FFT code</text>
<text text-anchor="middle" x="113" y="-7.8" font-family="Times,serif" font-size="14.00" fill="#000000">for `pasta_curves`</text>
</a>
</g>
</g>
<!-- zcash/halo2#379 -->
<g id="node2" class="node open">
<title>zcash/halo2#379</title>
<g id="a_node2"><a xlink:href="https://github.com/zcash/halo2/issues/379" xlink:title="zcash/halo2#379&#10;Add `ec&#45;gpu` support" target="_blank">
<polygon fill="#c2e0c6" stroke="#000000" points="445.5,-53 272.5,-53 272.5,-15 445.5,-15 445.5,-53"/>
<text text-anchor="middle" x="359" y="-37.8" font-family="Times,serif" font-size="14.00" fill="#000000">zcash/halo2#379</text>
<text text-anchor="middle" x="359" y="-22.8" font-family="Times,serif" font-size="14.00" fill="#000000">Add `ec&#45;gpu` support</text>
</a>
</g>
</g>
<!-- zcash/pasta_curves#35&#45;&gt;zcash/halo2#379 -->
<g id="edge1" class="edge">
<title>zcash/pasta_curves#35&#45;&gt;zcash/halo2#379</title>
<path fill="none" stroke="#000000" d="M226.28,-34C238.28,-34 250.4,-34 262.18,-34"/>
<polygon fill="#000000" stroke="#000000" points="262.44,-37.5001 272.44,-34 262.44,-30.5001 262.44,-37.5001"/>
</g>
<!-- zcash/halo2#426 -->
<g id="node3" class="node committed">
<title>zcash/halo2#426</title>
<g id="a_node3"><a xlink:href="https://github.com/zcash/halo2/issues/426" xlink:title="zcash/halo2#426&#10;Publish `halo2_proofs&#10;0.1.0`" target="_blank">
<polygon fill="#a6cfff" stroke="#000000" points="445.5,-139.5 272.5,-139.5 272.5,-86.5 445.5,-86.5 445.5,-139.5"/>
<text text-anchor="middle" x="359" y="-124.3" font-family="Times,serif" font-size="14.00" fill="#000000">zcash/halo2#426</text>
<text text-anchor="middle" x="359" y="-109.3" font-family="Times,serif" font-size="14.00" fill="#000000">Publish `halo2_proofs</text>
<text text-anchor="middle" x="359" y="-94.3" font-family="Times,serif" font-size="14.00" fill="#000000">0.1.0`</text>
</a>
</g>
</g>
<!-- zcash/halo2#460 -->
<g id="node4" class="node committed">
<title>zcash/halo2#460</title>
<g id="a_node4"><a xlink:href="https://github.com/zcash/halo2/issues/460" xlink:title="zcash/halo2#460&#10;Publish `halo2_gadgets&#10;v0.1.0`" target="_blank">
<polygon fill="#a6cfff" stroke="#000000" points="683,-204.5 498,-204.5 498,-151.5 683,-151.5 683,-204.5"/>
<text text-anchor="middle" x="590.5" y="-189.3" font-family="Times,serif" font-size="14.00" fill="#000000">zcash/halo2#460</text>
<text text-anchor="middle" x="590.5" y="-174.3" font-family="Times,serif" font-size="14.00" fill="#000000">Publish `halo2_gadgets</text>
<text text-anchor="middle" x="590.5" y="-159.3" font-family="Times,serif" font-size="14.00" fill="#000000">v0.1.0`</text>
</a>
</g>
</g>
<!-- zcash/halo2#426&#45;&gt;zcash/halo2#460 -->
<g id="edge2" class="edge">
<title>zcash/halo2#426&#45;&gt;zcash/halo2#460</title>
<path fill="none" stroke="#000000" d="M445.53,-137.3C459.41,-141.19 473.89,-145.26 488.09,-149.25"/>
<polygon fill="#000000" stroke="#000000" points="487.2965,-152.6624 497.87,-151.99 489.185,-145.9219 487.2965,-152.6624"/>
</g>
<!-- zcash/halo2#75 -->
<g id="node5" class="node open">
<title>zcash/halo2#75</title>
<g id="a_node5"><a xlink:href="https://github.com/zcash/halo2/issues/75" xlink:title="zcash/halo2#75&#10;Implement support for&#10;recursion" target="_blank">
<polygon fill="#c2e0c6" stroke="#000000" points="1409.5,-469.5 1230.5,-469.5 1230.5,-416.5 1409.5,-416.5 1409.5,-469.5"/>
<text text-anchor="middle" x="1320" y="-454.3" font-family="Times,serif" font-size="14.00" fill="#000000">zcash/halo2#75</text>
<text text-anchor="middle" x="1320" y="-439.3" font-family="Times,serif" font-size="14.00" fill="#000000">Implement support for</text>
<text text-anchor="middle" x="1320" y="-424.3" font-family="Times,serif" font-size="14.00" fill="#000000">recursion</text>
</a>
</g>
</g>
<!-- zcash/halo2#494 -->
<g id="node6" class="node open">
<title>zcash/halo2#494</title>
<g id="a_node6"><a xlink:href="https://github.com/zcash/halo2/issues/494" xlink:title="zcash/halo2#494&#10;Consider adding an API&#10;that enables application&#10;circuits to be built&#10;across both fields" target="_blank">
<polygon fill="#c2e0c6" stroke="#000000" points="1652,-484.5 1463,-484.5 1463,-401.5 1652,-401.5 1652,-484.5"/>
<text text-anchor="middle" x="1557.5" y="-469.3" font-family="Times,serif" font-size="14.00" fill="#000000">zcash/halo2#494</text>
<text text-anchor="middle" x="1557.5" y="-454.3" font-family="Times,serif" font-size="14.00" fill="#000000">Consider adding an API</text>
<text text-anchor="middle" x="1557.5" y="-439.3" font-family="Times,serif" font-size="14.00" fill="#000000">that enables application</text>
<text text-anchor="middle" x="1557.5" y="-424.3" font-family="Times,serif" font-size="14.00" fill="#000000">circuits to be built</text>
<text text-anchor="middle" x="1557.5" y="-409.3" font-family="Times,serif" font-size="14.00" fill="#000000">across both fields</text>
</a>
</g>
</g>
<!-- zcash/halo2#75&#45;&gt;zcash/halo2#494 -->
<g id="edge3" class="edge">
<title>zcash/halo2#75&#45;&gt;zcash/halo2#494</title>
<path fill="none" stroke="#000000" d="M1409.8,-443C1423.7,-443 1438.3,-443 1452.5,-443"/>
<polygon fill="#000000" stroke="#000000" points="1452.8,-446.5001 1462.8,-443 1452.8,-439.5001 1452.8,-446.5001"/>
</g>
<!-- zcash/halo2#79 -->
<g id="node7" class="node open">
<title>zcash/halo2#79</title>
<g id="a_node7"><a xlink:href="https://github.com/zcash/halo2/issues/79" xlink:title="zcash/halo2#79&#10;Migrate Rescue and&#10;Poseidon gadgets to&#10;algebraic hash&#10;abstraction" target="_blank">
<polygon fill="#c2e0c6" stroke="#000000" points="1152.5,-733.5 991.5,-733.5 991.5,-650.5 1152.5,-650.5 1152.5,-733.5"/>
<text text-anchor="middle" x="1072" y="-718.3" font-family="Times,serif" font-size="14.00" fill="#000000">zcash/halo2#79</text>
<text text-anchor="middle" x="1072" y="-703.3" font-family="Times,serif" font-size="14.00" fill="#000000">Migrate Rescue and</text>
<text text-anchor="middle" x="1072" y="-688.3" font-family="Times,serif" font-size="14.00" fill="#000000">Poseidon gadgets to</text>
<text text-anchor="middle" x="1072" y="-673.3" font-family="Times,serif" font-size="14.00" fill="#000000">algebraic hash</text>
<text text-anchor="middle" x="1072" y="-658.3" font-family="Times,serif" font-size="14.00" fill="#000000">abstraction</text>
</a>
</g>
</g>
<!-- zcash/halo2#78 -->
<g id="node8" class="node open">
<title>zcash/halo2#78</title>
<g id="a_node8"><a xlink:href="https://github.com/zcash/halo2/issues/78" xlink:title="zcash/halo2#78&#10;Implement algebraic hash&#10;/ random oracle&#10;abstraction gadget" target="_blank">
<polygon fill="#c2e0c6" stroke="#000000" stroke-width="2" points="930,-726 726,-726 726,-658 930,-658 930,-726"/>
<text text-anchor="middle" x="828" y="-710.8" font-family="Times,serif" font-size="14.00" fill="#000000">zcash/halo2#78</text>
<text text-anchor="middle" x="828" y="-695.8" font-family="Times,serif" font-size="14.00" fill="#000000">Implement algebraic hash</text>
<text text-anchor="middle" x="828" y="-680.8" font-family="Times,serif" font-size="14.00" fill="#000000">/ random oracle</text>
<text text-anchor="middle" x="828" y="-665.8" font-family="Times,serif" font-size="14.00" fill="#000000">abstraction gadget</text>
</a>
</g>
</g>
<!-- zcash/halo2#78&#45;&gt;zcash/halo2#79 -->
<g id="edge4" class="edge">
<title>zcash/halo2#78&#45;&gt;zcash/halo2#79</title>
<path fill="none" stroke="#000000" d="M930.06,-692C947.04,-692 964.55,-692 981.23,-692"/>
<polygon fill="#000000" stroke="#000000" points="981.49,-695.5001 991.49,-692 981.49,-688.5001 981.49,-695.5001"/>
</g>
<!-- zcash/halo2#250 -->
<g id="node9" class="node open">
<title>zcash/halo2#250</title>
<g id="a_node9"><a xlink:href="https://github.com/zcash/halo2/issues/250" xlink:title="zcash/halo2#250&#10;Implement the logic for&#10;the IVC verifier circuit" target="_blank">
<polygon fill="#c2e0c6" stroke="#000000" points="1165,-542.5 979,-542.5 979,-489.5 1165,-489.5 1165,-542.5"/>
<text text-anchor="middle" x="1072" y="-527.3" font-family="Times,serif" font-size="14.00" fill="#000000">zcash/halo2#250</text>
<text text-anchor="middle" x="1072" y="-512.3" font-family="Times,serif" font-size="14.00" fill="#000000">Implement the logic for</text>
<text text-anchor="middle" x="1072" y="-497.3" font-family="Times,serif" font-size="14.00" fill="#000000">the IVC verifier circuit</text>
</a>
</g>
</g>
<!-- zcash/halo2#78&#45;&gt;zcash/halo2#250 -->
<g id="edge5" class="edge">
<title>zcash/halo2#78&#45;&gt;zcash/halo2#250</title>
<path fill="none" stroke="#000000" d="M915.95,-657.89C921.15,-655.08 926.21,-652.11 931,-649 973.88,-621.16 1015.5,-579.52 1042.3,-550.27"/>
<polygon fill="#000000" stroke="#000000" points="1044.9954,-552.5075 1049.1,-542.74 1039.8002,-547.8159 1044.9954,-552.5075"/>
</g>
<!-- zcash/halo2#250&#45;&gt;zcash/halo2#75 -->
<g id="edge6" class="edge">
<title>zcash/halo2#250&#45;&gt;zcash/halo2#75</title>
<path fill="none" stroke="#000000" d="M1162.2,-489.44C1181.2,-483.86 1201.3,-477.94 1220.6,-472.27"/>
<polygon fill="#000000" stroke="#000000" points="1221.6096,-475.6213 1230.2,-469.42 1219.6174,-468.9108 1221.6096,-475.6213"/>
</g>
<!-- zcash/halo2#57 -->
<g id="node10" class="node open">
<title>zcash/halo2#57</title>
<g id="a_node10"><a xlink:href="https://github.com/zcash/halo2/issues/57" xlink:title="zcash/halo2#57&#10;Remove unused&#10;fixed_values from&#10;ProvingKey" target="_blank">
<polygon fill="#c2e0c6" stroke="#000000" stroke-width="2" points="184.5,-439 41.5,-439 41.5,-371 184.5,-371 184.5,-439"/>
<text text-anchor="middle" x="113" y="-423.8" font-family="Times,serif" font-size="14.00" fill="#000000">zcash/halo2#57</text>
<text text-anchor="middle" x="113" y="-408.8" font-family="Times,serif" font-size="14.00" fill="#000000">Remove unused</text>
<text text-anchor="middle" x="113" y="-393.8" font-family="Times,serif" font-size="14.00" fill="#000000">fixed_values from</text>
<text text-anchor="middle" x="113" y="-378.8" font-family="Times,serif" font-size="14.00" fill="#000000">ProvingKey</text>
</a>
</g>
</g>
<!-- zcash/halo2#443 -->
<g id="node11" class="node open">
<title>zcash/halo2#443</title>
<g id="a_node11"><a xlink:href="https://github.com/zcash/halo2/issues/443" xlink:title="zcash/halo2#443&#10;implement `read` &amp;&#10;`write` for `halo2::plonk&#10;::ProvingKey`" target="_blank">
<polygon fill="#c2e0c6" stroke="#000000" points="456,-439 262,-439 262,-371 456,-371 456,-439"/>
<text text-anchor="middle" x="359" y="-423.8" font-family="Times,serif" font-size="14.00" fill="#000000">zcash/halo2#443</text>
<text text-anchor="middle" x="359" y="-408.8" font-family="Times,serif" font-size="14.00" fill="#000000">implement `read` &amp;</text>
<text text-anchor="middle" x="359" y="-393.8" font-family="Times,serif" font-size="14.00" fill="#000000">`write` for `halo2::plonk</text>
<text text-anchor="middle" x="359" y="-378.8" font-family="Times,serif" font-size="14.00" fill="#000000">::ProvingKey`</text>
</a>
</g>
</g>
<!-- zcash/halo2#57&#45;&gt;zcash/halo2#443 -->
<g id="edge7" class="edge">
<title>zcash/halo2#57&#45;&gt;zcash/halo2#443</title>
<path fill="none" stroke="#000000" d="M184.81,-405C205.82,-405 229.24,-405 251.93,-405"/>
<polygon fill="#000000" stroke="#000000" points="251.94,-408.5001 261.94,-405 251.94,-401.5001 251.94,-408.5001"/>
</g>
<!-- zcash/halo2#449 -->
<g id="node12" class="node open">
<title>zcash/halo2#449</title>
<g id="a_node12"><a xlink:href="https://github.com/zcash/halo2/issues/449" xlink:title="zcash/halo2#449&#10;Define a stable&#10;serialization format for&#10;`VerifyingKey`" target="_blank">
<polygon fill="#c2e0c6" stroke="#000000" stroke-width="2" points="204,-525 22,-525 22,-457 204,-457 204,-525"/>
<text text-anchor="middle" x="113" y="-509.8" font-family="Times,serif" font-size="14.00" fill="#000000">zcash/halo2#449</text>
<text text-anchor="middle" x="113" y="-494.8" font-family="Times,serif" font-size="14.00" fill="#000000">Define a stable</text>
<text text-anchor="middle" x="113" y="-479.8" font-family="Times,serif" font-size="14.00" fill="#000000">serialization format for</text>
<text text-anchor="middle" x="113" y="-464.8" font-family="Times,serif" font-size="14.00" fill="#000000">`VerifyingKey`</text>
</a>
</g>
</g>
<!-- zcash/halo2#420 -->
<g id="node13" class="node open">
<title>zcash/halo2#420</title>
<g id="a_node13"><a xlink:href="https://github.com/zcash/halo2/issues/420" xlink:title="zcash/halo2#420&#10;CI: Measure memory&#45;usage&#10;benchmarks" target="_blank">
<polygon fill="#c2e0c6" stroke="#000000" stroke-width="2" points="220.5,-596.5 5.5,-596.5 5.5,-543.5 220.5,-543.5 220.5,-596.5"/>
<text text-anchor="middle" x="113" y="-581.3" font-family="Times,serif" font-size="14.00" fill="#000000">zcash/halo2#420</text>
<text text-anchor="middle" x="113" y="-566.3" font-family="Times,serif" font-size="14.00" fill="#000000">CI: Measure memory&#45;usage</text>
<text text-anchor="middle" x="113" y="-551.3" font-family="Times,serif" font-size="14.00" fill="#000000">benchmarks</text>
</a>
</g>
</g>
<!-- zcash/halo2#418 -->
<g id="node14" class="node open">
<title>zcash/halo2#418</title>
<g id="a_node14"><a xlink:href="https://github.com/zcash/halo2/issues/418" xlink:title="zcash/halo2#418&#10;[memory optimization]&#10;lookup prover memory&#10;analysis" target="_blank">
<polygon fill="#c2e0c6" stroke="#000000" points="448.5,-604 269.5,-604 269.5,-536 448.5,-536 448.5,-604"/>
<text text-anchor="middle" x="359" y="-588.8" font-family="Times,serif" font-size="14.00" fill="#000000">zcash/halo2#418</text>
<text text-anchor="middle" x="359" y="-573.8" font-family="Times,serif" font-size="14.00" fill="#000000">[memory optimization]</text>
<text text-anchor="middle" x="359" y="-558.8" font-family="Times,serif" font-size="14.00" fill="#000000">lookup prover memory</text>
<text text-anchor="middle" x="359" y="-543.8" font-family="Times,serif" font-size="14.00" fill="#000000">analysis</text>
</a>
</g>
</g>
<!-- zcash/halo2#420&#45;&gt;zcash/halo2#418 -->
<g id="edge8" class="edge">
<title>zcash/halo2#420&#45;&gt;zcash/halo2#418</title>
<path fill="none" stroke="#000000" d="M220.54,-570C233.4,-570 246.48,-570 259.22,-570"/>
<polygon fill="#000000" stroke="#000000" points="259.35,-573.5001 269.35,-570 259.35,-566.5001 259.35,-573.5001"/>
</g>
<!-- zcash/halo2#427 -->
<g id="node15" class="node open">
<title>zcash/halo2#427</title>
<g id="a_node15"><a xlink:href="https://github.com/zcash/halo2/issues/427" xlink:title="zcash/halo2#427&#10;Use smaller extended&#10;domains where possible&#10;during proving" target="_blank">
<polygon fill="#c2e0c6" stroke="#000000" stroke-width="2" points="207,-683 19,-683 19,-615 207,-615 207,-683"/>
<text text-anchor="middle" x="113" y="-667.8" font-family="Times,serif" font-size="14.00" fill="#000000">zcash/halo2#427</text>
<text text-anchor="middle" x="113" y="-652.8" font-family="Times,serif" font-size="14.00" fill="#000000">Use smaller extended</text>
<text text-anchor="middle" x="113" y="-637.8" font-family="Times,serif" font-size="14.00" fill="#000000">domains where possible</text>
<text text-anchor="middle" x="113" y="-622.8" font-family="Times,serif" font-size="14.00" fill="#000000">during proving</text>
</a>
</g>
</g>
<!-- zcash/halo2#456 -->
<g id="node16" class="node open">
<title>zcash/halo2#456</title>
<g id="a_node16"><a xlink:href="https://github.com/zcash/halo2/issues/456" xlink:title="zcash/halo2#456&#10;Benchmark `sha256`&#10;gadget." target="_blank">
<polygon fill="#c2e0c6" stroke="#000000" stroke-width="2" points="198,-754.5 28,-754.5 28,-701.5 198,-701.5 198,-754.5"/>
<text text-anchor="middle" x="113" y="-739.3" font-family="Times,serif" font-size="14.00" fill="#000000">zcash/halo2#456</text>
<text text-anchor="middle" x="113" y="-724.3" font-family="Times,serif" font-size="14.00" fill="#000000">Benchmark `sha256`</text>
<text text-anchor="middle" x="113" y="-709.3" font-family="Times,serif" font-size="14.00" fill="#000000">gadget.</text>
</a>
</g>
</g>
<!-- zcash/halo2#455 -->
<g id="node17" class="node open">
<title>zcash/halo2#455</title>
<g id="a_node17"><a xlink:href="https://github.com/zcash/halo2/issues/455" xlink:title="zcash/halo2#455&#10;[Book] add description of&#10;Poseidon gadget and chip" target="_blank">
<polygon fill="#c2e0c6" stroke="#000000" stroke-width="2" points="213,-825.5 13,-825.5 13,-772.5 213,-772.5 213,-825.5"/>
<text text-anchor="middle" x="113" y="-810.3" font-family="Times,serif" font-size="14.00" fill="#000000">zcash/halo2#455</text>
<text text-anchor="middle" x="113" y="-795.3" font-family="Times,serif" font-size="14.00" fill="#000000">[Book] add description of</text>
<text text-anchor="middle" x="113" y="-780.3" font-family="Times,serif" font-size="14.00" fill="#000000">Poseidon gadget and chip</text>
</a>
</g>
</g>
<!-- zcash/halo2#251 -->
<g id="node18" class="node open">
<title>zcash/halo2#251</title>
<g id="a_node18"><a xlink:href="https://github.com/zcash/halo2/issues/251" xlink:title="zcash/halo2#251&#10;Implement user&#45;facing API&#10;for recursive proving of&#10;IVC" target="_blank">
<polygon fill="#c2e0c6" stroke="#000000" points="1177,-396 967,-396 967,-328 1177,-328 1177,-396"/>
<text text-anchor="middle" x="1072" y="-380.8" font-family="Times,serif" font-size="14.00" fill="#000000">zcash/halo2#251</text>
<text text-anchor="middle" x="1072" y="-365.8" font-family="Times,serif" font-size="14.00" fill="#000000">Implement user&#45;facing API</text>
<text text-anchor="middle" x="1072" y="-350.8" font-family="Times,serif" font-size="14.00" fill="#000000">for recursive proving of</text>
<text text-anchor="middle" x="1072" y="-335.8" font-family="Times,serif" font-size="14.00" fill="#000000">IVC</text>
</a>
</g>
</g>
<!-- zcash/halo2#251&#45;&gt;zcash/halo2#75 -->
<g id="edge9" class="edge">
<title>zcash/halo2#251&#45;&gt;zcash/halo2#75</title>
<path fill="none" stroke="#000000" d="M1176.5,-396.12C1193.8,-401.79 1211.7,-407.64 1228.7,-413.19"/>
<polygon fill="#000000" stroke="#000000" points="1228.0074,-416.6459 1238.6,-416.43 1230.1847,-409.9932 1228.0074,-416.6459"/>
</g>
<!-- zcash/halo2#437 -->
<g id="node19" class="node open">
<title>zcash/halo2#437</title>
<g id="a_node19"><a xlink:href="https://github.com/zcash/halo2/issues/437" xlink:title="zcash/halo2#437&#10;Amend user&#45;facing API to&#10;work for both IVC and PCD" target="_blank">
<polygon fill="#c2e0c6" stroke="#000000" points="1427,-357.5 1213,-357.5 1213,-304.5 1427,-304.5 1427,-357.5"/>
<text text-anchor="middle" x="1320" y="-342.3" font-family="Times,serif" font-size="14.00" fill="#000000">zcash/halo2#437</text>
<text text-anchor="middle" x="1320" y="-327.3" font-family="Times,serif" font-size="14.00" fill="#000000">Amend user&#45;facing API to</text>
<text text-anchor="middle" x="1320" y="-312.3" font-family="Times,serif" font-size="14.00" fill="#000000">work for both IVC and PCD</text>
</a>
</g>
</g>
<!-- zcash/halo2#251&#45;&gt;zcash/halo2#437 -->
<g id="edge10" class="edge">
<title>zcash/halo2#251&#45;&gt;zcash/halo2#437</title>
<path fill="none" stroke="#000000" d="M1177.2,-348.85C1185.6,-347.8 1194.2,-346.73 1202.7,-345.66"/>
<polygon fill="#000000" stroke="#000000" points="1203.2114,-349.1234 1212.7,-344.41 1202.3431,-342.1775 1203.2114,-349.1234"/>
</g>
<!-- zcash/halo2#436 -->
<g id="node20" class="node open">
<title>zcash/halo2#436</title>
<g id="a_node20"><a xlink:href="https://github.com/zcash/halo2/issues/436" xlink:title="zcash/halo2#436&#10;Implement mock&#10;verification circuit for&#10;PCD" target="_blank">
<polygon fill="#c2e0c6" stroke="#000000" points="678,-294 503,-294 503,-226 678,-226 678,-294"/>
<text text-anchor="middle" x="590.5" y="-278.8" font-family="Times,serif" font-size="14.00" fill="#000000">zcash/halo2#436</text>
<text text-anchor="middle" x="590.5" y="-263.8" font-family="Times,serif" font-size="14.00" fill="#000000">Implement mock</text>
<text text-anchor="middle" x="590.5" y="-248.8" font-family="Times,serif" font-size="14.00" fill="#000000">verification circuit for</text>
<text text-anchor="middle" x="590.5" y="-233.8" font-family="Times,serif" font-size="14.00" fill="#000000">PCD</text>
</a>
</g>
</g>
<!-- zcash/halo2#436&#45;&gt;zcash/halo2#437 -->
<g id="edge11" class="edge">
<title>zcash/halo2#436&#45;&gt;zcash/halo2#437</title>
<path fill="none" stroke="#000000" d="M678.3,-273.86C693.84,-276.08 709.88,-278.23 725,-280 748.29,-282.73 1036,-307.08 1202.6,-321.13"/>
<polygon fill="#000000" stroke="#000000" points="1202.6434,-324.6457 1212.9,-321.99 1203.2259,-317.67 1202.6434,-324.6457"/>
</g>
<!-- zcash/halo2#438 -->
<g id="node21" class="node open">
<title>zcash/halo2#438</title>
<g id="a_node21"><a xlink:href="https://github.com/zcash/halo2/issues/438" xlink:title="zcash/halo2#438&#10;Implement the logic for&#10;the PCD verifier circuit" target="_blank">
<polygon fill="#c2e0c6" stroke="#000000" points="921,-271.5 735,-271.5 735,-218.5 921,-218.5 921,-271.5"/>
<text text-anchor="middle" x="828" y="-256.3" font-family="Times,serif" font-size="14.00" fill="#000000">zcash/halo2#438</text>
<text text-anchor="middle" x="828" y="-241.3" font-family="Times,serif" font-size="14.00" fill="#000000">Implement the logic for</text>
<text text-anchor="middle" x="828" y="-226.3" font-family="Times,serif" font-size="14.00" fill="#000000">the PCD verifier circuit</text>
</a>
</g>
</g>
<!-- zcash/halo2#436&#45;&gt;zcash/halo2#438 -->
<g id="edge12" class="edge">
<title>zcash/halo2#436&#45;&gt;zcash/halo2#438</title>
<path fill="none" stroke="#000000" d="M678.26,-254.46C693.33,-253.51 709.11,-252.51 724.54,-251.53"/>
<polygon fill="#000000" stroke="#000000" points="724.8578,-255.0171 734.62,-250.9 724.4211,-248.0307 724.8578,-255.0171"/>
</g>
<!-- zcash/halo2#435 -->
<g id="node22" class="node open">
<title>zcash/halo2#435</title>
<g id="a_node22"><a xlink:href="https://github.com/zcash/halo2/issues/435" xlink:title="zcash/halo2#435&#10;Implement mock&#10;verification circuit for&#10;IVC" target="_blank">
<polygon fill="#c2e0c6" stroke="#000000" points="678,-380 503,-380 503,-312 678,-312 678,-380"/>
<text text-anchor="middle" x="590.5" y="-364.8" font-family="Times,serif" font-size="14.00" fill="#000000">zcash/halo2#435</text>
<text text-anchor="middle" x="590.5" y="-349.8" font-family="Times,serif" font-size="14.00" fill="#000000">Implement mock</text>
<text text-anchor="middle" x="590.5" y="-334.8" font-family="Times,serif" font-size="14.00" fill="#000000">verification circuit for</text>
<text text-anchor="middle" x="590.5" y="-319.8" font-family="Times,serif" font-size="14.00" fill="#000000">IVC</text>
</a>
</g>
</g>
<!-- zcash/halo2#247 -->
<g id="node23" class="node open">
<title>zcash/halo2#247</title>
<g id="a_node23"><a xlink:href="https://github.com/zcash/halo2/issues/247" xlink:title="zcash/halo2#247&#10;Implement underlying&#10;scaffolding for creating&#10;the IVC proof cycle" target="_blank">
<polygon fill="#c2e0c6" stroke="#000000" points="920.5,-396 735.5,-396 735.5,-328 920.5,-328 920.5,-396"/>
<text text-anchor="middle" x="828" y="-380.8" font-family="Times,serif" font-size="14.00" fill="#000000">zcash/halo2#247</text>
<text text-anchor="middle" x="828" y="-365.8" font-family="Times,serif" font-size="14.00" fill="#000000">Implement underlying</text>
<text text-anchor="middle" x="828" y="-350.8" font-family="Times,serif" font-size="14.00" fill="#000000">scaffolding for creating</text>
<text text-anchor="middle" x="828" y="-335.8" font-family="Times,serif" font-size="14.00" fill="#000000">the IVC proof cycle</text>
</a>
</g>
</g>
<!-- zcash/halo2#435&#45;&gt;zcash/halo2#247 -->
<g id="edge13" class="edge">
<title>zcash/halo2#435&#45;&gt;zcash/halo2#247</title>
<path fill="none" stroke="#000000" d="M678.26,-351.91C693.55,-352.94 709.57,-354.02 725.21,-355.08"/>
<polygon fill="#000000" stroke="#000000" points="725.2095,-358.5876 735.42,-355.76 725.6747,-351.6031 725.2095,-358.5876"/>
</g>
<!-- zcash/halo2#247&#45;&gt;zcash/halo2#250 -->
<g id="edge14" class="edge">
<title>zcash/halo2#247&#45;&gt;zcash/halo2#250</title>
<path fill="none" stroke="#000000" d="M919.14,-396.31C923.34,-399.3 927.33,-402.52 931,-406 957.27,-430.87 939.94,-454.99 967,-479 968.76,-480.56 970.59,-482.06 972.49,-483.5"/>
<polygon fill="#000000" stroke="#000000" points="970.898,-486.651 981.13,-489.4 974.8455,-480.8703 970.898,-486.651"/>
</g>
<!-- zcash/halo2#247&#45;&gt;zcash/halo2#251 -->
<g id="edge15" class="edge">
<title>zcash/halo2#247&#45;&gt;zcash/halo2#251</title>
<path fill="none" stroke="#000000" d="M920.59,-362C932.39,-362 944.58,-362 956.68,-362"/>
<polygon fill="#000000" stroke="#000000" points="956.81,-365.5001 966.81,-362 956.81,-358.5001 956.81,-365.5001"/>
</g>
<!-- zcash/halo2#246 -->
<g id="node24" class="node open">
<title>zcash/halo2#246</title>
<g id="a_node24"><a xlink:href="https://github.com/zcash/halo2/issues/246" xlink:title="zcash/halo2#246&#10;Create recursive proof&#10;structures" target="_blank">
<polygon fill="#c2e0c6" stroke="#000000" points="448.5,-352.5 269.5,-352.5 269.5,-299.5 448.5,-299.5 448.5,-352.5"/>
<text text-anchor="middle" x="359" y="-337.3" font-family="Times,serif" font-size="14.00" fill="#000000">zcash/halo2#246</text>
<text text-anchor="middle" x="359" y="-322.3" font-family="Times,serif" font-size="14.00" fill="#000000">Create recursive proof</text>
<text text-anchor="middle" x="359" y="-307.3" font-family="Times,serif" font-size="14.00" fill="#000000">structures</text>
</a>
</g>
</g>
<!-- zcash/halo2#246&#45;&gt;zcash/halo2#436 -->
<g id="edge16" class="edge">
<title>zcash/halo2#246&#45;&gt;zcash/halo2#436</title>
<path fill="none" stroke="#000000" d="M448.5,-300.48C463.12,-296.32 478.32,-291.98 493.11,-287.77"/>
<polygon fill="#000000" stroke="#000000" points="494.108,-291.125 502.76,-285.01 492.183,-284.3948 494.108,-291.125"/>
</g>
<!-- zcash/halo2#246&#45;&gt;zcash/halo2#435 -->
<g id="edge17" class="edge">
<title>zcash/halo2#246&#45;&gt;zcash/halo2#435</title>
<path fill="none" stroke="#000000" d="M448.5,-333.73C462.98,-334.98 478.03,-336.28 492.69,-337.55"/>
<polygon fill="#000000" stroke="#000000" points="492.4958,-341.0462 502.76,-338.42 493.0984,-334.0722 492.4958,-341.0462"/>
</g>
<!-- zcash/halo2#439 -->
<g id="node25" class="node open">
<title>zcash/halo2#439</title>
<g id="a_node25"><a xlink:href="https://github.com/zcash/halo2/issues/439" xlink:title="zcash/halo2#439&#10;Support split&#10;accumulation in Halo 2" target="_blank">
<polygon fill="#c2e0c6" stroke="#000000" stroke-width="2" points="204.5,-352.5 21.5,-352.5 21.5,-299.5 204.5,-299.5 204.5,-352.5"/>
<text text-anchor="middle" x="113" y="-337.3" font-family="Times,serif" font-size="14.00" fill="#000000">zcash/halo2#439</text>
<text text-anchor="middle" x="113" y="-322.3" font-family="Times,serif" font-size="14.00" fill="#000000">Support split</text>
<text text-anchor="middle" x="113" y="-307.3" font-family="Times,serif" font-size="14.00" fill="#000000">accumulation in Halo 2</text>
</a>
</g>
</g>
<!-- zcash/halo2#439&#45;&gt;zcash/halo2#246 -->
<g id="edge18" class="edge">
<title>zcash/halo2#439&#45;&gt;zcash/halo2#246</title>
<path fill="none" stroke="#000000" d="M204.6,-326C222.38,-326 241.1,-326 259.14,-326"/>
<polygon fill="#000000" stroke="#000000" points="259.37,-329.5001 269.37,-326 259.37,-322.5001 259.37,-329.5001"/>
</g>
<!-- zcash/halo2#359 -->
<g id="node26" class="node open">
<title>zcash/halo2#359</title>
<g id="a_node26"><a xlink:href="https://github.com/zcash/halo2/issues/359" xlink:title="zcash/halo2#359&#10;Set up `BaseTranscript`,&#10;`ScalarTranscript`" target="_blank">
<polygon fill="#c2e0c6" stroke="#000000" stroke-width="2" points="689,-451.5 492,-451.5 492,-398.5 689,-398.5 689,-451.5"/>
<text text-anchor="middle" x="590.5" y="-436.3" font-family="Times,serif" font-size="14.00" fill="#000000">zcash/halo2#359</text>
<text text-anchor="middle" x="590.5" y="-421.3" font-family="Times,serif" font-size="14.00" fill="#000000">Set up `BaseTranscript`,</text>
<text text-anchor="middle" x="590.5" y="-406.3" font-family="Times,serif" font-size="14.00" fill="#000000">`ScalarTranscript`</text>
</a>
</g>
</g>
<!-- zcash/halo2#359&#45;&gt;zcash/halo2#247 -->
<g id="edge19" class="edge">
<title>zcash/halo2#359&#45;&gt;zcash/halo2#247</title>
<path fill="none" stroke="#000000" d="M689.16,-398.83C701.11,-395.66 713.33,-392.42 725.34,-389.23"/>
<polygon fill="#000000" stroke="#000000" points="726.5928,-392.5187 735.36,-386.57 724.7967,-385.7531 726.5928,-392.5187"/>
</g>
<!-- zcash/halo2#249 -->
<g id="node27" class="node open">
<title>zcash/halo2#249</title>
<g id="a_node27"><a xlink:href="https://github.com/zcash/halo2/issues/249" xlink:title="zcash/halo2#249&#10;Implement recursion&#10;circuit logic for&#10;handling public inputs" target="_blank">
<polygon fill="#c2e0c6" stroke="#000000" stroke-width="2" points="916.5,-554 739.5,-554 739.5,-486 916.5,-486 916.5,-554"/>
<text text-anchor="middle" x="828" y="-538.8" font-family="Times,serif" font-size="14.00" fill="#000000">zcash/halo2#249</text>
<text text-anchor="middle" x="828" y="-523.8" font-family="Times,serif" font-size="14.00" fill="#000000">Implement recursion</text>
<text text-anchor="middle" x="828" y="-508.8" font-family="Times,serif" font-size="14.00" fill="#000000">circuit logic for</text>
<text text-anchor="middle" x="828" y="-493.8" font-family="Times,serif" font-size="14.00" fill="#000000">handling public inputs</text>
</a>
</g>
</g>
<!-- zcash/halo2#249&#45;&gt;zcash/halo2#250 -->
<g id="edge20" class="edge">
<title>zcash/halo2#249&#45;&gt;zcash/halo2#250</title>
<path fill="none" stroke="#000000" d="M916.78,-518.54C933.64,-518.27 951.41,-517.98 968.68,-517.69"/>
<polygon fill="#000000" stroke="#000000" points="968.8268,-521.1882 978.77,-517.53 968.7157,-514.1891 968.8268,-521.1882"/>
</g>
<!-- zcash/halo2#380 -->
<g id="node28" class="node committed">
<title>zcash/halo2#380</title>
<g id="a_node28"><a xlink:href="https://github.com/zcash/halo2/pull/380" xlink:title="zcash/halo2#380&#10;[book] Fix errors and&#10;typos" target="_blank">
<polygon fill="#a6cfff" stroke="#000000" stroke-width="2" points="197,-139.5 29,-139.5 29,-135.5 25,-135.5 25,-131.5 29,-131.5 29,-94.5 25,-94.5 25,-90.5 29,-90.5 29,-86.5 197,-86.5 197,-139.5"/>
<polyline fill="none" stroke="#000000" stroke-width="2" points="29,-135.5 33,-135.5 33,-131.5 29,-131.5 "/>
<polyline fill="none" stroke="#000000" stroke-width="2" points="29,-94.5 33,-94.5 33,-90.5 29,-90.5 "/>
<text text-anchor="middle" x="113" y="-124.3" font-family="Times,serif" font-size="14.00" fill="#000000">zcash/halo2#380</text>
<text text-anchor="middle" x="113" y="-109.3" font-family="Times,serif" font-size="14.00" fill="#000000">[book] Fix errors and</text>
<text text-anchor="middle" x="113" y="-94.3" font-family="Times,serif" font-size="14.00" fill="#000000">typos</text>
</a>
</g>
</g>
<!-- zcash/halo2#380&#45;&gt;zcash/halo2#426 -->
<g id="edge21" class="edge">
<title>zcash/halo2#380&#45;&gt;zcash/halo2#426</title>
<path fill="none" stroke="#000000" d="M197.32,-113C218.21,-113 240.76,-113 262.19,-113"/>
<polygon fill="#000000" stroke="#000000" points="262.28,-116.5001 272.28,-113 262.28,-109.5001 262.28,-116.5001"/>
</g>
<!-- zcash/halo2#248 -->
<g id="node29" class="node open">
<title>zcash/halo2#248</title>
<g id="a_node29"><a xlink:href="https://github.com/zcash/halo2/issues/248" xlink:title="zcash/halo2#248&#10;Implement endoscaling in&#10;the circuit" target="_blank">
<polygon fill="#c2e0c6" stroke="#000000" stroke-width="2" points="929.5,-467.5 726.5,-467.5 726.5,-414.5 929.5,-414.5 929.5,-467.5"/>
<text text-anchor="middle" x="828" y="-452.3" font-family="Times,serif" font-size="14.00" fill="#000000">zcash/halo2#248</text>
<text text-anchor="middle" x="828" y="-437.3" font-family="Times,serif" font-size="14.00" fill="#000000">Implement endoscaling in</text>
<text text-anchor="middle" x="828" y="-422.3" font-family="Times,serif" font-size="14.00" fill="#000000">the circuit</text>
</a>
</g>
</g>
<!-- zcash/halo2#248&#45;&gt;zcash/halo2#250 -->
<g id="edge22" class="edge">
<title>zcash/halo2#248&#45;&gt;zcash/halo2#250</title>
<path fill="none" stroke="#000000" d="M914.37,-467.55C934.37,-473.7 955.77,-480.27 976.15,-486.54"/>
<polygon fill="#000000" stroke="#000000" points="975.163,-489.8982 985.75,-489.49 977.2192,-483.207 975.163,-489.8982"/>
</g>
<!-- zcash/halo2#245 -->
<g id="node30" class="node open">
<title>zcash/halo2#245</title>
<g id="a_node30"><a xlink:href="https://github.com/zcash/halo2/issues/245" xlink:title="zcash/halo2#245&#10;Remove the need to&#10;multiply by powers of x^n&#10;in verifier" target="_blank">
<polygon fill="#c2e0c6" stroke="#000000" stroke-width="2" points="931,-640 725,-640 725,-572 931,-572 931,-640"/>
<text text-anchor="middle" x="828" y="-624.8" font-family="Times,serif" font-size="14.00" fill="#000000">zcash/halo2#245</text>
<text text-anchor="middle" x="828" y="-609.8" font-family="Times,serif" font-size="14.00" fill="#000000">Remove the need to</text>
<text text-anchor="middle" x="828" y="-594.8" font-family="Times,serif" font-size="14.00" fill="#000000">multiply by powers of x^n</text>
<text text-anchor="middle" x="828" y="-579.8" font-family="Times,serif" font-size="14.00" fill="#000000">in verifier</text>
</a>
</g>
</g>
<!-- zcash/halo2#245&#45;&gt;zcash/halo2#250 -->
<g id="edge23" class="edge">
<title>zcash/halo2#245&#45;&gt;zcash/halo2#250</title>
<path fill="none" stroke="#000000" d="M920.25,-571.97C943.27,-563.48 967.81,-554.43 990.28,-546.14"/>
<polygon fill="#000000" stroke="#000000" points="991.6066,-549.3813 999.78,-542.64 989.1866,-542.8129 991.6066,-549.3813"/>
</g>
<!-- zcash/halo2#548 -->
<g id="node31" class="node open">
<title>zcash/halo2#548</title>
<g id="a_node31"><a xlink:href="https://github.com/zcash/halo2/issues/548" xlink:title="zcash/halo2#548&#10;Implement performance and&#10;memory optimizations for&#10;halo2_proofs" target="_blank">
<polygon fill="#c2e0c6" stroke="#000000" stroke-width="2" points="223.5,-912 2.5,-912 2.5,-844 223.5,-844 223.5,-912"/>
<text text-anchor="middle" x="113" y="-896.8" font-family="Times,serif" font-size="14.00" fill="#000000">zcash/halo2#548</text>
<text text-anchor="middle" x="113" y="-881.8" font-family="Times,serif" font-size="14.00" fill="#000000">Implement performance and</text>
<text text-anchor="middle" x="113" y="-866.8" font-family="Times,serif" font-size="14.00" fill="#000000">memory optimizations for</text>
<text text-anchor="middle" x="113" y="-851.8" font-family="Times,serif" font-size="14.00" fill="#000000">halo2_proofs</text>
</a>
</g>
</g>
<!-- zcash/halo2#483 -->
<g id="node32" class="node committed">
<title>zcash/halo2#483</title>
<g id="a_node32"><a xlink:href="https://github.com/zcash/halo2/issues/483" xlink:title="zcash/halo2#483&#10;Refactor variable&#45;base&#10;scalar mul to distinguish&#10;the &quot;base field element&quot;&#10;case" target="_blank">
<polygon fill="#a6cfff" stroke="#000000" stroke-width="2" points="456,-240.5 262,-240.5 262,-157.5 456,-157.5 456,-240.5"/>
<text text-anchor="middle" x="359" y="-225.3" font-family="Times,serif" font-size="14.00" fill="#000000">zcash/halo2#483</text>
<text text-anchor="middle" x="359" y="-210.3" font-family="Times,serif" font-size="14.00" fill="#000000">Refactor variable&#45;base</text>
<text text-anchor="middle" x="359" y="-195.3" font-family="Times,serif" font-size="14.00" fill="#000000">scalar mul to distinguish</text>
<text text-anchor="middle" x="359" y="-180.3" font-family="Times,serif" font-size="14.00" fill="#000000">the &quot;base field element&quot;</text>
<text text-anchor="middle" x="359" y="-165.3" font-family="Times,serif" font-size="14.00" fill="#000000">case</text>
</a>
</g>
</g>
<!-- zcash/halo2#483&#45;&gt;zcash/halo2#460 -->
<g id="edge24" class="edge">
<title>zcash/halo2#483&#45;&gt;zcash/halo2#460</title>
<path fill="none" stroke="#000000" d="M456.17,-190.19C466.58,-189.24 477.19,-188.28 487.66,-187.33"/>
<polygon fill="#000000" stroke="#000000" points="488.0088,-190.8128 497.65,-186.42 487.3737,-183.8417 488.0088,-190.8128"/>
</g>
<!-- zcash/halo2#569 -->
<g id="node33" class="node open">
<title>zcash/halo2#569</title>
<g id="a_node33"><a xlink:href="https://github.com/zcash/halo2/issues/569" xlink:title="zcash/halo2#569&#10;Implement the recursive&#10;proof verifier" target="_blank">
<polygon fill="#c2e0c6" stroke="#000000" stroke-width="2" points="1169,-469.5 975,-469.5 975,-416.5 1169,-416.5 1169,-469.5"/>
<text text-anchor="middle" x="1072" y="-454.3" font-family="Times,serif" font-size="14.00" fill="#000000">zcash/halo2#569</text>
<text text-anchor="middle" x="1072" y="-439.3" font-family="Times,serif" font-size="14.00" fill="#000000">Implement the recursive</text>
<text text-anchor="middle" x="1072" y="-424.3" font-family="Times,serif" font-size="14.00" fill="#000000">proof verifier</text>
</a>
</g>
</g>
<!-- zcash/halo2#569&#45;&gt;zcash/halo2#75 -->
<g id="edge25" class="edge">
<title>zcash/halo2#569&#45;&gt;zcash/halo2#75</title>
<path fill="none" stroke="#000000" d="M1169.3,-443C1185.9,-443 1203.2,-443 1219.9,-443"/>
<polygon fill="#000000" stroke="#000000" points="1220.3,-446.5001 1230.3,-443 1220.3,-439.5001 1220.3,-446.5001"/>
</g>
<!-- zcash/halo2#312 -->
<g id="node34" class="node open">
<title>zcash/halo2#312</title>
<g id="a_node34"><a xlink:href="https://github.com/zcash/halo2/issues/312" xlink:title="zcash/halo2#312&#10;[Book] Document gadget&#10;API" target="_blank">
<polygon fill="#c2e0c6" stroke="#000000" stroke-width="2" points="210.5,-983.5 15.5,-983.5 15.5,-930.5 210.5,-930.5 210.5,-983.5"/>
<text text-anchor="middle" x="113" y="-968.3" font-family="Times,serif" font-size="14.00" fill="#000000">zcash/halo2#312</text>
<text text-anchor="middle" x="113" y="-953.3" font-family="Times,serif" font-size="14.00" fill="#000000">[Book] Document gadget</text>
<text text-anchor="middle" x="113" y="-938.3" font-family="Times,serif" font-size="14.00" fill="#000000">API</text>
</a>
</g>
</g>
</g>
</svg>
