<?xml version="1.0" encoding="UTF-8" standalone="no"?>
<?xml-stylesheet href="zcash-dag.css" type="text/css"?>
<!DOCTYPE svg PUBLIC "-//W3C//DTD SVG 1.1//EN"
 "http://www.w3.org/Graphics/SVG/1.1/DTD/svg11.dtd">
<!-- Generated by graphviz version 2.40.1 (20161225.0304)
 -->
<!-- Pages: 1 -->
<svg width="1660pt" height="779pt"
 viewBox="0.00 0.00 1660.00 778.50" xmlns="http://www.w3.org/2000/svg" xmlns:xlink="http://www.w3.org/1999/xlink">
<g id="graph0" class="graph" transform="scale(1 1) rotate(0) translate(4 774.5)">
<polygon fill="#ffffff" stroke="transparent" points="-4,4 -4,-774.5 1656,-774.5 1656,4 -4,4"/>
<!-- zcash/pasta_curves#35 -->
<g id="node1" class="node open">
<title>zcash/pasta_curves#35</title>
<g id="a_node1"><a xlink:href="https://github.com/zcash/pasta_curves/issues/35" xlink:title="zcash/pasta_curves#35&#10;Enable `ec&#45;gpu` to&#10;generate MSM and FFT code&#10;for `pasta_curves`" target="_blank">
<polygon fill="#c2e0c6" stroke="#000000" stroke-width="2" points="226,-68 0,-68 0,0 226,0 226,-68"/>
<text text-anchor="middle" x="113" y="-52.8" font-family="Times,serif" font-size="14.00" fill="#000000">zcash/pasta_curves#35</text>
<text text-anchor="middle" x="113" y="-37.8" font-family="Times,serif" font-size="14.00" fill="#000000">Enable `ec&#45;gpu` to</text>
<text text-anchor="middle" x="113" y="-22.8" font-family="Times,serif" font-size="14.00" fill="#000000">generate MSM and FFT code</text>
<text text-anchor="middle" x="113" y="-7.8" font-family="Times,serif" font-size="14.00" fill="#000000">for `pasta_curves`</text>
</a>
</g>
</g>
<!-- zcash/halo2#379 -->
<g id="node2" class="node open">
<title>zcash/halo2#379</title>
<g id="a_node2"><a xlink:href="https://github.com/zcash/halo2/issues/379" xlink:title="zcash/halo2#379&#10;Add `ec&#45;gpu` support" target="_blank">
<polygon fill="#c2e0c6" stroke="#000000" points="445.5,-53 272.5,-53 272.5,-15 445.5,-15 445.5,-53"/>
<text text-anchor="middle" x="359" y="-37.8" font-family="Times,serif" font-size="14.00" fill="#000000">zcash/halo2#379</text>
<text text-anchor="middle" x="359" y="-22.8" font-family="Times,serif" font-size="14.00" fill="#000000">Add `ec&#45;gpu` support</text>
</a>
</g>
</g>
<!-- zcash/pasta_curves#35&#45;&gt;zcash/halo2#379 -->
<g id="edge1" class="edge">
<title>zcash/pasta_curves#35&#45;&gt;zcash/halo2#379</title>
<path fill="none" stroke="#000000" d="M226.28,-34C238.28,-34 250.4,-34 262.18,-34"/>
<polygon fill="#000000" stroke="#000000" points="262.44,-37.5001 272.44,-34 262.44,-30.5001 262.44,-37.5001"/>
</g>
<!-- zcash/halo2#75 -->
<g id="node3" class="node open">
<title>zcash/halo2#75</title>
<g id="a_node3"><a xlink:href="https://github.com/zcash/halo2/issues/75" xlink:title="zcash/halo2#75&#10;Implement support for&#10;recursion" target="_blank">
<polygon fill="#c2e0c6" stroke="#000000" points="1409.5,-253.5 1230.5,-253.5 1230.5,-200.5 1409.5,-200.5 1409.5,-253.5"/>
<text text-anchor="middle" x="1320" y="-238.3" font-family="Times,serif" font-size="14.00" fill="#000000">zcash/halo2#75</text>
<text text-anchor="middle" x="1320" y="-223.3" font-family="Times,serif" font-size="14.00" fill="#000000">Implement support for</text>
<text text-anchor="middle" x="1320" y="-208.3" font-family="Times,serif" font-size="14.00" fill="#000000">recursion</text>
</a>
</g>
</g>
<!-- zcash/halo2#494 -->
<g id="node4" class="node open">
<title>zcash/halo2#494</title>
<g id="a_node4"><a xlink:href="https://github.com/zcash/halo2/issues/494" xlink:title="zcash/halo2#494&#10;Consider adding an API&#10;that enables application&#10;circuits to be built&#10;across both fields" target="_blank">
<polygon fill="#c2e0c6" stroke="#000000" points="1652,-268.5 1463,-268.5 1463,-185.5 1652,-185.5 1652,-268.5"/>
<text text-anchor="middle" x="1557.5" y="-253.3" font-family="Times,serif" font-size="14.00" fill="#000000">zcash/halo2#494</text>
<text text-anchor="middle" x="1557.5" y="-238.3" font-family="Times,serif" font-size="14.00" fill="#000000">Consider adding an API</text>
<text text-anchor="middle" x="1557.5" y="-223.3" font-family="Times,serif" font-size="14.00" fill="#000000">that enables application</text>
<text text-anchor="middle" x="1557.5" y="-208.3" font-family="Times,serif" font-size="14.00" fill="#000000">circuits to be built</text>
<text text-anchor="middle" x="1557.5" y="-193.3" font-family="Times,serif" font-size="14.00" fill="#000000">across both fields</text>
</a>
</g>
</g>
<!-- zcash/halo2#75&#45;&gt;zcash/halo2#494 -->
<g id="edge2" class="edge">
<title>zcash/halo2#75&#45;&gt;zcash/halo2#494</title>
<path fill="none" stroke="#000000" d="M1409.8,-227C1423.7,-227 1438.3,-227 1452.5,-227"/>
<polygon fill="#000000" stroke="#000000" points="1452.8,-230.5001 1462.8,-227 1452.8,-223.5001 1452.8,-230.5001"/>
</g>
<!-- zcash/halo2#79 -->
<g id="node5" class="node open">
<title>zcash/halo2#79</title>
<g id="a_node5"><a xlink:href="https://github.com/zcash/halo2/issues/79" xlink:title="zcash/halo2#79&#10;Migrate Rescue and&#10;Poseidon gadgets to&#10;algebraic hash&#10;abstraction" target="_blank">
<polygon fill="#c2e0c6" stroke="#000000" points="1152.5,-670.5 991.5,-670.5 991.5,-587.5 1152.5,-587.5 1152.5,-670.5"/>
<text text-anchor="middle" x="1072" y="-655.3" font-family="Times,serif" font-size="14.00" fill="#000000">zcash/halo2#79</text>
<text text-anchor="middle" x="1072" y="-640.3" font-family="Times,serif" font-size="14.00" fill="#000000">Migrate Rescue and</text>
<text text-anchor="middle" x="1072" y="-625.3" font-family="Times,serif" font-size="14.00" fill="#000000">Poseidon gadgets to</text>
<text text-anchor="middle" x="1072" y="-610.3" font-family="Times,serif" font-size="14.00" fill="#000000">algebraic hash</text>
<text text-anchor="middle" x="1072" y="-595.3" font-family="Times,serif" font-size="14.00" fill="#000000">abstraction</text>
</a>
</g>
</g>
<!-- zcash/halo2#78 -->
<g id="node6" class="node open">
<title>zcash/halo2#78</title>
<g id="a_node6"><a xlink:href="https://github.com/zcash/halo2/issues/78" xlink:title="zcash/halo2#78&#10;Implement algebraic hash&#10;/ random oracle&#10;abstraction gadget" target="_blank">
<polygon fill="#c2e0c6" stroke="#000000" stroke-width="2" points="930,-663 726,-663 726,-595 930,-595 930,-663"/>
<text text-anchor="middle" x="828" y="-647.8" font-family="Times,serif" font-size="14.00" fill="#000000">zcash/halo2#78</text>
<text text-anchor="middle" x="828" y="-632.8" font-family="Times,serif" font-size="14.00" fill="#000000">Implement algebraic hash</text>
<text text-anchor="middle" x="828" y="-617.8" font-family="Times,serif" font-size="14.00" fill="#000000">/ random oracle</text>
<text text-anchor="middle" x="828" y="-602.8" font-family="Times,serif" font-size="14.00" fill="#000000">abstraction gadget</text>
</a>
</g>
</g>
<!-- zcash/halo2#78&#45;&gt;zcash/halo2#79 -->
<g id="edge3" class="edge">
<title>zcash/halo2#78&#45;&gt;zcash/halo2#79</title>
<path fill="none" stroke="#000000" d="M930.06,-629C947.04,-629 964.55,-629 981.23,-629"/>
<polygon fill="#000000" stroke="#000000" points="981.49,-632.5001 991.49,-629 981.49,-625.5001 981.49,-632.5001"/>
</g>
<!-- zcash/halo2#250 -->
<g id="node7" class="node open">
<title>zcash/halo2#250</title>
<g id="a_node7"><a xlink:href="https://github.com/zcash/halo2/issues/250" xlink:title="zcash/halo2#250&#10;Implement the logic for&#10;the IVC verifier circuit" target="_blank">
<polygon fill="#c2e0c6" stroke="#000000" points="1165,-411.5 979,-411.5 979,-358.5 1165,-358.5 1165,-411.5"/>
<text text-anchor="middle" x="1072" y="-396.3" font-family="Times,serif" font-size="14.00" fill="#000000">zcash/halo2#250</text>
<text text-anchor="middle" x="1072" y="-381.3" font-family="Times,serif" font-size="14.00" fill="#000000">Implement the logic for</text>
<text text-anchor="middle" x="1072" y="-366.3" font-family="Times,serif" font-size="14.00" fill="#000000">the IVC verifier circuit</text>
</a>
</g>
</g>
<!-- zcash/halo2#78&#45;&gt;zcash/halo2#250 -->
<g id="edge4" class="edge">
<title>zcash/halo2#78&#45;&gt;zcash/halo2#250</title>
<path fill="none" stroke="#000000" d="M918.52,-594.89C922.88,-592.12 927.07,-589.16 931,-586 988.22,-539.99 1032.3,-464.9 1055,-420.69"/>
<polygon fill="#000000" stroke="#000000" points="1058.1301,-422.2559 1059.5,-411.75 1051.8776,-419.1086 1058.1301,-422.2559"/>
</g>
<!-- zcash/halo2#250&#45;&gt;zcash/halo2#75 -->
<g id="edge5" class="edge">
<title>zcash/halo2#250&#45;&gt;zcash/halo2#75</title>
<path fill="none" stroke="#000000" d="M1158.3,-358.43C1164.7,-355.53 1171.1,-352.39 1177,-349 1219,-325.06 1260.2,-288 1287.6,-261"/>
<polygon fill="#000000" stroke="#000000" points="1290.3234,-263.2254 1294.9,-253.67 1285.3635,-258.2858 1290.3234,-263.2254"/>
</g>
<!-- zcash/halo2#57 -->
<g id="node8" class="node open">
<title>zcash/halo2#57</title>
<g id="a_node8"><a xlink:href="https://github.com/zcash/halo2/issues/57" xlink:title="zcash/halo2#57&#10;Remove unused&#10;fixed_values from&#10;ProvingKey" target="_blank">
<polygon fill="#c2e0c6" stroke="#000000" stroke-width="2" points="184.5,-226 41.5,-226 41.5,-158 184.5,-158 184.5,-226"/>
<text text-anchor="middle" x="113" y="-210.8" font-family="Times,serif" font-size="14.00" fill="#000000">zcash/halo2#57</text>
<text text-anchor="middle" x="113" y="-195.8" font-family="Times,serif" font-size="14.00" fill="#000000">Remove unused</text>
<text text-anchor="middle" x="113" y="-180.8" font-family="Times,serif" font-size="14.00" fill="#000000">fixed_values from</text>
<text text-anchor="middle" x="113" y="-165.8" font-family="Times,serif" font-size="14.00" fill="#000000">ProvingKey</text>
</a>
</g>
</g>
<!-- zcash/halo2#443 -->
<g id="node9" class="node open">
<title>zcash/halo2#443</title>
<g id="a_node9"><a xlink:href="https://github.com/zcash/halo2/issues/443" xlink:title="zcash/halo2#443&#10;implement `read` &amp;&#10;`write` for `halo2::plonk&#10;::ProvingKey`" target="_blank">
<polygon fill="#c2e0c6" stroke="#000000" points="456,-226 262,-226 262,-158 456,-158 456,-226"/>
<text text-anchor="middle" x="359" y="-210.8" font-family="Times,serif" font-size="14.00" fill="#000000">zcash/halo2#443</text>
<text text-anchor="middle" x="359" y="-195.8" font-family="Times,serif" font-size="14.00" fill="#000000">implement `read` &amp;</text>
<text text-anchor="middle" x="359" y="-180.8" font-family="Times,serif" font-size="14.00" fill="#000000">`write` for `halo2::plonk</text>
<text text-anchor="middle" x="359" y="-165.8" font-family="Times,serif" font-size="14.00" fill="#000000">::ProvingKey`</text>
</a>
</g>
</g>
<!-- zcash/halo2#57&#45;&gt;zcash/halo2#443 -->
<g id="edge6" class="edge">
<title>zcash/halo2#57&#45;&gt;zcash/halo2#443</title>
<path fill="none" stroke="#000000" d="M184.81,-192C205.82,-192 229.24,-192 251.93,-192"/>
<polygon fill="#000000" stroke="#000000" points="251.94,-195.5001 261.94,-192 251.94,-188.5001 251.94,-195.5001"/>
</g>
<!-- zcash/halo2#449 -->
<g id="node10" class="node open">
<title>zcash/halo2#449</title>
<g id="a_node10"><a xlink:href="https://github.com/zcash/halo2/issues/449" xlink:title="zcash/halo2#449&#10;Define a stable&#10;serialization format for&#10;`VerifyingKey`" target="_blank">
<polygon fill="#c2e0c6" stroke="#000000" stroke-width="2" points="204,-312 22,-312 22,-244 204,-244 204,-312"/>
<text text-anchor="middle" x="113" y="-296.8" font-family="Times,serif" font-size="14.00" fill="#000000">zcash/halo2#449</text>
<text text-anchor="middle" x="113" y="-281.8" font-family="Times,serif" font-size="14.00" fill="#000000">Define a stable</text>
<text text-anchor="middle" x="113" y="-266.8" font-family="Times,serif" font-size="14.00" fill="#000000">serialization format for</text>
<text text-anchor="middle" x="113" y="-251.8" font-family="Times,serif" font-size="14.00" fill="#000000">`VerifyingKey`</text>
</a>
</g>
</g>
<!-- zcash/halo2#420 -->
<g id="node11" class="node open">
<title>zcash/halo2#420</title>
<g id="a_node11"><a xlink:href="https://github.com/zcash/halo2/issues/420" xlink:title="zcash/halo2#420&#10;CI: Measure memory&#45;usage&#10;benchmarks" target="_blank">
<polygon fill="#c2e0c6" stroke="#000000" stroke-width="2" points="220.5,-383.5 5.5,-383.5 5.5,-330.5 220.5,-330.5 220.5,-383.5"/>
<text text-anchor="middle" x="113" y="-368.3" font-family="Times,serif" font-size="14.00" fill="#000000">zcash/halo2#420</text>
<text text-anchor="middle" x="113" y="-353.3" font-family="Times,serif" font-size="14.00" fill="#000000">CI: Measure memory&#45;usage</text>
<text text-anchor="middle" x="113" y="-338.3" font-family="Times,serif" font-size="14.00" fill="#000000">benchmarks</text>
</a>
</g>
</g>
<!-- zcash/halo2#418 -->
<g id="node12" class="node open">
<title>zcash/halo2#418</title>
<g id="a_node12"><a xlink:href="https://github.com/zcash/halo2/issues/418" xlink:title="zcash/halo2#418&#10;[memory optimization]&#10;lookup prover memory&#10;analysis" target="_blank">
<polygon fill="#c2e0c6" stroke="#000000" points="448.5,-391 269.5,-391 269.5,-323 448.5,-323 448.5,-391"/>
<text text-anchor="middle" x="359" y="-375.8" font-family="Times,serif" font-size="14.00" fill="#000000">zcash/halo2#418</text>
<text text-anchor="middle" x="359" y="-360.8" font-family="Times,serif" font-size="14.00" fill="#000000">[memory optimization]</text>
<text text-anchor="middle" x="359" y="-345.8" font-family="Times,serif" font-size="14.00" fill="#000000">lookup prover memory</text>
<text text-anchor="middle" x="359" y="-330.8" font-family="Times,serif" font-size="14.00" fill="#000000">analysis</text>
</a>
</g>
</g>
<!-- zcash/halo2#420&#45;&gt;zcash/halo2#418 -->
<g id="edge7" class="edge">
<title>zcash/halo2#420&#45;&gt;zcash/halo2#418</title>
<path fill="none" stroke="#000000" d="M220.54,-357C233.4,-357 246.48,-357 259.22,-357"/>
<polygon fill="#000000" stroke="#000000" points="259.35,-360.5001 269.35,-357 259.35,-353.5001 259.35,-360.5001"/>
</g>
<!-- zcash/halo2#427 -->
<g id="node13" class="node open">
<title>zcash/halo2#427</title>
<g id="a_node13"><a xlink:href="https://github.com/zcash/halo2/issues/427" xlink:title="zcash/halo2#427&#10;Use smaller extended&#10;domains where possible&#10;during proving" target="_blank">
<polygon fill="#c2e0c6" stroke="#000000" stroke-width="2" points="207,-470 19,-470 19,-402 207,-402 207,-470"/>
<text text-anchor="middle" x="113" y="-454.8" font-family="Times,serif" font-size="14.00" fill="#000000">zcash/halo2#427</text>
<text text-anchor="middle" x="113" y="-439.8" font-family="Times,serif" font-size="14.00" fill="#000000">Use smaller extended</text>
<text text-anchor="middle" x="113" y="-424.8" font-family="Times,serif" font-size="14.00" fill="#000000">domains where possible</text>
<text text-anchor="middle" x="113" y="-409.8" font-family="Times,serif" font-size="14.00" fill="#000000">during proving</text>
</a>
</g>
</g>
<!-- zcash/halo2#456 -->
<g id="node14" class="node open">
<title>zcash/halo2#456</title>
<g id="a_node14"><a xlink:href="https://github.com/zcash/halo2/issues/456" xlink:title="zcash/halo2#456&#10;Benchmark `sha256`&#10;gadget." target="_blank">
<polygon fill="#c2e0c6" stroke="#000000" stroke-width="2" points="198,-541.5 28,-541.5 28,-488.5 198,-488.5 198,-541.5"/>
<text text-anchor="middle" x="113" y="-526.3" font-family="Times,serif" font-size="14.00" fill="#000000">zcash/halo2#456</text>
<text text-anchor="middle" x="113" y="-511.3" font-family="Times,serif" font-size="14.00" fill="#000000">Benchmark `sha256`</text>
<text text-anchor="middle" x="113" y="-496.3" font-family="Times,serif" font-size="14.00" fill="#000000">gadget.</text>
</a>
</g>
</g>
<!-- zcash/halo2#455 -->
<g id="node15" class="node open">
<title>zcash/halo2#455</title>
<g id="a_node15"><a xlink:href="https://github.com/zcash/halo2/issues/455" xlink:title="zcash/halo2#455&#10;[Book] add description of&#10;Poseidon gadget and chip" target="_blank">
<polygon fill="#c2e0c6" stroke="#000000" stroke-width="2" points="213,-612.5 13,-612.5 13,-559.5 213,-559.5 213,-612.5"/>
<text text-anchor="middle" x="113" y="-597.3" font-family="Times,serif" font-size="14.00" fill="#000000">zcash/halo2#455</text>
<text text-anchor="middle" x="113" y="-582.3" font-family="Times,serif" font-size="14.00" fill="#000000">[Book] add description of</text>
<text text-anchor="middle" x="113" y="-567.3" font-family="Times,serif" font-size="14.00" fill="#000000">Poseidon gadget and chip</text>
</a>
</g>
</g>
<!-- zcash/halo2#251 -->
<g id="node16" class="node open">
<title>zcash/halo2#251</title>
<g id="a_node16"><a xlink:href="https://github.com/zcash/halo2/issues/251" xlink:title="zcash/halo2#251&#10;Implement user&#45;facing API&#10;for recursive proving of&#10;IVC" target="_blank">
<polygon fill="#c2e0c6" stroke="#000000" points="1177,-175 967,-175 967,-107 1177,-107 1177,-175"/>
<text text-anchor="middle" x="1072" y="-159.8" font-family="Times,serif" font-size="14.00" fill="#000000">zcash/halo2#251</text>
<text text-anchor="middle" x="1072" y="-144.8" font-family="Times,serif" font-size="14.00" fill="#000000">Implement user&#45;facing API</text>
<text text-anchor="middle" x="1072" y="-129.8" font-family="Times,serif" font-size="14.00" fill="#000000">for recursive proving of</text>
<text text-anchor="middle" x="1072" y="-114.8" font-family="Times,serif" font-size="14.00" fill="#000000">IVC</text>
</a>
</g>
</g>
<!-- zcash/halo2#251&#45;&gt;zcash/halo2#75 -->
<g id="edge8" class="edge">
<title>zcash/halo2#251&#45;&gt;zcash/halo2#75</title>
<path fill="none" stroke="#000000" d="M1170.4,-175.11C1191.4,-182.4 1213.4,-190.04 1233.9,-197.16"/>
<polygon fill="#000000" stroke="#000000" points="1233.0054,-200.5533 1243.6,-200.49 1235.2783,-193.9326 1233.0054,-200.5533"/>
</g>
<!-- zcash/halo2#437 -->
<g id="node17" class="node open">
<title>zcash/halo2#437</title>
<g id="a_node17"><a xlink:href="https://github.com/zcash/halo2/issues/437" xlink:title="zcash/halo2#437&#10;Amend user&#45;facing API to&#10;work for both IVC and PCD" target="_blank">
<polygon fill="#c2e0c6" stroke="#000000" points="1427,-100.5 1213,-100.5 1213,-47.5 1427,-47.5 1427,-100.5"/>
<text text-anchor="middle" x="1320" y="-85.3" font-family="Times,serif" font-size="14.00" fill="#000000">zcash/halo2#437</text>
<text text-anchor="middle" x="1320" y="-70.3" font-family="Times,serif" font-size="14.00" fill="#000000">Amend user&#45;facing API to</text>
<text text-anchor="middle" x="1320" y="-55.3" font-family="Times,serif" font-size="14.00" fill="#000000">work for both IVC and PCD</text>
</a>
</g>
</g>
<!-- zcash/halo2#251&#45;&gt;zcash/halo2#437 -->
<g id="edge9" class="edge">
<title>zcash/halo2#251&#45;&gt;zcash/halo2#437</title>
<path fill="none" stroke="#000000" d="M1177.2,-112.59C1188.7,-109.47 1200.5,-106.28 1212.1,-103.15"/>
<polygon fill="#000000" stroke="#000000" points="1213.0529,-106.5182 1221.8,-100.54 1211.234,-99.7586 1213.0529,-106.5182"/>
</g>
<!-- zcash/halo2#436 -->
<g id="node18" class="node open">
<title>zcash/halo2#436</title>
<g id="a_node18"><a xlink:href="https://github.com/zcash/halo2/issues/436" xlink:title="zcash/halo2#436&#10;Implement mock&#10;verification circuit for&#10;PCD" target="_blank">
<polygon fill="#c2e0c6" stroke="#000000" points="678,-68 503,-68 503,0 678,0 678,-68"/>
<text text-anchor="middle" x="590.5" y="-52.8" font-family="Times,serif" font-size="14.00" fill="#000000">zcash/halo2#436</text>
<text text-anchor="middle" x="590.5" y="-37.8" font-family="Times,serif" font-size="14.00" fill="#000000">Implement mock</text>
<text text-anchor="middle" x="590.5" y="-22.8" font-family="Times,serif" font-size="14.00" fill="#000000">verification circuit for</text>
<text text-anchor="middle" x="590.5" y="-7.8" font-family="Times,serif" font-size="14.00" fill="#000000">PCD</text>
</a>
</g>
</g>
<!-- zcash/halo2#436&#45;&gt;zcash/halo2#437 -->
<g id="edge10" class="edge">
<title>zcash/halo2#436&#45;&gt;zcash/halo2#437</title>
<path fill="none" stroke="#000000" d="M678.01,-28.039C693.65,-27.19 709.8,-26.452 725,-26 816.52,-23.281 839.62,-20.383 931,-26 1022.5,-31.623 1125.4,-44.618 1202.4,-55.671"/>
<polygon fill="#000000" stroke="#000000" points="1202.2018,-59.1787 1212.6,-57.147 1203.2044,-52.2509 1202.2018,-59.1787"/>
</g>
<!-- zcash/halo2#438 -->
<g id="node19" class="node open">
<title>zcash/halo2#438</title>
<g id="a_node19"><a xlink:href="https://github.com/zcash/halo2/issues/438" xlink:title="zcash/halo2#438&#10;Implement the logic for&#10;the PCD verifier circuit" target="_blank">
<polygon fill="#c2e0c6" stroke="#000000" points="921,-88.5 735,-88.5 735,-35.5 921,-35.5 921,-88.5"/>
<text text-anchor="middle" x="828" y="-73.3" font-family="Times,serif" font-size="14.00" fill="#000000">zcash/halo2#438</text>
<text text-anchor="middle" x="828" y="-58.3" font-family="Times,serif" font-size="14.00" fill="#000000">Implement the logic for</text>
<text text-anchor="middle" x="828" y="-43.3" font-family="Times,serif" font-size="14.00" fill="#000000">the PCD verifier circuit</text>
</a>
</g>
</g>
<!-- zcash/halo2#436&#45;&gt;zcash/halo2#438 -->
<g id="edge11" class="edge">
<title>zcash/halo2#436&#45;&gt;zcash/halo2#438</title>
<path fill="none" stroke="#000000" d="M678.26,-44.347C693.33,-46.123 709.11,-47.984 724.54,-49.803"/>
<polygon fill="#000000" stroke="#000000" points="724.279,-53.2964 734.62,-50.991 725.0984,-46.3445 724.279,-53.2964"/>
</g>
<!-- zcash/halo2#435 -->
<g id="node20" class="node open">
<title>zcash/halo2#435</title>
<g id="a_node20"><a xlink:href="https://github.com/zcash/halo2/issues/435" xlink:title="zcash/halo2#435&#10;Implement mock&#10;verification circuit for&#10;IVC" target="_blank">
<polygon fill="#c2e0c6" stroke="#000000" points="678,-226 503,-226 503,-158 678,-158 678,-226"/>
<text text-anchor="middle" x="590.5" y="-210.8" font-family="Times,serif" font-size="14.00" fill="#000000">zcash/halo2#435</text>
<text text-anchor="middle" x="590.5" y="-195.8" font-family="Times,serif" font-size="14.00" fill="#000000">Implement mock</text>
<text text-anchor="middle" x="590.5" y="-180.8" font-family="Times,serif" font-size="14.00" fill="#000000">verification circuit for</text>
<text text-anchor="middle" x="590.5" y="-165.8" font-family="Times,serif" font-size="14.00" fill="#000000">IVC</text>
</a>
</g>
</g>
<!-- zcash/halo2#247 -->
<g id="node21" class="node open">
<title>zcash/halo2#247</title>
<g id="a_node21"><a xlink:href="https://github.com/zcash/halo2/issues/247" xlink:title="zcash/halo2#247&#10;Implement underlying&#10;scaffolding for creating&#10;the IVC proof cycle" target="_blank">
<polygon fill="#c2e0c6" stroke="#000000" points="920.5,-175 735.5,-175 735.5,-107 920.5,-107 920.5,-175"/>
<text text-anchor="middle" x="828" y="-159.8" font-family="Times,serif" font-size="14.00" fill="#000000">zcash/halo2#247</text>
<text text-anchor="middle" x="828" y="-144.8" font-family="Times,serif" font-size="14.00" fill="#000000">Implement underlying</text>
<text text-anchor="middle" x="828" y="-129.8" font-family="Times,serif" font-size="14.00" fill="#000000">scaffolding for creating</text>
<text text-anchor="middle" x="828" y="-114.8" font-family="Times,serif" font-size="14.00" fill="#000000">the IVC proof cycle</text>
</a>
</g>
</g>
<!-- zcash/halo2#435&#45;&gt;zcash/halo2#247 -->
<g id="edge12" class="edge">
<title>zcash/halo2#435&#45;&gt;zcash/halo2#247</title>
<path fill="none" stroke="#000000" d="M678.26,-173.15C693.55,-169.87 709.57,-166.43 725.21,-163.07"/>
<polygon fill="#000000" stroke="#000000" points="726.3765,-166.3995 735.42,-160.88 724.9083,-159.5552 726.3765,-166.3995"/>
</g>
<!-- zcash/halo2#247&#45;&gt;zcash/halo2#250 -->
<g id="edge13" class="edge">
<title>zcash/halo2#247&#45;&gt;zcash/halo2#250</title>
<path fill="none" stroke="#000000" d="M920.67,-173.76C924.42,-176.88 927.9,-180.28 931,-184 979.07,-241.65 917.08,-292.95 967,-349 968.19,-350.34 969.43,-351.62 970.72,-352.86"/>
<polygon fill="#000000" stroke="#000000" points="968.6578,-355.6984 978.57,-359.44 973.1546,-350.3337 968.6578,-355.6984"/>
</g>
<!-- zcash/halo2#247&#45;&gt;zcash/halo2#251 -->
<g id="edge14" class="edge">
<title>zcash/halo2#247&#45;&gt;zcash/halo2#251</title>
<path fill="none" stroke="#000000" d="M920.59,-141C932.39,-141 944.58,-141 956.68,-141"/>
<polygon fill="#000000" stroke="#000000" points="956.81,-144.5001 966.81,-141 956.81,-137.5001 956.81,-144.5001"/>
</g>
<!-- zcash/halo2#246 -->
<g id="node22" class="node open">
<title>zcash/halo2#246</title>
<g id="a_node22"><a xlink:href="https://github.com/zcash/halo2/issues/246" xlink:title="zcash/halo2#246&#10;Create recursive proof&#10;structures" target="_blank">
<polygon fill="#c2e0c6" stroke="#000000" points="448.5,-139.5 269.5,-139.5 269.5,-86.5 448.5,-86.5 448.5,-139.5"/>
<text text-anchor="middle" x="359" y="-124.3" font-family="Times,serif" font-size="14.00" fill="#000000">zcash/halo2#246</text>
<text text-anchor="middle" x="359" y="-109.3" font-family="Times,serif" font-size="14.00" fill="#000000">Create recursive proof</text>
<text text-anchor="middle" x="359" y="-94.3" font-family="Times,serif" font-size="14.00" fill="#000000">structures</text>
</a>
</g>
</g>
<!-- zcash/halo2#246&#45;&gt;zcash/halo2#436 -->
<g id="edge15" class="edge">
<title>zcash/halo2#246&#45;&gt;zcash/halo2#436</title>
<path fill="none" stroke="#000000" d="M436.73,-86.474C454.82,-80.301 474.31,-73.651 493.13,-67.229"/>
<polygon fill="#000000" stroke="#000000" points="494.2671,-70.5392 502.6,-63.996 492.0055,-63.9146 494.2671,-70.5392"/>
</g>
<!-- zcash/halo2#246&#45;&gt;zcash/halo2#435 -->
<g id="edge16" class="edge">
<title>zcash/halo2#246&#45;&gt;zcash/halo2#435</title>
<path fill="none" stroke="#000000" d="M436.73,-139.53C454.82,-145.7 474.31,-152.35 493.13,-158.77"/>
<polygon fill="#000000" stroke="#000000" points="492.0055,-162.0844 502.6,-162 494.2653,-155.4592 492.0055,-162.0844"/>
</g>
<!-- zcash/halo2#439 -->
<g id="node23" class="node open">
<title>zcash/halo2#439</title>
<g id="a_node23"><a xlink:href="https://github.com/zcash/halo2/issues/439" xlink:title="zcash/halo2#439&#10;Support split&#10;accumulation in Halo 2" target="_blank">
<polygon fill="#c2e0c6" stroke="#000000" stroke-width="2" points="204.5,-139.5 21.5,-139.5 21.5,-86.5 204.5,-86.5 204.5,-139.5"/>
<text text-anchor="middle" x="113" y="-124.3" font-family="Times,serif" font-size="14.00" fill="#000000">zcash/halo2#439</text>
<text text-anchor="middle" x="113" y="-109.3" font-family="Times,serif" font-size="14.00" fill="#000000">Support split</text>
<text text-anchor="middle" x="113" y="-94.3" font-family="Times,serif" font-size="14.00" fill="#000000">accumulation in Halo 2</text>
</a>
</g>
</g>
<!-- zcash/halo2#439&#45;&gt;zcash/halo2#246 -->
<g id="edge17" class="edge">
<title>zcash/halo2#439&#45;&gt;zcash/halo2#246</title>
<path fill="none" stroke="#000000" d="M204.6,-113C222.38,-113 241.1,-113 259.14,-113"/>
<polygon fill="#000000" stroke="#000000" points="259.37,-116.5001 269.37,-113 259.37,-109.5001 259.37,-116.5001"/>
</g>
<!-- zcash/halo2#359 -->
<g id="node24" class="node open">
<title>zcash/halo2#359</title>
<g id="a_node24"><a xlink:href="https://github.com/zcash/halo2/issues/359" xlink:title="zcash/halo2#359&#10;Set up `BaseTranscript`,&#10;`ScalarTranscript`" target="_blank">
<polygon fill="#c2e0c6" stroke="#000000" stroke-width="2" points="689,-139.5 492,-139.5 492,-86.5 689,-86.5 689,-139.5"/>
<text text-anchor="middle" x="590.5" y="-124.3" font-family="Times,serif" font-size="14.00" fill="#000000">zcash/halo2#359</text>
<text text-anchor="middle" x="590.5" y="-109.3" font-family="Times,serif" font-size="14.00" fill="#000000">Set up `BaseTranscript`,</text>
<text text-anchor="middle" x="590.5" y="-94.3" font-family="Times,serif" font-size="14.00" fill="#000000">`ScalarTranscript`</text>
</a>
</g>
</g>
<!-- zcash/halo2#359&#45;&gt;zcash/halo2#247 -->
<g id="edge18" class="edge">
<title>zcash/halo2#359&#45;&gt;zcash/halo2#247</title>
<path fill="none" stroke="#000000" d="M689.16,-124.63C701.11,-126.04 713.33,-127.48 725.34,-128.9"/>
<polygon fill="#000000" stroke="#000000" points="725.0193,-132.3863 735.36,-130.08 725.838,-125.4344 725.0193,-132.3863"/>
</g>
<!-- zcash/halo2#249 -->
<g id="node25" class="node open">
<title>zcash/halo2#249</title>
<g id="a_node25"><a xlink:href="https://github.com/zcash/halo2/issues/249" xlink:title="zcash/halo2#249&#10;Implement recursion&#10;circuit logic for&#10;handling public inputs" target="_blank">
<polygon fill="#c2e0c6" stroke="#000000" stroke-width="2" points="916.5,-577 739.5,-577 739.5,-509 916.5,-509 916.5,-577"/>
<text text-anchor="middle" x="828" y="-561.8" font-family="Times,serif" font-size="14.00" fill="#000000">zcash/halo2#249</text>
<text text-anchor="middle" x="828" y="-546.8" font-family="Times,serif" font-size="14.00" fill="#000000">Implement recursion</text>
<text text-anchor="middle" x="828" y="-531.8" font-family="Times,serif" font-size="14.00" fill="#000000">circuit logic for</text>
<text text-anchor="middle" x="828" y="-516.8" font-family="Times,serif" font-size="14.00" fill="#000000">handling public inputs</text>
</a>
</g>
</g>
<!-- zcash/halo2#249&#45;&gt;zcash/halo2#250 -->
<g id="edge19" class="edge">
<title>zcash/halo2#249&#45;&gt;zcash/halo2#250</title>
<path fill="none" stroke="#000000" d="M914.89,-508.89C920.43,-506.06 925.85,-503.09 931,-500 969.84,-476.73 1009.4,-443.46 1036.7,-418.69"/>
<polygon fill="#000000" stroke="#000000" points="1039.4012,-420.9614 1044.4,-411.62 1034.6668,-415.8052 1039.4012,-420.9614"/>
</g>
<!-- zcash/halo2#248 -->
<g id="node26" class="node open">
<title>zcash/halo2#248</title>
<g id="a_node26"><a xlink:href="https://github.com/zcash/halo2/issues/248" xlink:title="zcash/halo2#248&#10;Implement endoscaling in&#10;the circuit" target="_blank">
<polygon fill="#c2e0c6" stroke="#000000" stroke-width="2" points="929.5,-490.5 726.5,-490.5 726.5,-437.5 929.5,-437.5 929.5,-490.5"/>
<text text-anchor="middle" x="828" y="-475.3" font-family="Times,serif" font-size="14.00" fill="#000000">zcash/halo2#248</text>
<text text-anchor="middle" x="828" y="-460.3" font-family="Times,serif" font-size="14.00" fill="#000000">Implement endoscaling in</text>
<text text-anchor="middle" x="828" y="-445.3" font-family="Times,serif" font-size="14.00" fill="#000000">the circuit</text>
</a>
</g>
</g>
<!-- zcash/halo2#248&#45;&gt;zcash/halo2#250 -->
<g id="edge20" class="edge">
<title>zcash/halo2#248&#45;&gt;zcash/halo2#250</title>
<path fill="none" stroke="#000000" d="M909.93,-437.47C932.46,-430.18 957.04,-422.22 980.1,-414.76"/>
<polygon fill="#000000" stroke="#000000" points="981.4384,-418.0055 989.87,-411.59 979.2779,-411.3472 981.4384,-418.0055"/>
</g>
<!-- zcash/halo2#245 -->
<g id="node27" class="node open">
<title>zcash/halo2#245</title>
<g id="a_node27"><a xlink:href="https://github.com/zcash/halo2/issues/245" xlink:title="zcash/halo2#245&#10;Remove the need to&#10;multiply by powers of x^n&#10;in verifier" target="_blank">
<polygon fill="#c2e0c6" stroke="#000000" stroke-width="2" points="931,-419 725,-419 725,-351 931,-351 931,-419"/>
<text text-anchor="middle" x="828" y="-403.8" font-family="Times,serif" font-size="14.00" fill="#000000">zcash/halo2#245</text>
<text text-anchor="middle" x="828" y="-388.8" font-family="Times,serif" font-size="14.00" fill="#000000">Remove the need to</text>
<text text-anchor="middle" x="828" y="-373.8" font-family="Times,serif" font-size="14.00" fill="#000000">multiply by powers of x^n</text>
<text text-anchor="middle" x="828" y="-358.8" font-family="Times,serif" font-size="14.00" fill="#000000">in verifier</text>
</a>
</g>
</g>
<!-- zcash/halo2#245&#45;&gt;zcash/halo2#250 -->
<g id="edge21" class="edge">
<title>zcash/halo2#245&#45;&gt;zcash/halo2#250</title>
<path fill="none" stroke="#000000" d="M931.12,-385C943.52,-385 956.18,-385 968.59,-385"/>
<polygon fill="#000000" stroke="#000000" points="968.93,-388.5001 978.93,-385 968.93,-381.5001 968.93,-388.5001"/>
</g>
<!-- zcash/halo2#548 -->
<g id="node28" class="node open">
<title>zcash/halo2#548</title>
<g id="a_node28"><a xlink:href="https://github.com/zcash/halo2/issues/548" xlink:title="zcash/halo2#548&#10;Implement performance and&#10;memory optimizations for&#10;halo2_proofs" target="_blank">
<polygon fill="#c2e0c6" stroke="#000000" stroke-width="2" points="223.5,-699 2.5,-699 2.5,-631 223.5,-631 223.5,-699"/>
<text text-anchor="middle" x="113" y="-683.8" font-family="Times,serif" font-size="14.00" fill="#000000">zcash/halo2#548</text>
<text text-anchor="middle" x="113" y="-668.8" font-family="Times,serif" font-size="14.00" fill="#000000">Implement performance and</text>
<text text-anchor="middle" x="113" y="-653.8" font-family="Times,serif" font-size="14.00" fill="#000000">memory optimizations for</text>
<text text-anchor="middle" x="113" y="-638.8" font-family="Times,serif" font-size="14.00" fill="#000000">halo2_proofs</text>
</a>
</g>
</g>
<!-- zcash/halo2#569 -->
<g id="node29" class="node open">
<title>zcash/halo2#569</title>
<g id="a_node29"><a xlink:href="https://github.com/zcash/halo2/issues/569" xlink:title="zcash/halo2#569&#10;Implement the recursive&#10;proof verifier" target="_blank">
<polygon fill="#c2e0c6" stroke="#000000" points="1169,-253.5 975,-253.5 975,-200.5 1169,-200.5 1169,-253.5"/>
<text text-anchor="middle" x="1072" y="-238.3" font-family="Times,serif" font-size="14.00" fill="#000000">zcash/halo2#569</text>
<text text-anchor="middle" x="1072" y="-223.3" font-family="Times,serif" font-size="14.00" fill="#000000">Implement the recursive</text>
<text text-anchor="middle" x="1072" y="-208.3" font-family="Times,serif" font-size="14.00" fill="#000000">proof verifier</text>
</a>
</g>
</g>
<!-- zcash/halo2#569&#45;&gt;zcash/halo2#75 -->
<g id="edge22" class="edge">
<title>zcash/halo2#569&#45;&gt;zcash/halo2#75</title>
<path fill="none" stroke="#000000" d="M1169.3,-227C1185.9,-227 1203.2,-227 1219.9,-227"/>
<polygon fill="#000000" stroke="#000000" points="1220.3,-230.5001 1230.3,-227 1220.3,-223.5001 1220.3,-230.5001"/>
</g>
<!-- zcash/halo2#578 -->
<g id="node30" class="node open">
<title>zcash/halo2#578</title>
<g id="a_node30"><a xlink:href="https://github.com/zcash/halo2/issues/578" xlink:title="zcash/halo2#578&#10;Extend `EccChip` to&#10;support Vesta" target="_blank">
<polygon fill="#c2e0c6" stroke="#000000" stroke-width="2" points="911.5,-332.5 744.5,-332.5 744.5,-279.5 911.5,-279.5 911.5,-332.5"/>
<text text-anchor="middle" x="828" y="-317.3" font-family="Times,serif" font-size="14.00" fill="#000000">zcash/halo2#578</text>
<text text-anchor="middle" x="828" y="-302.3" font-family="Times,serif" font-size="14.00" fill="#000000">Extend `EccChip` to</text>
<text text-anchor="middle" x="828" y="-287.3" font-family="Times,serif" font-size="14.00" fill="#000000">support Vesta</text>
</a>
</g>
</g>
<!-- zcash/halo2#578&#45;&gt;zcash/halo2#250 -->
<g id="edge23" class="edge">
<title>zcash/halo2#578&#45;&gt;zcash/halo2#250</title>
<path fill="none" stroke="#000000" d="M909.93,-332.53C932.46,-339.82 957.04,-347.78 980.1,-355.24"/>
<polygon fill="#000000" stroke="#000000" points="979.2779,-358.6528 989.87,-358.41 981.4384,-351.9945 979.2779,-358.6528"/>
</g>
<!-- zcash/halo2#579 -->
<g id="node31" class="node open">
<title>zcash/halo2#579</title>
<g id="a_node31"><a xlink:href="https://github.com/zcash/halo2/issues/579" xlink:title="zcash/halo2#579&#10;Consider extending&#10;`EccChip` to arbitrary&#10;curves" target="_blank">
<polygon fill="#c2e0c6" stroke="#000000" points="1162,-340 982,-340 982,-272 1162,-272 1162,-340"/>
<text text-anchor="middle" x="1072" y="-324.8" font-family="Times,serif" font-size="14.00" fill="#000000">zcash/halo2#579</text>
<text text-anchor="middle" x="1072" y="-309.8" font-family="Times,serif" font-size="14.00" fill="#000000">Consider extending</text>
<text text-anchor="middle" x="1072" y="-294.8" font-family="Times,serif" font-size="14.00" fill="#000000">`EccChip` to arbitrary</text>
<text text-anchor="middle" x="1072" y="-279.8" font-family="Times,serif" font-size="14.00" fill="#000000">curves</text>
</a>
</g>
</g>
<!-- zcash/halo2#578&#45;&gt;zcash/halo2#579 -->
<g id="edge24" class="edge">
<title>zcash/halo2#578&#45;&gt;zcash/halo2#579</title>
<path fill="none" stroke="#000000" d="M911.63,-306C930.98,-306 951.77,-306 971.76,-306"/>
<polygon fill="#000000" stroke="#000000" points="971.81,-309.5001 981.81,-306 971.81,-302.5001 971.81,-309.5001"/>
</g>
<!-- zcash/halo2#454 -->
<g id="node32" class="node open">
<title>zcash/halo2#454</title>
<g id="a_node32"><a xlink:href="https://github.com/zcash/halo2/issues/454" xlink:title="zcash/halo2#454&#10;[ECC gadget] Support&#10;full&#45;width scalars for&#10;variable&#45;base mul" target="_blank">
<polygon fill="#c2e0c6" stroke="#000000" stroke-width="2" points="916,-261 740,-261 740,-193 916,-193 916,-261"/>
<text text-anchor="middle" x="828" y="-245.8" font-family="Times,serif" font-size="14.00" fill="#000000">zcash/halo2#454</text>
<text text-anchor="middle" x="828" y="-230.8" font-family="Times,serif" font-size="14.00" fill="#000000">[ECC gadget] Support</text>
<text text-anchor="middle" x="828" y="-215.8" font-family="Times,serif" font-size="14.00" fill="#000000">full&#45;width scalars for</text>
<text text-anchor="middle" x="828" y="-200.8" font-family="Times,serif" font-size="14.00" fill="#000000">variable&#45;base mul</text>
</a>
</g>
</g>
<!-- zcash/halo2#454&#45;&gt;zcash/halo2#569 -->
<g id="edge25" class="edge">
<title>zcash/halo2#454&#45;&gt;zcash/halo2#569</title>
<path fill="none" stroke="#000000" d="M916.09,-227C931.92,-227 948.57,-227 964.86,-227"/>
<polygon fill="#000000" stroke="#000000" points="964.95,-230.5001 974.95,-227 964.95,-223.5001 964.95,-230.5001"/>
</g>
<!-- zcash/halo2#312 -->
<g id="node33" class="node open">
<title>zcash/halo2#312</title>
<g id="a_node33"><a xlink:href="https://github.com/zcash/halo2/issues/312" xlink:title="zcash/halo2#312&#10;[Book] Document gadget&#10;API" target="_blank">
<polygon fill="#c2e0c6" stroke="#000000" stroke-width="2" points="210.5,-770.5 15.5,-770.5 15.5,-717.5 210.5,-717.5 210.5,-770.5"/>
<text text-anchor="middle" x="113" y="-755.3" font-family="Times,serif" font-size="14.00" fill="#000000">zcash/halo2#312</text>
<text text-anchor="middle" x="113" y="-740.3" font-family="Times,serif" font-size="14.00" fill="#000000">[Book] Document gadget</text>
<text text-anchor="middle" x="113" y="-725.3" font-family="Times,serif" font-size="14.00" fill="#000000">API</text>
</a>
</g>
</g>
</g>
</svg>
