<?xml version="1.0" encoding="UTF-8" standalone="no"?>
<?xml-stylesheet href="zcash-dag.css" type="text/css"?>
<!DOCTYPE svg PUBLIC "-//W3C//DTD SVG 1.1//EN"
 "http://www.w3.org/Graphics/SVG/1.1/DTD/svg11.dtd">
<!-- Generated by graphviz version 2.40.1 (20161225.0304)
 -->
<!-- Pages: 1 -->
<svg width="1687pt" height="1002pt"
 viewBox="0.00 0.00 1687.00 1001.50" xmlns="http://www.w3.org/2000/svg" xmlns:xlink="http://www.w3.org/1999/xlink">
<g id="graph0" class="graph" transform="scale(1 1) rotate(0) translate(4 997.5)">
<polygon fill="#ffffff" stroke="transparent" points="-4,4 -4,-997.5 1683,-997.5 1683,4 -4,4"/>
<!-- zcash/pasta_curves#35 -->
<g id="node1" class="node open">
<title>zcash/pasta_curves#35</title>
<g id="a_node1"><a xlink:href="https://github.com/zcash/pasta_curves/issues/35" xlink:title="zcash/pasta_curves#35&#10;Enable `ec&#45;gpu` to&#10;generate MSM and FFT code&#10;for `pasta_curves`" target="_blank">
<polygon fill="#c2e0c6" stroke="#000000" stroke-width="2" points="226,-68 0,-68 0,0 226,0 226,-68"/>
<text text-anchor="middle" x="113" y="-52.8" font-family="Times,serif" font-size="14.00" fill="#000000">zcash/pasta_curves#35</text>
<text text-anchor="middle" x="113" y="-37.8" font-family="Times,serif" font-size="14.00" fill="#000000">Enable `ec&#45;gpu` to</text>
<text text-anchor="middle" x="113" y="-22.8" font-family="Times,serif" font-size="14.00" fill="#000000">generate MSM and FFT code</text>
<text text-anchor="middle" x="113" y="-7.8" font-family="Times,serif" font-size="14.00" fill="#000000">for `pasta_curves`</text>
</a>
</g>
</g>
<!-- zcash/halo2#379 -->
<g id="node2" class="node open">
<title>zcash/halo2#379</title>
<g id="a_node2"><a xlink:href="https://github.com/zcash/halo2/issues/379" xlink:title="zcash/halo2#379&#10;Add `ec&#45;gpu` support" target="_blank">
<polygon fill="#c2e0c6" stroke="#000000" points="459,-53 286,-53 286,-15 459,-15 459,-53"/>
<text text-anchor="middle" x="372.5" y="-37.8" font-family="Times,serif" font-size="14.00" fill="#000000">zcash/halo2#379</text>
<text text-anchor="middle" x="372.5" y="-22.8" font-family="Times,serif" font-size="14.00" fill="#000000">Add `ec&#45;gpu` support</text>
</a>
</g>
</g>
<!-- zcash/pasta_curves#35&#45;&gt;zcash/halo2#379 -->
<g id="edge1" class="edge">
<title>zcash/pasta_curves#35&#45;&gt;zcash/halo2#379</title>
<path fill="none" stroke="#000000" d="M226.07,-34C242.69,-34 259.69,-34 275.94,-34"/>
<polygon fill="#000000" stroke="#000000" points="275.96,-37.5001 285.96,-34 275.96,-30.5001 275.96,-37.5001"/>
</g>
<!-- zcash/halo2#426 -->
<g id="node3" class="node committed">
<title>zcash/halo2#426</title>
<g id="a_node3"><a xlink:href="https://github.com/zcash/halo2/issues/426" xlink:title="zcash/halo2#426&#10;Publish `halo2_proofs&#10;0.1.0`" target="_blank">
<polygon fill="#a6cfff" stroke="#000000" points="459,-213.5 286,-213.5 286,-160.5 459,-160.5 459,-213.5"/>
<text text-anchor="middle" x="372.5" y="-198.3" font-family="Times,serif" font-size="14.00" fill="#000000">zcash/halo2#426</text>
<text text-anchor="middle" x="372.5" y="-183.3" font-family="Times,serif" font-size="14.00" fill="#000000">Publish `halo2_proofs</text>
<text text-anchor="middle" x="372.5" y="-168.3" font-family="Times,serif" font-size="14.00" fill="#000000">0.1.0`</text>
</a>
</g>
</g>
<!-- zcash/halo2#460 -->
<g id="node4" class="node committed">
<title>zcash/halo2#460</title>
<g id="a_node4"><a xlink:href="https://github.com/zcash/halo2/issues/460" xlink:title="zcash/halo2#460&#10;Publish `halo2_gadgets&#10;v0.1.0`" target="_blank">
<polygon fill="#a6cfff" stroke="#000000" points="710,-213.5 525,-213.5 525,-160.5 710,-160.5 710,-213.5"/>
<text text-anchor="middle" x="617.5" y="-198.3" font-family="Times,serif" font-size="14.00" fill="#000000">zcash/halo2#460</text>
<text text-anchor="middle" x="617.5" y="-183.3" font-family="Times,serif" font-size="14.00" fill="#000000">Publish `halo2_gadgets</text>
<text text-anchor="middle" x="617.5" y="-168.3" font-family="Times,serif" font-size="14.00" fill="#000000">v0.1.0`</text>
</a>
</g>
</g>
<!-- zcash/halo2#426&#45;&gt;zcash/halo2#460 -->
<g id="edge2" class="edge">
<title>zcash/halo2#426&#45;&gt;zcash/halo2#460</title>
<path fill="none" stroke="#000000" d="M459.22,-187C477.11,-187 496.11,-187 514.51,-187"/>
<polygon fill="#000000" stroke="#000000" points="514.66,-190.5001 524.66,-187 514.66,-183.5001 514.66,-190.5001"/>
</g>
<!-- zcash/halo2#75 -->
<g id="node5" class="node open">
<title>zcash/halo2#75</title>
<g id="a_node5"><a xlink:href="https://github.com/zcash/halo2/issues/75" xlink:title="zcash/halo2#75&#10;Implement support for&#10;recursion" target="_blank">
<polygon fill="#c2e0c6" stroke="#000000" points="1436.5,-503.5 1257.5,-503.5 1257.5,-450.5 1436.5,-450.5 1436.5,-503.5"/>
<text text-anchor="middle" x="1347" y="-488.3" font-family="Times,serif" font-size="14.00" fill="#000000">zcash/halo2#75</text>
<text text-anchor="middle" x="1347" y="-473.3" font-family="Times,serif" font-size="14.00" fill="#000000">Implement support for</text>
<text text-anchor="middle" x="1347" y="-458.3" font-family="Times,serif" font-size="14.00" fill="#000000">recursion</text>
</a>
</g>
</g>
<!-- zcash/halo2#494 -->
<g id="node6" class="node open">
<title>zcash/halo2#494</title>
<g id="a_node6"><a xlink:href="https://github.com/zcash/halo2/issues/494" xlink:title="zcash/halo2#494&#10;Consider adding an API&#10;that enables application&#10;circuits to be built&#10;across both fields" target="_blank">
<polygon fill="#c2e0c6" stroke="#000000" points="1679,-518.5 1490,-518.5 1490,-435.5 1679,-435.5 1679,-518.5"/>
<text text-anchor="middle" x="1584.5" y="-503.3" font-family="Times,serif" font-size="14.00" fill="#000000">zcash/halo2#494</text>
<text text-anchor="middle" x="1584.5" y="-488.3" font-family="Times,serif" font-size="14.00" fill="#000000">Consider adding an API</text>
<text text-anchor="middle" x="1584.5" y="-473.3" font-family="Times,serif" font-size="14.00" fill="#000000">that enables application</text>
<text text-anchor="middle" x="1584.5" y="-458.3" font-family="Times,serif" font-size="14.00" fill="#000000">circuits to be built</text>
<text text-anchor="middle" x="1584.5" y="-443.3" font-family="Times,serif" font-size="14.00" fill="#000000">across both fields</text>
</a>
</g>
</g>
<!-- zcash/halo2#75&#45;&gt;zcash/halo2#494 -->
<g id="edge3" class="edge">
<title>zcash/halo2#75&#45;&gt;zcash/halo2#494</title>
<path fill="none" stroke="#000000" d="M1436.8,-477C1450.7,-477 1465.3,-477 1479.5,-477"/>
<polygon fill="#000000" stroke="#000000" points="1479.8,-480.5001 1489.8,-477 1479.8,-473.5001 1479.8,-480.5001"/>
</g>
<!-- zcash/halo2#79 -->
<g id="node7" class="node open">
<title>zcash/halo2#79</title>
<g id="a_node7"><a xlink:href="https://github.com/zcash/halo2/issues/79" xlink:title="zcash/halo2#79&#10;Migrate Rescue and&#10;Poseidon gadgets to&#10;algebraic hash&#10;abstraction" target="_blank">
<polygon fill="#c2e0c6" stroke="#000000" points="1179.5,-767.5 1018.5,-767.5 1018.5,-684.5 1179.5,-684.5 1179.5,-767.5"/>
<text text-anchor="middle" x="1099" y="-752.3" font-family="Times,serif" font-size="14.00" fill="#000000">zcash/halo2#79</text>
<text text-anchor="middle" x="1099" y="-737.3" font-family="Times,serif" font-size="14.00" fill="#000000">Migrate Rescue and</text>
<text text-anchor="middle" x="1099" y="-722.3" font-family="Times,serif" font-size="14.00" fill="#000000">Poseidon gadgets to</text>
<text text-anchor="middle" x="1099" y="-707.3" font-family="Times,serif" font-size="14.00" fill="#000000">algebraic hash</text>
<text text-anchor="middle" x="1099" y="-692.3" font-family="Times,serif" font-size="14.00" fill="#000000">abstraction</text>
</a>
</g>
</g>
<!-- zcash/halo2#78 -->
<g id="node8" class="node open">
<title>zcash/halo2#78</title>
<g id="a_node8"><a xlink:href="https://github.com/zcash/halo2/issues/78" xlink:title="zcash/halo2#78&#10;Implement algebraic hash&#10;/ random oracle&#10;abstraction gadget" target="_blank">
<polygon fill="#c2e0c6" stroke="#000000" stroke-width="2" points="957,-760 753,-760 753,-692 957,-692 957,-760"/>
<text text-anchor="middle" x="855" y="-744.8" font-family="Times,serif" font-size="14.00" fill="#000000">zcash/halo2#78</text>
<text text-anchor="middle" x="855" y="-729.8" font-family="Times,serif" font-size="14.00" fill="#000000">Implement algebraic hash</text>
<text text-anchor="middle" x="855" y="-714.8" font-family="Times,serif" font-size="14.00" fill="#000000">/ random oracle</text>
<text text-anchor="middle" x="855" y="-699.8" font-family="Times,serif" font-size="14.00" fill="#000000">abstraction gadget</text>
</a>
</g>
</g>
<!-- zcash/halo2#78&#45;&gt;zcash/halo2#79 -->
<g id="edge4" class="edge">
<title>zcash/halo2#78&#45;&gt;zcash/halo2#79</title>
<path fill="none" stroke="#000000" d="M957.06,-726C974.04,-726 991.55,-726 1008.2,-726"/>
<polygon fill="#000000" stroke="#000000" points="1008.5,-729.5001 1018.5,-726 1008.5,-722.5001 1008.5,-729.5001"/>
</g>
<!-- zcash/halo2#250 -->
<g id="node9" class="node open">
<title>zcash/halo2#250</title>
<g id="a_node9"><a xlink:href="https://github.com/zcash/halo2/issues/250" xlink:title="zcash/halo2#250&#10;Implement the logic for&#10;the IVC verifier circuit" target="_blank">
<polygon fill="#c2e0c6" stroke="#000000" points="1192,-576.5 1006,-576.5 1006,-523.5 1192,-523.5 1192,-576.5"/>
<text text-anchor="middle" x="1099" y="-561.3" font-family="Times,serif" font-size="14.00" fill="#000000">zcash/halo2#250</text>
<text text-anchor="middle" x="1099" y="-546.3" font-family="Times,serif" font-size="14.00" fill="#000000">Implement the logic for</text>
<text text-anchor="middle" x="1099" y="-531.3" font-family="Times,serif" font-size="14.00" fill="#000000">the IVC verifier circuit</text>
</a>
</g>
</g>
<!-- zcash/halo2#78&#45;&gt;zcash/halo2#250 -->
<g id="edge5" class="edge">
<title>zcash/halo2#78&#45;&gt;zcash/halo2#250</title>
<path fill="none" stroke="#000000" d="M942.95,-691.89C948.15,-689.08 953.21,-686.11 958,-683 1000.9,-655.16 1042.5,-613.52 1069.3,-584.27"/>
<polygon fill="#000000" stroke="#000000" points="1071.9954,-586.5075 1076.1,-576.74 1066.8002,-581.8159 1071.9954,-586.5075"/>
</g>
<!-- zcash/halo2#250&#45;&gt;zcash/halo2#75 -->
<g id="edge6" class="edge">
<title>zcash/halo2#250&#45;&gt;zcash/halo2#75</title>
<path fill="none" stroke="#000000" d="M1189.2,-523.44C1208.2,-517.86 1228.3,-511.94 1247.6,-506.27"/>
<polygon fill="#000000" stroke="#000000" points="1248.6096,-509.6213 1257.2,-503.42 1246.6174,-502.9108 1248.6096,-509.6213"/>
</g>
<!-- zcash/halo2#57 -->
<g id="node10" class="node open">
<title>zcash/halo2#57</title>
<g id="a_node10"><a xlink:href="https://github.com/zcash/halo2/issues/57" xlink:title="zcash/halo2#57&#10;Remove unused&#10;fixed_values from&#10;ProvingKey" target="_blank">
<polygon fill="#c2e0c6" stroke="#000000" stroke-width="2" points="184.5,-435 41.5,-435 41.5,-367 184.5,-367 184.5,-435"/>
<text text-anchor="middle" x="113" y="-419.8" font-family="Times,serif" font-size="14.00" fill="#000000">zcash/halo2#57</text>
<text text-anchor="middle" x="113" y="-404.8" font-family="Times,serif" font-size="14.00" fill="#000000">Remove unused</text>
<text text-anchor="middle" x="113" y="-389.8" font-family="Times,serif" font-size="14.00" fill="#000000">fixed_values from</text>
<text text-anchor="middle" x="113" y="-374.8" font-family="Times,serif" font-size="14.00" fill="#000000">ProvingKey</text>
</a>
</g>
</g>
<!-- zcash/halo2#443 -->
<g id="node11" class="node open">
<title>zcash/halo2#443</title>
<g id="a_node11"><a xlink:href="https://github.com/zcash/halo2/issues/443" xlink:title="zcash/halo2#443&#10;implement `read` &amp;&#10;`write` for `halo2::plonk&#10;::ProvingKey`" target="_blank">
<polygon fill="#c2e0c6" stroke="#000000" points="469.5,-435 275.5,-435 275.5,-367 469.5,-367 469.5,-435"/>
<text text-anchor="middle" x="372.5" y="-419.8" font-family="Times,serif" font-size="14.00" fill="#000000">zcash/halo2#443</text>
<text text-anchor="middle" x="372.5" y="-404.8" font-family="Times,serif" font-size="14.00" fill="#000000">implement `read` &amp;</text>
<text text-anchor="middle" x="372.5" y="-389.8" font-family="Times,serif" font-size="14.00" fill="#000000">`write` for `halo2::plonk</text>
<text text-anchor="middle" x="372.5" y="-374.8" font-family="Times,serif" font-size="14.00" fill="#000000">::ProvingKey`</text>
</a>
</g>
</g>
<!-- zcash/halo2#57&#45;&gt;zcash/halo2#443 -->
<g id="edge7" class="edge">
<title>zcash/halo2#57&#45;&gt;zcash/halo2#443</title>
<path fill="none" stroke="#000000" d="M184.6,-401C209.47,-401 237.94,-401 265.07,-401"/>
<polygon fill="#000000" stroke="#000000" points="265.39,-404.5001 275.39,-401 265.39,-397.5001 265.39,-404.5001"/>
</g>
<!-- zcash/halo2#449 -->
<g id="node12" class="node open">
<title>zcash/halo2#449</title>
<g id="a_node12"><a xlink:href="https://github.com/zcash/halo2/issues/449" xlink:title="zcash/halo2#449&#10;Define a stable&#10;serialization format for&#10;`VerifyingKey`" target="_blank">
<polygon fill="#c2e0c6" stroke="#000000" stroke-width="2" points="204,-521 22,-521 22,-453 204,-453 204,-521"/>
<text text-anchor="middle" x="113" y="-505.8" font-family="Times,serif" font-size="14.00" fill="#000000">zcash/halo2#449</text>
<text text-anchor="middle" x="113" y="-490.8" font-family="Times,serif" font-size="14.00" fill="#000000">Define a stable</text>
<text text-anchor="middle" x="113" y="-475.8" font-family="Times,serif" font-size="14.00" fill="#000000">serialization format for</text>
<text text-anchor="middle" x="113" y="-460.8" font-family="Times,serif" font-size="14.00" fill="#000000">`VerifyingKey`</text>
</a>
</g>
</g>
<!-- zcash/halo2#420 -->
<g id="node13" class="node open">
<title>zcash/halo2#420</title>
<g id="a_node13"><a xlink:href="https://github.com/zcash/halo2/issues/420" xlink:title="zcash/halo2#420&#10;CI: Measure memory&#45;usage&#10;benchmarks" target="_blank">
<polygon fill="#c2e0c6" stroke="#000000" stroke-width="2" points="220.5,-592.5 5.5,-592.5 5.5,-539.5 220.5,-539.5 220.5,-592.5"/>
<text text-anchor="middle" x="113" y="-577.3" font-family="Times,serif" font-size="14.00" fill="#000000">zcash/halo2#420</text>
<text text-anchor="middle" x="113" y="-562.3" font-family="Times,serif" font-size="14.00" fill="#000000">CI: Measure memory&#45;usage</text>
<text text-anchor="middle" x="113" y="-547.3" font-family="Times,serif" font-size="14.00" fill="#000000">benchmarks</text>
</a>
</g>
</g>
<!-- zcash/halo2#418 -->
<g id="node14" class="node open">
<title>zcash/halo2#418</title>
<g id="a_node14"><a xlink:href="https://github.com/zcash/halo2/issues/418" xlink:title="zcash/halo2#418&#10;[memory optimization]&#10;lookup prover memory&#10;analysis" target="_blank">
<polygon fill="#c2e0c6" stroke="#000000" points="462,-600 283,-600 283,-532 462,-532 462,-600"/>
<text text-anchor="middle" x="372.5" y="-584.8" font-family="Times,serif" font-size="14.00" fill="#000000">zcash/halo2#418</text>
<text text-anchor="middle" x="372.5" y="-569.8" font-family="Times,serif" font-size="14.00" fill="#000000">[memory optimization]</text>
<text text-anchor="middle" x="372.5" y="-554.8" font-family="Times,serif" font-size="14.00" fill="#000000">lookup prover memory</text>
<text text-anchor="middle" x="372.5" y="-539.8" font-family="Times,serif" font-size="14.00" fill="#000000">analysis</text>
</a>
</g>
</g>
<!-- zcash/halo2#420&#45;&gt;zcash/halo2#418 -->
<g id="edge8" class="edge">
<title>zcash/halo2#420&#45;&gt;zcash/halo2#418</title>
<path fill="none" stroke="#000000" d="M220.8,-566C237.86,-566 255.45,-566 272.34,-566"/>
<polygon fill="#000000" stroke="#000000" points="272.75,-569.5001 282.75,-566 272.75,-562.5001 272.75,-569.5001"/>
</g>
<!-- zcash/halo2#427 -->
<g id="node15" class="node open">
<title>zcash/halo2#427</title>
<g id="a_node15"><a xlink:href="https://github.com/zcash/halo2/issues/427" xlink:title="zcash/halo2#427&#10;Use smaller extended&#10;domains where possible&#10;during proving" target="_blank">
<polygon fill="#c2e0c6" stroke="#000000" stroke-width="2" points="207,-679 19,-679 19,-611 207,-611 207,-679"/>
<text text-anchor="middle" x="113" y="-663.8" font-family="Times,serif" font-size="14.00" fill="#000000">zcash/halo2#427</text>
<text text-anchor="middle" x="113" y="-648.8" font-family="Times,serif" font-size="14.00" fill="#000000">Use smaller extended</text>
<text text-anchor="middle" x="113" y="-633.8" font-family="Times,serif" font-size="14.00" fill="#000000">domains where possible</text>
<text text-anchor="middle" x="113" y="-618.8" font-family="Times,serif" font-size="14.00" fill="#000000">during proving</text>
</a>
</g>
</g>
<!-- zcash/halo2#456 -->
<g id="node16" class="node open">
<title>zcash/halo2#456</title>
<g id="a_node16"><a xlink:href="https://github.com/zcash/halo2/issues/456" xlink:title="zcash/halo2#456&#10;Benchmark `sha256`&#10;gadget." target="_blank">
<polygon fill="#c2e0c6" stroke="#000000" stroke-width="2" points="198,-750.5 28,-750.5 28,-697.5 198,-697.5 198,-750.5"/>
<text text-anchor="middle" x="113" y="-735.3" font-family="Times,serif" font-size="14.00" fill="#000000">zcash/halo2#456</text>
<text text-anchor="middle" x="113" y="-720.3" font-family="Times,serif" font-size="14.00" fill="#000000">Benchmark `sha256`</text>
<text text-anchor="middle" x="113" y="-705.3" font-family="Times,serif" font-size="14.00" fill="#000000">gadget.</text>
</a>
</g>
</g>
<!-- zcash/halo2#455 -->
<g id="node17" class="node open">
<title>zcash/halo2#455</title>
<g id="a_node17"><a xlink:href="https://github.com/zcash/halo2/issues/455" xlink:title="zcash/halo2#455&#10;[Book] add description of&#10;Poseidon gadget and chip" target="_blank">
<polygon fill="#c2e0c6" stroke="#000000" stroke-width="2" points="213,-821.5 13,-821.5 13,-768.5 213,-768.5 213,-821.5"/>
<text text-anchor="middle" x="113" y="-806.3" font-family="Times,serif" font-size="14.00" fill="#000000">zcash/halo2#455</text>
<text text-anchor="middle" x="113" y="-791.3" font-family="Times,serif" font-size="14.00" fill="#000000">[Book] add description of</text>
<text text-anchor="middle" x="113" y="-776.3" font-family="Times,serif" font-size="14.00" fill="#000000">Poseidon gadget and chip</text>
</a>
</g>
</g>
<!-- zcash/halo2#251 -->
<g id="node18" class="node open">
<title>zcash/halo2#251</title>
<g id="a_node18"><a xlink:href="https://github.com/zcash/halo2/issues/251" xlink:title="zcash/halo2#251&#10;Implement user&#45;facing API&#10;for recursive proving of&#10;IVC" target="_blank">
<polygon fill="#c2e0c6" stroke="#000000" points="1204,-430 994,-430 994,-362 1204,-362 1204,-430"/>
<text text-anchor="middle" x="1099" y="-414.8" font-family="Times,serif" font-size="14.00" fill="#000000">zcash/halo2#251</text>
<text text-anchor="middle" x="1099" y="-399.8" font-family="Times,serif" font-size="14.00" fill="#000000">Implement user&#45;facing API</text>
<text text-anchor="middle" x="1099" y="-384.8" font-family="Times,serif" font-size="14.00" fill="#000000">for recursive proving of</text>
<text text-anchor="middle" x="1099" y="-369.8" font-family="Times,serif" font-size="14.00" fill="#000000">IVC</text>
</a>
</g>
</g>
<!-- zcash/halo2#251&#45;&gt;zcash/halo2#75 -->
<g id="edge9" class="edge">
<title>zcash/halo2#251&#45;&gt;zcash/halo2#75</title>
<path fill="none" stroke="#000000" d="M1203.5,-430.12C1220.8,-435.79 1238.7,-441.64 1255.7,-447.19"/>
<polygon fill="#000000" stroke="#000000" points="1255.0074,-450.6459 1265.6,-450.43 1257.1847,-443.9932 1255.0074,-450.6459"/>
</g>
<!-- zcash/halo2#437 -->
<g id="node19" class="node open">
<title>zcash/halo2#437</title>
<g id="a_node19"><a xlink:href="https://github.com/zcash/halo2/issues/437" xlink:title="zcash/halo2#437&#10;Amend user&#45;facing API to&#10;work for both IVC and PCD" target="_blank">
<polygon fill="#c2e0c6" stroke="#000000" points="1454,-391.5 1240,-391.5 1240,-338.5 1454,-338.5 1454,-391.5"/>
<text text-anchor="middle" x="1347" y="-376.3" font-family="Times,serif" font-size="14.00" fill="#000000">zcash/halo2#437</text>
<text text-anchor="middle" x="1347" y="-361.3" font-family="Times,serif" font-size="14.00" fill="#000000">Amend user&#45;facing API to</text>
<text text-anchor="middle" x="1347" y="-346.3" font-family="Times,serif" font-size="14.00" fill="#000000">work for both IVC and PCD</text>
</a>
</g>
</g>
<!-- zcash/halo2#251&#45;&gt;zcash/halo2#437 -->
<g id="edge10" class="edge">
<title>zcash/halo2#251&#45;&gt;zcash/halo2#437</title>
<path fill="none" stroke="#000000" d="M1204.2,-382.85C1212.6,-381.8 1221.2,-380.73 1229.7,-379.66"/>
<polygon fill="#000000" stroke="#000000" points="1230.2114,-383.1234 1239.7,-378.41 1229.3431,-376.1775 1230.2114,-383.1234"/>
</g>
<!-- zcash/halo2#436 -->
<g id="node20" class="node open">
<title>zcash/halo2#436</title>
<g id="a_node20"><a xlink:href="https://github.com/zcash/halo2/issues/436" xlink:title="zcash/halo2#436&#10;Implement mock&#10;verification circuit for&#10;PCD" target="_blank">
<polygon fill="#c2e0c6" stroke="#000000" points="705,-328 530,-328 530,-260 705,-260 705,-328"/>
<text text-anchor="middle" x="617.5" y="-312.8" font-family="Times,serif" font-size="14.00" fill="#000000">zcash/halo2#436</text>
<text text-anchor="middle" x="617.5" y="-297.8" font-family="Times,serif" font-size="14.00" fill="#000000">Implement mock</text>
<text text-anchor="middle" x="617.5" y="-282.8" font-family="Times,serif" font-size="14.00" fill="#000000">verification circuit for</text>
<text text-anchor="middle" x="617.5" y="-267.8" font-family="Times,serif" font-size="14.00" fill="#000000">PCD</text>
</a>
</g>
</g>
<!-- zcash/halo2#436&#45;&gt;zcash/halo2#437 -->
<g id="edge11" class="edge">
<title>zcash/halo2#436&#45;&gt;zcash/halo2#437</title>
<path fill="none" stroke="#000000" d="M705.3,-307.86C720.84,-310.08 736.88,-312.23 752,-314 775.29,-316.73 1063,-341.08 1229.6,-355.13"/>
<polygon fill="#000000" stroke="#000000" points="1229.6434,-358.6457 1239.9,-355.99 1230.2259,-351.67 1229.6434,-358.6457"/>
</g>
<!-- zcash/halo2#438 -->
<g id="node21" class="node open">
<title>zcash/halo2#438</title>
<g id="a_node21"><a xlink:href="https://github.com/zcash/halo2/issues/438" xlink:title="zcash/halo2#438&#10;Implement the logic for&#10;the PCD verifier circuit" target="_blank">
<polygon fill="#c2e0c6" stroke="#000000" points="948,-305.5 762,-305.5 762,-252.5 948,-252.5 948,-305.5"/>
<text text-anchor="middle" x="855" y="-290.3" font-family="Times,serif" font-size="14.00" fill="#000000">zcash/halo2#438</text>
<text text-anchor="middle" x="855" y="-275.3" font-family="Times,serif" font-size="14.00" fill="#000000">Implement the logic for</text>
<text text-anchor="middle" x="855" y="-260.3" font-family="Times,serif" font-size="14.00" fill="#000000">the PCD verifier circuit</text>
</a>
</g>
</g>
<!-- zcash/halo2#436&#45;&gt;zcash/halo2#438 -->
<g id="edge12" class="edge">
<title>zcash/halo2#436&#45;&gt;zcash/halo2#438</title>
<path fill="none" stroke="#000000" d="M705.26,-288.46C720.33,-287.51 736.11,-286.51 751.54,-285.53"/>
<polygon fill="#000000" stroke="#000000" points="751.8578,-289.0171 761.62,-284.9 751.4211,-282.0307 751.8578,-289.0171"/>
</g>
<!-- zcash/halo2#435 -->
<g id="node22" class="node open">
<title>zcash/halo2#435</title>
<g id="a_node22"><a xlink:href="https://github.com/zcash/halo2/issues/435" xlink:title="zcash/halo2#435&#10;Implement mock&#10;verification circuit for&#10;IVC" target="_blank">
<polygon fill="#c2e0c6" stroke="#000000" points="705,-414 530,-414 530,-346 705,-346 705,-414"/>
<text text-anchor="middle" x="617.5" y="-398.8" font-family="Times,serif" font-size="14.00" fill="#000000">zcash/halo2#435</text>
<text text-anchor="middle" x="617.5" y="-383.8" font-family="Times,serif" font-size="14.00" fill="#000000">Implement mock</text>
<text text-anchor="middle" x="617.5" y="-368.8" font-family="Times,serif" font-size="14.00" fill="#000000">verification circuit for</text>
<text text-anchor="middle" x="617.5" y="-353.8" font-family="Times,serif" font-size="14.00" fill="#000000">IVC</text>
</a>
</g>
</g>
<!-- zcash/halo2#247 -->
<g id="node23" class="node open">
<title>zcash/halo2#247</title>
<g id="a_node23"><a xlink:href="https://github.com/zcash/halo2/issues/247" xlink:title="zcash/halo2#247&#10;Implement underlying&#10;scaffolding for creating&#10;the IVC proof cycle" target="_blank">
<polygon fill="#c2e0c6" stroke="#000000" points="947.5,-430 762.5,-430 762.5,-362 947.5,-362 947.5,-430"/>
<text text-anchor="middle" x="855" y="-414.8" font-family="Times,serif" font-size="14.00" fill="#000000">zcash/halo2#247</text>
<text text-anchor="middle" x="855" y="-399.8" font-family="Times,serif" font-size="14.00" fill="#000000">Implement underlying</text>
<text text-anchor="middle" x="855" y="-384.8" font-family="Times,serif" font-size="14.00" fill="#000000">scaffolding for creating</text>
<text text-anchor="middle" x="855" y="-369.8" font-family="Times,serif" font-size="14.00" fill="#000000">the IVC proof cycle</text>
</a>
</g>
</g>
<!-- zcash/halo2#435&#45;&gt;zcash/halo2#247 -->
<g id="edge13" class="edge">
<title>zcash/halo2#435&#45;&gt;zcash/halo2#247</title>
<path fill="none" stroke="#000000" d="M705.26,-385.91C720.55,-386.94 736.57,-388.02 752.21,-389.08"/>
<polygon fill="#000000" stroke="#000000" points="752.2095,-392.5876 762.42,-389.76 752.6747,-385.6031 752.2095,-392.5876"/>
</g>
<!-- zcash/halo2#247&#45;&gt;zcash/halo2#250 -->
<g id="edge14" class="edge">
<title>zcash/halo2#247&#45;&gt;zcash/halo2#250</title>
<path fill="none" stroke="#000000" d="M947.12,-430.07C950.97,-432.83 954.62,-435.81 958,-439 984.59,-464.11 966.71,-488.65 994,-513 995.76,-514.57 997.59,-516.07 999.47,-517.51"/>
<polygon fill="#000000" stroke="#000000" points="997.8738,-520.6594 1008.1,-523.43 1001.8336,-514.887 997.8738,-520.6594"/>
</g>
<!-- zcash/halo2#247&#45;&gt;zcash/halo2#251 -->
<g id="edge15" class="edge">
<title>zcash/halo2#247&#45;&gt;zcash/halo2#251</title>
<path fill="none" stroke="#000000" d="M947.59,-396C959.39,-396 971.58,-396 983.68,-396"/>
<polygon fill="#000000" stroke="#000000" points="983.81,-399.5001 993.81,-396 983.81,-392.5001 983.81,-399.5001"/>
</g>
<!-- zcash/halo2#246 -->
<g id="node24" class="node open">
<title>zcash/halo2#246</title>
<g id="a_node24"><a xlink:href="https://github.com/zcash/halo2/issues/246" xlink:title="zcash/halo2#246&#10;Create recursive proof&#10;structures" target="_blank">
<polygon fill="#c2e0c6" stroke="#000000" points="462,-348.5 283,-348.5 283,-295.5 462,-295.5 462,-348.5"/>
<text text-anchor="middle" x="372.5" y="-333.3" font-family="Times,serif" font-size="14.00" fill="#000000">zcash/halo2#246</text>
<text text-anchor="middle" x="372.5" y="-318.3" font-family="Times,serif" font-size="14.00" fill="#000000">Create recursive proof</text>
<text text-anchor="middle" x="372.5" y="-303.3" font-family="Times,serif" font-size="14.00" fill="#000000">structures</text>
</a>
</g>
</g>
<!-- zcash/halo2#246&#45;&gt;zcash/halo2#436 -->
<g id="edge16" class="edge">
<title>zcash/halo2#246&#45;&gt;zcash/halo2#436</title>
<path fill="none" stroke="#000000" d="M462.34,-311.73C480.98,-309.6 500.7,-307.35 519.61,-305.19"/>
<polygon fill="#000000" stroke="#000000" points="520.1842,-308.6472 529.72,-304.03 519.3862,-301.6928 520.1842,-308.6472"/>
</g>
<!-- zcash/halo2#246&#45;&gt;zcash/halo2#435 -->
<g id="edge17" class="edge">
<title>zcash/halo2#246&#45;&gt;zcash/halo2#435</title>
<path fill="none" stroke="#000000" d="M462.34,-343.27C481.06,-347.7 500.88,-352.39 519.87,-356.89"/>
<polygon fill="#000000" stroke="#000000" points="519.1828,-360.324 529.72,-359.22 520.7943,-353.512 519.1828,-360.324"/>
</g>
<!-- zcash/halo2#439 -->
<g id="node25" class="node open">
<title>zcash/halo2#439</title>
<g id="a_node25"><a xlink:href="https://github.com/zcash/halo2/issues/439" xlink:title="zcash/halo2#439&#10;Support split&#10;accumulation in Halo 2" target="_blank">
<polygon fill="#c2e0c6" stroke="#000000" stroke-width="2" points="204.5,-348.5 21.5,-348.5 21.5,-295.5 204.5,-295.5 204.5,-348.5"/>
<text text-anchor="middle" x="113" y="-333.3" font-family="Times,serif" font-size="14.00" fill="#000000">zcash/halo2#439</text>
<text text-anchor="middle" x="113" y="-318.3" font-family="Times,serif" font-size="14.00" fill="#000000">Support split</text>
<text text-anchor="middle" x="113" y="-303.3" font-family="Times,serif" font-size="14.00" fill="#000000">accumulation in Halo 2</text>
</a>
</g>
</g>
<!-- zcash/halo2#439&#45;&gt;zcash/halo2#246 -->
<g id="edge18" class="edge">
<title>zcash/halo2#439&#45;&gt;zcash/halo2#246</title>
<path fill="none" stroke="#000000" d="M204.86,-322C226.86,-322 250.45,-322 272.79,-322"/>
<polygon fill="#000000" stroke="#000000" points="272.95,-325.5001 282.95,-322 272.95,-318.5001 272.95,-325.5001"/>
</g>
<!-- zcash/halo2#359 -->
<g id="node26" class="node open">
<title>zcash/halo2#359</title>
<g id="a_node26"><a xlink:href="https://github.com/zcash/halo2/issues/359" xlink:title="zcash/halo2#359&#10;Set up `BaseTranscript`,&#10;`ScalarTranscript`" target="_blank">
<polygon fill="#c2e0c6" stroke="#000000" stroke-width="2" points="716,-485.5 519,-485.5 519,-432.5 716,-432.5 716,-485.5"/>
<text text-anchor="middle" x="617.5" y="-470.3" font-family="Times,serif" font-size="14.00" fill="#000000">zcash/halo2#359</text>
<text text-anchor="middle" x="617.5" y="-455.3" font-family="Times,serif" font-size="14.00" fill="#000000">Set up `BaseTranscript`,</text>
<text text-anchor="middle" x="617.5" y="-440.3" font-family="Times,serif" font-size="14.00" fill="#000000">`ScalarTranscript`</text>
</a>
</g>
</g>
<!-- zcash/halo2#359&#45;&gt;zcash/halo2#247 -->
<g id="edge19" class="edge">
<title>zcash/halo2#359&#45;&gt;zcash/halo2#247</title>
<path fill="none" stroke="#000000" d="M716.16,-432.83C728.11,-429.66 740.33,-426.42 752.34,-423.23"/>
<polygon fill="#000000" stroke="#000000" points="753.5928,-426.5187 762.36,-420.57 751.7967,-419.7531 753.5928,-426.5187"/>
</g>
<!-- zcash/halo2#249 -->
<g id="node27" class="node open">
<title>zcash/halo2#249</title>
<g id="a_node27"><a xlink:href="https://github.com/zcash/halo2/issues/249" xlink:title="zcash/halo2#249&#10;Implement recursion&#10;circuit logic for&#10;handling public inputs" target="_blank">
<polygon fill="#c2e0c6" stroke="#000000" stroke-width="2" points="943.5,-588 766.5,-588 766.5,-520 943.5,-520 943.5,-588"/>
<text text-anchor="middle" x="855" y="-572.8" font-family="Times,serif" font-size="14.00" fill="#000000">zcash/halo2#249</text>
<text text-anchor="middle" x="855" y="-557.8" font-family="Times,serif" font-size="14.00" fill="#000000">Implement recursion</text>
<text text-anchor="middle" x="855" y="-542.8" font-family="Times,serif" font-size="14.00" fill="#000000">circuit logic for</text>
<text text-anchor="middle" x="855" y="-527.8" font-family="Times,serif" font-size="14.00" fill="#000000">handling public inputs</text>
</a>
</g>
</g>
<!-- zcash/halo2#249&#45;&gt;zcash/halo2#250 -->
<g id="edge20" class="edge">
<title>zcash/halo2#249&#45;&gt;zcash/halo2#250</title>
<path fill="none" stroke="#000000" d="M943.78,-552.54C960.64,-552.27 978.41,-551.98 995.68,-551.69"/>
<polygon fill="#000000" stroke="#000000" points="995.8566,-555.1877 1005.8,-551.53 995.7459,-548.1886 995.8566,-555.1877"/>
</g>
<!-- zcash/halo2#380 -->
<g id="node28" class="node committed">
<title>zcash/halo2#380</title>
<g id="a_node28"><a xlink:href="https://github.com/zcash/halo2/pull/380" xlink:title="zcash/halo2#380&#10;[book] Fix errors and&#10;typos" target="_blank">
<polygon fill="#a6cfff" stroke="#000000" stroke-width="2" points="197,-277.5 29,-277.5 29,-273.5 25,-273.5 25,-269.5 29,-269.5 29,-232.5 25,-232.5 25,-228.5 29,-228.5 29,-224.5 197,-224.5 197,-277.5"/>
<polyline fill="none" stroke="#000000" stroke-width="2" points="29,-273.5 33,-273.5 33,-269.5 29,-269.5 "/>
<polyline fill="none" stroke="#000000" stroke-width="2" points="29,-232.5 33,-232.5 33,-228.5 29,-228.5 "/>
<text text-anchor="middle" x="113" y="-262.3" font-family="Times,serif" font-size="14.00" fill="#000000">zcash/halo2#380</text>
<text text-anchor="middle" x="113" y="-247.3" font-family="Times,serif" font-size="14.00" fill="#000000">[book] Fix errors and</text>
<text text-anchor="middle" x="113" y="-232.3" font-family="Times,serif" font-size="14.00" fill="#000000">typos</text>
</a>
</g>
</g>
<!-- zcash/halo2#380&#45;&gt;zcash/halo2#426 -->
<g id="edge21" class="edge">
<title>zcash/halo2#380&#45;&gt;zcash/halo2#426</title>
<path fill="none" stroke="#000000" d="M197.25,-230.22C222.32,-224.04 249.97,-217.22 275.77,-210.86"/>
<polygon fill="#000000" stroke="#000000" points="276.6835,-214.2396 285.55,-208.44 275.002,-207.4445 276.6835,-214.2396"/>
</g>
<!-- zcash/halo2#542 -->
<g id="node29" class="node committed">
<title>zcash/halo2#542</title>
<g id="a_node29"><a xlink:href="https://github.com/zcash/halo2/pull/542" xlink:title="zcash/halo2#542&#10;Relicense Halo 2 crates&#10;as MIT OR Apache 2.0" target="_blank">
<polygon fill="#a6cfff" stroke="#000000" stroke-width="2" points="206.5,-206.5 19.5,-206.5 19.5,-202.5 15.5,-202.5 15.5,-198.5 19.5,-198.5 19.5,-161.5 15.5,-161.5 15.5,-157.5 19.5,-157.5 19.5,-153.5 206.5,-153.5 206.5,-206.5"/>
<polyline fill="none" stroke="#000000" stroke-width="2" points="19.5,-202.5 23.5,-202.5 23.5,-198.5 19.5,-198.5 "/>
<polyline fill="none" stroke="#000000" stroke-width="2" points="19.5,-161.5 23.5,-161.5 23.5,-157.5 19.5,-157.5 "/>
<text text-anchor="middle" x="113" y="-191.3" font-family="Times,serif" font-size="14.00" fill="#000000">zcash/halo2#542</text>
<text text-anchor="middle" x="113" y="-176.3" font-family="Times,serif" font-size="14.00" fill="#000000">Relicense Halo 2 crates</text>
<text text-anchor="middle" x="113" y="-161.3" font-family="Times,serif" font-size="14.00" fill="#000000">as MIT OR Apache 2.0</text>
</a>
</g>
</g>
<!-- zcash/halo2#542&#45;&gt;zcash/halo2#426 -->
<g id="edge22" class="edge">
<title>zcash/halo2#542&#45;&gt;zcash/halo2#426</title>
<path fill="none" stroke="#000000" d="M206.69,-182.53C229.09,-183.13 253.06,-183.78 275.61,-184.39"/>
<polygon fill="#000000" stroke="#000000" points="275.7713,-187.8954 285.86,-184.66 275.9557,-180.8978 275.7713,-187.8954"/>
</g>
<!-- zcash/halo2#248 -->
<g id="node30" class="node open">
<title>zcash/halo2#248</title>
<g id="a_node30"><a xlink:href="https://github.com/zcash/halo2/issues/248" xlink:title="zcash/halo2#248&#10;Implement endoscaling in&#10;the circuit" target="_blank">
<polygon fill="#c2e0c6" stroke="#000000" stroke-width="2" points="956.5,-501.5 753.5,-501.5 753.5,-448.5 956.5,-448.5 956.5,-501.5"/>
<text text-anchor="middle" x="855" y="-486.3" font-family="Times,serif" font-size="14.00" fill="#000000">zcash/halo2#248</text>
<text text-anchor="middle" x="855" y="-471.3" font-family="Times,serif" font-size="14.00" fill="#000000">Implement endoscaling in</text>
<text text-anchor="middle" x="855" y="-456.3" font-family="Times,serif" font-size="14.00" fill="#000000">the circuit</text>
</a>
</g>
</g>
<!-- zcash/halo2#248&#45;&gt;zcash/halo2#250 -->
<g id="edge23" class="edge">
<title>zcash/halo2#248&#45;&gt;zcash/halo2#250</title>
<path fill="none" stroke="#000000" d="M941.37,-501.55C961.37,-507.7 982.77,-514.27 1003.2,-520.54"/>
<polygon fill="#000000" stroke="#000000" points="1002.1119,-523.8669 1012.7,-523.49 1004.1878,-517.1818 1002.1119,-523.8669"/>
</g>
<!-- zcash/halo2#245 -->
<g id="node31" class="node open">
<title>zcash/halo2#245</title>
<g id="a_node31"><a xlink:href="https://github.com/zcash/halo2/issues/245" xlink:title="zcash/halo2#245&#10;Remove the need to&#10;multiply by powers of x^n&#10;in verifier" target="_blank">
<polygon fill="#c2e0c6" stroke="#000000" stroke-width="2" points="958,-674 752,-674 752,-606 958,-606 958,-674"/>
<text text-anchor="middle" x="855" y="-658.8" font-family="Times,serif" font-size="14.00" fill="#000000">zcash/halo2#245</text>
<text text-anchor="middle" x="855" y="-643.8" font-family="Times,serif" font-size="14.00" fill="#000000">Remove the need to</text>
<text text-anchor="middle" x="855" y="-628.8" font-family="Times,serif" font-size="14.00" fill="#000000">multiply by powers of x^n</text>
<text text-anchor="middle" x="855" y="-613.8" font-family="Times,serif" font-size="14.00" fill="#000000">in verifier</text>
</a>
</g>
</g>
<!-- zcash/halo2#245&#45;&gt;zcash/halo2#250 -->
<g id="edge24" class="edge">
<title>zcash/halo2#245&#45;&gt;zcash/halo2#250</title>
<path fill="none" stroke="#000000" d="M947.25,-605.97C970.27,-597.48 994.81,-588.43 1017.3,-580.14"/>
<polygon fill="#000000" stroke="#000000" points="1018.6266,-583.3813 1026.8,-576.64 1016.2066,-576.8129 1018.6266,-583.3813"/>
</g>
<!-- zcash/halo2#543 -->
<g id="node32" class="node open">
<title>zcash/halo2#543</title>
<g id="a_node32"><a xlink:href="https://github.com/zcash/halo2/pull/543" xlink:title="zcash/halo2#543&#10;Optimize Fft" target="_blank">
<polygon fill="#c2e0c6" stroke="#000000" stroke-width="2" points="183,-131 43,-131 43,-127 39,-127 39,-123 43,-123 43,-101 39,-101 39,-97 43,-97 43,-93 183,-93 183,-131"/>
<polyline fill="none" stroke="#000000" stroke-width="2" points="43,-127 47,-127 47,-123 43,-123 "/>
<polyline fill="none" stroke="#000000" stroke-width="2" points="43,-101 47,-101 47,-97 43,-97 "/>
<text text-anchor="middle" x="113" y="-115.8" font-family="Times,serif" font-size="14.00" fill="#000000">zcash/halo2#543</text>
<text text-anchor="middle" x="113" y="-100.8" font-family="Times,serif" font-size="14.00" fill="#000000">Optimize Fft</text>
</a>
</g>
</g>
<!-- zcash/halo2#543&#45;&gt;zcash/halo2#426 -->
<g id="edge25" class="edge">
<title>zcash/halo2#543&#45;&gt;zcash/halo2#426</title>
<path fill="none" stroke="#000000" d="M180.55,-131.02C195.52,-135.26 211.31,-139.76 226,-144 242.18,-148.67 259.35,-153.66 276.03,-158.54"/>
<polygon fill="#000000" stroke="#000000" points="275.1991,-161.9437 285.78,-161.4 277.1695,-155.2267 275.1991,-161.9437"/>
</g>
<!-- zcash/halo2#548 -->
<g id="node33" class="node open">
<title>zcash/halo2#548</title>
<g id="a_node33"><a xlink:href="https://github.com/zcash/halo2/issues/548" xlink:title="zcash/halo2#548&#10;Implement performance and&#10;memory optimizations for&#10;halo2_proofs" target="_blank">
<polygon fill="#c2e0c6" stroke="#000000" points="483,-142 262,-142 262,-74 483,-74 483,-142"/>
<text text-anchor="middle" x="372.5" y="-126.8" font-family="Times,serif" font-size="14.00" fill="#000000">zcash/halo2#548</text>
<text text-anchor="middle" x="372.5" y="-111.8" font-family="Times,serif" font-size="14.00" fill="#000000">Implement performance and</text>
<text text-anchor="middle" x="372.5" y="-96.8" font-family="Times,serif" font-size="14.00" fill="#000000">memory optimizations for</text>
<text text-anchor="middle" x="372.5" y="-81.8" font-family="Times,serif" font-size="14.00" fill="#000000">halo2_proofs</text>
</a>
</g>
</g>
<!-- zcash/halo2#543&#45;&gt;zcash/halo2#548 -->
<g id="edge26" class="edge">
<title>zcash/halo2#543&#45;&gt;zcash/halo2#548</title>
<path fill="none" stroke="#000000" d="M183.22,-110.92C204.37,-110.59 228.21,-110.22 251.66,-109.86"/>
<polygon fill="#000000" stroke="#000000" points="251.7236,-113.3595 261.67,-109.71 251.6186,-106.3603 251.7236,-113.3595"/>
</g>
<!-- zcash/halo2#483 -->
<g id="node34" class="node committed">
<title>zcash/halo2#483</title>
<g id="a_node34"><a xlink:href="https://github.com/zcash/halo2/issues/483" xlink:title="zcash/halo2#483&#10;Refactor variable&#45;base&#10;scalar mul to distinguish&#10;the &quot;base field element&quot;&#10;case" target="_blank">
<polygon fill="#a6cfff" stroke="#000000" stroke-width="2" points="210,-922.5 16,-922.5 16,-839.5 210,-839.5 210,-922.5"/>
<text text-anchor="middle" x="113" y="-907.3" font-family="Times,serif" font-size="14.00" fill="#000000">zcash/halo2#483</text>
<text text-anchor="middle" x="113" y="-892.3" font-family="Times,serif" font-size="14.00" fill="#000000">Refactor variable&#45;base</text>
<text text-anchor="middle" x="113" y="-877.3" font-family="Times,serif" font-size="14.00" fill="#000000">scalar mul to distinguish</text>
<text text-anchor="middle" x="113" y="-862.3" font-family="Times,serif" font-size="14.00" fill="#000000">the &quot;base field element&quot;</text>
<text text-anchor="middle" x="113" y="-847.3" font-family="Times,serif" font-size="14.00" fill="#000000">case</text>
</a>
</g>
</g>
<!-- zcash/halo2#569 -->
<g id="node35" class="node open">
<title>zcash/halo2#569</title>
<g id="a_node35"><a xlink:href="https://github.com/zcash/halo2/issues/569" xlink:title="zcash/halo2#569&#10;Implement the recursive&#10;proof verifier" target="_blank">
<polygon fill="#c2e0c6" stroke="#000000" stroke-width="2" points="1196,-503.5 1002,-503.5 1002,-450.5 1196,-450.5 1196,-503.5"/>
<text text-anchor="middle" x="1099" y="-488.3" font-family="Times,serif" font-size="14.00" fill="#000000">zcash/halo2#569</text>
<text text-anchor="middle" x="1099" y="-473.3" font-family="Times,serif" font-size="14.00" fill="#000000">Implement the recursive</text>
<text text-anchor="middle" x="1099" y="-458.3" font-family="Times,serif" font-size="14.00" fill="#000000">proof verifier</text>
</a>
</g>
</g>
<!-- zcash/halo2#569&#45;&gt;zcash/halo2#75 -->
<g id="edge27" class="edge">
<title>zcash/halo2#569&#45;&gt;zcash/halo2#75</title>
<path fill="none" stroke="#000000" d="M1196.3,-477C1212.9,-477 1230.2,-477 1246.9,-477"/>
<polygon fill="#000000" stroke="#000000" points="1247.3,-480.5001 1257.3,-477 1247.3,-473.5001 1247.3,-480.5001"/>
</g>
<!-- zcash/halo2#312 -->
<g id="node36" class="node open">
<title>zcash/halo2#312</title>
<g id="a_node36"><a xlink:href="https://github.com/zcash/halo2/issues/312" xlink:title="zcash/halo2#312&#10;[Book] Document gadget&#10;API" target="_blank">
<polygon fill="#c2e0c6" stroke="#000000" stroke-width="2" points="210.5,-993.5 15.5,-993.5 15.5,-940.5 210.5,-940.5 210.5,-993.5"/>
<text text-anchor="middle" x="113" y="-978.3" font-family="Times,serif" font-size="14.00" fill="#000000">zcash/halo2#312</text>
<text text-anchor="middle" x="113" y="-963.3" font-family="Times,serif" font-size="14.00" fill="#000000">[Book] Document gadget</text>
<text text-anchor="middle" x="113" y="-948.3" font-family="Times,serif" font-size="14.00" fill="#000000">API</text>
</a>
</g>
</g>
</g>
</svg>
