<?xml version="1.0" encoding="UTF-8" standalone="no"?>
<?xml-stylesheet href="zcash-dag.css" type="text/css"?>
<!DOCTYPE svg PUBLIC "-//W3C//DTD SVG 1.1//EN"
 "http://www.w3.org/Graphics/SVG/1.1/DTD/svg11.dtd">
<!-- Generated by graphviz version 2.43.0 (0)
 -->
<!-- Pages: 1 -->
<svg width="1970pt" height="892pt"
 viewBox="0.00 0.00 1970.00 892.00" xmlns="http://www.w3.org/2000/svg" xmlns:xlink="http://www.w3.org/1999/xlink">
<g id="graph0" class="graph" transform="scale(1 1) rotate(0) translate(4 888)">
<polygon fill="white" stroke="transparent" points="-4,4 -4,-888 1966,-888 1966,4 -4,4"/>
<g id="clust1" class="cluster">
<title>cluster_1</title>
<polygon fill="none" stroke="blue" points="0,-177 0,-254 327,-254 327,-177 0,-177"/>
<text text-anchor="middle" x="163.5" y="-238.8" font-family="Times,serif" font-size="14.00">Orchard in Mobile SDKs</text>
</g>
<g id="clust2" class="cluster">
<title>cluster_2</title>
<polygon fill="none" stroke="blue" points="0,-76 0,-169 674,-169 674,-76 0,-76"/>
<text text-anchor="middle" x="337" y="-153.8" font-family="Times,serif" font-size="14.00">UniFFI</text>
</g>
<g id="clust3" class="cluster">
<title>cluster_0</title>
<polygon fill="none" stroke="blue" points="1219,-70 1219,-234 1454,-234 1454,-70 1219,-70"/>
<text text-anchor="middle" x="1336.5" y="-218.8" font-family="Times,serif" font-size="14.00">Secant iOS v1.0.0</text>
</g>
<!-- zcash&#45;hackworks/zcash&#45;light&#45;client&#45;ffi#17 -->
<g id="node1" class="node open">
<title>zcash&#45;hackworks/zcash&#45;light&#45;client&#45;ffi#17</title>
<g id="a_node1"><a xlink:href="https://github.com/zcash-hackworks/zcash-light-client-ffi/issues/17" xlink:title="zcash&#45;hackworks/zcash&#45;light&#45;client&#45;ffi#17&#10;Add Orchard support" target="_blank">
<polygon fill="#c2e0c6" stroke="black" stroke-width="2" points="319,-223 8,-223 8,-185 319,-185 319,-223"/>
<text text-anchor="middle" x="163.5" y="-207.8" font-family="Times,serif" font-size="14.00">zcash&#45;hackworks/zcash&#45;light&#45;client&#45;ffi#17</text>
<text text-anchor="middle" x="163.5" y="-192.8" font-family="Times,serif" font-size="14.00">Add Orchard support</text>
</a>
</g>
</g>
<!-- zcash&#45;hackworks/zcash&#45;light&#45;client&#45;ffi#29 -->
<g id="node2" class="node open">
<title>zcash&#45;hackworks/zcash&#45;light&#45;client&#45;ffi#29</title>
<g id="a_node2"><a xlink:href="https://github.com/zcash-hackworks/zcash-light-client-ffi/issues/29" xlink:title="zcash&#45;hackworks/zcash&#45;light&#45;client&#45;ffi#29&#10;Release v0.4.0" target="_blank">
<polygon fill="#c2e0c6" stroke="black" points="666,-134 355,-134 355,-96 666,-96 666,-134"/>
<text text-anchor="middle" x="510.5" y="-118.8" font-family="Times,serif" font-size="14.00">zcash&#45;hackworks/zcash&#45;light&#45;client&#45;ffi#29</text>
<text text-anchor="middle" x="510.5" y="-103.8" font-family="Times,serif" font-size="14.00">Release v0.4.0</text>
</a>
</g>
</g>
<!-- zcash&#45;hackworks/zcash&#45;light&#45;client&#45;ffi#17&#45;&gt;zcash&#45;hackworks/zcash&#45;light&#45;client&#45;ffi#29 -->
<g id="edge5" class="edge">
<title>zcash&#45;hackworks/zcash&#45;light&#45;client&#45;ffi#17&#45;&gt;zcash&#45;hackworks/zcash&#45;light&#45;client&#45;ffi#29</title>
<path fill="none" stroke="black" d="M274.16,-184.93C291.9,-181.31 310.02,-177.3 327,-173 366.92,-162.89 410.93,-148.98 445.73,-137.33"/>
<polygon fill="black" stroke="black" points="446.94,-140.62 455.29,-134.1 444.7,-133.99 446.94,-140.62"/>
</g>
<!-- zcash&#45;hackworks/zcash&#45;light&#45;client&#45;ffi#25 -->
<g id="node3" class="node open">
<title>zcash&#45;hackworks/zcash&#45;light&#45;client&#45;ffi#25</title>
<g id="a_node3"><a xlink:href="https://github.com/zcash-hackworks/zcash-light-client-ffi/issues/25" xlink:title="zcash&#45;hackworks/zcash&#45;light&#45;client&#45;ffi#25&#10;Migrate to FFI library&#10;generated by Uniffi" target="_blank">
<polygon fill="#c2e0c6" stroke="black" stroke-width="2" points="319,-137.5 8,-137.5 8,-84.5 319,-84.5 319,-137.5"/>
<text text-anchor="middle" x="163.5" y="-122.3" font-family="Times,serif" font-size="14.00">zcash&#45;hackworks/zcash&#45;light&#45;client&#45;ffi#25</text>
<text text-anchor="middle" x="163.5" y="-107.3" font-family="Times,serif" font-size="14.00">Migrate to FFI library</text>
<text text-anchor="middle" x="163.5" y="-92.3" font-family="Times,serif" font-size="14.00">generated by Uniffi</text>
</a>
</g>
</g>
<!-- zcash&#45;hackworks/zcash&#45;light&#45;client&#45;ffi#25&#45;&gt;zcash&#45;hackworks/zcash&#45;light&#45;client&#45;ffi#29 -->
<g id="edge1" class="edge">
<title>zcash&#45;hackworks/zcash&#45;light&#45;client&#45;ffi#25&#45;&gt;zcash&#45;hackworks/zcash&#45;light&#45;client&#45;ffi#29</title>
<path fill="none" stroke="black" d="M319.09,-112.79C327.66,-112.89 336.28,-112.99 344.89,-113.09"/>
<polygon fill="black" stroke="black" points="344.93,-116.59 354.97,-113.21 345.01,-109.59 344.93,-116.59"/>
</g>
<!-- zcash/secant&#45;ios&#45;wallet#372 -->
<g id="node4" class="node open">
<title>zcash/secant&#45;ios&#45;wallet#372</title>
<g id="a_node4"><a xlink:href="https://github.com/zcash/secant-ios-wallet/issues/372" xlink:title="zcash/secant&#45;ios&#45;wallet#372&#10;Blocking TODOs,&#10;Enhancements and Fixes" target="_blank">
<polygon fill="#c2e0c6" stroke="black" stroke-width="2" points="1446,-131.5 1227,-131.5 1227,-78.5 1446,-78.5 1446,-131.5"/>
<text text-anchor="middle" x="1336.5" y="-116.3" font-family="Times,serif" font-size="14.00">zcash/secant&#45;ios&#45;wallet#372</text>
<text text-anchor="middle" x="1336.5" y="-101.3" font-family="Times,serif" font-size="14.00">Blocking TODOs,</text>
<text text-anchor="middle" x="1336.5" y="-86.3" font-family="Times,serif" font-size="14.00">Enhancements and Fixes</text>
</a>
</g>
</g>
<!-- zcash/secant&#45;ios&#45;wallet#303 -->
<g id="node6" class="node open">
<title>zcash/secant&#45;ios&#45;wallet#303</title>
<g id="a_node6"><a xlink:href="https://github.com/zcash/secant-ios-wallet/issues/303" xlink:title="zcash/secant&#45;ios&#45;wallet#303&#10;Release &#45; v1.0.0" target="_blank">
<polygon fill="#c2e0c6" stroke="black" points="1704,-195 1485,-195 1485,-157 1704,-157 1704,-195"/>
<text text-anchor="middle" x="1594.5" y="-179.8" font-family="Times,serif" font-size="14.00">zcash/secant&#45;ios&#45;wallet#303</text>
<text text-anchor="middle" x="1594.5" y="-164.8" font-family="Times,serif" font-size="14.00">Release &#45; v1.0.0</text>
</a>
</g>
</g>
<!-- zcash/secant&#45;ios&#45;wallet#372&#45;&gt;zcash/secant&#45;ios&#45;wallet#303 -->
<g id="edge2" class="edge">
<title>zcash/secant&#45;ios&#45;wallet#372&#45;&gt;zcash/secant&#45;ios&#45;wallet#303</title>
<path fill="none" stroke="black" d="M1424.4,-131.53C1443.4,-137.12 1463.3,-142.88 1482,-148 1489.8,-150.14 1497.9,-152.3 1506.1,-154.43"/>
<polygon fill="black" stroke="black" points="1505.44,-157.87 1516,-157 1507.2,-151.1 1505.44,-157.87"/>
</g>
<!-- zcash/secant&#45;ios&#45;wallet#322 -->
<g id="node7" class="node open">
<title>zcash/secant&#45;ios&#45;wallet#322</title>
<g id="a_node7"><a xlink:href="https://github.com/zcash/secant-ios-wallet/issues/322" xlink:title="zcash/secant&#45;ios&#45;wallet#322&#10;Handle&#10;WrappedCaptureDeviceError&#10;in the ScanReducer" target="_blank">
<polygon fill="#c2e0c6" stroke="black" points="1707,-139 1482,-139 1482,-71 1707,-71 1707,-139"/>
<text text-anchor="middle" x="1594.5" y="-123.8" font-family="Times,serif" font-size="14.00">zcash/secant&#45;ios&#45;wallet#322</text>
<text text-anchor="middle" x="1594.5" y="-108.8" font-family="Times,serif" font-size="14.00">Handle</text>
<text text-anchor="middle" x="1594.5" y="-93.8" font-family="Times,serif" font-size="14.00">WrappedCaptureDeviceError</text>
<text text-anchor="middle" x="1594.5" y="-78.8" font-family="Times,serif" font-size="14.00">in the ScanReducer</text>
</a>
</g>
</g>
<!-- zcash/secant&#45;ios&#45;wallet#372&#45;&gt;zcash/secant&#45;ios&#45;wallet#322 -->
<g id="edge3" class="edge">
<title>zcash/secant&#45;ios&#45;wallet#372&#45;&gt;zcash/secant&#45;ios&#45;wallet#322</title>
<path fill="none" stroke="black" d="M1446.1,-105C1454.6,-105 1463.2,-105 1471.8,-105"/>
<polygon fill="black" stroke="black" points="1471.9,-108.5 1481.9,-105 1471.9,-101.5 1471.9,-108.5"/>
</g>
<!-- zcash/secant&#45;ios&#45;wallet#233 -->
<g id="node5" class="node open">
<title>zcash/secant&#45;ios&#45;wallet#233</title>
<g id="a_node5"><a xlink:href="https://github.com/zcash/secant-ios-wallet/issues/233" xlink:title="zcash/secant&#45;ios&#45;wallet#233&#10;Localization and&#10;Accessibility" target="_blank">
<polygon fill="#c2e0c6" stroke="black" stroke-width="2" points="1446,-202.5 1227,-202.5 1227,-149.5 1446,-149.5 1446,-202.5"/>
<text text-anchor="middle" x="1336.5" y="-187.3" font-family="Times,serif" font-size="14.00">zcash/secant&#45;ios&#45;wallet#233</text>
<text text-anchor="middle" x="1336.5" y="-172.3" font-family="Times,serif" font-size="14.00">Localization and</text>
<text text-anchor="middle" x="1336.5" y="-157.3" font-family="Times,serif" font-size="14.00">Accessibility</text>
</a>
</g>
</g>
<!-- zcash/secant&#45;ios&#45;wallet#233&#45;&gt;zcash/secant&#45;ios&#45;wallet#303 -->
<g id="edge4" class="edge">
<title>zcash/secant&#45;ios&#45;wallet#233&#45;&gt;zcash/secant&#45;ios&#45;wallet#303</title>
<path fill="none" stroke="black" d="M1446.1,-176C1455.5,-176 1465,-176 1474.5,-176"/>
<polygon fill="black" stroke="black" points="1474.8,-179.5 1484.8,-176 1474.8,-172.5 1474.8,-179.5"/>
</g>
<!-- zcash/secant&#45;ios&#45;wallet#380 -->
<g id="node8" class="node closed">
<title>zcash/secant&#45;ios&#45;wallet#380</title>
<g id="a_node8"><a xlink:href="https://github.com/zcash/secant-ios-wallet/issues/380" xlink:title="zcash/secant&#45;ios&#45;wallet#380&#10;Release v1.1.0" target="_blank">
<polygon fill="#fad8c7" stroke="black" points="1962,-124 1743,-124 1743,-86 1962,-86 1962,-124"/>
<text text-anchor="middle" x="1852.5" y="-108.8" font-family="Times,serif" font-size="14.00">zcash/secant&#45;ios&#45;wallet#380</text>
<text text-anchor="middle" x="1852.5" y="-93.8" font-family="Times,serif" font-size="14.00">Release v1.1.0</text>
</a>
</g>
</g>
<!-- zcash/secant&#45;ios&#45;wallet#303&#45;&gt;zcash/secant&#45;ios&#45;wallet#380 -->
<g id="edge6" class="edge">
<title>zcash/secant&#45;ios&#45;wallet#303&#45;&gt;zcash/secant&#45;ios&#45;wallet#380</title>
<path fill="none" stroke="black" d="M1673,-157C1684.4,-154.07 1696,-151.01 1707,-148 1730.9,-141.46 1756.8,-133.89 1780,-126.94"/>
<polygon fill="black" stroke="black" points="1781.23,-130.23 1789.8,-124 1779.22,-123.52 1781.23,-130.23"/>
</g>
<!-- zcash/secant&#45;ios&#45;wallet#214 -->
<g id="node9" class="node open">
<title>zcash/secant&#45;ios&#45;wallet#214</title>
<g id="a_node9"><a xlink:href="https://github.com/zcash/secant-ios-wallet/issues/214" xlink:title="zcash/secant&#45;ios&#45;wallet#214&#10;[Scaffold] Add About&#10;Screen" target="_blank">
<polygon fill="#c2e0c6" stroke="black" stroke-width="2" points="273,-315.5 54,-315.5 54,-262.5 273,-262.5 273,-315.5"/>
<text text-anchor="middle" x="163.5" y="-300.3" font-family="Times,serif" font-size="14.00">zcash/secant&#45;ios&#45;wallet#214</text>
<text text-anchor="middle" x="163.5" y="-285.3" font-family="Times,serif" font-size="14.00">[Scaffold] Add About</text>
<text text-anchor="middle" x="163.5" y="-270.3" font-family="Times,serif" font-size="14.00">Screen</text>
</a>
</g>
</g>
<!-- zcash/secant&#45;ios&#45;wallet#93 -->
<g id="node10" class="node open">
<title>zcash/secant&#45;ios&#45;wallet#93</title>
<g id="a_node10"><a xlink:href="https://github.com/zcash/secant-ios-wallet/issues/93" xlink:title="zcash/secant&#45;ios&#45;wallet#93&#10;[Functional] Request ZEC&#10;Screen" target="_blank">
<polygon fill="#c2e0c6" stroke="black" points="1191,-60.5 981,-60.5 981,-7.5 1191,-7.5 1191,-60.5"/>
<text text-anchor="middle" x="1086" y="-45.3" font-family="Times,serif" font-size="14.00">zcash/secant&#45;ios&#45;wallet#93</text>
<text text-anchor="middle" x="1086" y="-30.3" font-family="Times,serif" font-size="14.00">[Functional] Request ZEC</text>
<text text-anchor="middle" x="1086" y="-15.3" font-family="Times,serif" font-size="14.00">Screen</text>
</a>
</g>
</g>
<!-- zcash/secant&#45;ios&#45;wallet#94 -->
<g id="node11" class="node open">
<title>zcash/secant&#45;ios&#45;wallet#94</title>
<g id="a_node11"><a xlink:href="https://github.com/zcash/secant-ios-wallet/issues/94" xlink:title="zcash/secant&#45;ios&#45;wallet#94&#10;[Functional] Share ZEC&#10;Request Screen" target="_blank">
<polygon fill="#c2e0c6" stroke="black" points="1441.5,-60.5 1231.5,-60.5 1231.5,-7.5 1441.5,-7.5 1441.5,-60.5"/>
<text text-anchor="middle" x="1336.5" y="-45.3" font-family="Times,serif" font-size="14.00">zcash/secant&#45;ios&#45;wallet#94</text>
<text text-anchor="middle" x="1336.5" y="-30.3" font-family="Times,serif" font-size="14.00">[Functional] Share ZEC</text>
<text text-anchor="middle" x="1336.5" y="-15.3" font-family="Times,serif" font-size="14.00">Request Screen</text>
</a>
</g>
</g>
<!-- zcash/secant&#45;ios&#45;wallet#93&#45;&gt;zcash/secant&#45;ios&#45;wallet#94 -->
<g id="edge7" class="edge">
<title>zcash/secant&#45;ios&#45;wallet#93&#45;&gt;zcash/secant&#45;ios&#45;wallet#94</title>
<path fill="none" stroke="black" d="M1191.3,-34C1201.3,-34 1211.4,-34 1221.5,-34"/>
<polygon fill="black" stroke="black" points="1221.5,-37.5 1231.5,-34 1221.5,-30.5 1221.5,-37.5"/>
</g>
<!-- zcash/secant&#45;ios&#45;wallet#90 -->
<g id="node12" class="node open">
<title>zcash/secant&#45;ios&#45;wallet#90</title>
<g id="a_node12"><a xlink:href="https://github.com/zcash/secant-ios-wallet/issues/90" xlink:title="zcash/secant&#45;ios&#45;wallet#90&#10;Request ZEC Flow" target="_blank">
<polygon fill="#c2e0c6" stroke="black" points="1699.5,-53 1489.5,-53 1489.5,-15 1699.5,-15 1699.5,-53"/>
<text text-anchor="middle" x="1594.5" y="-37.8" font-family="Times,serif" font-size="14.00">zcash/secant&#45;ios&#45;wallet#90</text>
<text text-anchor="middle" x="1594.5" y="-22.8" font-family="Times,serif" font-size="14.00">Request ZEC Flow</text>
</a>
</g>
</g>
<!-- zcash/secant&#45;ios&#45;wallet#94&#45;&gt;zcash/secant&#45;ios&#45;wallet#90 -->
<g id="edge8" class="edge">
<title>zcash/secant&#45;ios&#45;wallet#94&#45;&gt;zcash/secant&#45;ios&#45;wallet#90</title>
<path fill="none" stroke="black" d="M1441.6,-34C1454.1,-34 1466.8,-34 1479.4,-34"/>
<polygon fill="black" stroke="black" points="1479.5,-37.5 1489.5,-34 1479.5,-30.5 1479.5,-37.5"/>
</g>
<!-- zcash/secant&#45;ios&#45;wallet#90&#45;&gt;zcash/secant&#45;ios&#45;wallet#380 -->
<g id="edge9" class="edge">
<title>zcash/secant&#45;ios&#45;wallet#90&#45;&gt;zcash/secant&#45;ios&#45;wallet#380</title>
<path fill="none" stroke="black" d="M1673,-53C1684.4,-55.94 1696,-58.99 1707,-62 1730.9,-68.54 1756.8,-76.11 1780,-83.06"/>
<polygon fill="black" stroke="black" points="1779.22,-86.48 1789.8,-86 1781.22,-79.78 1779.22,-86.48"/>
</g>
<!-- zcash/secant&#45;ios&#45;wallet#89 -->
<g id="node13" class="node closed">
<title>zcash/secant&#45;ios&#45;wallet#89</title>
<g id="a_node13"><a xlink:href="https://github.com/zcash/secant-ios-wallet/issues/89" xlink:title="zcash/secant&#45;ios&#45;wallet#89&#10;[Functional] Sending&#10;Screen &#45; Failure" target="_blank">
<polygon fill="#fad8c7" stroke="black" points="615.5,-386.5 405.5,-386.5 405.5,-333.5 615.5,-333.5 615.5,-386.5"/>
<text text-anchor="middle" x="510.5" y="-371.3" font-family="Times,serif" font-size="14.00">zcash/secant&#45;ios&#45;wallet#89</text>
<text text-anchor="middle" x="510.5" y="-356.3" font-family="Times,serif" font-size="14.00">[Functional] Sending</text>
<text text-anchor="middle" x="510.5" y="-341.3" font-family="Times,serif" font-size="14.00">Screen &#45; Failure</text>
</a>
</g>
</g>
<!-- zcash/secant&#45;ios&#45;wallet#411 -->
<g id="node14" class="node open">
<title>zcash/secant&#45;ios&#45;wallet#411</title>
<g id="a_node14"><a xlink:href="https://github.com/zcash/secant-ios-wallet/issues/411" xlink:title="zcash/secant&#45;ios&#45;wallet#411&#10;Async SynchronizerClient&#10;methods refactor" target="_blank">
<polygon fill="#c2e0c6" stroke="black" stroke-width="2" points="273,-457.5 54,-457.5 54,-404.5 273,-404.5 273,-457.5"/>
<text text-anchor="middle" x="163.5" y="-442.3" font-family="Times,serif" font-size="14.00">zcash/secant&#45;ios&#45;wallet#411</text>
<text text-anchor="middle" x="163.5" y="-427.3" font-family="Times,serif" font-size="14.00">Async SynchronizerClient</text>
<text text-anchor="middle" x="163.5" y="-412.3" font-family="Times,serif" font-size="14.00">methods refactor</text>
</a>
</g>
</g>
<!-- zcash/secant&#45;ios&#45;wallet#109 -->
<g id="node15" class="node open">
<title>zcash/secant&#45;ios&#45;wallet#109</title>
<g id="a_node15"><a xlink:href="https://github.com/zcash/secant-ios-wallet/issues/109" xlink:title="zcash/secant&#45;ios&#45;wallet#109&#10;[Research Spike] ZIP&#45;321&#10;Payment URIs and&#10;deeplinking" target="_blank">
<polygon fill="#c2e0c6" stroke="black" points="620,-68 401,-68 401,0 620,0 620,-68"/>
<text text-anchor="middle" x="510.5" y="-52.8" font-family="Times,serif" font-size="14.00">zcash/secant&#45;ios&#45;wallet#109</text>
<text text-anchor="middle" x="510.5" y="-37.8" font-family="Times,serif" font-size="14.00">[Research Spike] ZIP&#45;321</text>
<text text-anchor="middle" x="510.5" y="-22.8" font-family="Times,serif" font-size="14.00">Payment URIs and</text>
<text text-anchor="middle" x="510.5" y="-7.8" font-family="Times,serif" font-size="14.00">deeplinking</text>
</a>
</g>
</g>
<!-- zcash/secant&#45;ios&#45;wallet#141 -->
<g id="node16" class="node open">
<title>zcash/secant&#45;ios&#45;wallet#141</title>
<g id="a_node16"><a xlink:href="https://github.com/zcash/secant-ios-wallet/issues/141" xlink:title="zcash/secant&#45;ios&#45;wallet#141&#10;Encode URI in QR Code" target="_blank">
<polygon fill="#c2e0c6" stroke="black" points="933,-53 714,-53 714,-15 933,-15 933,-53"/>
<text text-anchor="middle" x="823.5" y="-37.8" font-family="Times,serif" font-size="14.00">zcash/secant&#45;ios&#45;wallet#141</text>
<text text-anchor="middle" x="823.5" y="-22.8" font-family="Times,serif" font-size="14.00">Encode URI in QR Code</text>
</a>
</g>
</g>
<!-- zcash/secant&#45;ios&#45;wallet#109&#45;&gt;zcash/secant&#45;ios&#45;wallet#141 -->
<g id="edge10" class="edge">
<title>zcash/secant&#45;ios&#45;wallet#109&#45;&gt;zcash/secant&#45;ios&#45;wallet#141</title>
<path fill="none" stroke="black" d="M620.27,-34C647.26,-34 676.32,-34 703.76,-34"/>
<polygon fill="black" stroke="black" points="703.79,-37.5 713.79,-34 703.79,-30.5 703.79,-37.5"/>
</g>
<!-- zcash/secant&#45;ios&#45;wallet#141&#45;&gt;zcash/secant&#45;ios&#45;wallet#93 -->
<g id="edge11" class="edge">
<title>zcash/secant&#45;ios&#45;wallet#141&#45;&gt;zcash/secant&#45;ios&#45;wallet#93</title>
<path fill="none" stroke="black" d="M933.09,-34C945.41,-34 958,-34 970.4,-34"/>
<polygon fill="black" stroke="black" points="970.76,-37.5 980.76,-34 970.76,-30.5 970.76,-37.5"/>
</g>
<!-- zcash/secant&#45;ios&#45;wallet#232 -->
<g id="node17" class="node open">
<title>zcash/secant&#45;ios&#45;wallet#232</title>
<g id="a_node17"><a xlink:href="https://github.com/zcash/secant-ios-wallet/issues/232" xlink:title="zcash/secant&#45;ios&#45;wallet#232&#10;Add error handling UI for&#10;ZEC send UI" target="_blank">
<polygon fill="#c2e0c6" stroke="black" stroke-width="2" points="273,-386.5 54,-386.5 54,-333.5 273,-333.5 273,-386.5"/>
<text text-anchor="middle" x="163.5" y="-371.3" font-family="Times,serif" font-size="14.00">zcash/secant&#45;ios&#45;wallet#232</text>
<text text-anchor="middle" x="163.5" y="-356.3" font-family="Times,serif" font-size="14.00">Add error handling UI for</text>
<text text-anchor="middle" x="163.5" y="-341.3" font-family="Times,serif" font-size="14.00">ZEC send UI</text>
</a>
</g>
</g>
<!-- zcash/secant&#45;ios&#45;wallet#232&#45;&gt;zcash/secant&#45;ios&#45;wallet#89 -->
<g id="edge12" class="edge">
<title>zcash/secant&#45;ios&#45;wallet#232&#45;&gt;zcash/secant&#45;ios&#45;wallet#89</title>
<path fill="none" stroke="black" d="M273.19,-360C312.07,-360 355.99,-360 395.32,-360"/>
<polygon fill="black" stroke="black" points="395.48,-363.5 405.48,-360 395.48,-356.5 395.48,-363.5"/>
</g>
<!-- zcash/ZcashLightClientKit#319 -->
<g id="node18" class="node open">
<title>zcash/ZcashLightClientKit#319</title>
<g id="a_node18"><a xlink:href="https://github.com/zcash/ZcashLightClientKit/issues/319" xlink:title="zcash/ZcashLightClientKit#319&#10;ZIP&#45;321 Request&#10;Generation API" target="_blank">
<polygon fill="#c2e0c6" stroke="black" stroke-width="2" points="285,-60.5 42,-60.5 42,-7.5 285,-7.5 285,-60.5"/>
<text text-anchor="middle" x="163.5" y="-45.3" font-family="Times,serif" font-size="14.00">zcash/ZcashLightClientKit#319</text>
<text text-anchor="middle" x="163.5" y="-30.3" font-family="Times,serif" font-size="14.00">ZIP&#45;321 Request</text>
<text text-anchor="middle" x="163.5" y="-15.3" font-family="Times,serif" font-size="14.00">Generation API</text>
</a>
</g>
</g>
<!-- zcash/ZcashLightClientKit#319&#45;&gt;zcash/secant&#45;ios&#45;wallet#109 -->
<g id="edge13" class="edge">
<title>zcash/ZcashLightClientKit#319&#45;&gt;zcash/secant&#45;ios&#45;wallet#109</title>
<path fill="none" stroke="black" d="M285.16,-34C319.39,-34 356.61,-34 390.72,-34"/>
<polygon fill="black" stroke="black" points="390.72,-37.5 400.72,-34 390.72,-30.5 390.72,-37.5"/>
</g>
<!-- zcash/secant&#45;ios&#45;wallet#694 -->
<g id="node19" class="node open">
<title>zcash/secant&#45;ios&#45;wallet#694</title>
<g id="a_node19"><a xlink:href="https://github.com/zcash/secant-ios-wallet/issues/694" xlink:title="zcash/secant&#45;ios&#45;wallet#694&#10;Instrument a forced&#10;upgrade mechanism" target="_blank">
<polygon fill="#c2e0c6" stroke="black" stroke-width="2" points="273,-528.5 54,-528.5 54,-475.5 273,-475.5 273,-528.5"/>
<text text-anchor="middle" x="163.5" y="-513.3" font-family="Times,serif" font-size="14.00">zcash/secant&#45;ios&#45;wallet#694</text>
<text text-anchor="middle" x="163.5" y="-498.3" font-family="Times,serif" font-size="14.00">Instrument a forced</text>
<text text-anchor="middle" x="163.5" y="-483.3" font-family="Times,serif" font-size="14.00">upgrade mechanism</text>
</a>
</g>
</g>
<!-- zcash/secant&#45;ios&#45;wallet#237 -->
<g id="node20" class="node open">
<title>zcash/secant&#45;ios&#45;wallet#237</title>
<g id="a_node20"><a xlink:href="https://github.com/zcash/secant-ios-wallet/issues/237" xlink:title="zcash/secant&#45;ios&#45;wallet#237&#10;Design: Privacy &amp; Opt&#45;&#10;in/out for cloud services" target="_blank">
<polygon fill="#c2e0c6" stroke="black" stroke-width="2" points="273,-599.5 54,-599.5 54,-546.5 273,-546.5 273,-599.5"/>
<text text-anchor="middle" x="163.5" y="-584.3" font-family="Times,serif" font-size="14.00">zcash/secant&#45;ios&#45;wallet#237</text>
<text text-anchor="middle" x="163.5" y="-569.3" font-family="Times,serif" font-size="14.00">Design: Privacy &amp; Opt&#45;</text>
<text text-anchor="middle" x="163.5" y="-554.3" font-family="Times,serif" font-size="14.00">in/out for cloud services</text>
</a>
</g>
</g>
<!-- zcash/secant&#45;ios&#45;wallet#695 -->
<g id="node21" class="node open">
<title>zcash/secant&#45;ios&#45;wallet#695</title>
<g id="a_node21"><a xlink:href="https://github.com/zcash/secant-ios-wallet/issues/695" xlink:title="zcash/secant&#45;ios&#45;wallet#695&#10;Support for opt&#45;in cloud&#10;backup of keys" target="_blank">
<polygon fill="#c2e0c6" stroke="black" stroke-width="2" points="273,-670.5 54,-670.5 54,-617.5 273,-617.5 273,-670.5"/>
<text text-anchor="middle" x="163.5" y="-655.3" font-family="Times,serif" font-size="14.00">zcash/secant&#45;ios&#45;wallet#695</text>
<text text-anchor="middle" x="163.5" y="-640.3" font-family="Times,serif" font-size="14.00">Support for opt&#45;in cloud</text>
<text text-anchor="middle" x="163.5" y="-625.3" font-family="Times,serif" font-size="14.00">backup of keys</text>
</a>
</g>
</g>
<!-- zcash/ZcashLightClientKit#442 -->
<g id="node22" class="node open">
<title>zcash/ZcashLightClientKit#442</title>
<g id="a_node22"><a xlink:href="https://github.com/zcash/ZcashLightClientKit/issues/442" xlink:title="zcash/ZcashLightClientKit#442&#10;Parallelize download and&#10;processing of blocks" target="_blank">
<polygon fill="#c2e0c6" stroke="black" points="945,-714.5 702,-714.5 702,-661.5 945,-661.5 945,-714.5"/>
<text text-anchor="middle" x="823.5" y="-699.3" font-family="Times,serif" font-size="14.00">zcash/ZcashLightClientKit#442</text>
<text text-anchor="middle" x="823.5" y="-684.3" font-family="Times,serif" font-size="14.00">Parallelize download and</text>
<text text-anchor="middle" x="823.5" y="-669.3" font-family="Times,serif" font-size="14.00">processing of blocks</text>
</a>
</g>
</g>
<!-- zcash/ZcashLightClientKit#566 -->
<g id="node23" class="node open">
<title>zcash/ZcashLightClientKit#566</title>
<g id="a_node23"><a xlink:href="https://github.com/zcash/ZcashLightClientKit/issues/566" xlink:title="zcash/ZcashLightClientKit#566&#10;Parallel block processing&#10;&#45; Phase 1" target="_blank">
<polygon fill="#c2e0c6" stroke="black" stroke-width="2" points="285,-741.5 42,-741.5 42,-688.5 285,-688.5 285,-741.5"/>
<text text-anchor="middle" x="163.5" y="-726.3" font-family="Times,serif" font-size="14.00">zcash/ZcashLightClientKit#566</text>
<text text-anchor="middle" x="163.5" y="-711.3" font-family="Times,serif" font-size="14.00">Parallel block processing</text>
<text text-anchor="middle" x="163.5" y="-696.3" font-family="Times,serif" font-size="14.00">&#45; Phase 1</text>
</a>
</g>
</g>
<!-- zcash/ZcashLightClientKit#566&#45;&gt;zcash/ZcashLightClientKit#442 -->
<g id="edge14" class="edge">
<title>zcash/ZcashLightClientKit#566&#45;&gt;zcash/ZcashLightClientKit#442</title>
<path fill="none" stroke="black" d="M285.24,-711.59C388.5,-708.47 541.06,-703.38 674,-697 679.78,-696.72 685.7,-696.42 691.67,-696.11"/>
<polygon fill="black" stroke="black" points="691.96,-699.6 701.76,-695.57 691.59,-692.61 691.96,-699.6"/>
</g>
<!-- zcash/ZcashLightClientKit#569 -->
<g id="node24" class="node closed">
<title>zcash/ZcashLightClientKit#569</title>
<g id="a_node24"><a xlink:href="https://github.com/zcash/ZcashLightClientKit/issues/569" xlink:title="zcash/ZcashLightClientKit#569&#10;Empty blocks cache during&#10;synchronisation" target="_blank">
<polygon fill="#fad8c7" stroke="black" points="632,-687.5 389,-687.5 389,-634.5 632,-634.5 632,-687.5"/>
<text text-anchor="middle" x="510.5" y="-672.3" font-family="Times,serif" font-size="14.00">zcash/ZcashLightClientKit#569</text>
<text text-anchor="middle" x="510.5" y="-657.3" font-family="Times,serif" font-size="14.00">Empty blocks cache during</text>
<text text-anchor="middle" x="510.5" y="-642.3" font-family="Times,serif" font-size="14.00">synchronisation</text>
</a>
</g>
</g>
<!-- zcash/ZcashLightClientKit#566&#45;&gt;zcash/ZcashLightClientKit#569 -->
<g id="edge15" class="edge">
<title>zcash/ZcashLightClientKit#566&#45;&gt;zcash/ZcashLightClientKit#569</title>
<path fill="none" stroke="black" d="M285.16,-696.11C315.5,-691.37 348.19,-686.25 378.98,-681.43"/>
<polygon fill="black" stroke="black" points="379.56,-684.88 388.9,-679.88 378.48,-677.97 379.56,-684.88"/>
</g>
<!-- zcash/ZcashLightClientKit#569&#45;&gt;zcash/ZcashLightClientKit#442 -->
<g id="edge16" class="edge">
<title>zcash/ZcashLightClientKit#569&#45;&gt;zcash/ZcashLightClientKit#442</title>
<path fill="none" stroke="black" d="M632.19,-671.48C651.76,-673.18 672.11,-674.94 691.9,-676.66"/>
<polygon fill="black" stroke="black" points="691.61,-680.15 701.88,-677.53 692.22,-673.17 691.61,-680.15"/>
</g>
<!-- zcash/ZcashLightClientKit#298 -->
<g id="node25" class="node open">
<title>zcash/ZcashLightClientKit#298</title>
<g id="a_node25"><a xlink:href="https://github.com/zcash/ZcashLightClientKit/issues/298" xlink:title="zcash/ZcashLightClientKit#298&#10;Make BalanceTests pass" target="_blank">
<polygon fill="#c2e0c6" stroke="black" stroke-width="2" points="285,-798 42,-798 42,-760 285,-760 285,-798"/>
<text text-anchor="middle" x="163.5" y="-782.8" font-family="Times,serif" font-size="14.00">zcash/ZcashLightClientKit#298</text>
<text text-anchor="middle" x="163.5" y="-767.8" font-family="Times,serif" font-size="14.00">Make BalanceTests pass</text>
</a>
</g>
</g>
<!-- zcash/ZcashLightClientKit#128 -->
<g id="node26" class="node closed">
<title>zcash/ZcashLightClientKit#128</title>
<g id="a_node26"><a xlink:href="https://github.com/zcash/ZcashLightClientKit/issues/128" xlink:title="zcash/ZcashLightClientKit#128&#10;Verified Balance and&#10;total Balance not updated&#10;after sending" target="_blank">
<polygon fill="#fad8c7" stroke="black" points="632,-813 389,-813 389,-745 632,-745 632,-813"/>
<text text-anchor="middle" x="510.5" y="-797.8" font-family="Times,serif" font-size="14.00">zcash/ZcashLightClientKit#128</text>
<text text-anchor="middle" x="510.5" y="-782.8" font-family="Times,serif" font-size="14.00">Verified Balance and</text>
<text text-anchor="middle" x="510.5" y="-767.8" font-family="Times,serif" font-size="14.00">total Balance not updated</text>
<text text-anchor="middle" x="510.5" y="-752.8" font-family="Times,serif" font-size="14.00">after sending</text>
</a>
</g>
</g>
<!-- zcash/ZcashLightClientKit#298&#45;&gt;zcash/ZcashLightClientKit#128 -->
<g id="edge17" class="edge">
<title>zcash/ZcashLightClientKit#298&#45;&gt;zcash/ZcashLightClientKit#128</title>
<path fill="none" stroke="black" d="M285.16,-779C315.37,-779 347.91,-779 378.58,-779"/>
<polygon fill="black" stroke="black" points="378.9,-782.5 388.9,-779 378.9,-775.5 378.9,-782.5"/>
</g>
<!-- zcash/ZcashLightClientKit#434 -->
<g id="node27" class="node open">
<title>zcash/ZcashLightClientKit#434</title>
<g id="a_node27"><a xlink:href="https://github.com/zcash/ZcashLightClientKit/issues/434" xlink:title="zcash/ZcashLightClientKit#434&#10;Expose an API that&#10;expresses syncing&#10;progress more clearly" target="_blank">
<polygon fill="#c2e0c6" stroke="black" stroke-width="2" points="285,-884 42,-884 42,-816 285,-816 285,-884"/>
<text text-anchor="middle" x="163.5" y="-868.8" font-family="Times,serif" font-size="14.00">zcash/ZcashLightClientKit#434</text>
<text text-anchor="middle" x="163.5" y="-853.8" font-family="Times,serif" font-size="14.00">Expose an API that</text>
<text text-anchor="middle" x="163.5" y="-838.8" font-family="Times,serif" font-size="14.00">expresses syncing</text>
<text text-anchor="middle" x="163.5" y="-823.8" font-family="Times,serif" font-size="14.00">progress more clearly</text>
</a>
</g>
</g>
</g>
</svg>
