<?xml version="1.0" encoding="UTF-8" standalone="no"?>
<?xml-stylesheet href="zcash-dag.css" type="text/css"?>
<!DOCTYPE svg PUBLIC "-//W3C//DTD SVG 1.1//EN"
 "http://www.w3.org/Graphics/SVG/1.1/DTD/svg11.dtd">
<!-- Generated by graphviz version 2.43.0 (0)
 -->
<!-- Pages: 1 -->
<svg width="400pt" height="410pt"
 viewBox="0.00 0.00 400.00 409.50" xmlns="http://www.w3.org/2000/svg" xmlns:xlink="http://www.w3.org/1999/xlink">
<g id="graph0" class="graph" transform="scale(1 1) rotate(0) translate(4 405.5)">
<polygon fill="white" stroke="transparent" points="-4,4 -4,-405.5 396,-405.5 396,4 -4,4"/>
<!-- zcash/zcash#4203 -->
<g id="node1" class="node open">
<title>zcash/zcash#4203</title>
<g id="a_node1"><a xlink:href="https://github.com/zcash/zcash/issues/4203" xlink:title="zcash/zcash#4203&#10;Retire Transparent&#10;Address Pool" target="_blank">
<polygon fill="#c2e0c6" stroke="black" points="392,-197 389,-201 368,-201 365,-197 239,-197 239,-144 392,-144 392,-197"/>
<text text-anchor="middle" x="315.5" y="-181.8" font-family="Times,serif" font-size="14.00">zcash/zcash#4203</text>
<text text-anchor="middle" x="315.5" y="-166.8" font-family="Times,serif" font-size="14.00">Retire Transparent</text>
<text text-anchor="middle" x="315.5" y="-151.8" font-family="Times,serif" font-size="14.00">Address Pool</text>
</a>
</g>
</g>
<!-- zcash/zips#286 -->
<g id="node2" class="node open">
<title>zcash/zips#286</title>
<g id="a_node2"><a xlink:href="https://github.com/zcash/zips/issues/286" xlink:title="zcash/zips#286&#10;Research spike: Check&#10;whether the scripting&#10;system can reason about /&#10;require properties of&#10;transparent outputs&#10;within an input script in&#10;the same transaction." target="_blank">
<polygon fill="#c2e0c6" stroke="black" stroke-width="2" points="203,-401.5 0,-401.5 0,-273.5 203,-273.5 203,-401.5"/>
<text text-anchor="middle" x="101.5" y="-386.3" font-family="Times,serif" font-size="14.00">zcash/zips#286</text>
<text text-anchor="middle" x="101.5" y="-371.3" font-family="Times,serif" font-size="14.00">Research spike: Check</text>
<text text-anchor="middle" x="101.5" y="-356.3" font-family="Times,serif" font-size="14.00">whether the scripting</text>
<text text-anchor="middle" x="101.5" y="-341.3" font-family="Times,serif" font-size="14.00">system can reason about /</text>
<text text-anchor="middle" x="101.5" y="-326.3" font-family="Times,serif" font-size="14.00">require properties of</text>
<text text-anchor="middle" x="101.5" y="-311.3" font-family="Times,serif" font-size="14.00">transparent outputs</text>
<text text-anchor="middle" x="101.5" y="-296.3" font-family="Times,serif" font-size="14.00">within an input script in</text>
<text text-anchor="middle" x="101.5" y="-281.3" font-family="Times,serif" font-size="14.00">the same transaction.</text>
</a>
</g>
</g>
<!-- zcash/zips#286&#45;&gt;zcash/zcash#4203 -->
<g id="edge1" class="edge">
<title>zcash/zips#286&#45;&gt;zcash/zcash#4203</title>
<path fill="none" stroke="black" d="M191.54,-273.36C195.43,-270.39 199.26,-267.42 203,-264.5 227.92,-244.98 255.1,-222.11 276.38,-203.81"/>
<polygon fill="black" stroke="black" points="278.94,-206.22 284.23,-197.04 274.37,-200.92 278.94,-206.22"/>
</g>
<!-- zcash/zcash#3431 -->
<g id="node3" class="node open">
<title>zcash/zcash#3431</title>
<g id="a_node3"><a xlink:href="https://github.com/zcash/zcash/issues/3431" xlink:title="zcash/zcash#3431&#10;Mandatory conversion of&#10;transparent value into&#10;shielded notes" target="_blank">
<polygon fill="#c2e0c6" stroke="black" stroke-width="2" points="198.5,-255.5 4.5,-255.5 4.5,-187.5 198.5,-187.5 198.5,-255.5"/>
<text text-anchor="middle" x="101.5" y="-240.3" font-family="Times,serif" font-size="14.00">zcash/zcash#3431</text>
<text text-anchor="middle" x="101.5" y="-225.3" font-family="Times,serif" font-size="14.00">Mandatory conversion of</text>
<text text-anchor="middle" x="101.5" y="-210.3" font-family="Times,serif" font-size="14.00">transparent value into</text>
<text text-anchor="middle" x="101.5" y="-195.3" font-family="Times,serif" font-size="14.00">shielded notes</text>
</a>
</g>
</g>
<!-- zcash/zcash#3431&#45;&gt;zcash/zcash#4203 -->
<g id="edge2" class="edge">
<title>zcash/zcash#3431&#45;&gt;zcash/zcash#4203</title>
<path fill="none" stroke="black" d="M198.58,-198.39C208.68,-195.96 218.91,-193.5 228.89,-191.1"/>
<polygon fill="black" stroke="black" points="229.87,-194.46 238.77,-188.72 228.23,-187.66 229.87,-194.46"/>
</g>
<!-- zcash/zcash#1133 -->
<g id="node4" class="node open">
<title>zcash/zcash#1133</title>
<g id="a_node4"><a xlink:href="https://github.com/zcash/zcash/issues/1133" xlink:title="zcash/zcash#1133&#10;Restrict block size for&#10;transparent transactions&#10;/ preserve space for&#10;Sapling/Orchard&#45;only&#10;shielded transactions." target="_blank">
<polygon fill="#c2e0c6" stroke="black" stroke-width="2" points="198.5,-169.5 4.5,-169.5 4.5,-71.5 198.5,-71.5 198.5,-169.5"/>
<text text-anchor="middle" x="101.5" y="-154.3" font-family="Times,serif" font-size="14.00">zcash/zcash#1133</text>
<text text-anchor="middle" x="101.5" y="-139.3" font-family="Times,serif" font-size="14.00">Restrict block size for</text>
<text text-anchor="middle" x="101.5" y="-124.3" font-family="Times,serif" font-size="14.00">transparent transactions</text>
<text text-anchor="middle" x="101.5" y="-109.3" font-family="Times,serif" font-size="14.00">/ preserve space for</text>
<text text-anchor="middle" x="101.5" y="-94.3" font-family="Times,serif" font-size="14.00">Sapling/Orchard&#45;only</text>
<text text-anchor="middle" x="101.5" y="-79.3" font-family="Times,serif" font-size="14.00">shielded transactions.</text>
</a>
</g>
</g>
<!-- zcash/zcash#1133&#45;&gt;zcash/zcash#4203 -->
<g id="edge3" class="edge">
<title>zcash/zcash#1133&#45;&gt;zcash/zcash#4203</title>
<path fill="none" stroke="black" d="M198.58,-143.16C208.68,-145.54 218.91,-147.96 228.89,-150.31"/>
<polygon fill="black" stroke="black" points="228.23,-153.75 238.77,-152.64 229.84,-146.94 228.23,-153.75"/>
</g>
<!-- zcash/zcash#3800 -->
<g id="node5" class="node open">
<title>zcash/zcash#3800</title>
<g id="a_node5"><a xlink:href="https://github.com/zcash/zcash/issues/3800" xlink:title="zcash/zcash#3800&#10;Warn Upon Use of&#10;Transparent Addresses" target="_blank">
<polygon fill="#c2e0c6" stroke="black" stroke-width="2" points="192.5,-53 10.5,-53 10.5,0 192.5,0 192.5,-53"/>
<text text-anchor="middle" x="101.5" y="-37.8" font-family="Times,serif" font-size="14.00">zcash/zcash#3800</text>
<text text-anchor="middle" x="101.5" y="-22.8" font-family="Times,serif" font-size="14.00">Warn Upon Use of</text>
<text text-anchor="middle" x="101.5" y="-7.8" font-family="Times,serif" font-size="14.00">Transparent Addresses</text>
</a>
</g>
</g>
<!-- zcash/zcash#3800&#45;&gt;zcash/zcash#4203 -->
<g id="edge4" class="edge">
<title>zcash/zcash#3800&#45;&gt;zcash/zcash#4203</title>
<path fill="none" stroke="black" d="M185.57,-53C191.61,-55.91 197.49,-59.07 203,-62.5 234.86,-82.33 265.05,-112.54 285.96,-135.98"/>
<polygon fill="black" stroke="black" points="283.46,-138.44 292.69,-143.64 288.72,-133.82 283.46,-138.44"/>
</g>
</g>
</svg>
