<?xml version="1.0" encoding="UTF-8" standalone="no"?>
<?xml-stylesheet href="zcash-dag.css" type="text/css"?>
<!DOCTYPE svg PUBLIC "-//W3C//DTD SVG 1.1//EN"
 "http://www.w3.org/Graphics/SVG/1.1/DTD/svg11.dtd">
<!-- Generated by graphviz version 2.40.1 (20161225.0304)
 -->
<!-- Pages: 1 -->
<svg width="1638pt" height="1093pt"
 viewBox="0.00 0.00 1638.00 1092.50" xmlns="http://www.w3.org/2000/svg" xmlns:xlink="http://www.w3.org/1999/xlink">
<g id="graph0" class="graph" transform="scale(1 1) rotate(0) translate(4 1088.5)">
<polygon fill="#ffffff" stroke="transparent" points="-4,4 -4,-1088.5 1634,-1088.5 1634,4 -4,4"/>
<!-- zcash/pasta_curves#35 -->
<g id="node1" class="node open">
<title>zcash/pasta_curves#35</title>
<g id="a_node1"><a xlink:href="https://github.com/zcash/pasta_curves/issues/35" xlink:title="zcash/pasta_curves#35&#10;Enable `ec&#45;gpu` to&#10;generate MSM and FFT code&#10;for `pasta_curves`" target="_blank">
<polygon fill="#c2e0c6" stroke="#000000" stroke-width="2" points="226,-68 0,-68 0,0 226,0 226,-68"/>
<text text-anchor="middle" x="113" y="-52.8" font-family="Times,serif" font-size="14.00" fill="#000000">zcash/pasta_curves#35</text>
<text text-anchor="middle" x="113" y="-37.8" font-family="Times,serif" font-size="14.00" fill="#000000">Enable `ec&#45;gpu` to</text>
<text text-anchor="middle" x="113" y="-22.8" font-family="Times,serif" font-size="14.00" fill="#000000">generate MSM and FFT code</text>
<text text-anchor="middle" x="113" y="-7.8" font-family="Times,serif" font-size="14.00" fill="#000000">for `pasta_curves`</text>
</a>
</g>
</g>
<!-- zcash/halo2#379 -->
<g id="node2" class="node open">
<title>zcash/halo2#379</title>
<g id="a_node2"><a xlink:href="https://github.com/zcash/halo2/issues/379" xlink:title="zcash/halo2#379&#10;Add `ec&#45;gpu` support" target="_blank">
<polygon fill="#c2e0c6" stroke="#000000" points="445.5,-53 272.5,-53 272.5,-15 445.5,-15 445.5,-53"/>
<text text-anchor="middle" x="359" y="-37.8" font-family="Times,serif" font-size="14.00" fill="#000000">zcash/halo2#379</text>
<text text-anchor="middle" x="359" y="-22.8" font-family="Times,serif" font-size="14.00" fill="#000000">Add `ec&#45;gpu` support</text>
</a>
</g>
</g>
<!-- zcash/pasta_curves#35&#45;&gt;zcash/halo2#379 -->
<g id="edge1" class="edge">
<title>zcash/pasta_curves#35&#45;&gt;zcash/halo2#379</title>
<path fill="none" stroke="#000000" d="M226.28,-34C238.28,-34 250.4,-34 262.18,-34"/>
<polygon fill="#000000" stroke="#000000" points="262.44,-37.5001 272.44,-34 262.44,-30.5001 262.44,-37.5001"/>
</g>
<!-- zcash/halo2#75 -->
<g id="node3" class="node open">
<title>zcash/halo2#75</title>
<g id="a_node3"><a xlink:href="https://github.com/zcash/halo2/issues/75" xlink:title="zcash/halo2#75&#10;Implement support for&#10;recursion" target="_blank">
<polygon fill="#c2e0c6" stroke="#000000" points="1387.5,-374.5 1208.5,-374.5 1208.5,-321.5 1387.5,-321.5 1387.5,-374.5"/>
<text text-anchor="middle" x="1298" y="-359.3" font-family="Times,serif" font-size="14.00" fill="#000000">zcash/halo2#75</text>
<text text-anchor="middle" x="1298" y="-344.3" font-family="Times,serif" font-size="14.00" fill="#000000">Implement support for</text>
<text text-anchor="middle" x="1298" y="-329.3" font-family="Times,serif" font-size="14.00" fill="#000000">recursion</text>
</a>
</g>
</g>
<!-- zcash/halo2#494 -->
<g id="node4" class="node open">
<title>zcash/halo2#494</title>
<g id="a_node4"><a xlink:href="https://github.com/zcash/halo2/issues/494" xlink:title="zcash/halo2#494&#10;Consider adding an API&#10;that enables application&#10;circuits to be built&#10;across both fields" target="_blank">
<polygon fill="#c2e0c6" stroke="#000000" points="1630,-389.5 1441,-389.5 1441,-306.5 1630,-306.5 1630,-389.5"/>
<text text-anchor="middle" x="1535.5" y="-374.3" font-family="Times,serif" font-size="14.00" fill="#000000">zcash/halo2#494</text>
<text text-anchor="middle" x="1535.5" y="-359.3" font-family="Times,serif" font-size="14.00" fill="#000000">Consider adding an API</text>
<text text-anchor="middle" x="1535.5" y="-344.3" font-family="Times,serif" font-size="14.00" fill="#000000">that enables application</text>
<text text-anchor="middle" x="1535.5" y="-329.3" font-family="Times,serif" font-size="14.00" fill="#000000">circuits to be built</text>
<text text-anchor="middle" x="1535.5" y="-314.3" font-family="Times,serif" font-size="14.00" fill="#000000">across both fields</text>
</a>
</g>
</g>
<!-- zcash/halo2#75&#45;&gt;zcash/halo2#494 -->
<g id="edge2" class="edge">
<title>zcash/halo2#75&#45;&gt;zcash/halo2#494</title>
<path fill="none" stroke="#000000" d="M1387.8,-348C1401.7,-348 1416.3,-348 1430.5,-348"/>
<polygon fill="#000000" stroke="#000000" points="1430.8,-351.5001 1440.8,-348 1430.8,-344.5001 1430.8,-351.5001"/>
</g>
<!-- zcash/halo2#79 -->
<g id="node5" class="node open">
<title>zcash/halo2#79</title>
<g id="a_node5"><a xlink:href="https://github.com/zcash/halo2/issues/79" xlink:title="zcash/halo2#79&#10;Migrate Rescue and&#10;Poseidon gadgets to&#10;algebraic hash&#10;abstraction" target="_blank">
<polygon fill="#c2e0c6" stroke="#000000" points="1130.5,-601.5 969.5,-601.5 969.5,-518.5 1130.5,-518.5 1130.5,-601.5"/>
<text text-anchor="middle" x="1050" y="-586.3" font-family="Times,serif" font-size="14.00" fill="#000000">zcash/halo2#79</text>
<text text-anchor="middle" x="1050" y="-571.3" font-family="Times,serif" font-size="14.00" fill="#000000">Migrate Rescue and</text>
<text text-anchor="middle" x="1050" y="-556.3" font-family="Times,serif" font-size="14.00" fill="#000000">Poseidon gadgets to</text>
<text text-anchor="middle" x="1050" y="-541.3" font-family="Times,serif" font-size="14.00" fill="#000000">algebraic hash</text>
<text text-anchor="middle" x="1050" y="-526.3" font-family="Times,serif" font-size="14.00" fill="#000000">abstraction</text>
</a>
</g>
</g>
<!-- zcash/halo2#78 -->
<g id="node6" class="node open">
<title>zcash/halo2#78</title>
<g id="a_node6"><a xlink:href="https://github.com/zcash/halo2/issues/78" xlink:title="zcash/halo2#78&#10;Implement algebraic hash&#10;/ random oracle&#10;abstraction gadget" target="_blank">
<polygon fill="#c2e0c6" stroke="#000000" stroke-width="2" points="908,-594 704,-594 704,-526 908,-526 908,-594"/>
<text text-anchor="middle" x="806" y="-578.8" font-family="Times,serif" font-size="14.00" fill="#000000">zcash/halo2#78</text>
<text text-anchor="middle" x="806" y="-563.8" font-family="Times,serif" font-size="14.00" fill="#000000">Implement algebraic hash</text>
<text text-anchor="middle" x="806" y="-548.8" font-family="Times,serif" font-size="14.00" fill="#000000">/ random oracle</text>
<text text-anchor="middle" x="806" y="-533.8" font-family="Times,serif" font-size="14.00" fill="#000000">abstraction gadget</text>
</a>
</g>
</g>
<!-- zcash/halo2#78&#45;&gt;zcash/halo2#79 -->
<g id="edge3" class="edge">
<title>zcash/halo2#78&#45;&gt;zcash/halo2#79</title>
<path fill="none" stroke="#000000" d="M908.06,-560C925.04,-560 942.55,-560 959.23,-560"/>
<polygon fill="#000000" stroke="#000000" points="959.49,-563.5001 969.49,-560 959.49,-556.5001 959.49,-563.5001"/>
</g>
<!-- zcash/halo2#250 -->
<g id="node7" class="node open">
<title>zcash/halo2#250</title>
<g id="a_node7"><a xlink:href="https://github.com/zcash/halo2/issues/250" xlink:title="zcash/halo2#250&#10;Implement the logic for&#10;the IVC verifier circuit" target="_blank">
<polygon fill="#c2e0c6" stroke="#000000" points="1143,-414.5 957,-414.5 957,-361.5 1143,-361.5 1143,-414.5"/>
<text text-anchor="middle" x="1050" y="-399.3" font-family="Times,serif" font-size="14.00" fill="#000000">zcash/halo2#250</text>
<text text-anchor="middle" x="1050" y="-384.3" font-family="Times,serif" font-size="14.00" fill="#000000">Implement the logic for</text>
<text text-anchor="middle" x="1050" y="-369.3" font-family="Times,serif" font-size="14.00" fill="#000000">the IVC verifier circuit</text>
</a>
</g>
</g>
<!-- zcash/halo2#78&#45;&gt;zcash/halo2#250 -->
<g id="edge4" class="edge">
<title>zcash/halo2#78&#45;&gt;zcash/halo2#250</title>
<path fill="none" stroke="#000000" d="M893.63,-525.95C898.93,-523.11 904.1,-520.13 909,-517 951.1,-490.12 992.45,-450.24 1019.4,-421.95"/>
<polygon fill="#000000" stroke="#000000" points="1021.9383,-424.36 1026.2,-414.66 1016.8195,-419.5852 1021.9383,-424.36"/>
</g>
<!-- zcash/halo2#250&#45;&gt;zcash/halo2#75 -->
<g id="edge5" class="edge">
<title>zcash/halo2#250&#45;&gt;zcash/halo2#75</title>
<path fill="none" stroke="#000000" d="M1143.1,-372.99C1161,-370.09 1179.9,-367.04 1198.1,-364.11"/>
<polygon fill="#000000" stroke="#000000" points="1198.7835,-367.5451 1208.1,-362.5 1197.6708,-360.6341 1198.7835,-367.5451"/>
</g>
<!-- zcash/halo2#57 -->
<g id="node8" class="node open">
<title>zcash/halo2#57</title>
<g id="a_node8"><a xlink:href="https://github.com/zcash/halo2/issues/57" xlink:title="zcash/halo2#57&#10;Remove unused&#10;fixed_values from&#10;ProvingKey" target="_blank">
<polygon fill="#c2e0c6" stroke="#000000" stroke-width="2" points="184.5,-540 41.5,-540 41.5,-472 184.5,-472 184.5,-540"/>
<text text-anchor="middle" x="113" y="-524.8" font-family="Times,serif" font-size="14.00" fill="#000000">zcash/halo2#57</text>
<text text-anchor="middle" x="113" y="-509.8" font-family="Times,serif" font-size="14.00" fill="#000000">Remove unused</text>
<text text-anchor="middle" x="113" y="-494.8" font-family="Times,serif" font-size="14.00" fill="#000000">fixed_values from</text>
<text text-anchor="middle" x="113" y="-479.8" font-family="Times,serif" font-size="14.00" fill="#000000">ProvingKey</text>
</a>
</g>
</g>
<!-- zcash/halo2#443 -->
<g id="node9" class="node open">
<title>zcash/halo2#443</title>
<g id="a_node9"><a xlink:href="https://github.com/zcash/halo2/issues/443" xlink:title="zcash/halo2#443&#10;implement `read` &amp;&#10;`write` for `halo2::plonk&#10;::ProvingKey`" target="_blank">
<polygon fill="#c2e0c6" stroke="#000000" points="456,-540 262,-540 262,-472 456,-472 456,-540"/>
<text text-anchor="middle" x="359" y="-524.8" font-family="Times,serif" font-size="14.00" fill="#000000">zcash/halo2#443</text>
<text text-anchor="middle" x="359" y="-509.8" font-family="Times,serif" font-size="14.00" fill="#000000">implement `read` &amp;</text>
<text text-anchor="middle" x="359" y="-494.8" font-family="Times,serif" font-size="14.00" fill="#000000">`write` for `halo2::plonk</text>
<text text-anchor="middle" x="359" y="-479.8" font-family="Times,serif" font-size="14.00" fill="#000000">::ProvingKey`</text>
</a>
</g>
</g>
<!-- zcash/halo2#57&#45;&gt;zcash/halo2#443 -->
<g id="edge6" class="edge">
<title>zcash/halo2#57&#45;&gt;zcash/halo2#443</title>
<path fill="none" stroke="#000000" d="M184.81,-506C205.82,-506 229.24,-506 251.93,-506"/>
<polygon fill="#000000" stroke="#000000" points="251.94,-509.5001 261.94,-506 251.94,-502.5001 251.94,-509.5001"/>
</g>
<!-- zcash/halo2#449 -->
<g id="node10" class="node open">
<title>zcash/halo2#449</title>
<g id="a_node10"><a xlink:href="https://github.com/zcash/halo2/issues/449" xlink:title="zcash/halo2#449&#10;Define a stable&#10;serialization format for&#10;`VerifyingKey`" target="_blank">
<polygon fill="#c2e0c6" stroke="#000000" stroke-width="2" points="204,-626 22,-626 22,-558 204,-558 204,-626"/>
<text text-anchor="middle" x="113" y="-610.8" font-family="Times,serif" font-size="14.00" fill="#000000">zcash/halo2#449</text>
<text text-anchor="middle" x="113" y="-595.8" font-family="Times,serif" font-size="14.00" fill="#000000">Define a stable</text>
<text text-anchor="middle" x="113" y="-580.8" font-family="Times,serif" font-size="14.00" fill="#000000">serialization format for</text>
<text text-anchor="middle" x="113" y="-565.8" font-family="Times,serif" font-size="14.00" fill="#000000">`VerifyingKey`</text>
</a>
</g>
</g>
<!-- zcash/halo2#420 -->
<g id="node11" class="node open">
<title>zcash/halo2#420</title>
<g id="a_node11"><a xlink:href="https://github.com/zcash/halo2/issues/420" xlink:title="zcash/halo2#420&#10;CI: Measure memory&#45;usage&#10;benchmarks" target="_blank">
<polygon fill="#c2e0c6" stroke="#000000" stroke-width="2" points="220.5,-697.5 5.5,-697.5 5.5,-644.5 220.5,-644.5 220.5,-697.5"/>
<text text-anchor="middle" x="113" y="-682.3" font-family="Times,serif" font-size="14.00" fill="#000000">zcash/halo2#420</text>
<text text-anchor="middle" x="113" y="-667.3" font-family="Times,serif" font-size="14.00" fill="#000000">CI: Measure memory&#45;usage</text>
<text text-anchor="middle" x="113" y="-652.3" font-family="Times,serif" font-size="14.00" fill="#000000">benchmarks</text>
</a>
</g>
</g>
<!-- zcash/halo2#418 -->
<g id="node12" class="node open">
<title>zcash/halo2#418</title>
<g id="a_node12"><a xlink:href="https://github.com/zcash/halo2/issues/418" xlink:title="zcash/halo2#418&#10;[memory optimization]&#10;lookup prover memory&#10;analysis" target="_blank">
<polygon fill="#c2e0c6" stroke="#000000" points="448.5,-705 269.5,-705 269.5,-637 448.5,-637 448.5,-705"/>
<text text-anchor="middle" x="359" y="-689.8" font-family="Times,serif" font-size="14.00" fill="#000000">zcash/halo2#418</text>
<text text-anchor="middle" x="359" y="-674.8" font-family="Times,serif" font-size="14.00" fill="#000000">[memory optimization]</text>
<text text-anchor="middle" x="359" y="-659.8" font-family="Times,serif" font-size="14.00" fill="#000000">lookup prover memory</text>
<text text-anchor="middle" x="359" y="-644.8" font-family="Times,serif" font-size="14.00" fill="#000000">analysis</text>
</a>
</g>
</g>
<!-- zcash/halo2#420&#45;&gt;zcash/halo2#418 -->
<g id="edge7" class="edge">
<title>zcash/halo2#420&#45;&gt;zcash/halo2#418</title>
<path fill="none" stroke="#000000" d="M220.54,-671C233.4,-671 246.48,-671 259.22,-671"/>
<polygon fill="#000000" stroke="#000000" points="259.35,-674.5001 269.35,-671 259.35,-667.5001 259.35,-674.5001"/>
</g>
<!-- zcash/halo2#427 -->
<g id="node13" class="node open">
<title>zcash/halo2#427</title>
<g id="a_node13"><a xlink:href="https://github.com/zcash/halo2/issues/427" xlink:title="zcash/halo2#427&#10;Use smaller extended&#10;domains where possible&#10;during proving" target="_blank">
<polygon fill="#c2e0c6" stroke="#000000" stroke-width="2" points="207,-784 19,-784 19,-716 207,-716 207,-784"/>
<text text-anchor="middle" x="113" y="-768.8" font-family="Times,serif" font-size="14.00" fill="#000000">zcash/halo2#427</text>
<text text-anchor="middle" x="113" y="-753.8" font-family="Times,serif" font-size="14.00" fill="#000000">Use smaller extended</text>
<text text-anchor="middle" x="113" y="-738.8" font-family="Times,serif" font-size="14.00" fill="#000000">domains where possible</text>
<text text-anchor="middle" x="113" y="-723.8" font-family="Times,serif" font-size="14.00" fill="#000000">during proving</text>
</a>
</g>
</g>
<!-- zcash/halo2#456 -->
<g id="node14" class="node open">
<title>zcash/halo2#456</title>
<g id="a_node14"><a xlink:href="https://github.com/zcash/halo2/issues/456" xlink:title="zcash/halo2#456&#10;Benchmark `sha256`&#10;gadget." target="_blank">
<polygon fill="#c2e0c6" stroke="#000000" stroke-width="2" points="198,-855.5 28,-855.5 28,-802.5 198,-802.5 198,-855.5"/>
<text text-anchor="middle" x="113" y="-840.3" font-family="Times,serif" font-size="14.00" fill="#000000">zcash/halo2#456</text>
<text text-anchor="middle" x="113" y="-825.3" font-family="Times,serif" font-size="14.00" fill="#000000">Benchmark `sha256`</text>
<text text-anchor="middle" x="113" y="-810.3" font-family="Times,serif" font-size="14.00" fill="#000000">gadget.</text>
</a>
</g>
</g>
<!-- zcash/halo2#455 -->
<g id="node15" class="node open">
<title>zcash/halo2#455</title>
<g id="a_node15"><a xlink:href="https://github.com/zcash/halo2/issues/455" xlink:title="zcash/halo2#455&#10;[Book] add description of&#10;Poseidon gadget and chip" target="_blank">
<polygon fill="#c2e0c6" stroke="#000000" stroke-width="2" points="213,-926.5 13,-926.5 13,-873.5 213,-873.5 213,-926.5"/>
<text text-anchor="middle" x="113" y="-911.3" font-family="Times,serif" font-size="14.00" fill="#000000">zcash/halo2#455</text>
<text text-anchor="middle" x="113" y="-896.3" font-family="Times,serif" font-size="14.00" fill="#000000">[Book] add description of</text>
<text text-anchor="middle" x="113" y="-881.3" font-family="Times,serif" font-size="14.00" fill="#000000">Poseidon gadget and chip</text>
</a>
</g>
</g>
<!-- zcash/halo2#251 -->
<g id="node16" class="node open">
<title>zcash/halo2#251</title>
<g id="a_node16"><a xlink:href="https://github.com/zcash/halo2/issues/251" xlink:title="zcash/halo2#251&#10;Implement user&#45;facing API&#10;for recursive proving of&#10;IVC" target="_blank">
<polygon fill="#c2e0c6" stroke="#000000" points="1155,-343 945,-343 945,-275 1155,-275 1155,-343"/>
<text text-anchor="middle" x="1050" y="-327.8" font-family="Times,serif" font-size="14.00" fill="#000000">zcash/halo2#251</text>
<text text-anchor="middle" x="1050" y="-312.8" font-family="Times,serif" font-size="14.00" fill="#000000">Implement user&#45;facing API</text>
<text text-anchor="middle" x="1050" y="-297.8" font-family="Times,serif" font-size="14.00" fill="#000000">for recursive proving of</text>
<text text-anchor="middle" x="1050" y="-282.8" font-family="Times,serif" font-size="14.00" fill="#000000">IVC</text>
</a>
</g>
</g>
<!-- zcash/halo2#251&#45;&gt;zcash/halo2#75 -->
<g id="edge8" class="edge">
<title>zcash/halo2#251&#45;&gt;zcash/halo2#75</title>
<path fill="none" stroke="#000000" d="M1155.2,-325.54C1169.4,-327.78 1184,-330.07 1198.1,-332.29"/>
<polygon fill="#000000" stroke="#000000" points="1197.8766,-335.798 1208.3,-333.9 1198.968,-328.8836 1197.8766,-335.798"/>
</g>
<!-- zcash/halo2#437 -->
<g id="node17" class="node open">
<title>zcash/halo2#437</title>
<g id="a_node17"><a xlink:href="https://github.com/zcash/halo2/issues/437" xlink:title="zcash/halo2#437&#10;Amend user&#45;facing API to&#10;work for both IVC and PCD" target="_blank">
<polygon fill="#c2e0c6" stroke="#000000" points="1405,-265.5 1191,-265.5 1191,-212.5 1405,-212.5 1405,-265.5"/>
<text text-anchor="middle" x="1298" y="-250.3" font-family="Times,serif" font-size="14.00" fill="#000000">zcash/halo2#437</text>
<text text-anchor="middle" x="1298" y="-235.3" font-family="Times,serif" font-size="14.00" fill="#000000">Amend user&#45;facing API to</text>
<text text-anchor="middle" x="1298" y="-220.3" font-family="Times,serif" font-size="14.00" fill="#000000">work for both IVC and PCD</text>
</a>
</g>
</g>
<!-- zcash/halo2#251&#45;&gt;zcash/halo2#437 -->
<g id="edge9" class="edge">
<title>zcash/halo2#251&#45;&gt;zcash/halo2#437</title>
<path fill="none" stroke="#000000" d="M1155.2,-279.31C1168.1,-275.66 1181.3,-271.93 1194.3,-268.28"/>
<polygon fill="#000000" stroke="#000000" points="1195.429,-271.5981 1204.1,-265.51 1193.525,-264.862 1195.429,-271.5981"/>
</g>
<!-- zcash/halo2#436 -->
<g id="node18" class="node open">
<title>zcash/halo2#436</title>
<g id="a_node18"><a xlink:href="https://github.com/zcash/halo2/issues/436" xlink:title="zcash/halo2#436&#10;Implement mock&#10;verification circuit for&#10;PCD" target="_blank">
<polygon fill="#c2e0c6" stroke="#000000" points="667,-191 492,-191 492,-123 667,-123 667,-191"/>
<text text-anchor="middle" x="579.5" y="-175.8" font-family="Times,serif" font-size="14.00" fill="#000000">zcash/halo2#436</text>
<text text-anchor="middle" x="579.5" y="-160.8" font-family="Times,serif" font-size="14.00" fill="#000000">Implement mock</text>
<text text-anchor="middle" x="579.5" y="-145.8" font-family="Times,serif" font-size="14.00" fill="#000000">verification circuit for</text>
<text text-anchor="middle" x="579.5" y="-130.8" font-family="Times,serif" font-size="14.00" fill="#000000">PCD</text>
</a>
</g>
</g>
<!-- zcash/halo2#436&#45;&gt;zcash/halo2#437 -->
<g id="edge10" class="edge">
<title>zcash/halo2#436&#45;&gt;zcash/halo2#437</title>
<path fill="none" stroke="#000000" d="M667.48,-151.06C781.43,-145.51 985.53,-142.88 1155,-180 1182.8,-186.09 1212.1,-197.25 1236.9,-208.23"/>
<polygon fill="#000000" stroke="#000000" points="1235.5487,-211.4604 1246.1,-212.42 1238.4501,-205.09 1235.5487,-211.4604"/>
</g>
<!-- zcash/halo2#438 -->
<g id="node19" class="node open">
<title>zcash/halo2#438</title>
<g id="a_node19"><a xlink:href="https://github.com/zcash/halo2/issues/438" xlink:title="zcash/halo2#438&#10;Implement the logic for&#10;the PCD verifier circuit" target="_blank">
<polygon fill="#c2e0c6" stroke="#000000" points="899,-132.5 713,-132.5 713,-79.5 899,-79.5 899,-132.5"/>
<text text-anchor="middle" x="806" y="-117.3" font-family="Times,serif" font-size="14.00" fill="#000000">zcash/halo2#438</text>
<text text-anchor="middle" x="806" y="-102.3" font-family="Times,serif" font-size="14.00" fill="#000000">Implement the logic for</text>
<text text-anchor="middle" x="806" y="-87.3" font-family="Times,serif" font-size="14.00" fill="#000000">the PCD verifier circuit</text>
</a>
</g>
</g>
<!-- zcash/halo2#436&#45;&gt;zcash/halo2#438 -->
<g id="edge11" class="edge">
<title>zcash/halo2#436&#45;&gt;zcash/halo2#438</title>
<path fill="none" stroke="#000000" d="M667.07,-137.28C678.74,-134.65 690.8,-131.94 702.7,-129.26"/>
<polygon fill="#000000" stroke="#000000" points="703.6717,-132.629 712.66,-127.02 702.1357,-125.7996 703.6717,-132.629"/>
</g>
<!-- zcash/halo2#435 -->
<g id="node20" class="node open">
<title>zcash/halo2#435</title>
<g id="a_node20"><a xlink:href="https://github.com/zcash/halo2/issues/435" xlink:title="zcash/halo2#435&#10;Implement mock&#10;verification circuit for&#10;IVC" target="_blank">
<polygon fill="#c2e0c6" stroke="#000000" points="667,-277 492,-277 492,-209 667,-209 667,-277"/>
<text text-anchor="middle" x="579.5" y="-261.8" font-family="Times,serif" font-size="14.00" fill="#000000">zcash/halo2#435</text>
<text text-anchor="middle" x="579.5" y="-246.8" font-family="Times,serif" font-size="14.00" fill="#000000">Implement mock</text>
<text text-anchor="middle" x="579.5" y="-231.8" font-family="Times,serif" font-size="14.00" fill="#000000">verification circuit for</text>
<text text-anchor="middle" x="579.5" y="-216.8" font-family="Times,serif" font-size="14.00" fill="#000000">IVC</text>
</a>
</g>
</g>
<!-- zcash/halo2#247 -->
<g id="node21" class="node open">
<title>zcash/halo2#247</title>
<g id="a_node21"><a xlink:href="https://github.com/zcash/halo2/issues/247" xlink:title="zcash/halo2#247&#10;Implement underlying&#10;scaffolding for creating&#10;the IVC proof cycle" target="_blank">
<polygon fill="#c2e0c6" stroke="#000000" points="898.5,-336 713.5,-336 713.5,-268 898.5,-268 898.5,-336"/>
<text text-anchor="middle" x="806" y="-320.8" font-family="Times,serif" font-size="14.00" fill="#000000">zcash/halo2#247</text>
<text text-anchor="middle" x="806" y="-305.8" font-family="Times,serif" font-size="14.00" fill="#000000">Implement underlying</text>
<text text-anchor="middle" x="806" y="-290.8" font-family="Times,serif" font-size="14.00" fill="#000000">scaffolding for creating</text>
<text text-anchor="middle" x="806" y="-275.8" font-family="Times,serif" font-size="14.00" fill="#000000">the IVC proof cycle</text>
</a>
</g>
</g>
<!-- zcash/halo2#435&#45;&gt;zcash/halo2#247 -->
<g id="edge12" class="edge">
<title>zcash/halo2#435&#45;&gt;zcash/halo2#247</title>
<path fill="none" stroke="#000000" d="M667.07,-265.81C679.05,-268.93 691.44,-272.16 703.66,-275.34"/>
<polygon fill="#000000" stroke="#000000" points="702.8506,-278.7459 713.41,-277.88 704.6154,-271.972 702.8506,-278.7459"/>
</g>
<!-- zcash/halo2#247&#45;&gt;zcash/halo2#250 -->
<g id="edge13" class="edge">
<title>zcash/halo2#247&#45;&gt;zcash/halo2#250</title>
<path fill="none" stroke="#000000" d="M898.64,-335.54C914.11,-341.08 930,-346.73 945,-352 950.79,-354.03 956.76,-356.12 962.78,-358.21"/>
<polygon fill="#000000" stroke="#000000" points="961.6652,-361.5278 972.26,-361.49 963.9541,-354.9126 961.6652,-361.5278"/>
</g>
<!-- zcash/halo2#247&#45;&gt;zcash/halo2#251 -->
<g id="edge14" class="edge">
<title>zcash/halo2#247&#45;&gt;zcash/halo2#251</title>
<path fill="none" stroke="#000000" d="M898.59,-304.66C910.39,-304.99 922.58,-305.34 934.68,-305.69"/>
<polygon fill="#000000" stroke="#000000" points="934.7139,-309.1923 944.81,-305.98 934.9143,-302.1952 934.7139,-309.1923"/>
</g>
<!-- zcash/halo2#246 -->
<g id="node22" class="node open">
<title>zcash/halo2#246</title>
<g id="a_node22"><a xlink:href="https://github.com/zcash/halo2/issues/246" xlink:title="zcash/halo2#246&#10;Create recursive proof&#10;structures" target="_blank">
<polygon fill="#c2e0c6" stroke="#000000" points="448.5,-204.5 269.5,-204.5 269.5,-151.5 448.5,-151.5 448.5,-204.5"/>
<text text-anchor="middle" x="359" y="-189.3" font-family="Times,serif" font-size="14.00" fill="#000000">zcash/halo2#246</text>
<text text-anchor="middle" x="359" y="-174.3" font-family="Times,serif" font-size="14.00" fill="#000000">Create recursive proof</text>
<text text-anchor="middle" x="359" y="-159.3" font-family="Times,serif" font-size="14.00" fill="#000000">structures</text>
</a>
</g>
</g>
<!-- zcash/halo2#246&#45;&gt;zcash/halo2#436 -->
<g id="edge15" class="edge">
<title>zcash/halo2#246&#45;&gt;zcash/halo2#436</title>
<path fill="none" stroke="#000000" d="M448.69,-169.46C459.55,-168.42 470.69,-167.36 481.66,-166.32"/>
<polygon fill="#000000" stroke="#000000" points="482.0594,-169.7979 491.68,-165.36 481.3917,-162.8298 482.0594,-169.7979"/>
</g>
<!-- zcash/halo2#246&#45;&gt;zcash/halo2#435 -->
<g id="edge16" class="edge">
<title>zcash/halo2#246&#45;&gt;zcash/halo2#435</title>
<path fill="none" stroke="#000000" d="M448.69,-204.44C459.66,-207.67 470.92,-210.99 482,-214.26"/>
<polygon fill="#000000" stroke="#000000" points="481.0986,-217.6431 491.68,-217.11 483.0757,-210.9281 481.0986,-217.6431"/>
</g>
<!-- zcash/halo2#439 -->
<g id="node23" class="node open">
<title>zcash/halo2#439</title>
<g id="a_node23"><a xlink:href="https://github.com/zcash/halo2/issues/439" xlink:title="zcash/halo2#439&#10;Support split&#10;accumulation in Halo 2" target="_blank">
<polygon fill="#c2e0c6" stroke="#000000" stroke-width="2" points="204.5,-225.5 21.5,-225.5 21.5,-172.5 204.5,-172.5 204.5,-225.5"/>
<text text-anchor="middle" x="113" y="-210.3" font-family="Times,serif" font-size="14.00" fill="#000000">zcash/halo2#439</text>
<text text-anchor="middle" x="113" y="-195.3" font-family="Times,serif" font-size="14.00" fill="#000000">Support split</text>
<text text-anchor="middle" x="113" y="-180.3" font-family="Times,serif" font-size="14.00" fill="#000000">accumulation in Halo 2</text>
</a>
</g>
</g>
<!-- zcash/halo2#439&#45;&gt;zcash/halo2#246 -->
<g id="edge17" class="edge">
<title>zcash/halo2#439&#45;&gt;zcash/halo2#246</title>
<path fill="none" stroke="#000000" d="M204.6,-191.18C222.47,-189.66 241.28,-188.05 259.39,-186.5"/>
<polygon fill="#000000" stroke="#000000" points="259.7031,-189.9861 269.37,-185.65 259.109,-183.0113 259.7031,-189.9861"/>
</g>
<!-- zcash/halo2#569 -->
<g id="node24" class="node open">
<title>zcash/halo2#569</title>
<g id="a_node24"><a xlink:href="https://github.com/zcash/halo2/issues/569" xlink:title="zcash/halo2#569&#10;Implement the recursive&#10;proof verifier" target="_blank">
<polygon fill="#c2e0c6" stroke="#000000" points="456,-331.5 262,-331.5 262,-278.5 456,-278.5 456,-331.5"/>
<text text-anchor="middle" x="359" y="-316.3" font-family="Times,serif" font-size="14.00" fill="#000000">zcash/halo2#569</text>
<text text-anchor="middle" x="359" y="-301.3" font-family="Times,serif" font-size="14.00" fill="#000000">Implement the recursive</text>
<text text-anchor="middle" x="359" y="-286.3" font-family="Times,serif" font-size="14.00" fill="#000000">proof verifier</text>
</a>
</g>
</g>
<!-- zcash/halo2#439&#45;&gt;zcash/halo2#569 -->
<g id="edge18" class="edge">
<title>zcash/halo2#439&#45;&gt;zcash/halo2#569</title>
<path fill="none" stroke="#000000" d="M204.2,-225.59C211.64,-228.26 218.99,-231.07 226,-234 252.99,-245.26 281.75,-260.22 305.6,-273.5"/>
<polygon fill="#000000" stroke="#000000" points="304.0566,-276.6473 314.49,-278.49 307.4829,-270.5432 304.0566,-276.6473"/>
</g>
<!-- zcash/halo2#569&#45;&gt;zcash/halo2#247 -->
<g id="edge19" class="edge">
<title>zcash/halo2#569&#45;&gt;zcash/halo2#247</title>
<path fill="none" stroke="#000000" d="M456.27,-304.35C529.12,-303.86 628.59,-303.19 702.83,-302.69"/>
<polygon fill="#000000" stroke="#000000" points="703.1541,-306.188 713.13,-302.62 703.1064,-299.1881 703.1541,-306.188"/>
</g>
<!-- zcash/halo2#249 -->
<g id="node25" class="node open">
<title>zcash/halo2#249</title>
<g id="a_node25"><a xlink:href="https://github.com/zcash/halo2/issues/249" xlink:title="zcash/halo2#249&#10;Implement recursion&#10;circuit logic for&#10;handling public inputs" target="_blank">
<polygon fill="#c2e0c6" stroke="#000000" stroke-width="2" points="894.5,-422 717.5,-422 717.5,-354 894.5,-354 894.5,-422"/>
<text text-anchor="middle" x="806" y="-406.8" font-family="Times,serif" font-size="14.00" fill="#000000">zcash/halo2#249</text>
<text text-anchor="middle" x="806" y="-391.8" font-family="Times,serif" font-size="14.00" fill="#000000">Implement recursion</text>
<text text-anchor="middle" x="806" y="-376.8" font-family="Times,serif" font-size="14.00" fill="#000000">circuit logic for</text>
<text text-anchor="middle" x="806" y="-361.8" font-family="Times,serif" font-size="14.00" fill="#000000">handling public inputs</text>
</a>
</g>
</g>
<!-- zcash/halo2#249&#45;&gt;zcash/halo2#250 -->
<g id="edge20" class="edge">
<title>zcash/halo2#249&#45;&gt;zcash/halo2#250</title>
<path fill="none" stroke="#000000" d="M894.78,-388C911.64,-388 929.41,-388 946.68,-388"/>
<polygon fill="#000000" stroke="#000000" points="946.77,-391.5001 956.77,-388 946.77,-384.5001 946.77,-391.5001"/>
</g>
<!-- zcash/halo2#245 -->
<g id="node26" class="node open">
<title>zcash/halo2#245</title>
<g id="a_node26"><a xlink:href="https://github.com/zcash/halo2/issues/245" xlink:title="zcash/halo2#245&#10;Remove the need to&#10;multiply by powers of x^n&#10;in verifier" target="_blank">
<polygon fill="#c2e0c6" stroke="#000000" stroke-width="2" points="909,-508 703,-508 703,-440 909,-440 909,-508"/>
<text text-anchor="middle" x="806" y="-492.8" font-family="Times,serif" font-size="14.00" fill="#000000">zcash/halo2#245</text>
<text text-anchor="middle" x="806" y="-477.8" font-family="Times,serif" font-size="14.00" fill="#000000">Remove the need to</text>
<text text-anchor="middle" x="806" y="-462.8" font-family="Times,serif" font-size="14.00" fill="#000000">multiply by powers of x^n</text>
<text text-anchor="middle" x="806" y="-447.8" font-family="Times,serif" font-size="14.00" fill="#000000">in verifier</text>
</a>
</g>
</g>
<!-- zcash/halo2#245&#45;&gt;zcash/halo2#250 -->
<g id="edge21" class="edge">
<title>zcash/halo2#245&#45;&gt;zcash/halo2#250</title>
<path fill="none" stroke="#000000" d="M902.79,-439.89C923.46,-432.6 945.15,-424.96 965.32,-417.84"/>
<polygon fill="#000000" stroke="#000000" points="966.5173,-421.1291 974.79,-414.51 964.1952,-414.5255 966.5173,-421.1291"/>
</g>
<!-- zcash/halo2#548 -->
<g id="node27" class="node open">
<title>zcash/halo2#548</title>
<g id="a_node27"><a xlink:href="https://github.com/zcash/halo2/issues/548" xlink:title="zcash/halo2#548&#10;Implement performance and&#10;memory optimizations for&#10;halo2_proofs" target="_blank">
<polygon fill="#c2e0c6" stroke="#000000" stroke-width="2" points="223.5,-1013 2.5,-1013 2.5,-945 223.5,-945 223.5,-1013"/>
<text text-anchor="middle" x="113" y="-997.8" font-family="Times,serif" font-size="14.00" fill="#000000">zcash/halo2#548</text>
<text text-anchor="middle" x="113" y="-982.8" font-family="Times,serif" font-size="14.00" fill="#000000">Implement performance and</text>
<text text-anchor="middle" x="113" y="-967.8" font-family="Times,serif" font-size="14.00" fill="#000000">memory optimizations for</text>
<text text-anchor="middle" x="113" y="-952.8" font-family="Times,serif" font-size="14.00" fill="#000000">halo2_proofs</text>
</a>
</g>
</g>
<!-- zcash/halo2#578 -->
<g id="node28" class="node open">
<title>zcash/halo2#578</title>
<g id="a_node28"><a xlink:href="https://github.com/zcash/halo2/issues/578" xlink:title="zcash/halo2#578&#10;Extend `EccChip` to&#10;support Vesta" target="_blank">
<polygon fill="#c2e0c6" stroke="#000000" stroke-width="2" points="889.5,-249.5 722.5,-249.5 722.5,-196.5 889.5,-196.5 889.5,-249.5"/>
<text text-anchor="middle" x="806" y="-234.3" font-family="Times,serif" font-size="14.00" fill="#000000">zcash/halo2#578</text>
<text text-anchor="middle" x="806" y="-219.3" font-family="Times,serif" font-size="14.00" fill="#000000">Extend `EccChip` to</text>
<text text-anchor="middle" x="806" y="-204.3" font-family="Times,serif" font-size="14.00" fill="#000000">support Vesta</text>
</a>
</g>
</g>
<!-- zcash/halo2#578&#45;&gt;zcash/halo2#250 -->
<g id="edge22" class="edge">
<title>zcash/halo2#578&#45;&gt;zcash/halo2#250</title>
<path fill="none" stroke="#000000" d="M889.61,-244.81C896.67,-248.78 903.28,-253.47 909,-259 940.85,-289.82 913.05,-321.28 945,-352 946.13,-353.09 947.29,-354.14 948.48,-355.16"/>
<polygon fill="#000000" stroke="#000000" points="946.688,-358.1937 956.77,-361.45 950.9191,-352.6172 946.688,-358.1937"/>
</g>
<!-- zcash/halo2#579 -->
<g id="node29" class="node open">
<title>zcash/halo2#579</title>
<g id="a_node29"><a xlink:href="https://github.com/zcash/halo2/issues/579" xlink:title="zcash/halo2#579&#10;Consider extending&#10;`EccChip` to arbitrary&#10;curves" target="_blank">
<polygon fill="#c2e0c6" stroke="#000000" points="1140,-257 960,-257 960,-189 1140,-189 1140,-257"/>
<text text-anchor="middle" x="1050" y="-241.8" font-family="Times,serif" font-size="14.00" fill="#000000">zcash/halo2#579</text>
<text text-anchor="middle" x="1050" y="-226.8" font-family="Times,serif" font-size="14.00" fill="#000000">Consider extending</text>
<text text-anchor="middle" x="1050" y="-211.8" font-family="Times,serif" font-size="14.00" fill="#000000">`EccChip` to arbitrary</text>
<text text-anchor="middle" x="1050" y="-196.8" font-family="Times,serif" font-size="14.00" fill="#000000">curves</text>
</a>
</g>
</g>
<!-- zcash/halo2#578&#45;&gt;zcash/halo2#579 -->
<g id="edge23" class="edge">
<title>zcash/halo2#578&#45;&gt;zcash/halo2#579</title>
<path fill="none" stroke="#000000" d="M889.63,-223C908.98,-223 929.77,-223 949.76,-223"/>
<polygon fill="#000000" stroke="#000000" points="949.81,-226.5001 959.81,-223 949.81,-219.5001 949.81,-226.5001"/>
</g>
<!-- zcash/halo2#454 -->
<g id="node30" class="node open">
<title>zcash/halo2#454</title>
<g id="a_node30"><a xlink:href="https://github.com/zcash/halo2/issues/454" xlink:title="zcash/halo2#454&#10;[ECC gadget] Support&#10;full&#45;width scalars for&#10;variable&#45;base mul" target="_blank">
<polygon fill="#c2e0c6" stroke="#000000" stroke-width="2" points="201,-454 25,-454 25,-386 201,-386 201,-454"/>
<text text-anchor="middle" x="113" y="-438.8" font-family="Times,serif" font-size="14.00" fill="#000000">zcash/halo2#454</text>
<text text-anchor="middle" x="113" y="-423.8" font-family="Times,serif" font-size="14.00" fill="#000000">[ECC gadget] Support</text>
<text text-anchor="middle" x="113" y="-408.8" font-family="Times,serif" font-size="14.00" fill="#000000">full&#45;width scalars for</text>
<text text-anchor="middle" x="113" y="-393.8" font-family="Times,serif" font-size="14.00" fill="#000000">variable&#45;base mul</text>
</a>
</g>
</g>
<!-- zcash/halo2#454&#45;&gt;zcash/halo2#569 -->
<g id="edge24" class="edge">
<title>zcash/halo2#454&#45;&gt;zcash/halo2#569</title>
<path fill="none" stroke="#000000" d="M201.03,-386.91C209.53,-383.36 217.97,-379.69 226,-376 252.04,-364.03 280.14,-349.31 303.77,-336.38"/>
<polygon fill="#000000" stroke="#000000" points="305.527,-339.4082 312.6,-331.52 302.1516,-333.2757 305.527,-339.4082"/>
</g>
<!-- zcash/halo2#248 -->
<g id="node31" class="node open">
<title>zcash/halo2#248</title>
<g id="a_node31"><a xlink:href="https://github.com/zcash/halo2/issues/248" xlink:title="zcash/halo2#248&#10;Implement endoscaling in&#10;the circuit" target="_blank">
<polygon fill="#c2e0c6" stroke="#000000" stroke-width="2" points="214.5,-367.5 11.5,-367.5 11.5,-314.5 214.5,-314.5 214.5,-367.5"/>
<text text-anchor="middle" x="113" y="-352.3" font-family="Times,serif" font-size="14.00" fill="#000000">zcash/halo2#248</text>
<text text-anchor="middle" x="113" y="-337.3" font-family="Times,serif" font-size="14.00" fill="#000000">Implement endoscaling in</text>
<text text-anchor="middle" x="113" y="-322.3" font-family="Times,serif" font-size="14.00" fill="#000000">the circuit</text>
</a>
</g>
</g>
<!-- zcash/halo2#248&#45;&gt;zcash/halo2#569 -->
<g id="edge25" class="edge">
<title>zcash/halo2#248&#45;&gt;zcash/halo2#569</title>
<path fill="none" stroke="#000000" d="M214.83,-326.1C227.02,-324.31 239.49,-322.49 251.75,-320.7"/>
<polygon fill="#000000" stroke="#000000" points="252.6029,-324.1125 261.99,-319.2 251.5883,-317.1864 252.6029,-324.1125"/>
</g>
<!-- zcash/halo2#585 -->
<g id="node32" class="node open">
<title>zcash/halo2#585</title>
<g id="a_node32"><a xlink:href="https://github.com/zcash/halo2/issues/585" xlink:title="zcash/halo2#585&#10;Prohibit queries of fixed&#10;columns at non&#45;cur&#10;rotations." target="_blank">
<polygon fill="#c2e0c6" stroke="#000000" stroke-width="2" points="208,-154 18,-154 18,-86 208,-86 208,-154"/>
<text text-anchor="middle" x="113" y="-138.8" font-family="Times,serif" font-size="14.00" fill="#000000">zcash/halo2#585</text>
<text text-anchor="middle" x="113" y="-123.8" font-family="Times,serif" font-size="14.00" fill="#000000">Prohibit queries of fixed</text>
<text text-anchor="middle" x="113" y="-108.8" font-family="Times,serif" font-size="14.00" fill="#000000">columns at non&#45;cur</text>
<text text-anchor="middle" x="113" y="-93.8" font-family="Times,serif" font-size="14.00" fill="#000000">rotations.</text>
</a>
</g>
</g>
<!-- zcash/halo2#585&#45;&gt;zcash/halo2#246 -->
<g id="edge26" class="edge">
<title>zcash/halo2#585&#45;&gt;zcash/halo2#246</title>
<path fill="none" stroke="#000000" d="M208.11,-142.42C224.95,-146.39 242.53,-150.54 259.48,-154.54"/>
<polygon fill="#000000" stroke="#000000" points="258.8544,-157.9883 269.39,-156.87 260.4565,-151.1741 258.8544,-157.9883"/>
</g>
<!-- zcash/halo2#359 -->
<g id="node33" class="node open">
<title>zcash/halo2#359</title>
<g id="a_node33"><a xlink:href="https://github.com/zcash/halo2/issues/359" xlink:title="zcash/halo2#359&#10;Set up `BaseTranscript`,&#10;`ScalarTranscript`" target="_blank">
<polygon fill="#c2e0c6" stroke="#000000" stroke-width="2" points="211.5,-296.5 14.5,-296.5 14.5,-243.5 211.5,-243.5 211.5,-296.5"/>
<text text-anchor="middle" x="113" y="-281.3" font-family="Times,serif" font-size="14.00" fill="#000000">zcash/halo2#359</text>
<text text-anchor="middle" x="113" y="-266.3" font-family="Times,serif" font-size="14.00" fill="#000000">Set up `BaseTranscript`,</text>
<text text-anchor="middle" x="113" y="-251.3" font-family="Times,serif" font-size="14.00" fill="#000000">`ScalarTranscript`</text>
</a>
</g>
</g>
<!-- zcash/halo2#359&#45;&gt;zcash/halo2#569 -->
<g id="edge27" class="edge">
<title>zcash/halo2#359&#45;&gt;zcash/halo2#569</title>
<path fill="none" stroke="#000000" d="M211.64,-284.03C224.85,-285.91 238.45,-287.85 251.79,-289.75"/>
<polygon fill="#000000" stroke="#000000" points="251.5475,-293.2506 261.94,-291.19 252.5308,-286.32 251.5475,-293.2506"/>
</g>
<!-- zcash/halo2#312 -->
<g id="node34" class="node open">
<title>zcash/halo2#312</title>
<g id="a_node34"><a xlink:href="https://github.com/zcash/halo2/issues/312" xlink:title="zcash/halo2#312&#10;[Book] Document gadget&#10;API" target="_blank">
<polygon fill="#c2e0c6" stroke="#000000" stroke-width="2" points="210.5,-1084.5 15.5,-1084.5 15.5,-1031.5 210.5,-1031.5 210.5,-1084.5"/>
<text text-anchor="middle" x="113" y="-1069.3" font-family="Times,serif" font-size="14.00" fill="#000000">zcash/halo2#312</text>
<text text-anchor="middle" x="113" y="-1054.3" font-family="Times,serif" font-size="14.00" fill="#000000">[Book] Document gadget</text>
<text text-anchor="middle" x="113" y="-1039.3" font-family="Times,serif" font-size="14.00" fill="#000000">API</text>
</a>
</g>
</g>
</g>
</svg>
