<?xml version="1.0" encoding="UTF-8" standalone="no"?>
<?xml-stylesheet href="zcash-dag.css" type="text/css"?>
<!DOCTYPE svg PUBLIC "-//W3C//DTD SVG 1.1//EN"
 "http://www.w3.org/Graphics/SVG/1.1/DTD/svg11.dtd">
<!-- Generated by graphviz version 2.43.0 (0)
 -->
<!-- Pages: 1 -->
<svg width="1163pt" height="1256pt"
 viewBox="0.00 0.00 1163.00 1255.50" xmlns="http://www.w3.org/2000/svg" xmlns:xlink="http://www.w3.org/1999/xlink">
<g id="graph0" class="graph" transform="scale(1 1) rotate(0) translate(4 1251.5)">
<polygon fill="white" stroke="transparent" points="-4,4 -4,-1251.5 1159,-1251.5 1159,4 -4,4"/>
<!-- zcash/zips#821 -->
<g id="node1" class="node open">
<title>zcash/zips#821</title>
<g id="a_node1"><a xlink:href="https://github.com/zcash/zips/issues/821" xlink:title="zcash/zips#821&#10;Define a standard wallet&#10;export format." target="_blank">
<polygon fill="#c2e0c6" stroke="black" points="670.5,-1225 479.5,-1225 479.5,-1172 670.5,-1172 670.5,-1225"/>
<text text-anchor="middle" x="575" y="-1209.8" font-family="Times,serif" font-size="14.00">zcash/zips#821</text>
<text text-anchor="middle" x="575" y="-1194.8" font-family="Times,serif" font-size="14.00">Define a standard wallet</text>
<text text-anchor="middle" x="575" y="-1179.8" font-family="Times,serif" font-size="14.00">export format.</text>
</a>
</g>
</g>
<!-- zcash/librustzcash#1365 -->
<g id="node2" class="node open">
<title>zcash/librustzcash#1365</title>
<g id="a_node2"><a xlink:href="https://github.com/zcash/librustzcash/issues/1365" xlink:title="zcash/librustzcash#1365&#10;Add the functionality to&#10;restore from `zcashd`&#10;wallet.dat or wallet dump&#10;files." target="_blank">
<polygon fill="#c2e0c6" stroke="black" points="918.5,-1240 718.5,-1240 718.5,-1157 918.5,-1157 918.5,-1240"/>
<text text-anchor="middle" x="818.5" y="-1224.8" font-family="Times,serif" font-size="14.00">zcash/librustzcash#1365</text>
<text text-anchor="middle" x="818.5" y="-1209.8" font-family="Times,serif" font-size="14.00">Add the functionality to</text>
<text text-anchor="middle" x="818.5" y="-1194.8" font-family="Times,serif" font-size="14.00">restore from `zcashd`</text>
<text text-anchor="middle" x="818.5" y="-1179.8" font-family="Times,serif" font-size="14.00">wallet.dat or wallet dump</text>
<text text-anchor="middle" x="818.5" y="-1164.8" font-family="Times,serif" font-size="14.00">files.</text>
</a>
</g>
</g>
<!-- zcash/zips#821&#45;&gt;zcash/librustzcash#1365 -->
<g id="edge1" class="edge">
<title>zcash/zips#821&#45;&gt;zcash/librustzcash#1365</title>
<path fill="none" stroke="black" d="M670.75,-1198.5C682.94,-1198.5 695.49,-1198.5 707.88,-1198.5"/>
<polygon fill="black" stroke="black" points="708.25,-1202 718.25,-1198.5 708.25,-1195 708.25,-1202"/>
</g>
<!-- zcash/librustzcash#1349 -->
<g id="node3" class="node open">
<title>zcash/librustzcash#1349</title>
<g id="a_node3"><a xlink:href="https://github.com/zcash/librustzcash/issues/1349" xlink:title="zcash/librustzcash#1349&#10;zcash_client_backend:&#10;Required functionality&#10;for full `zcashd` wallet&#10;replacement." target="_blank">
<polygon fill="#c2e0c6" stroke="black" points="1155,-739 1152,-743 1131,-743 1128,-739 959,-739 959,-656 1155,-656 1155,-739"/>
<text text-anchor="middle" x="1057" y="-723.8" font-family="Times,serif" font-size="14.00">zcash/librustzcash#1349</text>
<text text-anchor="middle" x="1057" y="-708.8" font-family="Times,serif" font-size="14.00">zcash_client_backend:</text>
<text text-anchor="middle" x="1057" y="-693.8" font-family="Times,serif" font-size="14.00">Required functionality</text>
<text text-anchor="middle" x="1057" y="-678.8" font-family="Times,serif" font-size="14.00">for full `zcashd` wallet</text>
<text text-anchor="middle" x="1057" y="-663.8" font-family="Times,serif" font-size="14.00">replacement.</text>
</a>
</g>
</g>
<!-- zcash/librustzcash#1365&#45;&gt;zcash/librustzcash#1349 -->
<g id="edge2" class="edge">
<title>zcash/librustzcash#1365&#45;&gt;zcash/librustzcash#1349</title>
<path fill="none" stroke="black" d="M915.07,-1156.7C917.89,-1154.1 920.55,-1151.4 923,-1148.5 1023.1,-1030.6 1047.9,-840.21 1054,-749.19"/>
<polygon fill="black" stroke="black" points="1057.5,-749.31 1054.6,-739.12 1050.51,-748.89 1057.5,-749.31"/>
</g>
<!-- zcash/librustzcash#1350 -->
<g id="node4" class="node open">
<title>zcash/librustzcash#1350</title>
<g id="a_node4"><a xlink:href="https://github.com/zcash/librustzcash/issues/1350" xlink:title="zcash/librustzcash#1350&#10;Determine what subset of&#10;zcashd wallet&#10;functionality will be&#10;required by users in a&#10;replacement wallet&#10;(independent of how it is&#10;accessed)" target="_blank">
<polygon fill="#c2e0c6" stroke="black" points="676,-773.5 474,-773.5 474,-645.5 676,-645.5 676,-773.5"/>
<text text-anchor="middle" x="575" y="-758.3" font-family="Times,serif" font-size="14.00">zcash/librustzcash#1350</text>
<text text-anchor="middle" x="575" y="-743.3" font-family="Times,serif" font-size="14.00">Determine what subset of</text>
<text text-anchor="middle" x="575" y="-728.3" font-family="Times,serif" font-size="14.00">zcashd wallet</text>
<text text-anchor="middle" x="575" y="-713.3" font-family="Times,serif" font-size="14.00">functionality will be</text>
<text text-anchor="middle" x="575" y="-698.3" font-family="Times,serif" font-size="14.00">required by users in a</text>
<text text-anchor="middle" x="575" y="-683.3" font-family="Times,serif" font-size="14.00">replacement wallet</text>
<text text-anchor="middle" x="575" y="-668.3" font-family="Times,serif" font-size="14.00">(independent of how it is</text>
<text text-anchor="middle" x="575" y="-653.3" font-family="Times,serif" font-size="14.00">accessed)</text>
</a>
</g>
</g>
<!-- zcash/librustzcash#1350&#45;&gt;zcash/librustzcash#1349 -->
<g id="edge3" class="edge">
<title>zcash/librustzcash#1350&#45;&gt;zcash/librustzcash#1349</title>
<path fill="none" stroke="black" d="M676.08,-694.08C688.82,-692.6 701.69,-691.34 714,-690.5 806.67,-684.15 830.14,-688.06 923,-690.5 931.31,-690.72 939.9,-691.01 948.54,-691.36"/>
<polygon fill="black" stroke="black" points="948.55,-694.86 958.69,-691.79 948.85,-687.87 948.55,-694.86"/>
</g>
<!-- zcash/librustzcash#1369 -->
<g id="node5" class="node open">
<title>zcash/librustzcash#1369</title>
<g id="a_node5"><a xlink:href="https://github.com/zcash/librustzcash/issues/1369" xlink:title="zcash/librustzcash#1369&#10;Implement the subset of&#10;`zcashd` RPCs that expose&#10;the decided&#45;upon wallet&#10;functionality" target="_blank">
<polygon fill="#c2e0c6" stroke="black" points="923,-853 714,-853 714,-770 923,-770 923,-853"/>
<text text-anchor="middle" x="818.5" y="-837.8" font-family="Times,serif" font-size="14.00">zcash/librustzcash#1369</text>
<text text-anchor="middle" x="818.5" y="-822.8" font-family="Times,serif" font-size="14.00">Implement the subset of</text>
<text text-anchor="middle" x="818.5" y="-807.8" font-family="Times,serif" font-size="14.00">`zcashd` RPCs that expose</text>
<text text-anchor="middle" x="818.5" y="-792.8" font-family="Times,serif" font-size="14.00">the decided&#45;upon wallet</text>
<text text-anchor="middle" x="818.5" y="-777.8" font-family="Times,serif" font-size="14.00">functionality</text>
</a>
</g>
</g>
<!-- zcash/librustzcash#1350&#45;&gt;zcash/librustzcash#1369 -->
<g id="edge4" class="edge">
<title>zcash/librustzcash#1350&#45;&gt;zcash/librustzcash#1369</title>
<path fill="none" stroke="black" d="M676.32,-751.87C687.36,-756.53 698.63,-761.29 709.75,-765.99"/>
<polygon fill="black" stroke="black" points="708.48,-769.25 719.05,-769.92 711.2,-762.8 708.48,-769.25"/>
</g>
<!-- zcash/librustzcash#1335 -->
<g id="node6" class="node open">
<title>zcash/librustzcash#1335</title>
<g id="a_node6"><a xlink:href="https://github.com/zcash/librustzcash/issues/1335" xlink:title="zcash/librustzcash#1335&#10;Support for multiple&#10;accounts" target="_blank">
<polygon fill="#c2e0c6" stroke="black" points="916.5,-752 913.5,-756 892.5,-756 889.5,-752 720.5,-752 720.5,-699 916.5,-699 916.5,-752"/>
<text text-anchor="middle" x="818.5" y="-736.8" font-family="Times,serif" font-size="14.00">zcash/librustzcash#1335</text>
<text text-anchor="middle" x="818.5" y="-721.8" font-family="Times,serif" font-size="14.00">Support for multiple</text>
<text text-anchor="middle" x="818.5" y="-706.8" font-family="Times,serif" font-size="14.00">accounts</text>
</a>
</g>
</g>
<!-- zcash/librustzcash#1350&#45;&gt;zcash/librustzcash#1335 -->
<g id="edge5" class="edge">
<title>zcash/librustzcash#1350&#45;&gt;zcash/librustzcash#1335</title>
<path fill="none" stroke="black" d="M676.32,-716.15C687.43,-716.88 698.78,-717.63 709.98,-718.38"/>
<polygon fill="black" stroke="black" points="710,-721.89 720.21,-719.05 710.46,-714.9 710,-721.89"/>
</g>
<!-- zcash/librustzcash#1369&#45;&gt;zcash/librustzcash#1349 -->
<g id="edge6" class="edge">
<title>zcash/librustzcash#1369&#45;&gt;zcash/librustzcash#1349</title>
<path fill="none" stroke="black" d="M905.89,-769.86C923.64,-761.3 942.43,-752.24 960.48,-743.54"/>
<polygon fill="black" stroke="black" points="962.36,-746.52 969.85,-739.03 959.32,-740.21 962.36,-746.52"/>
</g>
<!-- zcash/librustzcash#1335&#45;&gt;zcash/librustzcash#1349 -->
<g id="edge7" class="edge">
<title>zcash/librustzcash#1335&#45;&gt;zcash/librustzcash#1349</title>
<path fill="none" stroke="black" d="M916.72,-713.99C927.24,-712.74 937.99,-711.47 948.63,-710.21"/>
<polygon fill="black" stroke="black" points="949.26,-713.66 958.78,-709.01 948.44,-706.71 949.26,-713.66"/>
</g>
<!-- zcash/librustzcash#1353 -->
<g id="node7" class="node open">
<title>zcash/librustzcash#1353</title>
<g id="a_node7"><a xlink:href="https://github.com/zcash/librustzcash/issues/1353" xlink:title="zcash/librustzcash#1353&#10;zcash_client_backend: If&#10;a seed is reused,&#10;transparent UTXO spends&#10;from one wallet may not&#10;be detected in the other." target="_blank">
<polygon fill="#c2e0c6" stroke="black" points="920,-642.5 717,-642.5 717,-544.5 920,-544.5 920,-642.5"/>
<text text-anchor="middle" x="818.5" y="-627.3" font-family="Times,serif" font-size="14.00">zcash/librustzcash#1353</text>
<text text-anchor="middle" x="818.5" y="-612.3" font-family="Times,serif" font-size="14.00">zcash_client_backend: If</text>
<text text-anchor="middle" x="818.5" y="-597.3" font-family="Times,serif" font-size="14.00">a seed is reused,</text>
<text text-anchor="middle" x="818.5" y="-582.3" font-family="Times,serif" font-size="14.00">transparent UTXO spends</text>
<text text-anchor="middle" x="818.5" y="-567.3" font-family="Times,serif" font-size="14.00">from one wallet may not</text>
<text text-anchor="middle" x="818.5" y="-552.3" font-family="Times,serif" font-size="14.00">be detected in the other.</text>
</a>
</g>
</g>
<!-- zcash/librustzcash#1353&#45;&gt;zcash/librustzcash#1349 -->
<g id="edge8" class="edge">
<title>zcash/librustzcash#1353&#45;&gt;zcash/librustzcash#1349</title>
<path fill="none" stroke="black" d="M920.14,-637.76C930.74,-642.42 941.53,-647.16 952.17,-651.84"/>
<polygon fill="black" stroke="black" points="950.9,-655.1 961.46,-655.93 953.72,-648.7 950.9,-655.1"/>
</g>
<!-- zcash/librustzcash#578 -->
<g id="node8" class="node open">
<title>zcash/librustzcash#578</title>
<g id="a_node8"><a xlink:href="https://github.com/zcash/librustzcash/issues/578" xlink:title="zcash/librustzcash#578&#10;Survey key storage and&#10;usage of `zcashd` and&#10;`zcash_client_sqlite`" target="_blank">
<polygon fill="#c2e0c6" stroke="black" stroke-width="2" points="428,-347.5 241,-347.5 241,-279.5 428,-279.5 428,-347.5"/>
<text text-anchor="middle" x="334.5" y="-332.3" font-family="Times,serif" font-size="14.00">zcash/librustzcash#578</text>
<text text-anchor="middle" x="334.5" y="-317.3" font-family="Times,serif" font-size="14.00">Survey key storage and</text>
<text text-anchor="middle" x="334.5" y="-302.3" font-family="Times,serif" font-size="14.00">usage of `zcashd` and</text>
<text text-anchor="middle" x="334.5" y="-287.3" font-family="Times,serif" font-size="14.00">`zcash_client_sqlite`</text>
</a>
</g>
</g>
<!-- zcash/librustzcash#1371 -->
<g id="node9" class="node open">
<title>zcash/librustzcash#1371</title>
<g id="a_node9"><a xlink:href="https://github.com/zcash/librustzcash/issues/1371" xlink:title="zcash/librustzcash#1371&#10;Create structures for&#10;storing broader kinds of&#10;transparent spending key&#10;material" target="_blank">
<polygon fill="#c2e0c6" stroke="black" points="675,-425 475,-425 475,-342 675,-342 675,-425"/>
<text text-anchor="middle" x="575" y="-409.8" font-family="Times,serif" font-size="14.00">zcash/librustzcash#1371</text>
<text text-anchor="middle" x="575" y="-394.8" font-family="Times,serif" font-size="14.00">Create structures for</text>
<text text-anchor="middle" x="575" y="-379.8" font-family="Times,serif" font-size="14.00">storing broader kinds of</text>
<text text-anchor="middle" x="575" y="-364.8" font-family="Times,serif" font-size="14.00">transparent spending key</text>
<text text-anchor="middle" x="575" y="-349.8" font-family="Times,serif" font-size="14.00">material</text>
</a>
</g>
</g>
<!-- zcash/librustzcash#578&#45;&gt;zcash/librustzcash#1371 -->
<g id="edge9" class="edge">
<title>zcash/librustzcash#578&#45;&gt;zcash/librustzcash#1371</title>
<path fill="none" stroke="black" d="M428.05,-340.66C440.14,-344.21 452.61,-347.87 464.94,-351.49"/>
<polygon fill="black" stroke="black" points="464.21,-354.92 474.79,-354.38 466.18,-348.21 464.21,-354.92"/>
</g>
<!-- zcash/librustzcash#1348 -->
<g id="node10" class="node open">
<title>zcash/librustzcash#1348</title>
<g id="a_node10"><a xlink:href="https://github.com/zcash/librustzcash/issues/1348" xlink:title="zcash/librustzcash#1348&#10;zcash_client_backend: Add&#10;the ability to restore&#10;from `zcashd` seed&#10;phrases." target="_blank">
<polygon fill="#c2e0c6" stroke="black" points="678,-285 472,-285 472,-202 678,-202 678,-285"/>
<text text-anchor="middle" x="575" y="-269.8" font-family="Times,serif" font-size="14.00">zcash/librustzcash#1348</text>
<text text-anchor="middle" x="575" y="-254.8" font-family="Times,serif" font-size="14.00">zcash_client_backend: Add</text>
<text text-anchor="middle" x="575" y="-239.8" font-family="Times,serif" font-size="14.00">the ability to restore</text>
<text text-anchor="middle" x="575" y="-224.8" font-family="Times,serif" font-size="14.00">from `zcashd` seed</text>
<text text-anchor="middle" x="575" y="-209.8" font-family="Times,serif" font-size="14.00">phrases.</text>
</a>
</g>
</g>
<!-- zcash/librustzcash#578&#45;&gt;zcash/librustzcash#1348 -->
<g id="edge10" class="edge">
<title>zcash/librustzcash#578&#45;&gt;zcash/librustzcash#1348</title>
<path fill="none" stroke="black" d="M428.05,-286.34C439.09,-283.1 450.45,-279.76 461.73,-276.45"/>
<polygon fill="black" stroke="black" points="463,-279.72 471.61,-273.55 461.03,-273.01 463,-279.72"/>
</g>
<!-- zcash/librustzcash#579 -->
<g id="node11" class="node open">
<title>zcash/librustzcash#579</title>
<g id="a_node11"><a xlink:href="https://github.com/zcash/librustzcash/issues/579" xlink:title="zcash/librustzcash#579&#10;Redesign Rust types for&#10;representing wallet key&#10;material" target="_blank">
<polygon fill="#c2e0c6" stroke="black" points="912.5,-424.5 724.5,-424.5 724.5,-356.5 912.5,-356.5 912.5,-424.5"/>
<text text-anchor="middle" x="818.5" y="-409.3" font-family="Times,serif" font-size="14.00">zcash/librustzcash#579</text>
<text text-anchor="middle" x="818.5" y="-394.3" font-family="Times,serif" font-size="14.00">Redesign Rust types for</text>
<text text-anchor="middle" x="818.5" y="-379.3" font-family="Times,serif" font-size="14.00">representing wallet key</text>
<text text-anchor="middle" x="818.5" y="-364.3" font-family="Times,serif" font-size="14.00">material</text>
</a>
</g>
</g>
<!-- zcash/librustzcash#578&#45;&gt;zcash/librustzcash#579 -->
<g id="edge11" class="edge">
<title>zcash/librustzcash#578&#45;&gt;zcash/librustzcash#579</title>
<path fill="none" stroke="black" d="M428.26,-310.25C497.84,-309.82 594.98,-313.52 678,-332.5 698.33,-337.15 719.48,-344.5 738.99,-352.43"/>
<polygon fill="black" stroke="black" points="737.84,-355.74 748.42,-356.36 740.54,-349.28 737.84,-355.74"/>
</g>
<!-- zcash/librustzcash#1370 -->
<g id="node12" class="node open">
<title>zcash/librustzcash#1370</title>
<g id="a_node12"><a xlink:href="https://github.com/zcash/librustzcash/issues/1370" xlink:title="zcash/librustzcash#1370&#10;Make it possible to&#10;construct proposals that&#10;spend stored transparent&#10;funds" target="_blank">
<polygon fill="#c2e0c6" stroke="black" points="918,-526 719,-526 719,-443 918,-443 918,-526"/>
<text text-anchor="middle" x="818.5" y="-510.8" font-family="Times,serif" font-size="14.00">zcash/librustzcash#1370</text>
<text text-anchor="middle" x="818.5" y="-495.8" font-family="Times,serif" font-size="14.00">Make it possible to</text>
<text text-anchor="middle" x="818.5" y="-480.8" font-family="Times,serif" font-size="14.00">construct proposals that</text>
<text text-anchor="middle" x="818.5" y="-465.8" font-family="Times,serif" font-size="14.00">spend stored transparent</text>
<text text-anchor="middle" x="818.5" y="-450.8" font-family="Times,serif" font-size="14.00">funds</text>
</a>
</g>
</g>
<!-- zcash/librustzcash#1371&#45;&gt;zcash/librustzcash#1370 -->
<g id="edge12" class="edge">
<title>zcash/librustzcash#1371&#45;&gt;zcash/librustzcash#1370</title>
<path fill="none" stroke="black" d="M675.27,-425.02C686.45,-429.69 697.89,-434.48 709.17,-439.2"/>
<polygon fill="black" stroke="black" points="708.03,-442.52 718.61,-443.14 710.73,-436.06 708.03,-442.52"/>
</g>
<!-- zcash/librustzcash#1348&#45;&gt;zcash/librustzcash#1349 -->
<g id="edge13" class="edge">
<title>zcash/librustzcash#1348&#45;&gt;zcash/librustzcash#1349</title>
<path fill="none" stroke="black" d="M655.23,-285.04C674.12,-293.75 694.47,-302.19 714,-308.5 803.92,-337.54 850.49,-286.91 923,-347.5 1013.8,-423.39 1042.7,-568.38 1051.9,-645.78"/>
<polygon fill="black" stroke="black" points="1048.43,-646.23 1053,-655.79 1055.39,-645.47 1048.43,-646.23"/>
</g>
<!-- zcash/librustzcash#579&#45;&gt;zcash/librustzcash#1349 -->
<g id="edge14" class="edge">
<title>zcash/librustzcash#579&#45;&gt;zcash/librustzcash#1349</title>
<path fill="none" stroke="black" d="M912.01,-424.6C915.89,-427.36 919.58,-430.32 923,-433.5 986.07,-492.13 1023.6,-587.32 1042,-645.95"/>
<polygon fill="black" stroke="black" points="1038.73,-647.21 1045,-655.75 1045.42,-645.16 1038.73,-647.21"/>
</g>
<!-- zcash/librustzcash#1370&#45;&gt;zcash/librustzcash#1349 -->
<g id="edge15" class="edge">
<title>zcash/librustzcash#1370&#45;&gt;zcash/librustzcash#1349</title>
<path fill="none" stroke="black" d="M909.88,-526.02C914.43,-529.04 918.84,-532.2 923,-535.5 962.82,-567.08 998.77,-612.42 1023.2,-647.11"/>
<polygon fill="black" stroke="black" points="1020.6,-649.5 1029.2,-655.68 1026.33,-645.48 1020.6,-649.5"/>
</g>
<!-- zcash/librustzcash#1362 -->
<g id="node13" class="node open">
<title>zcash/librustzcash#1362</title>
<g id="a_node13"><a xlink:href="https://github.com/zcash/librustzcash/issues/1362" xlink:title="zcash/librustzcash#1362&#10;Create a generator and&#10;evaluator for arbitrary&#10;transparent Zcash script." target="_blank">
<polygon fill="#c2e0c6" stroke="black" points="433.5,-479.5 235.5,-479.5 235.5,-411.5 433.5,-411.5 433.5,-479.5"/>
<text text-anchor="middle" x="334.5" y="-464.3" font-family="Times,serif" font-size="14.00">zcash/librustzcash#1362</text>
<text text-anchor="middle" x="334.5" y="-449.3" font-family="Times,serif" font-size="14.00">Create a generator and</text>
<text text-anchor="middle" x="334.5" y="-434.3" font-family="Times,serif" font-size="14.00">evaluator for arbitrary</text>
<text text-anchor="middle" x="334.5" y="-419.3" font-family="Times,serif" font-size="14.00">transparent Zcash script.</text>
</a>
</g>
</g>
<!-- zcash/librustzcash#1362&#45;&gt;zcash/librustzcash#1371 -->
<g id="edge16" class="edge">
<title>zcash/librustzcash#1362&#45;&gt;zcash/librustzcash#1371</title>
<path fill="none" stroke="black" d="M433.54,-420.01C443.86,-417.33 454.4,-414.59 464.84,-411.88"/>
<polygon fill="black" stroke="black" points="466,-415.19 474.8,-409.29 464.24,-408.42 466,-415.19"/>
</g>
<!-- zcash/librustzcash#1360 -->
<g id="node14" class="node open">
<title>zcash/librustzcash#1360</title>
<g id="a_node14"><a xlink:href="https://github.com/zcash/librustzcash/issues/1360" xlink:title="zcash/librustzcash#1360&#10;Transaction builder&#10;support for spending&#10;(almost) arbitrary&#10;transparent inputs." target="_blank">
<polygon fill="#c2e0c6" stroke="black" points="673,-526 477,-526 477,-443 673,-443 673,-526"/>
<text text-anchor="middle" x="575" y="-510.8" font-family="Times,serif" font-size="14.00">zcash/librustzcash#1360</text>
<text text-anchor="middle" x="575" y="-495.8" font-family="Times,serif" font-size="14.00">Transaction builder</text>
<text text-anchor="middle" x="575" y="-480.8" font-family="Times,serif" font-size="14.00">support for spending</text>
<text text-anchor="middle" x="575" y="-465.8" font-family="Times,serif" font-size="14.00">(almost) arbitrary</text>
<text text-anchor="middle" x="575" y="-450.8" font-family="Times,serif" font-size="14.00">transparent inputs.</text>
</a>
</g>
</g>
<!-- zcash/librustzcash#1362&#45;&gt;zcash/librustzcash#1360 -->
<g id="edge17" class="edge">
<title>zcash/librustzcash#1362&#45;&gt;zcash/librustzcash#1360</title>
<path fill="none" stroke="black" d="M433.54,-461.53C444.46,-463.32 455.62,-465.14 466.65,-466.95"/>
<polygon fill="black" stroke="black" points="466.3,-470.44 476.73,-468.59 467.42,-463.53 466.3,-470.44"/>
</g>
<!-- zcash/librustzcash#1360&#45;&gt;zcash/librustzcash#1370 -->
<g id="edge18" class="edge">
<title>zcash/librustzcash#1360&#45;&gt;zcash/librustzcash#1370</title>
<path fill="none" stroke="black" d="M673.18,-484.5C684.84,-484.5 696.8,-484.5 708.61,-484.5"/>
<polygon fill="black" stroke="black" points="708.94,-488 718.94,-484.5 708.94,-481 708.94,-488"/>
</g>
<!-- zcash/librustzcash#1368 -->
<g id="node15" class="node open">
<title>zcash/librustzcash#1368</title>
<g id="a_node15"><a xlink:href="https://github.com/zcash/librustzcash/issues/1368" xlink:title="zcash/librustzcash#1368&#10;zcash_client_backend:&#10;Introduce (initially&#10;internal) &quot;sync API&quot;&#10;between the scanning and&#10;wallet parts of&#10;`scan_cached_blocks`" target="_blank">
<polygon fill="#c2e0c6" stroke="black" points="920.5,-1139 716.5,-1139 716.5,-1026 920.5,-1026 920.5,-1139"/>
<text text-anchor="middle" x="818.5" y="-1123.8" font-family="Times,serif" font-size="14.00">zcash/librustzcash#1368</text>
<text text-anchor="middle" x="818.5" y="-1108.8" font-family="Times,serif" font-size="14.00">zcash_client_backend:</text>
<text text-anchor="middle" x="818.5" y="-1093.8" font-family="Times,serif" font-size="14.00">Introduce (initially</text>
<text text-anchor="middle" x="818.5" y="-1078.8" font-family="Times,serif" font-size="14.00">internal) &quot;sync API&quot;</text>
<text text-anchor="middle" x="818.5" y="-1063.8" font-family="Times,serif" font-size="14.00">between the scanning and</text>
<text text-anchor="middle" x="818.5" y="-1048.8" font-family="Times,serif" font-size="14.00">wallet parts of</text>
<text text-anchor="middle" x="818.5" y="-1033.8" font-family="Times,serif" font-size="14.00">`scan_cached_blocks`</text>
</a>
</g>
</g>
<!-- zcash/librustzcash#1368&#45;&gt;zcash/librustzcash#1349 -->
<g id="edge19" class="edge">
<title>zcash/librustzcash#1368&#45;&gt;zcash/librustzcash#1349</title>
<path fill="none" stroke="black" d="M914.21,-1026C917.31,-1022.9 920.26,-1019.8 923,-1016.5 990.49,-936.23 1027.8,-816.87 1044.7,-749.22"/>
<polygon fill="black" stroke="black" points="1048.17,-749.77 1047.2,-739.22 1041.38,-748.07 1048.17,-749.77"/>
</g>
<!-- zcash/zcash#6873 -->
<g id="node16" class="node open">
<title>zcash/zcash#6873</title>
<g id="a_node16"><a xlink:href="https://github.com/zcash/zcash/issues/6873" xlink:title="zcash/zcash#6873&#10;Enumerate the data /&#10;state that needs to be&#10;migrated from&#10;`wallet.dat` to a future&#10;full node wallet" target="_blank">
<polygon fill="#c2e0c6" stroke="black" stroke-width="2" points="425.5,-1247.5 243.5,-1247.5 243.5,-1149.5 425.5,-1149.5 425.5,-1247.5"/>
<text text-anchor="middle" x="334.5" y="-1232.3" font-family="Times,serif" font-size="14.00">zcash/zcash#6873</text>
<text text-anchor="middle" x="334.5" y="-1217.3" font-family="Times,serif" font-size="14.00">Enumerate the data /</text>
<text text-anchor="middle" x="334.5" y="-1202.3" font-family="Times,serif" font-size="14.00">state that needs to be</text>
<text text-anchor="middle" x="334.5" y="-1187.3" font-family="Times,serif" font-size="14.00">migrated from</text>
<text text-anchor="middle" x="334.5" y="-1172.3" font-family="Times,serif" font-size="14.00">`wallet.dat` to a future</text>
<text text-anchor="middle" x="334.5" y="-1157.3" font-family="Times,serif" font-size="14.00">full node wallet</text>
</a>
</g>
</g>
<!-- zcash/zcash#6873&#45;&gt;zcash/zips#821 -->
<g id="edge20" class="edge">
<title>zcash/zcash#6873&#45;&gt;zcash/zips#821</title>
<path fill="none" stroke="black" d="M425.67,-1198.5C439.92,-1198.5 454.77,-1198.5 469.32,-1198.5"/>
<polygon fill="black" stroke="black" points="469.33,-1202 479.33,-1198.5 469.33,-1195 469.33,-1202"/>
</g>
<!-- zcash/zcash#5796 -->
<g id="node17" class="node open">
<title>zcash/zcash#5796</title>
<g id="a_node17"><a xlink:href="https://github.com/zcash/zcash/issues/5796" xlink:title="zcash/zcash#5796&#10;Add ability to restore&#10;the zcashd wallet from&#10;the emergency recovery&#10;phrase (mnemonic seed)." target="_blank">
<polygon fill="#c2e0c6" stroke="black" points="673,-184 477,-184 477,-101 673,-101 673,-184"/>
<text text-anchor="middle" x="575" y="-168.8" font-family="Times,serif" font-size="14.00">zcash/zcash#5796</text>
<text text-anchor="middle" x="575" y="-153.8" font-family="Times,serif" font-size="14.00">Add ability to restore</text>
<text text-anchor="middle" x="575" y="-138.8" font-family="Times,serif" font-size="14.00">the zcashd wallet from</text>
<text text-anchor="middle" x="575" y="-123.8" font-family="Times,serif" font-size="14.00">the emergency recovery</text>
<text text-anchor="middle" x="575" y="-108.8" font-family="Times,serif" font-size="14.00">phrase (mnemonic seed).</text>
</a>
</g>
</g>
<!-- zcash/librustzcash#1361 -->
<g id="node18" class="node open">
<title>zcash/librustzcash#1361</title>
<g id="a_node18"><a xlink:href="https://github.com/zcash/librustzcash/issues/1361" xlink:title="zcash/librustzcash#1361&#10;`zcash_client_backend`:&#10;Add support for full&#10;transparent coin&#10;tracking." target="_blank">
<polygon fill="#c2e0c6" stroke="black" points="673,-627 477,-627 477,-544 673,-544 673,-627"/>
<text text-anchor="middle" x="575" y="-611.8" font-family="Times,serif" font-size="14.00">zcash/librustzcash#1361</text>
<text text-anchor="middle" x="575" y="-596.8" font-family="Times,serif" font-size="14.00">`zcash_client_backend`:</text>
<text text-anchor="middle" x="575" y="-581.8" font-family="Times,serif" font-size="14.00">Add support for full</text>
<text text-anchor="middle" x="575" y="-566.8" font-family="Times,serif" font-size="14.00">transparent coin</text>
<text text-anchor="middle" x="575" y="-551.8" font-family="Times,serif" font-size="14.00">tracking.</text>
</a>
</g>
</g>
<!-- zcash/librustzcash#1361&#45;&gt;zcash/librustzcash#1353 -->
<g id="edge21" class="edge">
<title>zcash/librustzcash#1361&#45;&gt;zcash/librustzcash#1353</title>
<path fill="none" stroke="black" d="M673.18,-588.72C684.22,-589.08 695.53,-589.46 706.73,-589.83"/>
<polygon fill="black" stroke="black" points="706.86,-593.34 716.97,-590.17 707.09,-586.34 706.86,-593.34"/>
</g>
<!-- zcash/librustzcash#1361&#45;&gt;zcash/librustzcash#1370 -->
<g id="edge22" class="edge">
<title>zcash/librustzcash#1361&#45;&gt;zcash/librustzcash#1370</title>
<path fill="none" stroke="black" d="M673.18,-544.86C685.19,-539.83 697.53,-534.67 709.69,-529.59"/>
<polygon fill="black" stroke="black" points="711.07,-532.81 718.94,-525.72 708.36,-526.35 711.07,-532.81"/>
</g>
<!-- zcash/librustzcash#1364 -->
<g id="node19" class="node open">
<title>zcash/librustzcash#1364</title>
<g id="a_node19"><a xlink:href="https://github.com/zcash/librustzcash/issues/1364" xlink:title="zcash/librustzcash#1364&#10;Consider whether we&#10;provide drop&#45;in support&#10;for at least some&#10;`zcashd` RPC APIs." target="_blank">
<polygon fill="#c2e0c6" stroke="black" points="673,-875 477,-875 477,-792 673,-792 673,-875"/>
<text text-anchor="middle" x="575" y="-859.8" font-family="Times,serif" font-size="14.00">zcash/librustzcash#1364</text>
<text text-anchor="middle" x="575" y="-844.8" font-family="Times,serif" font-size="14.00">Consider whether we</text>
<text text-anchor="middle" x="575" y="-829.8" font-family="Times,serif" font-size="14.00">provide drop&#45;in support</text>
<text text-anchor="middle" x="575" y="-814.8" font-family="Times,serif" font-size="14.00">for at least some</text>
<text text-anchor="middle" x="575" y="-799.8" font-family="Times,serif" font-size="14.00">`zcashd` RPC APIs.</text>
</a>
</g>
</g>
<!-- zcash/librustzcash#1364&#45;&gt;zcash/librustzcash#1369 -->
<g id="edge23" class="edge">
<title>zcash/librustzcash#1364&#45;&gt;zcash/librustzcash#1369</title>
<path fill="none" stroke="black" d="M673.18,-824.65C683.21,-823.73 693.46,-822.8 703.65,-821.87"/>
<polygon fill="black" stroke="black" points="704.16,-825.34 713.8,-820.95 703.52,-818.37 704.16,-825.34"/>
</g>
<!-- zcash/zcash#4099 -->
<g id="node20" class="node open">
<title>zcash/zcash#4099</title>
<g id="a_node20"><a xlink:href="https://github.com/zcash/zcash/issues/4099" xlink:title="zcash/zcash#4099&#10;Investigate the&#10;distribution of P2SH&#10;scripts" target="_blank">
<polygon fill="#c2e0c6" stroke="black" stroke-width="2" points="180.5,-533.5 16.5,-533.5 16.5,-465.5 180.5,-465.5 180.5,-533.5"/>
<text text-anchor="middle" x="98.5" y="-518.3" font-family="Times,serif" font-size="14.00">zcash/zcash#4099</text>
<text text-anchor="middle" x="98.5" y="-503.3" font-family="Times,serif" font-size="14.00">Investigate the</text>
<text text-anchor="middle" x="98.5" y="-488.3" font-family="Times,serif" font-size="14.00">distribution of P2SH</text>
<text text-anchor="middle" x="98.5" y="-473.3" font-family="Times,serif" font-size="14.00">scripts</text>
</a>
</g>
</g>
<!-- zcash/zcash#4099&#45;&gt;zcash/librustzcash#1362 -->
<g id="edge24" class="edge">
<title>zcash/zcash#4099&#45;&gt;zcash/librustzcash#1362</title>
<path fill="none" stroke="black" d="M180.69,-480.76C195.09,-477.44 210.29,-473.93 225.3,-470.47"/>
<polygon fill="black" stroke="black" points="226.17,-473.86 235.12,-468.2 224.59,-467.04 226.17,-473.86"/>
</g>
<!-- zcash/zcash#4099&#45;&gt;zcash/librustzcash#1360 -->
<g id="edge25" class="edge">
<title>zcash/zcash#4099&#45;&gt;zcash/librustzcash#1360</title>
<path fill="none" stroke="black" d="M180.53,-496.94C259.46,-494.44 379.92,-490.64 466.75,-487.89"/>
<polygon fill="black" stroke="black" points="467.03,-491.38 476.91,-487.57 466.8,-484.39 467.03,-491.38"/>
</g>
<!-- zcash/librustzcash#1367 -->
<g id="node21" class="node open">
<title>zcash/librustzcash#1367</title>
<g id="a_node21"><a xlink:href="https://github.com/zcash/librustzcash/issues/1367" xlink:title="zcash/librustzcash#1367&#10;Create a &quot;feathered&quot;&#10;wrapper around&#10;`shardtree` to enable&#10;tracking witnesses for&#10;multiple candidate chains" target="_blank">
<polygon fill="#c2e0c6" stroke="black" points="434.5,-1007.5 234.5,-1007.5 234.5,-909.5 434.5,-909.5 434.5,-1007.5"/>
<text text-anchor="middle" x="334.5" y="-992.3" font-family="Times,serif" font-size="14.00">zcash/librustzcash#1367</text>
<text text-anchor="middle" x="334.5" y="-977.3" font-family="Times,serif" font-size="14.00">Create a &quot;feathered&quot;</text>
<text text-anchor="middle" x="334.5" y="-962.3" font-family="Times,serif" font-size="14.00">wrapper around</text>
<text text-anchor="middle" x="334.5" y="-947.3" font-family="Times,serif" font-size="14.00">`shardtree` to enable</text>
<text text-anchor="middle" x="334.5" y="-932.3" font-family="Times,serif" font-size="14.00">tracking witnesses for</text>
<text text-anchor="middle" x="334.5" y="-917.3" font-family="Times,serif" font-size="14.00">multiple candidate chains</text>
</a>
</g>
</g>
<!-- zcash/librustzcash#1366 -->
<g id="node22" class="node open">
<title>zcash/librustzcash#1366</title>
<g id="a_node22"><a xlink:href="https://github.com/zcash/librustzcash/issues/1366" xlink:title="zcash/librustzcash#1366&#10;Enable wallets build with&#10;the&#10;`zcash_client_backend`&#10;APIs to track multiple&#10;candidate chain tips" target="_blank">
<polygon fill="#c2e0c6" stroke="black" points="917.5,-1007.5 719.5,-1007.5 719.5,-909.5 917.5,-909.5 917.5,-1007.5"/>
<text text-anchor="middle" x="818.5" y="-992.3" font-family="Times,serif" font-size="14.00">zcash/librustzcash#1366</text>
<text text-anchor="middle" x="818.5" y="-977.3" font-family="Times,serif" font-size="14.00">Enable wallets build with</text>
<text text-anchor="middle" x="818.5" y="-962.3" font-family="Times,serif" font-size="14.00">the</text>
<text text-anchor="middle" x="818.5" y="-947.3" font-family="Times,serif" font-size="14.00">`zcash_client_backend`</text>
<text text-anchor="middle" x="818.5" y="-932.3" font-family="Times,serif" font-size="14.00">APIs to track multiple</text>
<text text-anchor="middle" x="818.5" y="-917.3" font-family="Times,serif" font-size="14.00">candidate chain tips</text>
</a>
</g>
</g>
<!-- zcash/librustzcash#1367&#45;&gt;zcash/librustzcash#1366 -->
<g id="edge26" class="edge">
<title>zcash/librustzcash#1367&#45;&gt;zcash/librustzcash#1366</title>
<path fill="none" stroke="black" d="M434.79,-958.5C514.68,-958.5 626.8,-958.5 709.04,-958.5"/>
<polygon fill="black" stroke="black" points="709.17,-962 719.17,-958.5 709.17,-955 709.17,-962"/>
</g>
<!-- zcash/librustzcash#1366&#45;&gt;zcash/librustzcash#1349 -->
<g id="edge27" class="edge">
<title>zcash/librustzcash#1366&#45;&gt;zcash/librustzcash#1349</title>
<path fill="none" stroke="black" d="M906.6,-909.49C912.37,-905.04 917.91,-900.37 923,-895.5 968.26,-852.21 1006.5,-790.97 1030.2,-748.09"/>
<polygon fill="black" stroke="black" points="1033.31,-749.69 1035,-739.23 1027.16,-746.36 1033.31,-749.69"/>
</g>
<!-- zcash/librustzcash#1373 -->
<g id="node23" class="node open">
<title>zcash/librustzcash#1373</title>
<g id="a_node23"><a xlink:href="https://github.com/zcash/librustzcash/issues/1373" xlink:title="zcash/librustzcash#1373&#10;Agree on a sketch of the&#10;overall wallet&#10;architecture" target="_blank">
<polygon fill="#c2e0c6" stroke="black" stroke-width="2" points="196.5,-934.5 0.5,-934.5 0.5,-866.5 196.5,-866.5 196.5,-934.5"/>
<text text-anchor="middle" x="98.5" y="-919.3" font-family="Times,serif" font-size="14.00">zcash/librustzcash#1373</text>
<text text-anchor="middle" x="98.5" y="-904.3" font-family="Times,serif" font-size="14.00">Agree on a sketch of the</text>
<text text-anchor="middle" x="98.5" y="-889.3" font-family="Times,serif" font-size="14.00">overall wallet</text>
<text text-anchor="middle" x="98.5" y="-874.3" font-family="Times,serif" font-size="14.00">architecture</text>
</a>
</g>
</g>
<!-- zcash/librustzcash#1373&#45;&gt;zcash/librustzcash#1368 -->
<g id="edge28" class="edge">
<title>zcash/librustzcash#1373&#45;&gt;zcash/librustzcash#1368</title>
<path fill="none" stroke="black" d="M128.02,-934.71C152.76,-961.82 191.11,-998.1 233,-1016.5 387.03,-1084.2 584.87,-1092.1 706.35,-1089.1"/>
<polygon fill="black" stroke="black" points="706.52,-1092.6 716.41,-1088.8 706.31,-1085.6 706.52,-1092.6"/>
</g>
<!-- zcash/librustzcash#1373&#45;&gt;zcash/librustzcash#1361 -->
<g id="edge29" class="edge">
<title>zcash/librustzcash#1373&#45;&gt;zcash/librustzcash#1361</title>
<path fill="none" stroke="black" d="M135.57,-866.34C161.71,-842.3 198.39,-810 233,-784.5 333.59,-710.4 362.9,-697.39 472,-636.5 474.72,-634.98 477.49,-633.46 480.3,-631.93"/>
<polygon fill="black" stroke="black" points="482.2,-634.88 489.36,-627.07 478.89,-628.71 482.2,-634.88"/>
</g>
<!-- zcash/librustzcash#1373&#45;&gt;zcash/librustzcash#1367 -->
<g id="edge30" class="edge">
<title>zcash/librustzcash#1373&#45;&gt;zcash/librustzcash#1367</title>
<path fill="none" stroke="black" d="M196.7,-924.59C205.83,-926.86 215.13,-929.16 224.36,-931.45"/>
<polygon fill="black" stroke="black" points="223.79,-934.91 234.34,-933.92 225.47,-928.12 223.79,-934.91"/>
</g>
<!-- zcash/librustzcash#1351 -->
<g id="node24" class="node open">
<title>zcash/librustzcash#1351</title>
<g id="a_node24"><a xlink:href="https://github.com/zcash/librustzcash/issues/1351" xlink:title="zcash/librustzcash#1351&#10;Wrap the&#10;`zcash_client_backend`&#10;sync engine as a stateful&#10;wallet service&#10;application." target="_blank">
<polygon fill="#c2e0c6" stroke="black" points="432.5,-891.5 236.5,-891.5 236.5,-793.5 432.5,-793.5 432.5,-891.5"/>
<text text-anchor="middle" x="334.5" y="-876.3" font-family="Times,serif" font-size="14.00">zcash/librustzcash#1351</text>
<text text-anchor="middle" x="334.5" y="-861.3" font-family="Times,serif" font-size="14.00">Wrap the</text>
<text text-anchor="middle" x="334.5" y="-846.3" font-family="Times,serif" font-size="14.00">`zcash_client_backend`</text>
<text text-anchor="middle" x="334.5" y="-831.3" font-family="Times,serif" font-size="14.00">sync engine as a stateful</text>
<text text-anchor="middle" x="334.5" y="-816.3" font-family="Times,serif" font-size="14.00">wallet service</text>
<text text-anchor="middle" x="334.5" y="-801.3" font-family="Times,serif" font-size="14.00">application.</text>
</a>
</g>
</g>
<!-- zcash/librustzcash#1373&#45;&gt;zcash/librustzcash#1351 -->
<g id="edge31" class="edge">
<title>zcash/librustzcash#1373&#45;&gt;zcash/librustzcash#1351</title>
<path fill="none" stroke="black" d="M196.7,-876.41C206.5,-873.98 216.48,-871.5 226.37,-869.05"/>
<polygon fill="black" stroke="black" points="227.35,-872.41 236.22,-866.61 225.67,-865.62 227.35,-872.41"/>
</g>
<!-- zcash/librustzcash#1351&#45;&gt;zcash/librustzcash#1349 -->
<g id="edge32" class="edge">
<title>zcash/librustzcash#1351&#45;&gt;zcash/librustzcash#1349</title>
<path fill="none" stroke="black" d="M432.73,-876.26C445.79,-879.66 459.13,-882.56 472,-884.5 571.23,-899.42 834.51,-909.81 923,-862.5 970.61,-837.05 1007.3,-786.56 1030,-748.1"/>
<polygon fill="black" stroke="black" points="1033.22,-749.52 1035.2,-739.11 1027.16,-746.01 1033.22,-749.52"/>
</g>
<!-- zcash/librustzcash#1351&#45;&gt;zcash/librustzcash#1364 -->
<g id="edge33" class="edge">
<title>zcash/librustzcash#1351&#45;&gt;zcash/librustzcash#1364</title>
<path fill="none" stroke="black" d="M432.51,-838.84C443.66,-838.42 455.09,-837.99 466.38,-837.56"/>
<polygon fill="black" stroke="black" points="466.83,-841.05 476.69,-837.17 466.56,-834.05 466.83,-841.05"/>
</g>
<!-- zcash/librustzcash#1074 -->
<g id="node25" class="node open">
<title>zcash/librustzcash#1074</title>
<g id="a_node25"><a xlink:href="https://github.com/zcash/librustzcash/issues/1074" xlink:title="zcash/librustzcash#1074&#10;Transparent input details&#10;should be retrieved with&#10;transactions on account&#10;recovery" target="_blank">
<polygon fill="#c2e0c6" stroke="black" stroke-width="2" points="918,-300 719,-300 719,-217 918,-217 918,-300"/>
<text text-anchor="middle" x="818.5" y="-284.8" font-family="Times,serif" font-size="14.00">zcash/librustzcash#1074</text>
<text text-anchor="middle" x="818.5" y="-269.8" font-family="Times,serif" font-size="14.00">Transparent input details</text>
<text text-anchor="middle" x="818.5" y="-254.8" font-family="Times,serif" font-size="14.00">should be retrieved with</text>
<text text-anchor="middle" x="818.5" y="-239.8" font-family="Times,serif" font-size="14.00">transactions on account</text>
<text text-anchor="middle" x="818.5" y="-224.8" font-family="Times,serif" font-size="14.00">recovery</text>
</a>
</g>
</g>
<!-- zcash/librustzcash#1074&#45;&gt;zcash/librustzcash#1349 -->
<g id="edge34" class="edge">
<title>zcash/librustzcash#1074&#45;&gt;zcash/librustzcash#1349</title>
<path fill="none" stroke="black" d="M908.34,-300.25C913.67,-304.62 918.63,-309.36 923,-314.5 1006.3,-412.53 1038.5,-565.84 1050,-645.5"/>
<polygon fill="black" stroke="black" points="1046.59,-646.39 1051.5,-655.78 1053.52,-645.38 1046.59,-646.39"/>
</g>
<!-- zcash/librustzcash#1363 -->
<g id="node26" class="node open">
<title>zcash/librustzcash#1363</title>
<g id="a_node26"><a xlink:href="https://github.com/zcash/librustzcash/issues/1363" xlink:title="zcash/librustzcash#1363&#10;Enumerate the&#10;capabilities exposed by&#10;zcashd APIs for spending&#10;transparent coins." target="_blank">
<polygon fill="#c2e0c6" stroke="black" stroke-width="2" points="197,-672 0,-672 0,-589 197,-589 197,-672"/>
<text text-anchor="middle" x="98.5" y="-656.8" font-family="Times,serif" font-size="14.00">zcash/librustzcash#1363</text>
<text text-anchor="middle" x="98.5" y="-641.8" font-family="Times,serif" font-size="14.00">Enumerate the</text>
<text text-anchor="middle" x="98.5" y="-626.8" font-family="Times,serif" font-size="14.00">capabilities exposed by</text>
<text text-anchor="middle" x="98.5" y="-611.8" font-family="Times,serif" font-size="14.00">zcashd APIs for spending</text>
<text text-anchor="middle" x="98.5" y="-596.8" font-family="Times,serif" font-size="14.00">transparent coins.</text>
</a>
</g>
</g>
<!-- zcash/librustzcash#1363&#45;&gt;zcash/librustzcash#1350 -->
<g id="edge35" class="edge">
<title>zcash/librustzcash#1363&#45;&gt;zcash/librustzcash#1350</title>
<path fill="none" stroke="black" d="M197.24,-646.77C274.77,-659.68 383.13,-677.72 463.75,-691.14"/>
<polygon fill="black" stroke="black" points="463.49,-694.64 473.93,-692.84 464.64,-687.74 463.49,-694.64"/>
</g>
<!-- zcash/librustzcash#1363&#45;&gt;zcash/librustzcash#1362 -->
<g id="edge36" class="edge">
<title>zcash/librustzcash#1363&#45;&gt;zcash/librustzcash#1362</title>
<path fill="none" stroke="black" d="M152.01,-588.98C190.89,-558.25 243.57,-516.6 282.16,-486.09"/>
<polygon fill="black" stroke="black" points="284.49,-488.71 290.17,-479.76 280.15,-483.21 284.49,-488.71"/>
</g>
<!-- zcash/librustzcash#1363&#45;&gt;zcash/librustzcash#1360 -->
<g id="edge37" class="edge">
<title>zcash/librustzcash#1363&#45;&gt;zcash/librustzcash#1360</title>
<path fill="none" stroke="black" d="M197.24,-600.43C275.84,-576.24 386.13,-542.31 467.07,-517.4"/>
<polygon fill="black" stroke="black" points="468.26,-520.7 476.79,-514.41 466.2,-514 468.26,-520.7"/>
</g>
<!-- zcash/librustzcash#1363&#45;&gt;zcash/librustzcash#1364 -->
<g id="edge38" class="edge">
<title>zcash/librustzcash#1363&#45;&gt;zcash/librustzcash#1364</title>
<path fill="none" stroke="black" d="M196.67,-672.07C275.51,-705.8 386.51,-753.29 467.71,-788.03"/>
<polygon fill="black" stroke="black" points="466.39,-791.27 476.96,-791.99 469.14,-784.84 466.39,-791.27"/>
</g>
<!-- zcash/librustzcash#1372 -->
<g id="node27" class="node open">
<title>zcash/librustzcash#1372</title>
<g id="a_node27"><a xlink:href="https://github.com/zcash/librustzcash/issues/1372" xlink:title="zcash/librustzcash#1372&#10;`zcash_primitives::legacy&#10;`: Enhance transparent&#10;`Script` support as&#10;necessary" target="_blank">
<polygon fill="#c2e0c6" stroke="black" stroke-width="2" points="197,-440 0,-440 0,-357 197,-357 197,-440"/>
<text text-anchor="middle" x="98.5" y="-424.8" font-family="Times,serif" font-size="14.00">zcash/librustzcash#1372</text>
<text text-anchor="middle" x="98.5" y="-409.8" font-family="Times,serif" font-size="14.00">`zcash_primitives::legacy</text>
<text text-anchor="middle" x="98.5" y="-394.8" font-family="Times,serif" font-size="14.00">`: Enhance transparent</text>
<text text-anchor="middle" x="98.5" y="-379.8" font-family="Times,serif" font-size="14.00">`Script` support as</text>
<text text-anchor="middle" x="98.5" y="-364.8" font-family="Times,serif" font-size="14.00">necessary</text>
</a>
</g>
</g>
<!-- zcash/librustzcash#1372&#45;&gt;zcash/librustzcash#1371 -->
<g id="edge39" class="edge">
<title>zcash/librustzcash#1372&#45;&gt;zcash/librustzcash#1371</title>
<path fill="none" stroke="black" d="M197.24,-395.41C275.03,-392.95 383.86,-389.51 464.56,-386.96"/>
<polygon fill="black" stroke="black" points="464.86,-390.45 474.75,-386.64 464.65,-383.46 464.86,-390.45"/>
</g>
<!-- zcash/librustzcash#1372&#45;&gt;zcash/librustzcash#1362 -->
<g id="edge40" class="edge">
<title>zcash/librustzcash#1372&#45;&gt;zcash/librustzcash#1362</title>
<path fill="none" stroke="black" d="M197.04,-418.09C206.44,-419.98 216.02,-421.9 225.51,-423.81"/>
<polygon fill="black" stroke="black" points="224.87,-427.25 235.36,-425.79 226.25,-420.39 224.87,-427.25"/>
</g>
<!-- zcash/zips#675 -->
<g id="node28" class="node open">
<title>zcash/zips#675</title>
<g id="a_node28"><a xlink:href="https://github.com/zcash/zips/issues/675" xlink:title="zcash/zips#675&#10;[ZIP 332] Wallet Recovery&#10;from zcashd HD Seeds" target="_blank">
<polygon fill="#c2e0c6" stroke="black" stroke-width="2" points="436,-169 233,-169 233,-116 436,-116 436,-169"/>
<text text-anchor="middle" x="334.5" y="-153.8" font-family="Times,serif" font-size="14.00">zcash/zips#675</text>
<text text-anchor="middle" x="334.5" y="-138.8" font-family="Times,serif" font-size="14.00">[ZIP 332] Wallet Recovery</text>
<text text-anchor="middle" x="334.5" y="-123.8" font-family="Times,serif" font-size="14.00">from zcashd HD Seeds</text>
</a>
</g>
</g>
<!-- zcash/zips#675&#45;&gt;zcash/librustzcash#1348 -->
<g id="edge41" class="edge">
<title>zcash/zips#675&#45;&gt;zcash/librustzcash#1348</title>
<path fill="none" stroke="black" d="M398.16,-169.04C419.12,-177.91 443.11,-188.07 466.5,-197.97"/>
<polygon fill="black" stroke="black" points="465.2,-201.22 475.77,-201.9 467.93,-194.77 465.2,-201.22"/>
</g>
<!-- zcash/zips#675&#45;&gt;zcash/zcash#5796 -->
<g id="edge42" class="edge">
<title>zcash/zips#675&#45;&gt;zcash/zcash#5796</title>
<path fill="none" stroke="black" d="M436.3,-142.5C446.41,-142.5 456.7,-142.5 466.86,-142.5"/>
<polygon fill="black" stroke="black" points="466.98,-146 476.98,-142.5 466.98,-139 466.98,-146"/>
</g>
<!-- zcash/zcash#6453 -->
<g id="node29" class="node open">
<title>zcash/zcash#6453</title>
<g id="a_node29"><a xlink:href="https://github.com/zcash/zcash/issues/6453" xlink:title="zcash/zcash#6453&#10;Provide a wallet upgrade&#10;path that moves funds&#10;held by legacy keys into&#10;a unified account." target="_blank">
<polygon fill="#c2e0c6" stroke="black" points="673,-83 477,-83 477,0 673,0 673,-83"/>
<text text-anchor="middle" x="575" y="-67.8" font-family="Times,serif" font-size="14.00">zcash/zcash#6453</text>
<text text-anchor="middle" x="575" y="-52.8" font-family="Times,serif" font-size="14.00">Provide a wallet upgrade</text>
<text text-anchor="middle" x="575" y="-37.8" font-family="Times,serif" font-size="14.00">path that moves funds</text>
<text text-anchor="middle" x="575" y="-22.8" font-family="Times,serif" font-size="14.00">held by legacy keys into</text>
<text text-anchor="middle" x="575" y="-7.8" font-family="Times,serif" font-size="14.00">a unified account.</text>
</a>
</g>
</g>
<!-- zcash/zips#675&#45;&gt;zcash/zcash#6453 -->
<g id="edge43" class="edge">
<title>zcash/zips#675&#45;&gt;zcash/zcash#6453</title>
<path fill="none" stroke="black" d="M398.16,-115.96C419.36,-106.99 443.67,-96.69 467.31,-86.68"/>
<polygon fill="black" stroke="black" points="468.84,-89.84 476.68,-82.71 466.11,-83.39 468.84,-89.84"/>
</g>
</g>
</svg>
